<?xml version="1.0" encoding="UTF-8"?>
<svg version="1.1" xmlns="http://www.w3.org/2000/svg" width="512" height="512">
  <path d="M0 0 C1.02434452 -0.00453111 2.04868904 -0.00906223 3.1040743 -0.01373065 C6.51704604 -0.02633388 9.92985738 -0.02475693 13.34284973 -0.02310181 C15.79746708 -0.02908933 18.25208255 -0.03589539 20.70669556 -0.04345703 C26.6692153 -0.05926534 32.6316726 -0.06556402 38.59420749 -0.06668179 C43.44043838 -0.06763415 48.28665629 -0.0717538 53.13288307 -0.07808304 C66.88370445 -0.09567562 80.6344947 -0.10492423 94.38532742 -0.10342209 C95.12541135 -0.10334218 95.86549527 -0.10326227 96.62800598 -0.10317993 C97.73949146 -0.10305729 97.73949146 -0.10305729 98.87343118 -0.10293217 C110.89659854 -0.10211832 122.91964092 -0.12128612 134.94277211 -0.14945666 C147.29865052 -0.17817796 159.65446792 -0.1919976 172.01038057 -0.19026911 C178.94325538 -0.18960528 185.8759989 -0.19509553 192.80884361 -0.21662521 C199.32354601 -0.23672785 205.8380181 -0.23617134 212.35275078 -0.22159195 C214.74488988 -0.21949607 217.13704612 -0.22425081 219.52915573 -0.23631287 C222.79149489 -0.2516996 226.05286788 -0.24250016 229.31518555 -0.22705078 C230.26430649 -0.23733791 231.21342744 -0.24762503 232.19130963 -0.25822389 C238.99309386 -0.18690967 242.38793877 1.20828504 247.26789856 6.05648804 C247.76676575 6.66234741 248.26563293 7.26820679 248.77961731 7.89242554 C251.45563486 11.07056558 254.17705145 14.18840549 256.96711731 17.26742554 C260.23102579 20.88418899 263.4550268 24.53132162 266.65461731 28.20492554 C269.49981021 31.44255883 272.39565567 34.63428844 275.28352356 37.83383179 C277.17560416 39.942537 279.04617489 42.06662355 280.90461731 44.20492554 C283.71534256 47.43302066 286.58291631 50.60480996 289.46711731 53.76742554 C292.92039884 57.55405552 296.32810782 61.37218874 299.68977356 65.24008179 C301.76071218 67.60231727 303.86224579 69.93538407 305.96711731 72.26742554 C309.23102579 75.88418899 312.4550268 79.53132162 315.65461731 83.20492554 C317.73922895 85.57706982 319.85140375 87.92298619 321.96711731 90.26742554 C342.58972196 113.15816776 342.58972196 113.15816776 342.59575176 121.88172054 C342.59897621 123.05768101 342.60220065 124.23364147 342.60552281 125.4452371 C342.60397421 126.74345366 342.60242561 128.04167023 342.60083008 129.37922668 C342.60269741 130.76744669 342.6049978 132.15566617 342.6076954 133.54388481 C342.61383001 137.36767733 342.61367784 141.19144804 342.61250103 145.01524436 C342.61229742 149.13611749 342.61781207 153.25698354 342.62255859 157.37785339 C342.63087605 165.45676896 342.63361398 173.53567723 342.63417097 181.61459672 C342.63464585 188.18383664 342.63669919 194.75307415 342.6398716 201.32231331 C342.64868307 219.94788673 342.65329049 238.57345439 342.65254112 257.19902992 C342.65248119 258.70616334 342.65248119 258.70616334 342.65242004 260.2437439 C342.65237916 261.24972746 342.65233828 262.25571102 342.65229616 263.29217894 C342.6518901 279.57953805 342.6614483 295.866874 342.67555841 312.15422641 C342.68993261 328.87856451 342.69682794 345.60289133 342.69596463 362.32723576 C342.69563291 371.71621335 342.69836907 381.10516669 342.70914268 390.49413872 C342.71826167 398.49254925 342.72041165 406.49092455 342.71363326 414.48933803 C342.71037441 418.5677318 342.71028822 422.64605805 342.71898651 426.72444534 C342.72688121 430.46469949 342.72538994 434.20483291 342.71670238 437.94508422 C342.71445468 439.92536757 342.72197292 441.90565474 342.72994202 443.88592333 C342.65959232 462.2341084 337.94992022 479.59691661 325.33821106 493.48617554 C311.27850151 506.87078421 296.13062914 512.5916714 277.06968689 512.52812195 C275.84469258 512.5319475 274.61969827 512.53577304 273.35758293 512.53971452 C269.97860655 512.54821396 266.59984912 512.54782383 263.22087932 512.54353392 C259.56842974 512.54105881 255.91600532 512.55009057 252.26356506 512.55757141 C245.11625333 512.57029863 237.96897919 512.57211458 230.82165803 512.56977115 C225.01008238 512.56798563 219.19851811 512.56974263 213.38694382 512.57399559 C212.1446243 512.57488837 212.1446243 512.57488837 210.87720742 512.57579919 C209.19450427 512.57701099 207.51180112 512.57822512 205.82909797 512.57944157 C190.06072788 512.59030947 174.29237919 512.58815816 158.5240079 512.58205672 C144.11163031 512.5768881 129.69932031 512.58814291 115.28695609 512.60715494 C100.47327909 512.62654593 85.65963405 512.63478714 70.84594429 512.63103169 C62.53521937 512.62912158 54.22455198 512.6315887 45.91383743 512.64574623 C38.83888652 512.65767707 31.76402855 512.65904585 24.68907632 512.64695606 C21.08261606 512.64107933 17.47632567 512.63993432 13.86987686 512.65195847 C9.95267272 512.66486643 6.03572414 512.65432416 2.11851501 512.64164734 C0.98941086 512.64902162 -0.1396933 512.65639591 -1.30301273 512.66399366 C-17.75319061 512.55229941 -33.77643589 505.88462508 -45.53288269 494.26742554 C-60.47850317 477.35335749 -63.69017336 460.08338568 -63.66659546 438.35244751 C-63.66846498 436.7206739 -63.67076624 435.08890074 -63.67346078 433.45712829 C-63.67956779 428.98334209 -63.67944648 424.50957461 -63.67826641 420.0357852 C-63.67806212 415.20674572 -63.68358381 410.37771222 -63.68832397 405.54867554 C-63.69662506 396.09147509 -63.69937857 386.63428087 -63.69993635 377.17707708 C-63.70041177 369.48858221 -63.7024678 361.80008938 -63.70563698 354.11159515 C-63.71444207 332.30598601 -63.71905658 310.50038178 -63.7183065 288.69477084 C-63.71826655 287.5195965 -63.71822659 286.34442216 -63.71818542 285.13363647 C-63.71814454 283.95702476 -63.71810366 282.78041305 -63.71806154 281.56814644 C-63.71765511 262.50050029 -63.7272243 243.43287389 -63.74132379 224.36523345 C-63.7556919 204.77954591 -63.76259374 185.19386799 -63.76173002 165.60817504 C-63.7613982 154.6151914 -63.76413867 143.62222846 -63.77490807 132.62924957 C-63.78401878 123.26952358 -63.78618361 113.90982768 -63.77939864 104.55009916 C-63.77613634 99.77700782 -63.77606632 95.0039742 -63.78475189 90.23088837 C-63.79263055 85.85614458 -63.79117152 81.48150416 -63.78246776 77.10676286 C-63.78093578 75.52940949 -63.78273747 73.95204836 -63.78832784 72.37470415 C-63.85378488 52.58524366 -60.14177479 34.17809502 -46.40397644 19.04867554 C-33.11943045 6.40200962 -18.17762061 -0.05973905 0 0 Z M-24.53288269 29.26742554 C-25.83225769 30.10273804 -25.83225769 30.10273804 -27.15788269 30.95492554 C-36.87374542 40.41510767 -41.24452865 52.14928058 -41.6258167 65.52841616 C-41.66506087 69.63283784 -41.6711547 73.73617366 -41.66659546 77.84072876 C-41.66846507 79.43537918 -41.67076637 81.03002914 -41.67346078 82.62467837 C-41.67956665 86.99585053 -41.67944662 91.36700352 -41.67826641 95.73817897 C-41.67806209 100.45678803 -41.68358408 105.17539099 -41.68832397 109.89399719 C-41.69662443 119.13462645 -41.69937854 128.37524933 -41.69993635 137.61588201 C-41.7004118 145.12846155 -41.70246798 152.64103899 -41.70563698 160.15361786 C-41.7144419 181.46118927 -41.71905661 202.76875566 -41.7183065 224.0763289 C-41.71826655 225.22462028 -41.71822659 226.37291167 -41.71818542 227.55599976 C-41.71814454 228.70569594 -41.71810366 229.85539211 -41.71806154 231.03992757 C-41.71765512 249.67108338 -41.72722419 268.30221898 -41.74132379 286.93336895 C-41.75569264 306.07157162 -41.76259369 325.20976443 -41.76173002 344.34797263 C-41.76139822 355.08944537 -41.76413759 365.83089693 -41.77490807 376.57236481 C-41.78401975 385.71799388 -41.78618281 394.86359214 -41.77939864 404.00922379 C-41.77613683 408.67295124 -41.77606455 413.33661961 -41.78475189 418.00034142 C-41.79263273 422.27516318 -41.79116932 426.54987918 -41.78246776 430.82469842 C-41.78093626 432.36571287 -41.78273566 433.90673528 -41.78832784 435.44774035 C-41.84421781 451.95071771 -40.35437057 466.97197252 -28.50944519 479.52133179 C-18.70005803 488.18693665 -8.1297959 490.72421587 4.63676453 490.65510559 C6.43750402 490.6631839 6.43750402 490.6631839 8.27462208 490.6714254 C11.58528972 490.68320827 14.89545045 490.68165679 18.20609736 490.67425859 C21.78493855 490.66951236 25.36372669 490.6820496 28.94255066 490.692276 C35.94549695 490.70944116 42.94835341 490.71030874 49.95131527 490.7050631 C55.64561901 490.70101576 61.33989628 490.70247164 67.03419876 490.70781136 C67.8457596 490.70855978 68.65732045 490.7093082 69.49347404 490.7100793 C71.1423552 490.71161084 72.79123635 490.71314918 74.44011749 490.71469427 C89.89088739 490.72841115 105.34160661 490.72298742 120.79237534 490.71150906 C134.91378268 490.70157839 149.03505896 490.7145159 163.15644608 490.73844325 C177.67180704 490.762852 192.187107 490.7724377 206.70248806 490.76579052 C214.84555506 490.76230213 222.98852129 490.76450514 231.13157272 490.78204155 C238.06382 490.7967858 244.99589557 490.79737008 251.92813955 490.77997064 C255.46173734 490.77147629 258.99502868 490.76927225 262.52861023 490.78462219 C266.36706342 490.80108941 270.20504722 490.78628079 274.04350281 490.76863098 C275.14926127 490.77823599 276.25501974 490.78784099 277.39428604 490.79773706 C287.14174758 490.70579356 295.65485001 488.26288648 303.46711731 482.26742554 C304.45711731 481.54555054 305.44711731 480.82367554 306.46711731 480.07992554 C315.41392794 472.37442633 319.52468227 460.74850923 320.46711731 449.26742554 C320.60652431 444.8969331 320.59779589 440.52935711 320.58737183 436.1569519 C320.58822625 434.84337975 320.58908068 433.5298076 320.58996099 432.17643023 C320.59218906 428.54599028 320.58820784 424.91558002 320.58318293 421.28514385 C320.57885432 417.36432079 320.58032657 413.44349934 320.58108521 409.52267456 C320.58160891 402.73474228 320.57847811 395.94681963 320.57284737 389.15888977 C320.56471162 379.34474845 320.56211502 369.53061177 320.56085937 359.71646744 C320.55867212 343.79269563 320.55202087 327.86892894 320.54255676 311.94515991 C320.53337421 296.47901434 320.5262975 281.01287016 320.52204895 265.54672241 C320.52178623 264.59298562 320.5215235 263.63924882 320.52125282 262.65661091 C320.51994776 257.87187319 320.51868405 253.08713546 320.51744092 248.30239773 C320.50707846 208.62407007 320.48946901 168.94574814 320.46711731 129.26742554 C319.40524704 129.2615593 318.34337677 129.25569305 317.24932861 129.24964905 C307.22966688 129.19237242 297.21022115 129.11958487 287.19077969 129.03171062 C282.0399883 128.98703208 276.88927555 128.94777031 271.73835754 128.92098999 C266.76504492 128.89493206 261.79203532 128.85451179 256.8189106 128.80423927 C254.92400451 128.78758744 253.02904602 128.77606269 251.13407707 128.76981163 C248.47450563 128.76015226 245.81570648 128.73207118 243.15632629 128.69979858 C242.37732971 128.70123367 241.59833313 128.70266876 240.79573059 128.70414734 C235.65852947 128.61630299 232.01450915 127.71746553 227.46711731 125.26742554 C225.41695092 122.19217596 225.21452768 121.54498361 225.18864441 118.0723114 C225.17189919 116.79138107 225.17189919 116.79138107 225.15481567 115.48457336 C225.15265549 114.5509346 225.1504953 113.61729584 225.14826965 112.65536499 C225.13822403 111.66981628 225.12817841 110.68426758 225.11782837 109.66885376 C225.08689868 106.40614412 225.06993397 103.1435169 225.05305481 99.88070679 C225.03435104 97.62054226 225.01477823 95.36038476 224.99436951 93.10023499 C224.94295875 87.1474217 224.90338088 81.19458576 224.8662262 75.2416687 C224.82624259 69.16881666 224.77512454 63.09605962 224.72492981 57.02328491 C224.62806462 45.10473177 224.54369376 33.18612509 224.46711731 21.26742554 C195.62554469 21.1989044 166.78398171 21.14585356 137.94234364 21.11422955 C134.53295817 21.11047768 131.12357285 21.10659469 127.71418762 21.10263062 C127.03547518 21.10184368 126.35676274 21.10105675 125.65748325 21.10024597 C114.68540294 21.08721214 103.71337006 21.06356951 92.74131784 21.03596715 C81.47278064 21.00785654 70.20426703 20.99146172 58.93569303 20.98516005 C52.61059754 20.98125489 46.28560942 20.97209979 39.9605484 20.95023537 C34.00163865 20.92980443 28.04288005 20.92360513 22.0839386 20.92810249 C19.90234301 20.92728025 17.72074213 20.92135421 15.53917694 20.90980911 C0.96703269 20.83650384 -11.94247769 21.03022475 -24.53288269 29.26742554 Z M246.46711731 40.26742554 C246.46711731 62.37742554 246.46711731 84.48742554 246.46711731 107.26742554 C265.93711731 107.26742554 285.40711731 107.26742554 305.46711731 107.26742554 C303.90324568 104.13968228 303.02915203 102.57526057 300.74446106 100.20101929 C299.9440741 99.35809326 299.9440741 99.35809326 299.1275177 98.49813843 C298.27468201 97.61049805 298.27468201 97.61049805 297.40461731 96.70492554 C293.45091946 92.52607528 289.61474368 88.33500886 286.02961731 83.82992554 C281.22780718 77.82988182 275.9643714 72.30089628 270.69758606 66.71273804 C267.76001241 63.59308684 264.9102222 60.41079146 262.11164856 57.16586304 C260.04625905 54.78158916 257.94699803 52.42939959 255.84211731 50.07992554 C255.12797668 49.28199585 254.41383606 48.48406616 253.67805481 47.66195679 C251.34251985 45.13248165 248.90155441 42.70186264 246.46711731 40.26742554 Z " fill="#012cae" transform="translate(116.53288269042969,-0.267425537109375)" />
  <path d="M0 0 C10.5032231 6.73325744 17.14145816 15.74079069 20.25 27.9375 C22.4400182 40.51317152 20.14547991 52.21247263 12.88671875 62.7734375 C5.28990807 72.36164515 -4.88421075 78.81572008 -17.125 80.3125 C-28.77425401 81.47207352 -39.72121919 78.23566717 -49.125 71.3125 C-49.970625 70.755625 -50.81625 70.19875 -51.6875 69.625 C-60.32980011 61.42589476 -65.10661653 51.18054864 -65.54492188 39.2746582 C-65.65425283 26.29312627 -62.07742393 15.97170562 -53.2421875 6.23828125 C-38.51049453 -7.50931077 -17.4428913 -9.71402293 0 0 Z M-38.5625 23.6875 C-42.17037329 28.39472526 -43.69908253 33.1016067 -43.4921875 39.1015625 C-42.39833461 45.68795333 -39.25242874 50.94787603 -33.875 54.875 C-28.71019137 57.88994633 -23.94041065 59.06563506 -18.02734375 57.8984375 C-11.71991324 55.88103198 -7.08077652 51.96226174 -3.1875 46.6875 C-1.25017643 40.53364867 -1.26097199 34.17459279 -3.125 28 C-7.23361619 22.47904699 -12.18526986 17.64138449 -19.125 16.3125 C-26.77645083 15.44629802 -33.39393208 18.00207529 -38.5625 23.6875 Z " fill="#012cae" transform="translate(215.125,271.6875)" />
  <path d="M0 0 C8.81409626 7.56409716 14.44303855 17.94492224 15.484375 29.60546875 C15.62391254 43.62899173 12.66318247 54.06970055 3.1484375 64.84375 C-4.65394118 72.51608904 -16.04087108 76.89695016 -26.9140625 77.09375 C-39.12974713 76.91338419 -49.1239903 73.03173876 -58.140625 64.73828125 C-66.95381722 55.41346176 -71.43574639 44.33925629 -71.09765625 31.51171875 C-69.97841392 19.37771064 -65.17574523 9.15044324 -56.33203125 0.734375 C-39.38576527 -12.18214899 -17.18483681 -13.12498863 0 0 Z M-44.40625 20.9296875 C-48.68130355 26.5912449 -48.709737 33.03143694 -47.8515625 39.84375 C-45.6920624 45.49737687 -41.7862841 49.48813931 -36.8515625 52.84375 C-31.38432707 55.11316848 -26.51362868 55.42496246 -20.8515625 53.84375 C-14.25936583 50.93416482 -10.51318979 46.94796419 -7.66015625 40.36328125 C-6.00739384 35.2133694 -6.33596178 31.41768903 -8.0390625 26.21875 C-11.98933299 18.86307392 -15.85147589 15.28937233 -23.8515625 12.84375 C-32.49335048 11.78247779 -38.49171551 14.90511516 -44.40625 20.9296875 Z " fill="#012cae" transform="translate(347.8515625,275.15625)" />
  <path d="M0 0 C8.99586066 6.4371096 15.13234675 14.8993445 17.921875 25.6640625 C19.92492599 39.2447482 18.03983457 50.9586608 9.92578125 62.25390625 C2.42820419 71.82103242 -6.61688586 77.20190963 -18.75 78.8125 C-32.10858501 80.21610236 -43.55901914 76.52530457 -54.0625 68.0625 C-62.82822959 59.80704157 -67.44691022 48.06830478 -67.9375 36.1875 C-67.76841522 25.02790482 -63.69848594 14.13907302 -56.24609375 5.78125 C-40.327052 -9.22015275 -18.55873725 -11.29251978 0 0 Z M-40.6875 22.3125 C-44.61680615 27.61577922 -45.37076258 32.89664415 -45.140625 39.40625 C-44.24109733 45.17563437 -41.32691021 48.7550603 -37.1875 52.6875 C-31.20533751 56.57590562 -25.68587056 57.10799824 -18.6875 56.3125 C-12.13297266 54.23544864 -7.65912034 48.71802604 -4.3125 42.9375 C-2.7823166 36.51072971 -3.08108442 30.97828619 -6.3515625 25.16796875 C-9.62671479 20.61914613 -14.1633136 16.62778248 -19.6875 15.3125 C-27.87296277 14.45984763 -34.73296574 16.35796574 -40.6875 22.3125 Z " fill="#012cae" transform="translate(344.6875,166.6875)" />
  <path d="M0 0 C9.50640222 6.93710432 15.25488939 16.84901601 17.9140625 28.2109375 C19.34847069 42.26813775 15.91821944 54.40899862 7.0390625 65.4609375 C-0.99751059 74.23128465 -11.95705907 78.59089553 -23.6328125 79.265625 C-35.78095578 79.29584426 -46.53848958 75.50814857 -55.5859375 67.2734375 C-65.10556689 57.09489023 -68.28461924 45.20475383 -68.05078125 31.61328125 C-67.55884432 20.31341663 -61.61126384 10.69049034 -53.5859375 3.0234375 C-38.36003554 -9.90567586 -16.62610281 -10.35033442 0 0 Z M-41.1484375 22.7109375 C-44.96847028 27.62092528 -46.26360642 31.72777857 -46.078125 37.94140625 C-45.14156012 45.10972979 -41.03128063 49.41318197 -35.67578125 53.92578125 C-30.96982732 57.25956792 -25.28868411 56.80911809 -19.7734375 56.2734375 C-13.10758219 54.31289182 -9.21793048 50.3016865 -5.6640625 44.4453125 C-3.59296266 39.3947357 -4.02320345 33.13192418 -5.390625 27.921875 C-7.73308706 22.55286904 -11.72153232 19.12500117 -16.7734375 16.2734375 C-26.11994815 13.25606005 -34.60398042 15.45340398 -41.1484375 22.7109375 Z " fill="#012cae" transform="translate(217.7734375,166.7265625)" />
</svg>