<?xml version="1.0" encoding="UTF-8"?>
<svg version="1.1" xmlns="http://www.w3.org/2000/svg" width="512" height="512">
<path d="M0 0 C1.02434452 -0.00453111 2.04868904 -0.00906223 3.1040743 -0.01373065 C6.51704604 -0.02633388 9.92985738 -0.02475693 13.34284973 -0.02310181 C15.79746708 -0.02908933 18.25208255 -0.03589539 20.70669556 -0.04345703 C26.6692153 -0.05926534 32.6316726 -0.06556402 38.59420749 -0.06668179 C43.44043838 -0.06763415 48.28665629 -0.0717538 53.13288307 -0.07808304 C66.88370445 -0.09567562 80.6344947 -0.10492423 94.38532742 -0.10342209 C95.12541135 -0.10334218 95.86549527 -0.10326227 96.62800598 -0.10317993 C97.73949146 -0.10305729 97.73949146 -0.10305729 98.87343118 -0.10293217 C110.89659854 -0.10211832 122.91964092 -0.12128612 134.94277211 -0.14945666 C147.29865052 -0.17817796 159.65446792 -0.1919976 172.01038057 -0.19026911 C178.94325538 -0.18960528 185.8759989 -0.19509553 192.80884361 -0.21662521 C199.32354601 -0.23672785 205.8380181 -0.23617134 212.35275078 -0.22159195 C214.74488988 -0.21949607 217.13704612 -0.22425081 219.52915573 -0.23631287 C222.79149489 -0.2516996 226.05286788 -0.24250016 229.31518555 -0.22705078 C230.26430649 -0.23733791 231.21342744 -0.24762503 232.19130963 -0.25822389 C238.99309386 -0.18690967 242.38793877 1.20828504 247.26789856 6.05648804 C247.76676575 6.66234741 248.26563293 7.26820679 248.77961731 7.89242554 C251.45563486 11.07056558 254.17705145 14.18840549 256.96711731 17.26742554 C260.23102579 20.88418899 263.4550268 24.53132162 266.65461731 28.20492554 C269.49981021 31.44255883 272.39565567 34.63428844 275.28352356 37.83383179 C277.17560416 39.942537 279.04617489 42.06662355 280.90461731 44.20492554 C283.71534256 47.43302066 286.58291631 50.60480996 289.46711731 53.76742554 C292.92039884 57.55405552 296.32810782 61.37218874 299.68977356 65.24008179 C301.76071218 67.60231727 303.86224579 69.93538407 305.96711731 72.26742554 C309.23102579 75.88418899 312.4550268 79.53132162 315.65461731 83.20492554 C317.73922895 85.57706982 319.85140375 87.92298619 321.96711731 90.26742554 C342.58972196 113.15816776 342.58972196 113.15816776 342.59575176 121.88172054 C342.59897621 123.05768101 342.60220065 124.23364147 342.60552281 125.4452371 C342.60397421 126.74345366 342.60242561 128.04167023 342.60083008 129.37922668 C342.60269741 130.76744669 342.6049978 132.15566617 342.6076954 133.54388481 C342.61383001 137.36767733 342.61367784 141.19144804 342.61250103 145.01524436 C342.61229742 149.13611749 342.61781207 153.25698354 342.62255859 157.37785339 C342.63087605 165.45676896 342.63361398 173.53567723 342.63417097 181.61459672 C342.63464585 188.18383664 342.63669919 194.75307415 342.6398716 201.32231331 C342.64868307 219.94788673 342.65329049 238.57345439 342.65254112 257.19902992 C342.65248119 258.70616334 342.65248119 258.70616334 342.65242004 260.2437439 C342.65237916 261.24972746 342.65233828 262.25571102 342.65229616 263.29217894 C342.6518901 279.57953805 342.6614483 295.866874 342.67555841 312.15422641 C342.68993261 328.87856451 342.69682794 345.60289133 342.69596463 362.32723576 C342.69563291 371.71621335 342.69836907 381.10516669 342.70914268 390.49413872 C342.71826167 398.49254925 342.72041165 406.49092455 342.71363326 414.48933803 C342.71037441 418.5677318 342.71028822 422.64605805 342.71898651 426.72444534 C342.72688121 430.46469949 342.72538994 434.20483291 342.71670238 437.94508422 C342.71445468 439.92536757 342.72197292 441.90565474 342.72994202 443.88592333 C342.65959232 462.2341084 337.94992022 479.59691661 325.33821106 493.48617554 C311.27850151 506.87078421 296.13062914 512.5916714 277.06968689 512.52812195 C275.84469258 512.5319475 274.61969827 512.53577304 273.35758293 512.53971452 C269.97860655 512.54821396 266.59984912 512.54782383 263.22087932 512.54353392 C259.56842974 512.54105881 255.91600532 512.55009057 252.26356506 512.55757141 C245.11625333 512.57029863 237.96897919 512.57211458 230.82165803 512.56977115 C225.01008238 512.56798563 219.19851811 512.56974263 213.38694382 512.57399559 C212.1446243 512.57488837 212.1446243 512.57488837 210.87720742 512.57579919 C209.19450427 512.57701099 207.51180112 512.57822512 205.82909797 512.57944157 C190.06072788 512.59030947 174.29237919 512.58815816 158.5240079 512.58205672 C144.11163031 512.5768881 129.69932031 512.58814291 115.28695609 512.60715494 C100.47327909 512.62654593 85.65963405 512.63478714 70.84594429 512.63103169 C62.53521937 512.62912158 54.22455198 512.6315887 45.91383743 512.64574623 C38.83888652 512.65767707 31.76402855 512.65904585 24.68907632 512.64695606 C21.08261606 512.64107933 17.47632567 512.63993432 13.86987686 512.65195847 C9.95267272 512.66486643 6.03572414 512.65432416 2.11851501 512.64164734 C0.98941086 512.64902162 -0.1396933 512.65639591 -1.30301273 512.66399366 C-17.75319061 512.55229941 -33.77643589 505.88462508 -45.53288269 494.26742554 C-60.47850317 477.35335749 -63.69017336 460.08338568 -63.66659546 438.35244751 C-63.66846498 436.7206739 -63.67076624 435.08890074 -63.67346078 433.45712829 C-63.67956779 428.98334209 -63.67944648 424.50957461 -63.67826641 420.0357852 C-63.67806212 415.20674572 -63.68358381 410.37771222 -63.68832397 405.54867554 C-63.69662506 396.09147509 -63.69937857 386.63428087 -63.69993635 377.17707708 C-63.70041177 369.48858221 -63.7024678 361.80008938 -63.70563698 354.11159515 C-63.71444207 332.30598601 -63.71905658 310.50038178 -63.7183065 288.69477084 C-63.71826655 287.5195965 -63.71822659 286.34442216 -63.71818542 285.13363647 C-63.71814454 283.95702476 -63.71810366 282.78041305 -63.71806154 281.56814644 C-63.71765511 262.50050029 -63.7272243 243.43287389 -63.74132379 224.36523345 C-63.7556919 204.77954591 -63.76259374 185.19386799 -63.76173002 165.60817504 C-63.7613982 154.6151914 -63.76413867 143.62222846 -63.77490807 132.62924957 C-63.78401878 123.26952358 -63.78618361 113.90982768 -63.77939864 104.55009916 C-63.77613634 99.77700782 -63.77606632 95.0039742 -63.78475189 90.23088837 C-63.79263055 85.85614458 -63.79117152 81.48150416 -63.78246776 77.10676286 C-63.78093578 75.52940949 -63.78273747 73.95204836 -63.78832784 72.37470415 C-63.85378488 52.58524366 -60.14177479 34.17809502 -46.40397644 19.04867554 C-33.11943045 6.40200962 -18.17762061 -0.05973905 0 0 Z M-24.53288269 29.26742554 C-25.83225769 30.10273804 -25.83225769 30.10273804 -27.15788269 30.95492554 C-36.87374542 40.41510767 -41.24452865 52.14928058 -41.6258167 65.52841616 C-41.66506087 69.63283784 -41.6711547 73.73617366 -41.66659546 77.84072876 C-41.66846507 79.43537918 -41.67076637 81.03002914 -41.67346078 82.62467837 C-41.67956665 86.99585053 -41.67944662 91.36700352 -41.67826641 95.73817897 C-41.67806209 100.45678803 -41.68358408 105.17539099 -41.68832397 109.89399719 C-41.69662443 119.13462645 -41.69937854 128.37524933 -41.69993635 137.61588201 C-41.7004118 145.12846155 -41.70246798 152.64103899 -41.70563698 160.15361786 C-41.7144419 181.46118927 -41.71905661 202.76875566 -41.7183065 224.0763289 C-41.71826655 225.22462028 -41.71822659 226.37291167 -41.71818542 227.55599976 C-41.71814454 228.70569594 -41.71810366 229.85539211 -41.71806154 231.03992757 C-41.71765512 249.67108338 -41.72722419 268.30221898 -41.74132379 286.93336895 C-41.75569264 306.07157162 -41.76259369 325.20976443 -41.76173002 344.34797263 C-41.76139822 355.08944537 -41.76413759 365.83089693 -41.77490807 376.57236481 C-41.78401975 385.71799388 -41.78618281 394.86359214 -41.77939864 404.00922379 C-41.77613683 408.67295124 -41.77606455 413.33661961 -41.78475189 418.00034142 C-41.79263273 422.27516318 -41.79116932 426.54987918 -41.78246776 430.82469842 C-41.78093626 432.36571287 -41.78273566 433.90673528 -41.78832784 435.44774035 C-41.84421781 451.95071771 -40.35437057 466.97197252 -28.50944519 479.52133179 C-18.70005803 488.18693665 -8.1297959 490.72421587 4.63676453 490.65510559 C6.43750402 490.6631839 6.43750402 490.6631839 8.27462208 490.6714254 C11.58528972 490.68320827 14.89545045 490.68165679 18.20609736 490.67425859 C21.78493855 490.66951236 25.36372669 490.6820496 28.94255066 490.692276 C35.94549695 490.70944116 42.94835341 490.71030874 49.95131527 490.7050631 C55.64561901 490.70101576 61.33989628 490.70247164 67.03419876 490.70781136 C67.8457596 490.70855978 68.65732045 490.7093082 69.49347404 490.7100793 C71.1423552 490.71161084 72.79123635 490.71314918 74.44011749 490.71469427 C89.89088739 490.72841115 105.34160661 490.72298742 120.79237534 490.71150906 C134.91378268 490.70157839 149.03505896 490.7145159 163.15644608 490.73844325 C177.67180704 490.762852 192.187107 490.7724377 206.70248806 490.76579052 C214.84555506 490.76230213 222.98852129 490.76450514 231.13157272 490.78204155 C238.06382 490.7967858 244.99589557 490.79737008 251.92813955 490.77997064 C255.46173734 490.77147629 258.99502868 490.76927225 262.52861023 490.78462219 C266.36706342 490.80108941 270.20504722 490.78628079 274.04350281 490.76863098 C275.14926127 490.77823599 276.25501974 490.78784099 277.39428604 490.79773706 C287.14174758 490.70579356 295.65485001 488.26288648 303.46711731 482.26742554 C304.45711731 481.54555054 305.44711731 480.82367554 306.46711731 480.07992554 C315.41392794 472.37442633 319.52468227 460.74850923 320.46711731 449.26742554 C320.60652431 444.8969331 320.59779589 440.52935711 320.58737183 436.1569519 C320.58822625 434.84337975 320.58908068 433.5298076 320.58996099 432.17643023 C320.59218906 428.54599028 320.58820784 424.91558002 320.58318293 421.28514385 C320.57885432 417.36432079 320.58032657 413.44349934 320.58108521 409.52267456 C320.58160891 402.73474228 320.57847811 395.94681963 320.57284737 389.15888977 C320.56471162 379.34474845 320.56211502 369.53061177 320.56085937 359.71646744 C320.55867212 343.79269563 320.55202087 327.86892894 320.54255676 311.94515991 C320.53337421 296.47901434 320.5262975 281.01287016 320.52204895 265.54672241 C320.52178623 264.59298562 320.5215235 263.63924882 320.52125282 262.65661091 C320.51994776 257.87187319 320.51868405 253.08713546 320.51744092 248.30239773 C320.50707846 208.62407007 320.48946901 168.94574814 320.46711731 129.26742554 C319.40524704 129.2615593 318.34337677 129.25569305 317.24932861 129.24964905 C307.22966688 129.19237242 297.21022115 129.11958487 287.19077969 129.03171062 C282.0399883 128.98703208 276.88927555 128.94777031 271.73835754 128.92098999 C266.76504492 128.89493206 261.79203532 128.85451179 256.8189106 128.80423927 C254.92400451 128.78758744 253.02904602 128.77606269 251.13407707 128.76981163 C248.47450563 128.76015226 245.81570648 128.73207118 243.15632629 128.69979858 C242.37732971 128.70123367 241.59833313 128.70266876 240.79573059 128.70414734 C235.65852947 128.61630299 232.01450915 127.71746553 227.46711731 125.26742554 C225.41695092 122.19217596 225.21452768 121.54498361 225.18864441 118.0723114 C225.17189919 116.79138107 225.17189919 116.79138107 225.15481567 115.48457336 C225.15265549 114.5509346 225.1504953 113.61729584 225.14826965 112.65536499 C225.13822403 111.66981628 225.12817841 110.68426758 225.11782837 109.66885376 C225.08689868 106.40614412 225.06993397 103.1435169 225.05305481 99.88070679 C225.03435104 97.62054226 225.01477823 95.36038476 224.99436951 93.10023499 C224.94295875 87.1474217 224.90338088 81.19458576 224.8662262 75.2416687 C224.82624259 69.16881666 224.77512454 63.09605962 224.72492981 57.02328491 C224.62806462 45.10473177 224.54369376 33.18612509 224.46711731 21.26742554 C195.62554469 21.1989044 166.78398171 21.14585356 137.94234364 21.11422955 C134.53295817 21.11047768 131.12357285 21.10659469 127.71418762 21.10263062 C127.03547518 21.10184368 126.35676274 21.10105675 125.65748325 21.10024597 C114.68540294 21.08721214 103.71337006 21.06356951 92.74131784 21.03596715 C81.47278064 21.00785654 70.20426703 20.99146172 58.93569303 20.98516005 C52.61059754 20.98125489 46.28560942 20.97209979 39.9605484 20.95023537 C34.00163865 20.92980443 28.04288005 20.92360513 22.0839386 20.92810249 C19.90234301 20.92728025 17.72074213 20.92135421 15.53917694 20.90980911 C0.96703269 20.83650384 -11.94247769 21.03022475 -24.53288269 29.26742554 Z M246.46711731 40.26742554 C246.46711731 62.37742554 246.46711731 84.48742554 246.46711731 107.26742554 C265.93711731 107.26742554 285.40711731 107.26742554 305.46711731 107.26742554 C303.90324568 104.13968228 303.02915203 102.57526057 300.74446106 100.20101929 C299.9440741 99.35809326 299.9440741 99.35809326 299.1275177 98.49813843 C298.27468201 97.61049805 298.27468201 97.61049805 297.40461731 96.70492554 C293.45091946 92.52607528 289.61474368 88.33500886 286.02961731 83.82992554 C281.22780718 77.82988182 275.9643714 72.30089628 270.69758606 66.71273804 C267.76001241 63.59308684 264.9102222 60.41079146 262.11164856 57.16586304 C260.04625905 54.78158916 257.94699803 52.42939959 255.84211731 50.07992554 C255.12797668 49.28199585 254.41383606 48.48406616 253.67805481 47.66195679 C251.34251985 45.13248165 248.90155441 42.70186264 246.46711731 40.26742554 Z " fill="#000000" transform="translate(116.53288269042969,-0.267425537109375)"/>
<path d="M0 0 C9.09094834 1.84900644 16.30347767 12.21835635 22.71484375 18.64453125 C23.75462022 19.68363266 24.79454498 20.72258571 25.83460999 21.76139832 C27.99691585 23.92224068 30.15742954 26.08485436 32.31665039 28.2487793 C35.08622627 31.0240948 37.86032616 33.79483832 40.63574886 36.56430531 C42.77618409 38.70113489 44.91424181 40.8403305 47.05157661 42.98026085 C48.07433221 44.00368349 49.09783108 45.02636391 50.12208366 46.04828835 C51.54596292 47.46963646 52.96630848 48.89452192 54.38647461 50.31958008 C55.19507431 51.12897537 56.00367401 51.93837067 56.83677673 52.77229309 C59.0736055 55.16259735 59.6191063 56.24844622 60.0625 59.5 C59.55178948 63.92615785 57.87048475 65.70848124 54.6875 68.75 C51.53600706 70.01059718 50.25753612 69.95358433 47.0625 68.8125 C46.27875 68.461875 45.495 68.11125 44.6875 67.75 C43.6975 67.75 42.7075 67.75 41.6875 67.75 C39.6691648 70.26502871 39.6691648 70.26502871 37.75 73.4375 C35.24001123 77.39834932 32.68246044 81.13862712 29.6875 84.75 C31.13869491 88.08774228 32.95775107 90.257876 35.53889465 92.80825806 C36.34217697 93.6070639 37.14545929 94.40586975 37.9730835 95.22888184 C38.85570862 96.09646118 39.73833374 96.96404053 40.64770508 97.85791016 C42.07320543 99.27152973 43.49870262 100.68515249 44.92408121 102.09889483 C46.45591183 103.61644379 47.99012975 105.1315436 49.5249424 106.6460762 C52.72991497 109.80961186 55.92558391 112.98243385 59.11955261 116.15707397 C68.20297648 125.18298475 77.29620184 134.19893771 86.40454102 143.19970703 C91.43609878 148.17200098 96.45850532 153.15335591 101.4712345 158.1446327 C104.63774976 161.29658187 107.81497391 164.43717338 111.00076067 167.56963658 C113.45707889 169.99145325 115.89673991 172.42984372 118.33911133 174.86572266 C119.21566376 175.72115662 120.09221619 176.57659058 120.99533081 177.45794678 C127.01395175 183.5060995 131.84008918 189.69898551 133.28125 198.2890625 C133.00862267 207.26304549 131.94316794 214.32171274 125.671875 221.07421875 C119.2178835 226.52453834 112.07899081 229.43341253 103.6484375 229.3515625 C93.57524468 227.30502992 87.54250578 222.4577613 80.46435547 215.20800781 C79.48881413 214.23077056 78.51194281 213.25485946 77.53385925 212.28016663 C74.90316643 209.65118348 72.29128668 207.00422135 69.68258047 204.3534441 C66.94548727 201.57864424 64.19120008 198.82101569 61.43875122 196.0614624 C56.23849938 190.84262006 51.05372204 185.60868447 45.87443268 180.36904693 C39.97332955 174.40069775 34.05502067 168.44953536 28.13525939 162.49970102 C15.96686453 150.26872251 3.82007378 138.01651015 -8.3125 125.75 C-11.71550664 127.06831051 -14.55068224 128.43999336 -17.51953125 130.5703125 C-18.27041016 131.10527344 -19.02128906 131.64023437 -19.79492188 132.19140625 C-20.56384766 132.74699219 -21.33277344 133.30257812 -22.125 133.875 C-22.91326172 134.43832031 -23.70152344 135.00164062 -24.51367188 135.58203125 C-26.44996831 136.96677658 -28.38272641 138.35618627 -30.3125 139.75 C-29.8278125 140.35070312 -29.343125 140.95140625 -28.84375 141.5703125 C-26.73895476 144.56642409 -26.73659263 146.15057891 -27.3125 149.75 C-29.61032084 153.33189719 -31.19647059 155.31329284 -35.1875 156.875 C-40.28592542 156.67106298 -43.60559923 154.5422458 -47.03125 150.9453125 C-48.19531761 149.58546989 -49.34738006 148.21527422 -50.48828125 146.8359375 C-52.92291961 144.05200413 -55.65142652 141.73043527 -58.46484375 139.33984375 C-60.87689486 137.26435791 -63.09340911 135.02906632 -65.3125 132.75 C-66.158125 131.925 -67.00375 131.1 -67.875 130.25 C-70.20698943 127.85821597 -72.22765471 125.35605661 -74.3125 122.75 C-75.9579378 121.06237149 -77.62538577 119.3959651 -79.3125 117.75 C-82.64583333 114.41666667 -85.97916667 111.08333333 -89.3125 107.75 C-90.199375 106.88375 -91.08625 106.0175 -92 105.125 C-94.3125 102.75 -94.3125 102.75 -96.3125 99.75 C-96.23373738 95.49681842 -95.69468623 93.27831626 -93.1875 89.8125 C-89.54588483 87.20003695 -87.7113175 87.1215975 -83.3125 87.75 C-80.375 89.25 -80.375 89.25 -78.3125 90.75 C-78.03954102 90.00991699 -77.76658203 89.26983398 -77.48535156 88.50732422 C-75.64411058 84.17864486 -72.85109868 80.64056824 -70.0625 76.875 C-69.44060791 76.03437012 -68.81871582 75.19374023 -68.17797852 74.32763672 C-62.59150549 66.90385042 -56.52722408 60.10019355 -50.01513672 53.48339844 C-48.33911617 51.77709704 -46.68597378 50.05096831 -45.03515625 48.3203125 C-33.42043727 36.2700196 -20.33625921 26.80455602 -6.3125 17.75 C-6.8075 16.82316406 -7.3025 15.89632812 -7.8125 14.94140625 C-9.59356783 11.15199891 -9.65189797 9.68448153 -8.3125 5.75 C-5.74184849 2.27205972 -4.23780794 0.95950368 0 0 Z M-35.125 64.3125 C-39.86408676 69.1827423 -44.11259286 74.4136474 -48.3125 79.75 C-48.72677246 80.27142578 -49.14104492 80.79285156 -49.56787109 81.33007812 C-54.08507763 87.02412231 -58.47789933 92.79772529 -62.5625 98.8125 C-63.14515625 99.66972656 -63.7278125 100.52695313 -64.328125 101.41015625 C-65.58568035 103.65878316 -65.58568035 103.65878316 -64.63232422 105.62573242 C-63.07207976 108.1369583 -61.28552278 110.00194938 -59.1796875 112.078125 C-58.37402344 112.87734375 -57.56835938 113.6765625 -56.73828125 114.5 C-55.89652344 115.325 -55.05476563 116.15 -54.1875 117 C-52.91326172 118.26070312 -52.91326172 118.26070312 -51.61328125 119.546875 C-49.51745077 121.61915683 -47.41709287 123.68662393 -45.3125 125.75 C-40.08163226 123.2458005 -35.3075317 120.60144646 -30.625 117.1875 C-30.02397461 116.75115234 -29.42294922 116.31480469 -28.80371094 115.86523438 C-9.68866337 101.81211603 6.95913077 85.09407519 20.6875 65.75 C21.12900391 65.1430127 21.57050781 64.53602539 22.02539062 63.91064453 C26.72154442 58.40257882 26.72154442 58.40257882 28.5078125 51.86938477 C27.42829714 49.08031546 25.86571552 47.53955192 23.7578125 45.421875 C22.96246094 44.62265625 22.16710937 43.8234375 21.34765625 43 C20.51105469 42.175 19.67445313 41.35 18.8125 40.5 C17.98363281 39.65953125 17.15476562 38.8190625 16.30078125 37.953125 C15.50285156 37.1590625 14.70492187 36.365 13.8828125 35.546875 C13.15078613 34.81823242 12.41875977 34.08958984 11.66455078 33.33886719 C2.66054077 26.10274751 -27.66633061 57.04874357 -35.125 64.3125 Z M13.18359375 103.15625 C12.1615319 104.184992 11.14212036 105.21637207 10.125 106.25 C9.60486328 106.77464844 9.08472656 107.29929687 8.54882812 107.83984375 C7.25948309 109.14101763 5.9732063 110.44523051 4.6875 111.75 C9.37402554 117.36648395 14.35605057 122.59597173 19.50341797 127.79052734 C20.36926514 128.66776459 21.2351123 129.54500183 22.12719727 130.44882202 C24.97471009 133.33116632 27.82618868 136.20952194 30.6796875 139.0859375 C31.16689097 139.57708683 31.65409444 140.06823617 32.15606165 140.57426882 C36.75717642 145.21174384 41.36077506 149.84674319 45.96941948 154.47673607 C51.84351015 160.37845556 57.70563667 166.29154096 63.5524739 172.22026479 C67.67802853 176.40161986 71.81692167 180.56947382 75.96584809 184.72763789 C78.43863074 187.20666796 80.90516489 189.69124006 83.35741806 192.19059372 C86.09002043 194.97504285 88.84996387 197.73136413 91.61279297 200.48583984 C92.41617096 201.31281372 93.21954895 202.1397876 94.04727173 202.99182129 C98.82758679 207.74922452 98.82758679 207.74922452 105.06716919 209.85635376 C108.69731758 209.99456826 108.69731758 209.99456826 111.6875 208.3125 C113.89649539 205.48222465 114.41287196 203.62637744 114.30003166 200.04516602 C112.93654248 194.93615007 108.4821234 191.50994716 104.79907227 187.9375 C103.84332966 186.98237741 102.88934208 186.02549591 101.9369812 185.06700134 C99.35347234 182.47693914 96.74599642 179.91230853 94.1333096 177.35172653 C91.40378772 174.66856793 88.69659123 171.96306823 85.98680115 169.26000977 C81.43733889 164.72800057 76.87370126 160.2107081 72.29956055 155.70361328 C65.83991432 149.33861482 59.40604055 142.94805017 52.97723687 136.55192184 C44.37347383 127.99463892 35.7626505 119.44418285 27.1215477 110.92459297 C25.73533804 109.55695734 24.35147563 108.1869439 22.96766663 106.81687927 C22.15011902 106.01226761 21.33257141 105.20765594 20.49024963 104.37866211 C19.77586007 103.6737413 19.06147051 102.9688205 18.32543278 102.24253845 C15.67914327 99.83115204 15.98975997 100.45952864 13.18359375 103.15625 Z " fill="#000000" transform="translate(247.3125,132.25)"/>
<path d="M0 0 C1.23525925 -0.01606293 2.47051849 -0.03212585 3.74320984 -0.04867554 C5.09418038 -0.06016551 6.44515867 -0.07077362 7.79614258 -0.08056641 C8.47845758 -0.08589008 9.16077259 -0.09121376 9.86376381 -0.09669876 C13.47801208 -0.12340712 17.09222616 -0.14278603 20.70654297 -0.15722656 C23.68732553 -0.17054233 26.66741967 -0.19835243 29.64794922 -0.23925781 C33.25656682 -0.28877509 36.86456224 -0.31337079 40.47350502 -0.32045364 C41.84296782 -0.32713549 43.21241841 -0.34227731 44.58168602 -0.36634445 C52.53225149 -0.49807366 58.95586048 -0.44881038 65.00317383 5.19287109 C68.59829549 9.80200143 70.13600511 13.2757098 70.10083008 19.07958984 C70.09599609 20.4862793 70.09599609 20.4862793 70.09106445 21.92138672 C70.07849609 23.38608398 70.07849609 23.38608398 70.06567383 24.88037109 C70.06116211 25.8684375 70.05665039 26.85650391 70.05200195 27.87451172 C70.04021686 30.31402583 70.02376394 32.75341798 70.00317383 35.19287109 C70.78635986 35.14098633 71.5695459 35.08910156 72.37646484 35.03564453 C81.02036209 34.54788669 81.02036209 34.54788669 84.69067383 37.13037109 C87.40359769 40.72316216 87.65021543 42.63570388 87.60473633 47.00927734 C86.71098928 50.25346304 85.77882363 51.20782097 83.00317383 53.19287109 C79.33159506 53.8158478 75.68059599 53.7491124 71.96411133 53.72631836 C70.83853821 53.73493393 69.71296509 53.7435495 68.55328369 53.75242615 C64.82801401 53.77515242 61.10349245 53.76833488 57.37817383 53.75927734 C54.79272232 53.76450973 52.20727273 53.77078479 49.62182617 53.77806091 C44.20131447 53.78847735 38.78108939 53.78421375 33.3605957 53.76928711 C27.09601974 53.75235913 20.83214022 53.76820925 14.5676403 53.80050999 C8.53835052 53.83041931 2.50941557 53.83239239 -3.5199585 53.8230114 C-6.08446153 53.82218979 -8.64897885 53.82909298 -11.21343994 53.84378242 C-14.79540146 53.86115446 -18.3758632 53.84674486 -21.95776367 53.82397461 C-23.55379425 53.84151291 -23.55379425 53.84151291 -25.18206787 53.85940552 C-32.33955372 53.76658499 -32.33955372 53.76658499 -35.65551758 50.87217712 C-37.42843904 47.33071085 -37.5560662 45.10755128 -36.99682617 41.19287109 C-34.86003332 37.80347554 -33.81934947 36.46704553 -29.99682617 35.19287109 C-28.10211801 35.12432159 -26.20514278 35.10806737 -24.30932617 35.13037109 C-23.31545898 35.13939453 -22.3215918 35.14841797 -21.29760742 35.15771484 C-20.1587207 35.17511719 -20.1587207 35.17511719 -18.99682617 35.19287109 C-19.01777344 34.52755371 -19.0387207 33.86223633 -19.06030273 33.17675781 C-19.14383226 30.14061808 -19.1956022 27.10472066 -19.24682617 24.06787109 C-19.2803418 23.02115234 -19.31385742 21.97443359 -19.34838867 20.89599609 C-19.44318285 13.40725612 -18.6480301 9.95120081 -13.39916992 4.54833984 C-8.78000949 0.86532926 -5.81761902 0.06874054 0 0 Z M-0.99682617 19.19287109 C-0.99682617 24.47287109 -0.99682617 29.75287109 -0.99682617 35.19287109 C16.16317383 35.19287109 33.32317383 35.19287109 51.00317383 35.19287109 C51.00317383 29.91287109 51.00317383 24.63287109 51.00317383 19.19287109 C33.84317383 19.19287109 16.68317383 19.19287109 -0.99682617 19.19287109 Z " fill="#000000" transform="translate(186.996826171875,325.80712890625)"/>
<path d="M0 0 C3.05235549 1.96308353 5.48348846 4.39993242 8 7 C9.0209375 8.00740234 9.0209375 8.00740234 10.0625 9.03515625 C12.94683791 12.0532437 14.79617387 14.05498794 15.6875 18.1875 C14.84171748 21.64751939 13.46735101 23.46007984 11 26 C7.7238297 27.63808515 4.52294717 27.70955471 1 27 C-1.73222083 25.24660322 -3.7775804 23.0311149 -5.9375 20.625 C-6.51306641 20.02171875 -7.08863281 19.4184375 -7.68164062 18.796875 C-12.85402412 13.31378296 -12.85402412 13.31378296 -13.3125 9.1875 C-12.92835642 5.2692355 -11.70743683 3.78706733 -9 1 C-5.73952371 -0.63023814 -3.62198965 -0.4673535 0 0 Z " fill="#000000" transform="translate(163,291)"/>
<path d="M0 0 C0.69867188 -0.01095703 1.39734375 -0.02191406 2.1171875 -0.03320312 C7.01008361 0.03603597 9.57894465 1.09608975 13 4.5625 C14.56935594 7.70121188 14.35201103 10.10105822 14 13.5625 C11.8272578 16.19266161 10.05326212 18.03586894 7 19.5625 C4.89946284 19.71151491 2.79312175 19.78388453 0.6875 19.8125 C-0.44300781 19.83828125 -1.57351562 19.8640625 -2.73828125 19.890625 C-7.27848822 19.43388562 -9.82015072 17.74234928 -13 14.5625 C-13.37109375 12.57421875 -13.37109375 12.57421875 -13.4375 10.25 C-13.47746094 9.49074219 -13.51742187 8.73148437 -13.55859375 7.94921875 C-11.90419158 0.88040949 -6.39127805 -0.21815248 0 0 Z " fill="#000000" transform="translate(146,325.4375)"/>
</svg>
