<svg xmlns="http://www.w3.org/2000/svg" width="512" height="512" viewBox="0 0 512 512" version="1.1">
  <path d="" stroke="none" fill="#080404" fill-rule="evenodd" />
  <path d="M 100.116 2.044 C 89.469 4.832, 80.709 10.085, 72 18.905 C 63.745 27.264, 59.431 34.498, 55.841 46 L 53.500 53.500 53.500 256 L 53.500 458.500 55.841 466 C 59.431 477.502, 63.745 484.736, 72 493.095 C 80.840 502.048, 89.511 507.190, 100.511 510.003 C 108.143 511.955, 111.664 512, 256 512 C 400.336 512, 403.857 511.955, 411.489 510.003 C 422.489 507.190, 431.160 502.048, 440 493.095 C 448.255 484.736, 452.569 477.502, 456.159 466 L 458.500 458.500 458.500 286.500 C 458.500 135.208, 458.319 114.248, 457 112.407 C 453.921 108.112, 359.755 2.942, 357.698 1.501 C 355.820 0.185, 340.243 0.007, 231.527 0.055 C 112.225 0.108, 107.219 0.184, 100.116 2.044 M 108.045 22.092 C 91.832 25.271, 78.452 39.904, 75.952 57.194 C 74.625 66.369, 74.729 446.718, 76.060 455 C 78.620 470.926, 88.646 482.889, 103.800 488.103 C 109.115 489.932, 114.582 490, 256 490 C 398.579 490, 402.845 489.946, 408.327 488.060 C 420.671 483.813, 430.207 474.119, 434.805 461.143 C 436.302 456.919, 436.478 441.721, 436.749 292.798 L 437.046 129.097 392.773 128.798 C 352.420 128.526, 348.270 128.344, 345.904 126.736 C 344.476 125.766, 342.789 123.832, 342.154 122.439 C 341.332 120.634, 341 105.694, 341 70.453 L 341 21 226.750 21.110 C 163.912 21.170, 110.495 21.612, 108.045 22.092 M 363 73.500 L 363 107 393.116 107 L 423.233 107 419.866 103.245 C 418.015 101.179, 404.646 86.104, 390.157 69.745 C 375.668 53.385, 363.631 40, 363.407 40 C 363.183 40, 363 55.075, 363 73.500 M 248.500 133.420 C 245.750 134.687, 239.554 137.586, 234.731 139.862 C 229.908 142.138, 225.633 144.003, 225.231 144.006 C 224.829 144.010, 223.177 144.702, 221.559 145.546 C 219.942 146.389, 207.117 152.291, 193.059 158.662 C 179.002 165.032, 164.250 171.764, 160.278 173.622 C 154.099 176.512, 151.980 177, 145.594 177 C 130.909 177, 130 178.427, 130 201.500 C 130 223.393, 130.758 225, 141.082 225 L 146 225 146 278.879 L 146 332.757 143.086 333.964 C 139.510 335.446, 139.131 336.412, 133.983 357.174 C 129.410 375.618, 129.460 376.481, 135.314 380.050 C 138.421 381.944, 141.414 381.993, 256 381.993 C 371.676 381.993, 373.551 381.962, 376.775 379.996 C 382.390 376.572, 382.438 374.996, 377.513 355.386 C 373.180 338.131, 371.653 334.659, 367.868 333.458 C 366.074 332.889, 366 330.718, 366 278.933 L 366 225 370.918 225 C 381.242 225, 382 223.393, 382 201.500 C 382 178.427, 381.091 177, 366.406 177 C 360.020 177, 357.901 176.512, 351.722 173.622 C 347.750 171.764, 332.800 164.956, 318.500 158.493 C 304.200 152.030, 292.050 146.405, 291.500 145.993 C 290.950 145.582, 289.375 144.904, 288 144.488 C 286.625 144.072, 281.225 141.714, 276 139.249 C 255.856 129.746, 256.278 129.835, 248.500 133.420 M 251 150.021 C 249.075 151.084, 235.695 157.476, 221.267 164.227 L 195.035 176.500 225.517 176.764 C 242.283 176.910, 269.705 176.910, 286.455 176.764 L 316.911 176.500 292.705 165.095 C 279.392 158.822, 265.899 152.409, 262.720 150.845 C 255.952 147.514, 255.588 147.488, 251 150.021 M 148 201 L 148 208 256 208 L 364 208 364 201 L 364 194 256 194 L 148 194 148 201 M 163 279 L 163 333 170 333 L 177 333 177 279 L 177 225 170 225 L 163 225 163 279 M 194 279 L 194 333 213 333 L 232 333 232 279 L 232 225 213 225 L 194 225 194 279 M 249 279 L 249 333 256 333 L 263 333 263 279 L 263 225 256 225 L 249 225 249 279 M 280 279 L 280 333 299 333 L 318 333 318 279 L 318 225 299 225 L 280 225 280 279 M 335 279 L 335 333 342 333 L 349 333 349 279 L 349 225 342 225 L 335 225 335 279 M 151.908 357 L 150.332 364 256 364 L 361.668 364 360.092 357 L 358.515 350 256 350 L 153.485 350 151.908 357" stroke="none" fill="#040404" fill-rule="evenodd" />
</svg>