<?xml version="1.0" encoding="UTF-8"?>
<svg version="1.1" xmlns="http://www.w3.org/2000/svg" width="512" height="512">
<path d="M0 0 C1.02434452 -0.00453111 2.04868904 -0.00906223 3.1040743 -0.01373065 C6.51704604 -0.02633388 9.92985738 -0.02475693 13.34284973 -0.02310181 C15.79746708 -0.02908933 18.25208255 -0.03589539 20.70669556 -0.04345703 C26.6692153 -0.05926534 32.6316726 -0.06556402 38.59420749 -0.06668179 C43.44043838 -0.06763415 48.28665629 -0.0717538 53.13288307 -0.07808304 C66.88370445 -0.09567562 80.6344947 -0.10492423 94.38532742 -0.10342209 C95.12541135 -0.10334218 95.86549527 -0.10326227 96.62800598 -0.10317993 C97.73949146 -0.10305729 97.73949146 -0.10305729 98.87343118 -0.10293217 C110.89659854 -0.10211832 122.91964092 -0.12128612 134.94277211 -0.14945666 C147.29865052 -0.17817796 159.65446792 -0.1919976 172.01038057 -0.19026911 C178.94325538 -0.18960528 185.8759989 -0.19509553 192.80884361 -0.21662521 C199.32354601 -0.23672785 205.8380181 -0.23617134 212.35275078 -0.22159195 C214.74488988 -0.21949607 217.13704612 -0.22425081 219.52915573 -0.23631287 C222.79149489 -0.2516996 226.05286788 -0.24250016 229.31518555 -0.22705078 C230.26430649 -0.23733791 231.21342744 -0.24762503 232.19130963 -0.25822389 C238.99309386 -0.18690967 242.38793877 1.20828504 247.26789856 6.05648804 C247.76676575 6.66234741 248.26563293 7.26820679 248.77961731 7.89242554 C251.45563486 11.07056558 254.17705145 14.18840549 256.96711731 17.26742554 C260.23102579 20.88418899 263.4550268 24.53132162 266.65461731 28.20492554 C269.49981021 31.44255883 272.39565567 34.63428844 275.28352356 37.83383179 C277.17560416 39.942537 279.04617489 42.06662355 280.90461731 44.20492554 C283.71534256 47.43302066 286.58291631 50.60480996 289.46711731 53.76742554 C292.92039884 57.55405552 296.32810782 61.37218874 299.68977356 65.24008179 C301.76071218 67.60231727 303.86224579 69.93538407 305.96711731 72.26742554 C309.23102579 75.88418899 312.4550268 79.53132162 315.65461731 83.20492554 C317.73922895 85.57706982 319.85140375 87.92298619 321.96711731 90.26742554 C342.58972196 113.15816776 342.58972196 113.15816776 342.59575176 121.88172054 C342.59897621 123.05768101 342.60220065 124.23364147 342.60552281 125.4452371 C342.60397421 126.74345366 342.60242561 128.04167023 342.60083008 129.37922668 C342.60269741 130.76744669 342.6049978 132.15566617 342.6076954 133.54388481 C342.61383001 137.36767733 342.61367784 141.19144804 342.61250103 145.01524436 C342.61229742 149.13611749 342.61781207 153.25698354 342.62255859 157.37785339 C342.63087605 165.45676896 342.63361398 173.53567723 342.63417097 181.61459672 C342.63464585 188.18383664 342.63669919 194.75307415 342.6398716 201.32231331 C342.64868307 219.94788673 342.65329049 238.57345439 342.65254112 257.19902992 C342.65248119 258.70616334 342.65248119 258.70616334 342.65242004 260.2437439 C342.65237916 261.24972746 342.65233828 262.25571102 342.65229616 263.29217894 C342.6518901 279.57953805 342.6614483 295.866874 342.67555841 312.15422641 C342.68993261 328.87856451 342.69682794 345.60289133 342.69596463 362.32723576 C342.69563291 371.71621335 342.69836907 381.10516669 342.70914268 390.49413872 C342.71826167 398.49254925 342.72041165 406.49092455 342.71363326 414.48933803 C342.71037441 418.5677318 342.71028822 422.64605805 342.71898651 426.72444534 C342.72688121 430.46469949 342.72538994 434.20483291 342.71670238 437.94508422 C342.71445468 439.92536757 342.72197292 441.90565474 342.72994202 443.88592333 C342.65959232 462.2341084 337.94992022 479.59691661 325.33821106 493.48617554 C311.27850151 506.87078421 296.13062914 512.5916714 277.06968689 512.52812195 C275.84469258 512.5319475 274.61969827 512.53577304 273.35758293 512.53971452 C269.97860655 512.54821396 266.59984912 512.54782383 263.22087932 512.54353392 C259.56842974 512.54105881 255.91600532 512.55009057 252.26356506 512.55757141 C245.11625333 512.57029863 237.96897919 512.57211458 230.82165803 512.56977115 C225.01008238 512.56798563 219.19851811 512.56974263 213.38694382 512.57399559 C212.1446243 512.57488837 212.1446243 512.57488837 210.87720742 512.57579919 C209.19450427 512.57701099 207.51180112 512.57822512 205.82909797 512.57944157 C190.06072788 512.59030947 174.29237919 512.58815816 158.5240079 512.58205672 C144.11163031 512.5768881 129.69932031 512.58814291 115.28695609 512.60715494 C100.47327909 512.62654593 85.65963405 512.63478714 70.84594429 512.63103169 C62.53521937 512.62912158 54.22455198 512.6315887 45.91383743 512.64574623 C38.83888652 512.65767707 31.76402855 512.65904585 24.68907632 512.64695606 C21.08261606 512.64107933 17.47632567 512.63993432 13.86987686 512.65195847 C9.95267272 512.66486643 6.03572414 512.65432416 2.11851501 512.64164734 C0.98941086 512.64902162 -0.1396933 512.65639591 -1.30301273 512.66399366 C-17.75319061 512.55229941 -33.77643589 505.88462508 -45.53288269 494.26742554 C-60.47850317 477.35335749 -63.69017336 460.08338568 -63.66659546 438.35244751 C-63.66846498 436.7206739 -63.67076624 435.08890074 -63.67346078 433.45712829 C-63.67956779 428.98334209 -63.67944648 424.50957461 -63.67826641 420.0357852 C-63.67806212 415.20674572 -63.68358381 410.37771222 -63.68832397 405.54867554 C-63.69662506 396.09147509 -63.69937857 386.63428087 -63.69993635 377.17707708 C-63.70041177 369.48858221 -63.7024678 361.80008938 -63.70563698 354.11159515 C-63.71444207 332.30598601 -63.71905658 310.50038178 -63.7183065 288.69477084 C-63.71826655 287.5195965 -63.71822659 286.34442216 -63.71818542 285.13363647 C-63.71814454 283.95702476 -63.71810366 282.78041305 -63.71806154 281.56814644 C-63.71765511 262.50050029 -63.7272243 243.43287389 -63.74132379 224.36523345 C-63.7556919 204.77954591 -63.76259374 185.19386799 -63.76173002 165.60817504 C-63.7613982 154.6151914 -63.76413867 143.62222846 -63.77490807 132.62924957 C-63.78401878 123.26952358 -63.78618361 113.90982768 -63.77939864 104.55009916 C-63.77613634 99.77700782 -63.77606632 95.0039742 -63.78475189 90.23088837 C-63.79263055 85.85614458 -63.79117152 81.48150416 -63.78246776 77.10676286 C-63.78093578 75.52940949 -63.78273747 73.95204836 -63.78832784 72.37470415 C-63.85378488 52.58524366 -60.14177479 34.17809502 -46.40397644 19.04867554 C-33.11943045 6.40200962 -18.17762061 -0.05973905 0 0 Z M-24.53288269 29.26742554 C-25.83225769 30.10273804 -25.83225769 30.10273804 -27.15788269 30.95492554 C-36.87374542 40.41510767 -41.24452865 52.14928058 -41.6258167 65.52841616 C-41.66506087 69.63283784 -41.6711547 73.73617366 -41.66659546 77.84072876 C-41.66846507 79.43537918 -41.67076637 81.03002914 -41.67346078 82.62467837 C-41.67956665 86.99585053 -41.67944662 91.36700352 -41.67826641 95.73817897 C-41.67806209 100.45678803 -41.68358408 105.17539099 -41.68832397 109.89399719 C-41.69662443 119.13462645 -41.69937854 128.37524933 -41.69993635 137.61588201 C-41.7004118 145.12846155 -41.70246798 152.64103899 -41.70563698 160.15361786 C-41.7144419 181.46118927 -41.71905661 202.76875566 -41.7183065 224.0763289 C-41.71826655 225.22462028 -41.71822659 226.37291167 -41.71818542 227.55599976 C-41.71814454 228.70569594 -41.71810366 229.85539211 -41.71806154 231.03992757 C-41.71765512 249.67108338 -41.72722419 268.30221898 -41.74132379 286.93336895 C-41.75569264 306.07157162 -41.76259369 325.20976443 -41.76173002 344.34797263 C-41.76139822 355.08944537 -41.76413759 365.83089693 -41.77490807 376.57236481 C-41.78401975 385.71799388 -41.78618281 394.86359214 -41.77939864 404.00922379 C-41.77613683 408.67295124 -41.77606455 413.33661961 -41.78475189 418.00034142 C-41.79263273 422.27516318 -41.79116932 426.54987918 -41.78246776 430.82469842 C-41.78093626 432.36571287 -41.78273566 433.90673528 -41.78832784 435.44774035 C-41.84421781 451.95071771 -40.35437057 466.97197252 -28.50944519 479.52133179 C-18.70005803 488.18693665 -8.1297959 490.72421587 4.63676453 490.65510559 C6.43750402 490.6631839 6.43750402 490.6631839 8.27462208 490.6714254 C11.58528972 490.68320827 14.89545045 490.68165679 18.20609736 490.67425859 C21.78493855 490.66951236 25.36372669 490.6820496 28.94255066 490.692276 C35.94549695 490.70944116 42.94835341 490.71030874 49.95131527 490.7050631 C55.64561901 490.70101576 61.33989628 490.70247164 67.03419876 490.70781136 C67.8457596 490.70855978 68.65732045 490.7093082 69.49347404 490.7100793 C71.1423552 490.71161084 72.79123635 490.71314918 74.44011749 490.71469427 C89.89088739 490.72841115 105.34160661 490.72298742 120.79237534 490.71150906 C134.91378268 490.70157839 149.03505896 490.7145159 163.15644608 490.73844325 C177.67180704 490.762852 192.187107 490.7724377 206.70248806 490.76579052 C214.84555506 490.76230213 222.98852129 490.76450514 231.13157272 490.78204155 C238.06382 490.7967858 244.99589557 490.79737008 251.92813955 490.77997064 C255.46173734 490.77147629 258.99502868 490.76927225 262.52861023 490.78462219 C266.36706342 490.80108941 270.20504722 490.78628079 274.04350281 490.76863098 C275.14926127 490.77823599 276.25501974 490.78784099 277.39428604 490.79773706 C287.14174758 490.70579356 295.65485001 488.26288648 303.46711731 482.26742554 C304.45711731 481.54555054 305.44711731 480.82367554 306.46711731 480.07992554 C315.41392794 472.37442633 319.52468227 460.74850923 320.46711731 449.26742554 C320.60652431 444.8969331 320.59779589 440.52935711 320.58737183 436.1569519 C320.58822625 434.84337975 320.58908068 433.5298076 320.58996099 432.17643023 C320.59218906 428.54599028 320.58820784 424.91558002 320.58318293 421.28514385 C320.57885432 417.36432079 320.58032657 413.44349934 320.58108521 409.52267456 C320.58160891 402.73474228 320.57847811 395.94681963 320.57284737 389.15888977 C320.56471162 379.34474845 320.56211502 369.53061177 320.56085937 359.71646744 C320.55867212 343.79269563 320.55202087 327.86892894 320.54255676 311.94515991 C320.53337421 296.47901434 320.5262975 281.01287016 320.52204895 265.54672241 C320.52178623 264.59298562 320.5215235 263.63924882 320.52125282 262.65661091 C320.51994776 257.87187319 320.51868405 253.08713546 320.51744092 248.30239773 C320.50707846 208.62407007 320.48946901 168.94574814 320.46711731 129.26742554 C319.40524704 129.2615593 318.34337677 129.25569305 317.24932861 129.24964905 C307.22966688 129.19237242 297.21022115 129.11958487 287.19077969 129.03171062 C282.0399883 128.98703208 276.88927555 128.94777031 271.73835754 128.92098999 C266.76504492 128.89493206 261.79203532 128.85451179 256.8189106 128.80423927 C254.92400451 128.78758744 253.02904602 128.77606269 251.13407707 128.76981163 C248.47450563 128.76015226 245.81570648 128.73207118 243.15632629 128.69979858 C242.37732971 128.70123367 241.59833313 128.70266876 240.79573059 128.70414734 C235.65852947 128.61630299 232.01450915 127.71746553 227.46711731 125.26742554 C225.41695092 122.19217596 225.21452768 121.54498361 225.18864441 118.0723114 C225.17189919 116.79138107 225.17189919 116.79138107 225.15481567 115.48457336 C225.15265549 114.5509346 225.1504953 113.61729584 225.14826965 112.65536499 C225.13822403 111.66981628 225.12817841 110.68426758 225.11782837 109.66885376 C225.08689868 106.40614412 225.06993397 103.1435169 225.05305481 99.88070679 C225.03435104 97.62054226 225.01477823 95.36038476 224.99436951 93.10023499 C224.94295875 87.1474217 224.90338088 81.19458576 224.8662262 75.2416687 C224.82624259 69.16881666 224.77512454 63.09605962 224.72492981 57.02328491 C224.62806462 45.10473177 224.54369376 33.18612509 224.46711731 21.26742554 C195.62554469 21.1989044 166.78398171 21.14585356 137.94234364 21.11422955 C134.53295817 21.11047768 131.12357285 21.10659469 127.71418762 21.10263062 C127.03547518 21.10184368 126.35676274 21.10105675 125.65748325 21.10024597 C114.68540294 21.08721214 103.71337006 21.06356951 92.74131784 21.03596715 C81.47278064 21.00785654 70.20426703 20.99146172 58.93569303 20.98516005 C52.61059754 20.98125489 46.28560942 20.97209979 39.9605484 20.95023537 C34.00163865 20.92980443 28.04288005 20.92360513 22.0839386 20.92810249 C19.90234301 20.92728025 17.72074213 20.92135421 15.53917694 20.90980911 C0.96703269 20.83650384 -11.94247769 21.03022475 -24.53288269 29.26742554 Z M246.46711731 40.26742554 C246.46711731 62.37742554 246.46711731 84.48742554 246.46711731 107.26742554 C265.93711731 107.26742554 285.40711731 107.26742554 305.46711731 107.26742554 C303.90324568 104.13968228 303.02915203 102.57526057 300.74446106 100.20101929 C299.9440741 99.35809326 299.9440741 99.35809326 299.1275177 98.49813843 C298.27468201 97.61049805 298.27468201 97.61049805 297.40461731 96.70492554 C293.45091946 92.52607528 289.61474368 88.33500886 286.02961731 83.82992554 C281.22780718 77.82988182 275.9643714 72.30089628 270.69758606 66.71273804 C267.76001241 63.59308684 264.9102222 60.41079146 262.11164856 57.16586304 C260.04625905 54.78158916 257.94699803 52.42939959 255.84211731 50.07992554 C255.12797668 49.28199585 254.41383606 48.48406616 253.67805481 47.66195679 C251.34251985 45.13248165 248.90155441 42.70186264 246.46711731 40.26742554 Z " fill="#000000" transform="translate(116.53288269042969,-0.267425537109375)"/>
<path d="M0 0 C1.42529126 -0.00650633 2.85057274 -0.01557668 4.27583313 -0.0269928 C8.11904314 -0.04992518 11.96125064 -0.03544493 15.80442739 -0.01252341 C19.84142783 0.00650095 23.87836565 -0.00478252 27.91539001 -0.01142883 C34.69147524 -0.01775401 41.46716241 0.00042162 48.24316406 0.03320312 C56.05962374 0.07070727 63.87533017 0.06890779 71.69182974 0.04616195 C79.23536111 0.02516257 86.77861599 0.03251448 94.32214165 0.0524807 C97.52174287 0.06043448 100.72110816 0.05851428 103.92070198 0.04845619 C107.69266365 0.03785072 111.46375444 0.05218511 115.23557854 0.08519936 C117.26741396 0.09722748 119.29934854 0.08493628 121.33117676 0.07174683 C130.22532414 0.18447889 136.52418574 1.67945918 142.91772461 8.07299805 C147.0042312 14.58113818 149.20630125 19.574623 149.12280273 27.32861328 C149.12981201 28.14437836 149.13682129 28.96014343 149.14404297 29.80062866 C149.161522 32.47380506 149.15003555 35.14590627 149.13647461 37.8190918 C149.13917269 39.69182028 149.14305775 41.5645474 149.14807129 43.43727112 C149.1539529 47.35349932 149.14544762 51.2693614 149.12670898 55.18554688 C149.10393607 60.18664216 149.11704049 65.18687786 149.14099884 70.18794155 C149.15550659 74.05290613 149.15082782 77.91766956 149.14048767 81.78264046 C149.1378333 83.62569342 149.1410444 85.46876509 149.15040588 87.31179619 C149.22662656 106.53532191 149.22662656 106.53532191 142.89428711 115.06518555 C142.07057617 115.84249023 142.07057617 115.84249023 141.23022461 116.63549805 C140.68624023 117.16916992 140.14225586 117.7028418 139.58178711 118.25268555 C134.44162929 122.17383361 130.09790588 123.18863716 123.73022461 122.94799805 C123.04186523 122.93446289 122.35350586 122.92092773 121.64428711 122.90698242 C119.9642546 122.87198174 118.28463111 122.81818758 116.60522461 122.76049805 C116.54334961 123.99799805 116.48147461 125.23549805 116.41772461 126.51049805 C114.90999287 139.22702493 107.29449151 151.61889042 97.93334961 160.21362305 C91.66266987 164.96194123 84.80457917 168.62482259 77.60522461 171.76049805 C76.83049805 172.10209961 76.05577148 172.44370117 75.25756836 172.7956543 C69.68344742 174.85129067 64.23294749 175.0316306 58.35522461 175.07299805 C57.5861377 175.0786377 56.81705078 175.08427734 56.0246582 175.09008789 C51.49756681 175.03206087 47.86228563 174.45124569 43.60522461 172.76049805 C42.7944043 172.46530273 41.98358398 172.17010742 41.14819336 171.8659668 C24.52488961 165.38756484 12.44353497 155.45202803 4.73022461 139.01049805 C2.41966054 133.55694447 0.60522461 128.75018878 0.60522461 122.76049805 C-0.30098633 122.81850586 -1.20719727 122.87651367 -2.14086914 122.9362793 C-10.14363872 123.23267817 -16.1489149 123.10170017 -22.39477539 117.76049805 C-29.35521141 110.59928022 -31.70434552 103.75268372 -31.66943359 93.76489258 C-31.67454453 92.99804138 -31.67965546 92.23119019 -31.68492126 91.44110107 C-31.6987353 88.92508982 -31.69786661 86.40935504 -31.69555664 83.89331055 C-31.69944826 82.13125508 -31.70378389 80.36920055 -31.70854187 78.60714722 C-31.71598663 74.92044021 -31.71572562 71.233829 -31.71044922 67.54711914 C-31.70465896 62.84096287 -31.7215833 58.13520073 -31.74479389 53.42910957 C-31.75958234 49.79151141 -31.76039596 46.15400703 -31.75728416 42.51638412 C-31.75779488 40.78217667 -31.76298528 39.04796361 -31.77309608 37.31378555 C-31.88516873 15.40325959 -31.88516873 15.40325959 -24.39477539 6.76049805 C-16.67116209 0.48163423 -9.69399924 -0.10110675 0 0 Z M-8.39477539 20.76049805 C-9.86911704 24.65647672 -9.86911704 24.65647672 -9.39477539 32.76049805 C35.48522461 32.76049805 80.36522461 32.76049805 126.60522461 32.76049805 C126.60522461 28.80049805 126.60522461 24.84049805 126.60522461 20.76049805 C82.05522461 20.76049805 37.50522461 20.76049805 -8.39477539 20.76049805 Z M-9.39477539 52.76049805 C-9.06477539 68.93049805 -8.73477539 85.10049805 -8.39477539 101.76049805 C-4.76477539 101.76049805 -1.13477539 101.76049805 2.60522461 101.76049805 C3.26522461 98.79049805 3.92522461 95.82049805 4.60522461 92.76049805 C5.26522461 92.76049805 5.92522461 92.76049805 6.60522461 92.76049805 C6.86174805 92.15463867 7.11827148 91.5487793 7.38256836 90.92456055 C11.65365982 81.57705398 17.73066767 73.74611219 26.87866211 68.7956543 C28.6698436 67.82687075 28.6698436 67.82687075 30.02709961 66.26049805 C36.90834538 59.719908 50.33275381 58.81055315 59.30834961 58.7253418 C70.02569866 59.17741105 81.00589597 60.92012299 89.60522461 67.76049805 C90.28842773 68.25291992 90.97163086 68.7453418 91.67553711 69.25268555 C103.36003417 77.84772237 110.23867521 88.34412454 115.60522461 101.76049805 C119.23522461 101.76049805 122.86522461 101.76049805 126.60522461 101.76049805 C126.60522461 85.59049805 126.60522461 69.42049805 126.60522461 52.76049805 C81.72522461 52.76049805 36.84522461 52.76049805 -9.39477539 52.76049805 Z M39.60522461 82.76049805 C39.60522461 83.42049805 39.60522461 84.08049805 39.60522461 84.76049805 C39.01483398 85.04151367 38.42444336 85.3225293 37.81616211 85.61206055 C29.68320733 89.83659889 25.95724871 96.40293461 22.60522461 104.76049805 C20.26244174 113.72234817 20.75494097 123.34576526 24.60522461 131.76049805 C24.94553711 132.52104492 25.28584961 133.2815918 25.63647461 134.06518555 C30.20742553 143.2379722 36.97649226 148.20129666 46.45678711 151.8190918 C56.93706716 154.95277355 66.82390928 154.10542082 76.73022461 149.63549805 C86.22950794 144.5055868 90.73272608 137.63287627 94.60522461 127.76049805 C95.10022461 126.77049805 95.10022461 126.77049805 95.60522461 125.76049805 C96.72419008 113.19756757 96.27391756 103.27680582 88.60522461 92.76049805 C81.13447723 84.42563787 73.98503917 79.45502072 62.73022461 78.5222168 C54.35447974 78.32329286 47.45155651 79.88393774 39.60522461 82.76049805 Z " fill="#000000" transform="translate(197.394775390625,189.239501953125)"/>
<path d="M0 0 C0.95194244 0.00043304 1.90388489 0.00086609 2.88467407 0.00131226 C16.71371275 0.03582842 29.83493887 0.65221761 42.9375 5.5 C43.69111816 5.77634277 44.44473633 6.05268555 45.22119141 6.33740234 C47.13091777 7.04682461 49.03484557 7.77182361 50.9375 8.5 C50.9375 9.16 50.9375 9.82 50.9375 10.5 C51.92943359 10.62955078 51.92943359 10.62955078 52.94140625 10.76171875 C56.89891324 11.73690626 60.25915255 13.46260961 63.875 15.3125 C64.56529297 15.65603516 65.25558594 15.99957031 65.96679688 16.35351562 C70.17174645 18.47791195 74.07146495 20.80769077 77.9375 23.5 C77.9375 21.19 77.9375 18.88 77.9375 16.5 C84.67903283 15.24158054 91.07234138 14.23595544 97.9375 14.5 C98.86182601 17.27297802 99.21023945 19.47710377 99.47265625 22.3671875 C99.56015137 23.32963379 99.64764648 24.29208008 99.73779297 25.28369141 C101.99952037 51.94848876 101.99952037 51.94848876 99.0390625 56.2734375 C96.15346635 59.33066762 95.52149059 59.48215563 91.22216797 59.61352539 C89.62466573 59.61336676 88.02715817 59.60770034 86.4296875 59.59765625 C85.58906769 59.5962413 84.74844788 59.59482635 83.88235474 59.59336853 C81.19236725 59.58776237 78.50246241 59.57520886 75.8125 59.5625 C73.99088662 59.55748579 72.16927193 59.55292275 70.34765625 59.54882812 C65.87754656 59.538641 61.40761601 59.51906685 56.9375 59.5 C56.9375 52.9 56.9375 46.3 56.9375 39.5 C59.4125 39.005 59.4125 39.005 61.9375 38.5 C32.17841717 22.98377456 2.44951683 16.1310141 -31.0625 24.5 C-33.3950074 25.27630447 -35.48686555 26.14631908 -37.66796875 27.2734375 C-40.35201875 28.64830161 -43.09223668 29.803571 -45.87084961 30.97216797 C-70.89802739 41.5845408 -90.90391007 60.49444698 -102.0625 85.5 C-102.56652344 86.59183594 -103.07054687 87.68367188 -103.58984375 88.80859375 C-110.21279644 103.59283777 -112.29637749 117.33135256 -112.3125 133.4375 C-112.31350708 134.13152924 -112.31451416 134.82555847 -112.31555176 135.5406189 C-112.30155329 149.77726675 -111.00147836 162.37385121 -105.0625 175.5 C-104.63066406 176.58796875 -104.19882813 177.6759375 -103.75390625 178.796875 C-100.4082416 187.10210216 -96.33757652 194.27499247 -91.0625 201.5 C-90.46179688 202.325 -89.86109375 203.15 -89.2421875 204 C-85.54427884 208.90843481 -81.60089004 213.35703404 -77.0625 217.5 C-76.31871094 218.18707031 -75.57492188 218.87414062 -74.80859375 219.58203125 C-63.28281703 229.62969309 -49.48128177 236.60683901 -35.0625 241.5 C-34.29035156 241.79390625 -33.51820313 242.0878125 -32.72265625 242.390625 C-6.24218478 252.15918952 24.48573423 247.20613087 49.51171875 236.07421875 C56.22139334 232.96765432 62.26744641 229.39987811 68.078125 224.80859375 C69.9375 223.5 69.9375 223.5 71.9375 223.5 C72.2675 222.51 72.5975 221.52 72.9375 220.5 C74.50390625 218.95703125 74.50390625 218.95703125 76.5 217.3125 C85.31404034 209.84281583 85.31404034 209.84281583 91.9375 200.5 C92.35257813 199.92507813 92.76765625 199.35015625 93.1953125 198.7578125 C97.98200876 192.1165847 101.00499793 184.92745352 104.12353516 177.41015625 C104.83374232 175.74349133 105.60528522 174.10323091 106.38671875 172.46875 C116.18331692 151.52226982 115.65789985 122.80938017 108.84765625 101.01171875 C108.17412366 99.20204934 107.46766785 97.40372497 106.70703125 95.62890625 C105.9375 93.5 105.9375 93.5 105.9375 89.5 C106.75734375 89.23445313 107.5771875 88.96890625 108.421875 88.6953125 C109.49953125 88.34210938 110.5771875 87.98890625 111.6875 87.625 C112.75484375 87.27695313 113.8221875 86.92890625 114.921875 86.5703125 C117.84651365 85.61444367 117.84651365 85.61444367 120.078125 84.3671875 C121.9375 83.5 121.9375 83.5 125.9375 83.5 C126.71701343 85.87243218 127.48598281 88.24757114 128.25 90.625 C128.46333984 91.27082031 128.67667969 91.91664063 128.89648438 92.58203125 C133.23405068 106.17738831 134.50713837 118.82900685 134.4375 133 C134.43706696 133.87930176 134.43663391 134.75860352 134.43618774 135.66455078 C134.39050802 152.61037846 132.07238857 167.6680295 125.9375 183.5 C125.2775 183.5 124.6175 183.5 123.9375 183.5 C123.875625 184.28890625 123.81375 185.0778125 123.75 185.890625 C122.63626685 190.83817035 120.39270208 194.84042252 117.9375 199.25 C117.44419189 200.14235352 116.95088379 201.03470703 116.44262695 201.95410156 C113.1153284 207.81288897 109.66819927 212.68429455 104.91796875 217.4765625 C103.01304448 219.42281649 101.49531345 221.39711337 99.9375 223.625 C96.53279404 228.2796528 92.34629316 231.81907363 87.9375 235.5 C86.61492187 236.63501953 86.61492187 236.63501953 85.265625 237.79296875 C79.44375238 242.70209015 73.61291041 246.85031979 66.9375 250.5 C66.25091309 250.88333496 65.56432617 251.26666992 64.85693359 251.66162109 C55.10572852 257.0876451 45.80580481 261.73724997 34.9375 264.5 C33.59921143 264.89167358 33.59921143 264.89167358 32.23388672 265.29125977 C21.86397981 268.09525009 11.61448887 268.04810954 0.9375 268 C-0.49416 267.99935043 -0.49416 267.99935043 -1.95474243 267.99868774 C-15.80259652 267.96419727 -28.94191699 267.35445026 -42.0625 262.5 C-42.81611816 262.22365723 -43.56973633 261.94731445 -44.34619141 261.66259766 C-46.25591777 260.95317539 -48.15984557 260.22817639 -50.0625 259.5 C-50.0625 258.84 -50.0625 258.18 -50.0625 257.5 C-50.75214844 257.39816406 -51.44179687 257.29632813 -52.15234375 257.19140625 C-62.1629233 254.81305379 -73.08010157 247.85960314 -81.0625 241.5 C-81.0625 240.84 -81.0625 240.18 -81.0625 239.5 C-81.59488281 239.2834375 -82.12726563 239.066875 -82.67578125 238.84375 C-85.94046294 237.0056968 -88.53341654 234.54649895 -91.25 232 C-91.82008789 231.46826172 -92.39017578 230.93652344 -92.97753906 230.38867188 C-107.21939677 216.95537382 -107.21939677 216.95537382 -108.0625 211.5 C-108.7225 211.5 -109.3825 211.5 -110.0625 211.5 C-112.412886 208.41114812 -114.17774421 204.88486755 -116.0625 201.5 C-116.45598633 200.79746094 -116.84947266 200.09492188 -117.25488281 199.37109375 C-122.65051117 189.67127212 -127.41639931 180.35027889 -130.0625 169.5 C-130.30822754 168.76120605 -130.55395508 168.02241211 -130.80712891 167.26123047 C-133.7687437 157.52116042 -133.58570349 147.69905687 -133.56347656 137.61279297 C-133.56251062 134.53385926 -133.60409897 131.45747789 -133.6484375 128.37890625 C-133.7641554 109.21778985 -130.1059003 92.43081039 -121.0625 75.5 C-120.71670898 74.83484375 -120.37091797 74.1696875 -120.01464844 73.484375 C-115.2308308 64.32149118 -110.00094356 56.2232839 -103.0625 48.5 C-102.62647461 48.00516113 -102.19044922 47.51032227 -101.74121094 47.00048828 C-90.01584439 33.6959057 -90.01584439 33.6959057 -83.0625 28.5 C-82.4025 28.5 -81.7425 28.5 -81.0625 28.5 C-80.5675 27.015 -80.5675 27.015 -80.0625 25.5 C-77.81564741 23.94174689 -75.61185361 22.54870996 -73.25 21.1875 C-72.5787207 20.79377197 -71.90744141 20.40004395 -71.21582031 19.99438477 C-54.85566944 10.5 -54.85566944 10.5 -50.0625 10.5 C-50.0625 9.84 -50.0625 9.18 -50.0625 8.5 C-47.85744288 7.71865623 -45.64902456 6.95017003 -43.4375 6.1875 C-42.20773438 5.75824219 -40.97796875 5.32898438 -39.7109375 4.88671875 C-26.34843645 0.7448698 -13.89276216 -0.06288627 0 0 Z " fill="#000000" transform="translate(256.0625,122.5)"/>
<path d="M0 0 C1.93166016 0.01740234 1.93166016 0.01740234 3.90234375 0.03515625 C5.19269531 0.04417969 6.48304688 0.05320312 7.8125 0.0625 C8.81152344 0.07410156 9.81054688 0.08570313 10.83984375 0.09765625 C10.83984375 2.73765625 10.83984375 5.37765625 10.83984375 8.09765625 C11.47792969 8.27941406 12.11601562 8.46117187 12.7734375 8.6484375 C13.59972656 8.89980469 14.42601562 9.15117187 15.27734375 9.41015625 C16.10105469 9.65378906 16.92476563 9.89742188 17.7734375 10.1484375 C18.79630859 10.61830078 18.79630859 10.61830078 19.83984375 11.09765625 C20.33484375 12.58265625 20.33484375 12.58265625 20.83984375 14.09765625 C20.17984375 14.09765625 19.51984375 14.09765625 18.83984375 14.09765625 C17.84984375 17.72765625 16.85984375 21.35765625 15.83984375 25.09765625 C12.55714377 24.44111625 9.29267384 23.7662003 6.02734375 23.03515625 C5.23714844 22.85855469 4.44695312 22.68195313 3.6328125 22.5 C3.04113281 22.36722656 2.44945312 22.23445313 1.83984375 22.09765625 C1.83984375 22.75765625 1.83984375 23.41765625 1.83984375 24.09765625 C2.41992188 24.2678125 3 24.43796875 3.59765625 24.61328125 C9.88193049 26.56285808 14.65541016 28.74076738 19.21484375 33.66015625 C21.53924068 38.57714976 21.95985491 42.76286626 20.83984375 48.09765625 C18.26973248 52.71838822 15.232839 56.16899275 10.83984375 59.09765625 C10.26235572 61.06127489 10.26235572 61.06127489 10.15234375 63.22265625 C10.04921875 64.50140625 9.94609375 65.78015625 9.83984375 67.09765625 C5.21984375 67.09765625 0.59984375 67.09765625 -4.16015625 67.09765625 C-4.13953125 66.02515625 -4.11890625 64.95265625 -4.09765625 63.84765625 C-4.72910447 60.05667423 -4.72910447 60.05667423 -7.23046875 58.7421875 C-9.51632807 57.74973761 -11.79086272 56.86827495 -14.16015625 56.09765625 C-14.16015625 55.43765625 -14.16015625 54.77765625 -14.16015625 54.09765625 C-14.82015625 54.09765625 -15.48015625 54.09765625 -16.16015625 54.09765625 C-15.50015625 51.78765625 -14.84015625 49.47765625 -14.16015625 47.09765625 C-13.50015625 47.09765625 -12.84015625 47.09765625 -12.16015625 47.09765625 C-11.66515625 44.12765625 -11.66515625 44.12765625 -11.16015625 41.09765625 C-8.48684411 41.55593833 -6.16396961 42.09603557 -3.66015625 43.16015625 C-0.98242442 44.16430569 1.00562401 44.25961166 3.83984375 44.09765625 C3.83984375 43.43765625 3.83984375 42.77765625 3.83984375 42.09765625 C2.89625 41.71287109 2.89625 41.71287109 1.93359375 41.3203125 C-4.9058134 38.26111984 -10.22143318 34.60557334 -14.16015625 28.09765625 C-15.3575531 23.97328933 -14.90700319 20.79613074 -13.19140625 16.89453125 C-11.24367063 13.52345036 -9.47590927 11.3362252 -6.34765625 8.97265625 C-3.7931087 7.22957604 -3.7931087 7.22957604 -3.91015625 3.91015625 C-4.03390625 2.51796875 -4.03390625 2.51796875 -4.16015625 1.09765625 C-3.16015625 0.09765625 -3.16015625 0.09765625 0 0 Z " fill="#000000" transform="translate(253.16015625,271.90234375)"/>
</svg>
