<?xml version="1.0" encoding="UTF-8"?>
<svg version="1.1" xmlns="http://www.w3.org/2000/svg" width="512" height="512">
  <path d="M0 0 C1.02434452 -0.00453111 2.04868904 -0.00906223 3.1040743 -0.01373065 C6.51704604 -0.02633388 9.92985738 -0.02475693 13.34284973 -0.02310181 C15.79746708 -0.02908933 18.25208255 -0.03589539 20.70669556 -0.04345703 C26.6692153 -0.05926534 32.6316726 -0.06556402 38.59420749 -0.06668179 C43.44043838 -0.06763415 48.28665629 -0.0717538 53.13288307 -0.07808304 C66.88370445 -0.09567562 80.6344947 -0.10492423 94.38532742 -0.10342209 C95.12541135 -0.10334218 95.86549527 -0.10326227 96.62800598 -0.10317993 C97.73949146 -0.10305729 97.73949146 -0.10305729 98.87343118 -0.10293217 C110.89659854 -0.10211832 122.91964092 -0.12128612 134.94277211 -0.14945666 C147.29865052 -0.17817796 159.65446792 -0.1919976 172.01038057 -0.19026911 C178.94325538 -0.18960528 185.8759989 -0.19509553 192.80884361 -0.21662521 C199.32354601 -0.23672785 205.8380181 -0.23617134 212.35275078 -0.22159195 C214.74488988 -0.21949607 217.13704612 -0.22425081 219.52915573 -0.23631287 C222.79149489 -0.2516996 226.05286788 -0.24250016 229.31518555 -0.22705078 C230.26430649 -0.23733791 231.21342744 -0.24762503 232.19130963 -0.25822389 C238.99309386 -0.18690967 242.38793877 1.20828504 247.26789856 6.05648804 C247.76676575 6.66234741 248.26563293 7.26820679 248.77961731 7.89242554 C251.45563486 11.07056558 254.17705145 14.18840549 256.96711731 17.26742554 C260.23102579 20.88418899 263.4550268 24.53132162 266.65461731 28.20492554 C269.49981021 31.44255883 272.39565567 34.63428844 275.28352356 37.83383179 C277.17560416 39.942537 279.04617489 42.06662355 280.90461731 44.20492554 C283.71534256 47.43302066 286.58291631 50.60480996 289.46711731 53.76742554 C292.92039884 57.55405552 296.32810782 61.37218874 299.68977356 65.24008179 C301.76071218 67.60231727 303.86224579 69.93538407 305.96711731 72.26742554 C309.23102579 75.88418899 312.4550268 79.53132162 315.65461731 83.20492554 C317.73922895 85.57706982 319.85140375 87.92298619 321.96711731 90.26742554 C342.58972196 113.15816776 342.58972196 113.15816776 342.59575176 121.88172054 C342.59897621 123.05768101 342.60220065 124.23364147 342.60552281 125.4452371 C342.60397421 126.74345366 342.60242561 128.04167023 342.60083008 129.37922668 C342.60269741 130.76744669 342.6049978 132.15566617 342.6076954 133.54388481 C342.61383001 137.36767733 342.61367784 141.19144804 342.61250103 145.01524436 C342.61229742 149.13611749 342.61781207 153.25698354 342.62255859 157.37785339 C342.63087605 165.45676896 342.63361398 173.53567723 342.63417097 181.61459672 C342.63464585 188.18383664 342.63669919 194.75307415 342.6398716 201.32231331 C342.64868307 219.94788673 342.65329049 238.57345439 342.65254112 257.19902992 C342.65248119 258.70616334 342.65248119 258.70616334 342.65242004 260.2437439 C342.65237916 261.24972746 342.65233828 262.25571102 342.65229616 263.29217894 C342.6518901 279.57953805 342.6614483 295.866874 342.67555841 312.15422641 C342.68993261 328.87856451 342.69682794 345.60289133 342.69596463 362.32723576 C342.69563291 371.71621335 342.69836907 381.10516669 342.70914268 390.49413872 C342.71826167 398.49254925 342.72041165 406.49092455 342.71363326 414.48933803 C342.71037441 418.5677318 342.71028822 422.64605805 342.71898651 426.72444534 C342.72688121 430.46469949 342.72538994 434.20483291 342.71670238 437.94508422 C342.71445468 439.92536757 342.72197292 441.90565474 342.72994202 443.88592333 C342.65959232 462.2341084 337.94992022 479.59691661 325.33821106 493.48617554 C311.27850151 506.87078421 296.13062914 512.5916714 277.06968689 512.52812195 C275.84469258 512.5319475 274.61969827 512.53577304 273.35758293 512.53971452 C269.97860655 512.54821396 266.59984912 512.54782383 263.22087932 512.54353392 C259.56842974 512.54105881 255.91600532 512.55009057 252.26356506 512.55757141 C245.11625333 512.57029863 237.96897919 512.57211458 230.82165803 512.56977115 C225.01008238 512.56798563 219.19851811 512.56974263 213.38694382 512.57399559 C212.1446243 512.57488837 212.1446243 512.57488837 210.87720742 512.57579919 C209.19450427 512.57701099 207.51180112 512.57822512 205.82909797 512.57944157 C190.06072788 512.59030947 174.29237919 512.58815816 158.5240079 512.58205672 C144.11163031 512.5768881 129.69932031 512.58814291 115.28695609 512.60715494 C100.47327909 512.62654593 85.65963405 512.63478714 70.84594429 512.63103169 C62.53521937 512.62912158 54.22455198 512.6315887 45.91383743 512.64574623 C38.83888652 512.65767707 31.76402855 512.65904585 24.68907632 512.64695606 C21.08261606 512.64107933 17.47632567 512.63993432 13.86987686 512.65195847 C9.95267272 512.66486643 6.03572414 512.65432416 2.11851501 512.64164734 C0.98941086 512.64902162 -0.1396933 512.65639591 -1.30301273 512.66399366 C-17.75319061 512.55229941 -33.77643589 505.88462508 -45.53288269 494.26742554 C-60.47850317 477.35335749 -63.69017336 460.08338568 -63.66659546 438.35244751 C-63.66846498 436.7206739 -63.67076624 435.08890074 -63.67346078 433.45712829 C-63.67956779 428.98334209 -63.67944648 424.50957461 -63.67826641 420.0357852 C-63.67806212 415.20674572 -63.68358381 410.37771222 -63.68832397 405.54867554 C-63.69662506 396.09147509 -63.69937857 386.63428087 -63.69993635 377.17707708 C-63.70041177 369.48858221 -63.7024678 361.80008938 -63.70563698 354.11159515 C-63.71444207 332.30598601 -63.71905658 310.50038178 -63.7183065 288.69477084 C-63.71826655 287.5195965 -63.71822659 286.34442216 -63.71818542 285.13363647 C-63.71814454 283.95702476 -63.71810366 282.78041305 -63.71806154 281.56814644 C-63.71765511 262.50050029 -63.7272243 243.43287389 -63.74132379 224.36523345 C-63.7556919 204.77954591 -63.76259374 185.19386799 -63.76173002 165.60817504 C-63.7613982 154.6151914 -63.76413867 143.62222846 -63.77490807 132.62924957 C-63.78401878 123.26952358 -63.78618361 113.90982768 -63.77939864 104.55009916 C-63.77613634 99.77700782 -63.77606632 95.0039742 -63.78475189 90.23088837 C-63.79263055 85.85614458 -63.79117152 81.48150416 -63.78246776 77.10676286 C-63.78093578 75.52940949 -63.78273747 73.95204836 -63.78832784 72.37470415 C-63.85378488 52.58524366 -60.14177479 34.17809502 -46.40397644 19.04867554 C-33.11943045 6.40200962 -18.17762061 -0.05973905 0 0 Z M-24.53288269 29.26742554 C-25.83225769 30.10273804 -25.83225769 30.10273804 -27.15788269 30.95492554 C-36.87374542 40.41510767 -41.24452865 52.14928058 -41.6258167 65.52841616 C-41.66506087 69.63283784 -41.6711547 73.73617366 -41.66659546 77.84072876 C-41.66846507 79.43537918 -41.67076637 81.03002914 -41.67346078 82.62467837 C-41.67956665 86.99585053 -41.67944662 91.36700352 -41.67826641 95.73817897 C-41.67806209 100.45678803 -41.68358408 105.17539099 -41.68832397 109.89399719 C-41.69662443 119.13462645 -41.69937854 128.37524933 -41.69993635 137.61588201 C-41.7004118 145.12846155 -41.70246798 152.64103899 -41.70563698 160.15361786 C-41.7144419 181.46118927 -41.71905661 202.76875566 -41.7183065 224.0763289 C-41.71826655 225.22462028 -41.71822659 226.37291167 -41.71818542 227.55599976 C-41.71814454 228.70569594 -41.71810366 229.85539211 -41.71806154 231.03992757 C-41.71765512 249.67108338 -41.72722419 268.30221898 -41.74132379 286.93336895 C-41.75569264 306.07157162 -41.76259369 325.20976443 -41.76173002 344.34797263 C-41.76139822 355.08944537 -41.76413759 365.83089693 -41.77490807 376.57236481 C-41.78401975 385.71799388 -41.78618281 394.86359214 -41.77939864 404.00922379 C-41.77613683 408.67295124 -41.77606455 413.33661961 -41.78475189 418.00034142 C-41.79263273 422.27516318 -41.79116932 426.54987918 -41.78246776 430.82469842 C-41.78093626 432.36571287 -41.78273566 433.90673528 -41.78832784 435.44774035 C-41.84421781 451.95071771 -40.35437057 466.97197252 -28.50944519 479.52133179 C-18.70005803 488.18693665 -8.1297959 490.72421587 4.63676453 490.65510559 C6.43750402 490.6631839 6.43750402 490.6631839 8.27462208 490.6714254 C11.58528972 490.68320827 14.89545045 490.68165679 18.20609736 490.67425859 C21.78493855 490.66951236 25.36372669 490.6820496 28.94255066 490.692276 C35.94549695 490.70944116 42.94835341 490.71030874 49.95131527 490.7050631 C55.64561901 490.70101576 61.33989628 490.70247164 67.03419876 490.70781136 C67.8457596 490.70855978 68.65732045 490.7093082 69.49347404 490.7100793 C71.1423552 490.71161084 72.79123635 490.71314918 74.44011749 490.71469427 C89.89088739 490.72841115 105.34160661 490.72298742 120.79237534 490.71150906 C134.91378268 490.70157839 149.03505896 490.7145159 163.15644608 490.73844325 C177.67180704 490.762852 192.187107 490.7724377 206.70248806 490.76579052 C214.84555506 490.76230213 222.98852129 490.76450514 231.13157272 490.78204155 C238.06382 490.7967858 244.99589557 490.79737008 251.92813955 490.77997064 C255.46173734 490.77147629 258.99502868 490.76927225 262.52861023 490.78462219 C266.36706342 490.80108941 270.20504722 490.78628079 274.04350281 490.76863098 C275.14926127 490.77823599 276.25501974 490.78784099 277.39428604 490.79773706 C287.14174758 490.70579356 295.65485001 488.26288648 303.46711731 482.26742554 C304.45711731 481.54555054 305.44711731 480.82367554 306.46711731 480.07992554 C315.41392794 472.37442633 319.52468227 460.74850923 320.46711731 449.26742554 C320.60652431 444.8969331 320.59779589 440.52935711 320.58737183 436.1569519 C320.58822625 434.84337975 320.58908068 433.5298076 320.58996099 432.17643023 C320.59218906 428.54599028 320.58820784 424.91558002 320.58318293 421.28514385 C320.57885432 417.36432079 320.58032657 413.44349934 320.58108521 409.52267456 C320.58160891 402.73474228 320.57847811 395.94681963 320.57284737 389.15888977 C320.56471162 379.34474845 320.56211502 369.53061177 320.56085937 359.71646744 C320.55867212 343.79269563 320.55202087 327.86892894 320.54255676 311.94515991 C320.53337421 296.47901434 320.5262975 281.01287016 320.52204895 265.54672241 C320.52178623 264.59298562 320.5215235 263.63924882 320.52125282 262.65661091 C320.51994776 257.87187319 320.51868405 253.08713546 320.51744092 248.30239773 C320.50707846 208.62407007 320.48946901 168.94574814 320.46711731 129.26742554 C319.40524704 129.2615593 318.34337677 129.25569305 317.24932861 129.24964905 C307.22966688 129.19237242 297.21022115 129.11958487 287.19077969 129.03171062 C282.0399883 128.98703208 276.88927555 128.94777031 271.73835754 128.92098999 C266.76504492 128.89493206 261.79203532 128.85451179 256.8189106 128.80423927 C254.92400451 128.78758744 253.02904602 128.77606269 251.13407707 128.76981163 C248.47450563 128.76015226 245.81570648 128.73207118 243.15632629 128.69979858 C242.37732971 128.70123367 241.59833313 128.70266876 240.79573059 128.70414734 C235.65852947 128.61630299 232.01450915 127.71746553 227.46711731 125.26742554 C225.41695092 122.19217596 225.21452768 121.54498361 225.18864441 118.0723114 C225.17189919 116.79138107 225.17189919 116.79138107 225.15481567 115.48457336 C225.15265549 114.5509346 225.1504953 113.61729584 225.14826965 112.65536499 C225.13822403 111.66981628 225.12817841 110.68426758 225.11782837 109.66885376 C225.08689868 106.40614412 225.06993397 103.1435169 225.05305481 99.88070679 C225.03435104 97.62054226 225.01477823 95.36038476 224.99436951 93.10023499 C224.94295875 87.1474217 224.90338088 81.19458576 224.8662262 75.2416687 C224.82624259 69.16881666 224.77512454 63.09605962 224.72492981 57.02328491 C224.62806462 45.10473177 224.54369376 33.18612509 224.46711731 21.26742554 C195.62554469 21.1989044 166.78398171 21.14585356 137.94234364 21.11422955 C134.53295817 21.11047768 131.12357285 21.10659469 127.71418762 21.10263062 C127.03547518 21.10184368 126.35676274 21.10105675 125.65748325 21.10024597 C114.68540294 21.08721214 103.71337006 21.06356951 92.74131784 21.03596715 C81.47278064 21.00785654 70.20426703 20.99146172 58.93569303 20.98516005 C52.61059754 20.98125489 46.28560942 20.97209979 39.9605484 20.95023537 C34.00163865 20.92980443 28.04288005 20.92360513 22.0839386 20.92810249 C19.90234301 20.92728025 17.72074213 20.92135421 15.53917694 20.90980911 C0.96703269 20.83650384 -11.94247769 21.03022475 -24.53288269 29.26742554 Z M246.46711731 40.26742554 C246.46711731 62.37742554 246.46711731 84.48742554 246.46711731 107.26742554 C265.93711731 107.26742554 285.40711731 107.26742554 305.46711731 107.26742554 C303.90324568 104.13968228 303.02915203 102.57526057 300.74446106 100.20101929 C299.9440741 99.35809326 299.9440741 99.35809326 299.1275177 98.49813843 C298.27468201 97.61049805 298.27468201 97.61049805 297.40461731 96.70492554 C293.45091946 92.52607528 289.61474368 88.33500886 286.02961731 83.82992554 C281.22780718 77.82988182 275.9643714 72.30089628 270.69758606 66.71273804 C267.76001241 63.59308684 264.9102222 60.41079146 262.11164856 57.16586304 C260.04625905 54.78158916 257.94699803 52.42939959 255.84211731 50.07992554 C255.12797668 49.28199585 254.41383606 48.48406616 253.67805481 47.66195679 C251.34251985 45.13248165 248.90155441 42.70186264 246.46711731 40.26742554 Z " fill="#ffffff" transform="translate(116.53288269042969,-0.267425537109375)" />
  <path d="M0 0 C0.77123199 -0.00846954 1.54246399 -0.01693909 2.33706665 -0.02566528 C4.8838963 -0.04904375 7.43012199 -0.05005718 9.97705078 -0.04882812 C11.75058229 -0.05592987 13.5241115 -0.06362888 15.29763794 -0.07189941 C19.0148965 -0.08534663 22.73194268 -0.08691223 26.44921875 -0.08105469 C31.20645544 -0.07516224 35.96267028 -0.10572963 40.7197094 -0.14617157 C44.38295963 -0.17205852 48.04596427 -0.17492503 51.70929337 -0.17127991 C53.46274506 -0.17297063 55.21620816 -0.18260865 56.96957016 -0.20042419 C59.42571507 -0.22263186 61.87979793 -0.21290447 64.3359375 -0.1953125 C65.05614075 -0.20857574 65.77634399 -0.22183899 66.51837158 -0.23550415 C72.18436346 -0.14150029 74.45763462 1.55193051 78.29736328 5.41992188 C79.98486328 8.06835938 79.98486328 8.06835938 81.29736328 10.79492188 C86.76203586 21.35522422 93.74718034 27.59610785 104.98486328 31.52929688 C107.56647028 32.22340819 109.97910239 32.72521328 112.60986328 33.12304688 C113.36283691 33.2376123 114.11581055 33.35217773 114.89160156 33.47021484 C116.38134882 33.68230688 117.87483664 33.86995845 119.37109375 34.02978516 C123.95167014 34.6574505 126.42867833 35.87557325 129.27647209 39.53472137 C131.24398612 43.16797678 130.98188064 46.95112363 130.9284668 50.99511719 C130.93919975 52.41609711 130.93919975 52.41609711 130.95014954 53.86578369 C130.96703496 56.993698 130.94761632 60.12017712 130.92626953 63.24804688 C130.92709906 65.43837604 130.92956163 67.62870513 130.93357849 69.81903076 C130.9364375 74.41567681 130.92173931 79.01183598 130.89428711 83.60839844 C130.86044632 89.45164258 130.86614098 95.29400256 130.88494968 101.13728714 C130.89561789 105.66745119 130.8864896 110.19741629 130.87156487 114.72756195 C130.86643787 116.87856196 130.86679695 119.02958328 130.87310982 121.18058014 C130.90339098 137.71829549 129.40792898 153.30192885 122.98486328 168.73242188 C122.68491455 169.47331055 122.38496582 170.21419922 122.07592773 170.97753906 C117.48207436 182.07765174 111.53885711 191.88418947 104.43408203 201.52148438 C103.00908142 203.45448338 101.62946537 205.42176875 100.29736328 207.41992188 C99.63736328 207.41992188 98.97736328 207.41992188 98.29736328 207.41992188 C98.06791016 207.97292969 97.83845703 208.5259375 97.60205078 209.09570312 C92.40254839 218.35828972 81.75881844 225.46296381 73.29736328 231.41992188 C72.56130859 231.96261719 71.82525391 232.5053125 71.06689453 233.06445312 C64.32306913 237.85978113 56.8261263 241.08009467 49.29736328 244.41992188 C47.94578125 245.07927734 47.94578125 245.07927734 46.56689453 245.75195312 C37.49179793 249.94159805 28.97974781 249.62979163 19.67651367 246.31396484 C1.10435119 239.14658588 -14.39658611 228.13159502 -28.70263672 214.41992188 C-29.64365234 213.52660156 -30.58466797 212.63328125 -31.55419922 211.71289062 C-33.70263672 209.41992188 -33.70263672 209.41992188 -33.70263672 207.41992188 C-34.36263672 207.41992188 -35.02263672 207.41992188 -35.70263672 207.41992188 C-37.34339562 205.41319444 -38.84545077 203.41519388 -40.32763672 201.29492188 C-40.77204102 200.66328125 -41.21644531 200.03164063 -41.67431641 199.38085938 C-55.5922343 179.29601866 -65.99052483 155.97448999 -66.0090332 131.20019531 C-66.01735672 130.23301575 -66.02568024 129.26583618 -66.03425598 128.26934814 C-66.05814687 125.10595565 -66.06709851 121.94276969 -66.07373047 118.77929688 C-66.08270657 116.56593773 -66.09182858 114.35257917 -66.10108948 112.13922119 C-66.11752066 107.51630177 -66.12526995 102.89345432 -66.12817383 98.27050781 C-66.13357839 92.34995999 -66.1713694 86.43008767 -66.21691799 80.50973129 C-66.24665252 75.94579586 -66.25389647 71.38202468 -66.25489998 66.81800079 C-66.25910263 64.63471605 -66.27153863 62.45143083 -66.29241753 60.26824188 C-66.31928086 57.21900769 -66.31452317 54.17136249 -66.30200195 51.12207031 C-66.31683624 50.22427856 -66.33167053 49.32648682 -66.34695435 48.40148926 C-66.29679977 44.11111355 -66.04520487 41.28752617 -63.30647278 37.87509155 C-60.71697065 35.43343741 -59.59621769 34.60443493 -56.15576172 34.09960938 C-55.31013672 33.95652344 -54.46451172 33.8134375 -53.59326172 33.66601562 C-52.72185547 33.54355469 -51.85044922 33.42109375 -50.95263672 33.29492188 C-39.12708603 31.49615588 -28.10239943 27.74741052 -20.72216797 17.73242188 C-18.97896936 14.99682662 -17.32189723 12.23031381 -15.70263672 9.41992188 C-11.41834873 2.39766175 -8.40971302 -0.03402896 0 0 Z M0.87939453 31.71289062 C-0.02221234 33.59618079 -0.88624465 35.49815686 -1.70263672 37.41992188 C-11.06071369 49.02364568 -25.43275207 55.95783918 -39.70263672 59.41992188 C-39.74939948 67.99240469 -39.78472547 76.5648324 -39.80626106 85.13741207 C-39.81660769 89.11989348 -39.83059546 93.10228633 -39.85351562 97.0847168 C-39.87557537 100.94269721 -39.88727347 104.80059357 -39.8923912 108.65863228 C-39.89602858 110.11549766 -39.90312684 111.57235953 -39.91409683 113.02918816 C-40.0166468 127.23988172 -39.38531915 141.60533991 -34.57763672 155.10742188 C-34.27124268 155.99042969 -33.96484863 156.8734375 -33.64916992 157.78320312 C-26.48873277 177.64495652 -12.98986293 195.29972638 4.29736328 207.41992188 C5.03817139 207.98114746 5.03817139 207.98114746 5.79394531 208.55371094 C10.25966476 211.88351491 14.86841738 214.34832128 19.92236328 216.66992188 C20.65970703 217.02054688 21.39705078 217.37117187 22.15673828 217.73242188 C29.21441706 221.16201806 29.21441706 221.16201806 36.79345703 220.30273438 C38.11523203 219.73501126 39.42877777 219.14786409 40.73486328 218.54492188 C41.43716064 218.22612061 42.13945801 217.90731934 42.86303711 217.57885742 C67.26190335 206.1663516 87.49351277 185.77060432 97.27392578 160.46679688 C97.91732996 158.68412582 98.55022326 156.89762489 99.17236328 155.10742188 C99.45885742 154.30296631 99.74535156 153.49851074 100.04052734 152.66967773 C104.41960512 139.24393116 104.59802936 124.87584765 104.49267578 110.88476562 C104.48893002 109.38448783 104.48609048 107.88420754 104.48410034 106.38392639 C104.47658657 102.49934731 104.45704903 98.61492592 104.43469238 94.73040771 C104.41396429 90.74086641 104.40504195 86.75129877 104.39501953 82.76171875 C104.37378697 74.98104912 104.33980625 67.20050787 104.29736328 59.41992188 C103.28778564 59.09668945 102.27820801 58.77345703 101.23803711 58.44042969 C99.88923124 58.00158376 98.54052216 57.56244024 97.19189453 57.12304688 C96.52935669 56.91180176 95.86681885 56.70055664 95.1842041 56.48291016 C79.11835973 51.21800626 67.52835809 40.26641408 58.29736328 26.41992188 C56.06032239 25.90678898 56.06032239 25.90678898 53.42382812 25.90478516 C51.90116837 25.85186813 51.90116837 25.85186813 50.3477478 25.79788208 C49.24573029 25.77885834 48.14371277 25.75983459 47.00830078 25.74023438 C45.87590973 25.71839081 44.74351868 25.69654724 43.57681274 25.67404175 C41.17437698 25.63687716 38.77178421 25.60891523 36.36914062 25.58935547 C32.70552605 25.54532048 29.04900881 25.42664303 25.38720703 25.30664062 C11.47370405 24.36022576 11.47370405 24.36022576 0.87939453 31.71289062 Z " fill="#ffffff" transform="translate(223.70263671875,131.580078125)" />
  <path d="M0 0 C4.40964546 3.76657216 5.60706002 7.11089264 6.25 12.65625 C5.63876736 18.38655599 2.025839 22.36352672 -1.86352539 26.33105469 C-2.34533264 26.82615036 -2.82713989 27.32124603 -3.32354736 27.8313446 C-4.90680451 29.45305163 -6.5011568 31.06320916 -8.09765625 32.671875 C-9.21291518 33.80187151 -10.32810261 34.93193858 -11.44322205 36.06207275 C-13.77870396 38.4244807 -16.12077118 40.78014595 -18.46655273 43.13232422 C-21.45888373 46.13552276 -24.42494122 49.16331116 -27.38539982 52.19788742 C-29.67882669 54.53987269 -31.99020294 56.86350747 -34.30676079 59.1825943 C-35.40770384 60.2907311 -36.50207793 61.40543743 -37.58940315 62.52693939 C-48.13528966 73.37865647 -48.13528966 73.37865647 -55.75689697 74.12203979 C-62.68970432 73.74484874 -66.93207335 69.6580307 -71.51953125 64.9765625 C-72.10417648 64.3933725 -72.68882172 63.8101825 -73.29118347 63.20932007 C-74.51692061 61.98193209 -75.73775424 60.74962936 -76.95385742 59.51269531 C-78.81231855 57.62518429 -80.68883927 55.75714229 -82.56835938 53.890625 C-83.76153408 52.69121473 -84.95362959 51.49072971 -86.14453125 50.2890625 C-86.70284134 49.73368805 -87.26115143 49.1783136 -87.83638 48.60610962 C-91.38084788 44.97481805 -93.80286407 41.90649132 -94.15234375 36.75390625 C-93.58314755 30.94810504 -92.24783051 28.04555286 -88 24 C-83.57996255 22.52665418 -79.60668361 22.18746089 -75 23 C-71.81980631 24.84964361 -69.51045745 27.33498081 -67 30 C-65.16786352 31.81370982 -63.33450403 33.62618492 -61.5 35.4375 C-59.99748805 36.95585169 -58.49658903 38.47580995 -57 40 C-51.82278044 35.68725279 -47.06660638 31.13640908 -42.37890625 26.30078125 C-40.93485056 24.82948332 -39.49017015 23.35879834 -38.04492188 21.88867188 C-35.79645647 19.59693365 -33.55207337 17.30173765 -31.31811523 14.99584961 C-29.14160213 12.75250641 -26.94931018 10.52562062 -24.75390625 8.30078125 C-24.0953212 7.61325272 -23.43673615 6.92572418 -22.75819397 6.21736145 C-16.18393231 -0.39408136 -9.09196727 -4.0524197 0 0 Z " fill="#ffffff" transform="translate(300,220)" />
</svg>