<?xml version="1.0" encoding="UTF-8"?>
<svg version="1.1" xmlns="http://www.w3.org/2000/svg" width="512" height="512">
<path d="M0 0 C1.22499431 -0.00382555 2.44998862 -0.00765109 3.71210396 -0.01159257 C7.09108034 -0.02009202 10.46983777 -0.01970188 13.84880757 -0.01541197 C17.50125715 -0.01293686 21.15368157 -0.02196862 24.80612183 -0.02944946 C31.95343356 -0.04217668 39.1007077 -0.04399263 46.24802886 -0.0416492 C52.05960451 -0.03986369 57.87116878 -0.04162068 63.68274307 -0.04587364 C64.51095608 -0.04646883 65.33916909 -0.04706402 66.19247947 -0.04767724 C67.87518262 -0.04888904 69.55788577 -0.05010317 71.24058892 -0.05131962 C87.00895901 -0.06218752 102.7773077 -0.06003621 118.54567899 -0.05393478 C132.95805658 -0.04876615 147.37036658 -0.06002097 161.7827308 -0.07903299 C176.5964078 -0.09842398 191.41005284 -0.10666519 206.2237426 -0.10290974 C214.53446752 -0.10099963 222.84513491 -0.10346675 231.15584946 -0.11762428 C238.23080037 -0.12955512 245.30565834 -0.13092391 252.38061057 -0.11883412 C255.98707083 -0.11295739 259.59336122 -0.11181238 263.19981003 -0.12383652 C267.11701417 -0.13674448 271.03396275 -0.12620221 274.95117188 -0.11352539 C276.08027603 -0.12089968 277.20938019 -0.12827396 278.37269962 -0.13587171 C294.8228775 -0.02417746 310.84612278 6.64349687 322.60256958 18.26069641 C334.81980502 32.08703116 340.7125011 47.59830751 340.73628235 65.89955139 C340.73854791 66.62479232 340.74081346 67.35003325 340.74314767 68.09725118 C340.74942947 70.50428862 340.74866208 72.91126891 340.74783325 75.3183136 C340.7508284 77.05369641 340.75423175 78.78907856 340.75801086 80.52445984 C340.76681931 85.22299267 340.76918766 89.92150728 340.76982665 94.62004757 C340.770539 97.56031672 340.77267682 100.50058129 340.77532387 103.4408493 C340.78456716 113.71218152 340.78866007 123.98350079 340.78787231 134.25483704 C340.78727194 143.8069029 340.7978185 153.35891221 340.81361598 162.91096377 C340.82672173 171.13035558 340.83205493 179.34972897 340.8314169 187.56913114 C340.83116279 192.46996886 340.83396594 197.37075631 340.84459496 202.27158356 C340.85432702 206.88451856 340.85432032 211.49735575 340.84707832 216.11029434 C340.84603878 217.79522216 340.84835757 219.48015623 340.85443878 221.16507339 C340.92236352 241.30270719 337.50987503 260.02138469 323.47366333 275.47944641 C309.41395378 288.86405509 294.26608141 294.58494227 275.20513916 294.52139282 C273.98014485 294.52521837 272.75515054 294.52904392 271.4930352 294.53298539 C268.11405882 294.54148484 264.73530139 294.54109471 261.35633159 294.5368048 C257.70388201 294.53432969 254.05145759 294.54336144 250.39901733 294.55084229 C243.2517056 294.5635695 236.10443146 294.56538545 228.9571103 294.56304202 C223.14553465 294.56125651 217.33397038 294.5630135 211.52239609 294.56726646 C210.69418308 294.56786165 209.86597007 294.56845684 209.01265969 294.56907007 C207.32995654 294.57028186 205.64725339 294.571496 203.96455024 294.57271244 C188.19618015 294.58358034 172.42783146 294.58142903 156.65946017 294.5753276 C142.24708258 294.57015897 127.83477258 294.58141379 113.42240836 294.60042582 C98.60873136 294.6198168 83.79508632 294.62805801 68.98139656 294.62430257 C60.67067164 294.62239245 52.36000425 294.62485957 44.0492897 294.63901711 C36.97433879 294.65094794 29.89948082 294.65231673 22.82452859 294.64022694 C19.21806833 294.63435021 15.61177794 294.6332052 12.00532913 294.64522934 C8.08812499 294.6581373 4.17117641 294.64759503 0.25396729 294.63491821 C-0.87513687 294.6422925 -2.00424103 294.64966678 -3.16756046 294.65726453 C-19.61773834 294.54557028 -35.64098362 287.87789595 -47.39743042 276.26069641 C-59.61466586 262.43436166 -65.50736194 246.92308531 -65.53114319 228.62184143 C-65.53340874 227.8966005 -65.5356743 227.17135957 -65.53800851 226.42414165 C-65.54429031 224.0171042 -65.54352292 221.61012391 -65.54269409 219.20307922 C-65.54568924 217.46769641 -65.54909259 215.73231426 -65.5528717 213.99693298 C-65.56168015 209.29840015 -65.5640485 204.59988555 -65.56468749 199.90134525 C-65.56539984 196.9610761 -65.56753766 194.02081153 -65.57018471 191.08054352 C-65.579428 180.8092113 -65.58352091 170.53789203 -65.58273315 160.26655579 C-65.58213278 150.71448992 -65.59267934 141.16248061 -65.60847682 131.61042905 C-65.62158257 123.39103724 -65.62691577 115.17166385 -65.62627774 106.95226169 C-65.62602363 102.05142396 -65.62882678 97.15063652 -65.6394558 92.24980927 C-65.64918786 87.63687426 -65.64918116 83.02403708 -65.64193916 78.41109848 C-65.64089962 76.72617066 -65.64321841 75.04123659 -65.64929962 73.35631943 C-65.71722436 53.21868563 -62.30473587 34.50000813 -48.26852417 19.04194641 C-34.20881462 5.65733773 -19.06094225 -0.06354945 0 0 Z M-26.39743042 30.26069641 C-27.38743042 30.98257141 -28.37743042 31.70444641 -29.39743042 32.44819641 C-38.42481326 40.22308896 -42.28858688 51.73585434 -43.39743042 63.26069641 C-43.48446529 65.67928013 -43.52780764 68.09976579 -43.53114319 70.51991272 C-43.53340874 71.20431813 -43.5356743 71.88872353 -43.53800851 72.59386849 C-43.5442844 74.86271163 -43.54352331 77.13149405 -43.54269409 79.40034485 C-43.54568961 81.03720679 -43.54909305 82.67406803 -43.5528717 84.31092834 C-43.56167641 88.74087492 -43.56404834 93.17080216 -43.56468749 97.60075665 C-43.56540006 100.3735162 -43.56753829 103.14627089 -43.57018471 105.91902924 C-43.57942681 115.60681468 -43.58352106 125.29458639 -43.58273315 134.9823761 C-43.58213283 143.98912765 -43.59267864 152.99581922 -43.60847682 162.00255561 C-43.62158636 169.75486015 -43.62691561 177.50714516 -43.62627774 185.25946069 C-43.62602374 189.88084287 -43.62882082 194.50217172 -43.6394558 199.12354279 C-43.64919429 203.47383141 -43.64917685 207.82401633 -43.64193916 212.17430878 C-43.6409004 213.76248324 -43.64321365 215.35066437 -43.64929962 216.93882751 C-43.70880186 233.55473017 -42.34864057 248.82780636 -30.37399292 261.51460266 C-20.56460576 270.18020752 -9.99434363 272.71748674 2.7722168 272.64837646 C4.57295629 272.65645477 4.57295629 272.65645477 6.41007435 272.66469628 C9.72074199 272.67647914 13.03090272 272.67492766 16.34154963 272.66752946 C19.92039082 272.66278324 23.49917896 272.67532048 27.07800293 272.68554688 C34.08094922 272.70271204 41.08380568 272.70357961 48.08676754 272.69833397 C53.78107128 272.69428664 59.47534855 272.69574251 65.16965103 272.70108223 C65.98121187 272.70183065 66.79277272 272.70257907 67.62892631 272.70335018 C69.27780747 272.70488171 70.92668862 272.70642006 72.57556976 272.70796514 C88.02633966 272.72168202 103.47705888 272.7162583 118.92782761 272.70477993 C133.04923495 272.69484926 147.17051123 272.70778677 161.29189835 272.73171412 C175.80725931 272.75612287 190.32255927 272.76570858 204.83794034 272.7590614 C212.98100733 272.75557301 221.12397356 272.75777602 229.26702499 272.77531242 C236.19927227 272.79005667 243.13134784 272.79064095 250.06359182 272.77324151 C253.59718961 272.76474716 257.13048095 272.76254312 260.6640625 272.77789307 C264.50251569 272.79436029 268.34049949 272.77955166 272.17895508 272.76190186 C273.83759278 272.77630937 273.83759278 272.77630937 275.52973831 272.79100794 C285.27719985 272.69906443 293.79030228 270.25615736 301.60256958 264.26069641 C302.59256958 263.53882141 303.58256958 262.81694641 304.60256958 262.07319641 C313.62995242 254.29830386 317.49372604 242.78553848 318.60256958 231.26069641 C318.68960445 228.84211269 318.7329468 226.42162703 318.73628235 224.0014801 C318.73854791 223.3170747 318.74081346 222.63266929 318.74314767 221.92752433 C318.74942356 219.65868119 318.74866247 217.38989877 318.74783325 215.12104797 C318.75082877 213.48418603 318.75423221 211.8473248 318.75801086 210.21046448 C318.76681557 205.7805179 318.7691875 201.35059066 318.76982665 196.92063618 C318.77053922 194.14787662 318.77267745 191.37512193 318.77532387 188.60236359 C318.78456597 178.91457814 318.78866022 169.22680643 318.78787231 159.53901672 C318.78727199 150.53226517 318.7978178 141.5255736 318.81361598 132.51883721 C318.82672552 124.76653268 318.83205477 117.01424766 318.8314169 109.26193213 C318.8311629 104.64054995 318.83395998 100.0192211 318.84459496 95.39785004 C318.85433345 91.04756142 318.85431601 86.69737649 318.84707832 82.34708405 C318.84603956 80.75890958 318.84835281 79.17072845 318.85443878 77.58256531 C318.91394102 60.96666265 317.55377973 45.69358646 305.57913208 33.00679016 C295.76974492 24.3411853 285.19948279 21.80390608 272.43292236 21.87301636 C271.23242937 21.86763082 270.03193638 21.86224528 268.79506481 21.85669655 C265.48439717 21.84491368 262.17423644 21.84646516 258.86358953 21.85386336 C255.28474834 21.85860958 251.7059602 21.84607234 248.12713623 21.83584595 C241.12418994 21.81868079 234.12133348 21.81781321 227.11837162 21.82305885 C221.42406788 21.82710619 215.72979061 21.82565031 210.03548813 21.82031059 C209.22392729 21.81956217 208.41236644 21.81881375 207.57621285 21.81804265 C205.92733169 21.81651111 204.27845054 21.81497276 202.6295694 21.81342768 C187.1787995 21.7997108 171.72808028 21.80513452 156.27731155 21.81661289 C142.15590421 21.82654356 128.03462793 21.81360605 113.91324081 21.7896787 C99.39787985 21.76526995 84.88257989 21.75568425 70.36719882 21.76233143 C62.22413183 21.76581981 54.0811656 21.76361681 45.93811417 21.7460804 C39.00586689 21.73133615 32.07379132 21.73075187 25.14154734 21.74815131 C21.60794955 21.75664566 18.07465821 21.7588497 14.54107666 21.74349976 C10.70262347 21.72703254 6.86463967 21.74184116 3.02618408 21.75949097 C1.92042562 21.74988596 0.81466715 21.74028095 -0.32459915 21.73038489 C-10.07206069 21.82232839 -18.58516312 24.26523546 -26.39743042 30.26069641 Z " fill="#00b0f0" transform="translate(118.39743041992188,108.73930358886719)"/>
<path d="M0 0 C0.763125 0.845625 1.52625 1.69125 2.3125 2.5625 C2.79332031 3.05105469 3.27414063 3.53960937 3.76953125 4.04296875 C12.25488429 13.08685136 15.89873725 25.3103355 15.625 37.54296875 C14.56145808 47.81944254 10.65859746 56.83054082 5.3125 65.5625 C5.9415625 66.02398437 6.570625 66.48546875 7.21875 66.9609375 C20.75175759 77.27374148 30.66506 92.02158705 33.91015625 108.92578125 C34.42971824 113.62201637 34.66453309 118.27709834 34.75 123 C34.78383789 124.27955566 34.78383789 124.27955566 34.81835938 125.58496094 C34.79690692 131.01886773 34.10179475 134.37160478 30.3125 138.5625 C26.88049611 140.2440189 24.11177366 140.81401846 20.30982971 140.82319641 C19.32717133 140.83028122 18.34451294 140.83736603 17.33207703 140.84466553 C16.26544327 140.84218811 15.19880951 140.83971069 14.09985352 140.8371582 C12.96759338 140.84226913 11.83533325 140.84738007 10.66876221 140.85264587 C6.92625644 140.86654506 3.18393476 140.86558488 -0.55859375 140.86328125 C-3.16024341 140.86716786 -5.76189244 140.87150246 -8.36354065 140.87626648 C-13.81668422 140.88372931 -19.26975644 140.88357517 -24.72290039 140.87817383 C-31.01852917 140.87213373 -37.31393448 140.8844482 -43.60952514 140.9057439 C-49.67558654 140.92550565 -55.74154368 140.92853112 -61.80763435 140.92500877 C-64.38443591 140.92552233 -66.96124101 140.93076645 -69.53802299 140.94082069 C-73.14067698 140.95315286 -76.74281333 140.94641226 -80.34545898 140.93481445 C-81.94237328 140.94628006 -81.94237328 140.94628006 -83.57154846 140.95797729 C-88.99899855 140.91934647 -93.05585775 140.73642362 -97.6875 137.5625 C-103.54265594 128.82917669 -101.09258074 115.90787155 -99.30029297 105.98022461 C-96.12496802 91.03921699 -86.93390706 76.26080714 -74.5 67.25 C-73.571875 66.693125 -72.64375 66.13625 -71.6875 65.5625 C-72.07421875 64.91925781 -72.4609375 64.27601563 -72.859375 63.61328125 C-79.88279575 51.42660316 -83.91061377 39.29089735 -80.9921875 25.20703125 C-78.96664809 17.94742991 -76.01475738 11.72093935 -71.6875 5.5625 C-71.24792969 4.92699219 -70.80835937 4.29148438 -70.35546875 3.63671875 C-63.03470297 -5.87816703 -51.26887143 -10.8478576 -39.8125 -13.25 C-24.58125338 -14.49590974 -11.30057567 -10.24935933 0 0 Z M-55.6875 17.5625 C-60.54334265 25.18911165 -61.69103989 32.59951134 -60.6875 41.5625 C-58.04349426 50.02937336 -53.47412799 56.22794375 -45.6875 60.5625 C-38.45037601 63.47500112 -29.86569946 63.90295705 -22.375 61.5 C-15.01594654 58.1549757 -10.29094519 53.04757017 -7.37890625 45.578125 C-4.53456114 37.28613587 -4.85488915 29.79951239 -8.49609375 21.78125 C-12.00385078 15.24877133 -17.42784783 10.32309936 -24.54296875 7.94140625 C-37.06424401 5.72908621 -47.16763926 8.0225229 -55.6875 17.5625 Z M-62.375 83.3515625 C-63.138125 84.08117187 -63.90125 84.81078125 -64.6875 85.5625 C-65.7703125 86.56410156 -65.7703125 86.56410156 -66.875 87.5859375 C-75.68235058 96.56009396 -79.6875 107.22115599 -79.6875 119.5625 C-48.9975 119.5625 -18.3075 119.5625 13.3125 119.5625 C13.3125 106.11724668 8.64946933 95.94000507 -0.80859375 86.4296875 C-2.7188619 84.70358509 -4.61287287 83.08637781 -6.6875 81.5625 C-7.41582031 80.96695313 -8.14414063 80.37140625 -8.89453125 79.7578125 C-13.04435724 77.98180305 -15.97277776 79.23107677 -20.1875 80.4375 C-30.46125549 83.03549692 -38.73625767 82.87337266 -48.875 79.5625 C-54.90607384 77.94149992 -57.69133648 79.43349782 -62.375 83.3515625 Z " fill="#00b0f0" transform="translate(194.6875,192.4375)"/>
<path d="M0 0 C0.6491747 -0.00453111 1.29834939 -0.00906223 1.96719605 -0.01373065 C4.14048047 -0.02638174 6.31351452 -0.02475387 8.48683167 -0.02310181 C10.0457949 -0.02908656 11.60475518 -0.03589199 13.16371155 -0.04345703 C17.39716231 -0.06112809 21.63053222 -0.06581283 25.86401629 -0.0670886 C29.39789117 -0.06898782 32.93174722 -0.07634548 36.46561486 -0.08343279 C44.80228668 -0.09971799 53.1389153 -0.10460157 61.4756012 -0.10317993 C70.07690965 -0.10197794 78.67796741 -0.12309089 87.27921242 -0.15466726 C94.66361085 -0.18081089 102.0479273 -0.19154806 109.43237168 -0.19026911 C113.842948 -0.18975898 118.25330147 -0.19547042 122.66383171 -0.21662521 C126.81142087 -0.23597591 130.95857382 -0.23615405 135.10617828 -0.22159195 C136.6279546 -0.2194989 138.14975799 -0.22423431 139.67148781 -0.23631287 C141.75009283 -0.25174249 143.82718936 -0.242475 145.90576172 -0.22705078 C147.06847816 -0.22814032 148.23119459 -0.22922985 149.42914486 -0.2303524 C153.1715184 0.37305982 154.827859 1.6480112 157.51637268 4.26742554 C159.11723895 7.46915808 159.01554357 10.79319613 158.51637268 14.26742554 C156.72273357 17.07746014 155.49756333 18.77683021 152.51637268 20.26742554 C150.43724087 20.3680614 148.35481351 20.40254873 146.27325439 20.40786743 C145.30205563 20.41232412 145.30205563 20.41232412 144.31123668 20.41687083 C142.13179968 20.42557393 139.9524175 20.42706743 137.77296448 20.42855835 C136.21429832 20.43318541 134.6556333 20.43820992 133.0969696 20.44360352 C128.8551525 20.45674091 124.61335122 20.46317516 120.37151694 20.46761417 C117.72246636 20.47054294 115.07342012 20.47464738 112.42437172 20.47911835 C104.13928392 20.49279723 95.85420603 20.50246179 87.56910771 20.50632024 C77.99941977 20.51080115 68.42987465 20.5283489 58.86023015 20.55732083 C51.46738856 20.57892688 44.07458719 20.58902395 36.68171436 20.59036136 C32.26443517 20.59141022 27.84729017 20.59733522 23.43004417 20.61518097 C19.27434261 20.63164293 15.11887636 20.63382635 10.96315384 20.62504196 C9.43815418 20.62427056 7.91314196 20.62862792 6.38817406 20.63850021 C4.30531579 20.6511929 2.22329429 20.64535838 0.14044189 20.63491821 C-1.02487218 20.63638477 -2.19018625 20.63785133 -3.39081287 20.63936234 C-6.83431023 20.22525298 -8.70588701 19.3049816 -11.48362732 17.26742554 C-13.81189107 14.05220416 -13.88073913 11.15912129 -13.48362732 7.26742554 C-10.51713427 0.74114084 -6.83577199 0.01971143 0 0 Z " fill="#00b0f0" transform="translate(259.48362731933594,302.7325744628906)"/>
<path d="M0 0 C0.6491747 -0.00453111 1.29834939 -0.00906223 1.96719605 -0.01373065 C4.14048047 -0.02638174 6.31351452 -0.02475387 8.48683167 -0.02310181 C10.0457949 -0.02908656 11.60475518 -0.03589199 13.16371155 -0.04345703 C17.39716231 -0.06112809 21.63053222 -0.06581283 25.86401629 -0.0670886 C29.39789117 -0.06898782 32.93174722 -0.07634548 36.46561486 -0.08343279 C44.80228668 -0.09971799 53.1389153 -0.10460157 61.4756012 -0.10317993 C70.07690965 -0.10197794 78.67796741 -0.12309089 87.27921242 -0.15466726 C94.66361085 -0.18081089 102.0479273 -0.19154806 109.43237168 -0.19026911 C113.842948 -0.18975898 118.25330147 -0.19547042 122.66383171 -0.21662521 C126.81142087 -0.23597591 130.95857382 -0.23615405 135.10617828 -0.22159195 C136.6279546 -0.2194989 138.14975799 -0.22423431 139.67148781 -0.23631287 C141.75009283 -0.25174249 143.82718936 -0.242475 145.90576172 -0.22705078 C147.06847816 -0.22814032 148.23119459 -0.22922985 149.42914486 -0.2303524 C153.1715184 0.37305982 154.827859 1.6480112 157.51637268 4.26742554 C159.11723895 7.46915808 159.01554357 10.79319613 158.51637268 14.26742554 C156.72273357 17.07746014 155.49756333 18.77683021 152.51637268 20.26742554 C150.43724087 20.3680614 148.35481351 20.40254873 146.27325439 20.40786743 C145.30205563 20.41232412 145.30205563 20.41232412 144.31123668 20.41687083 C142.13179968 20.42557393 139.9524175 20.42706743 137.77296448 20.42855835 C136.21429832 20.43318541 134.6556333 20.43820992 133.0969696 20.44360352 C128.8551525 20.45674091 124.61335122 20.46317516 120.37151694 20.46761417 C117.72246636 20.47054294 115.07342012 20.47464738 112.42437172 20.47911835 C104.13928392 20.49279723 95.85420603 20.50246179 87.56910771 20.50632024 C77.99941977 20.51080115 68.42987465 20.5283489 58.86023015 20.55732083 C51.46738856 20.57892688 44.07458719 20.58902395 36.68171436 20.59036136 C32.26443517 20.59141022 27.84729017 20.59733522 23.43004417 20.61518097 C19.27434261 20.63164293 15.11887636 20.63382635 10.96315384 20.62504196 C9.43815418 20.62427056 7.91314196 20.62862792 6.38817406 20.63850021 C4.30531579 20.6511929 2.22329429 20.64535838 0.14044189 20.63491821 C-1.02487218 20.63638477 -2.19018625 20.63785133 -3.39081287 20.63936234 C-6.83431023 20.22525298 -8.70588701 19.3049816 -11.48362732 17.26742554 C-13.81189107 14.05220416 -13.88073913 11.15912129 -13.48362732 7.26742554 C-10.51713427 0.74114084 -6.83577199 0.01971143 0 0 Z " fill="#00b0f0" transform="translate(259.48362731933594,245.73257446289063)"/>
<path d="M0 0 C0.6491747 -0.00453111 1.29834939 -0.00906223 1.96719605 -0.01373065 C4.14048047 -0.02638174 6.31351452 -0.02475387 8.48683167 -0.02310181 C10.0457949 -0.02908656 11.60475518 -0.03589199 13.16371155 -0.04345703 C17.39716231 -0.06112809 21.63053222 -0.06581283 25.86401629 -0.0670886 C29.39789117 -0.06898782 32.93174722 -0.07634548 36.46561486 -0.08343279 C44.80228668 -0.09971799 53.1389153 -0.10460157 61.4756012 -0.10317993 C70.07690965 -0.10197794 78.67796741 -0.12309089 87.27921242 -0.15466726 C94.66361085 -0.18081089 102.0479273 -0.19154806 109.43237168 -0.19026911 C113.842948 -0.18975898 118.25330147 -0.19547042 122.66383171 -0.21662521 C126.81142087 -0.23597591 130.95857382 -0.23615405 135.10617828 -0.22159195 C136.6279546 -0.2194989 138.14975799 -0.22423431 139.67148781 -0.23631287 C141.75009283 -0.25174249 143.82718936 -0.242475 145.90576172 -0.22705078 C147.06847816 -0.22814032 148.23119459 -0.22922985 149.42914486 -0.2303524 C153.1715184 0.37305982 154.827859 1.6480112 157.51637268 4.26742554 C159.11723895 7.46915808 159.01554357 10.79319613 158.51637268 14.26742554 C156.72273357 17.07746014 155.49756333 18.77683021 152.51637268 20.26742554 C150.43724087 20.3680614 148.35481351 20.40254873 146.27325439 20.40786743 C145.30205563 20.41232412 145.30205563 20.41232412 144.31123668 20.41687083 C142.13179968 20.42557393 139.9524175 20.42706743 137.77296448 20.42855835 C136.21429832 20.43318541 134.6556333 20.43820992 133.0969696 20.44360352 C128.8551525 20.45674091 124.61335122 20.46317516 120.37151694 20.46761417 C117.72246636 20.47054294 115.07342012 20.47464738 112.42437172 20.47911835 C104.13928392 20.49279723 95.85420603 20.50246179 87.56910771 20.50632024 C77.99941977 20.51080115 68.42987465 20.5283489 58.86023015 20.55732083 C51.46738856 20.57892688 44.07458719 20.58902395 36.68171436 20.59036136 C32.26443517 20.59141022 27.84729017 20.59733522 23.43004417 20.61518097 C19.27434261 20.63164293 15.11887636 20.63382635 10.96315384 20.62504196 C9.43815418 20.62427056 7.91314196 20.62862792 6.38817406 20.63850021 C4.30531579 20.6511929 2.22329429 20.64535838 0.14044189 20.63491821 C-1.02487218 20.63638477 -2.19018625 20.63785133 -3.39081287 20.63936234 C-6.83431023 20.22525298 -8.70588701 19.3049816 -11.48362732 17.26742554 C-13.81189107 14.05220416 -13.88073913 11.15912129 -13.48362732 7.26742554 C-10.51713427 0.74114084 -6.83577199 0.01971143 0 0 Z " fill="#00b0f0" transform="translate(259.48362731933594,188.73257446289063)"/>
</svg>
