<?xml version="1.0" encoding="UTF-8"?>
<svg version="1.1" xmlns="http://www.w3.org/2000/svg" width="512" height="512">
  <path d="M0 0 C1.02434452 -0.00453111 2.04868904 -0.00906223 3.1040743 -0.01373065 C6.51704604 -0.02633388 9.92985738 -0.02475693 13.34284973 -0.02310181 C15.79746708 -0.02908933 18.25208255 -0.03589539 20.70669556 -0.04345703 C26.6692153 -0.05926534 32.6316726 -0.06556402 38.59420749 -0.06668179 C43.44043838 -0.06763415 48.28665629 -0.0717538 53.13288307 -0.07808304 C66.88370445 -0.09567562 80.6344947 -0.10492423 94.38532742 -0.10342209 C95.12541135 -0.10334218 95.86549527 -0.10326227 96.62800598 -0.10317993 C97.73949146 -0.10305729 97.73949146 -0.10305729 98.87343118 -0.10293217 C110.89659854 -0.10211832 122.91964092 -0.12128612 134.94277211 -0.14945666 C147.29865052 -0.17817796 159.65446792 -0.1919976 172.01038057 -0.19026911 C178.94325538 -0.18960528 185.8759989 -0.19509553 192.80884361 -0.21662521 C199.32354601 -0.23672785 205.8380181 -0.23617134 212.35275078 -0.22159195 C214.74488988 -0.21949607 217.13704612 -0.22425081 219.52915573 -0.23631287 C222.79149489 -0.2516996 226.05286788 -0.24250016 229.31518555 -0.22705078 C230.26430649 -0.23733791 231.21342744 -0.24762503 232.19130963 -0.25822389 C238.99309386 -0.18690967 242.38793877 1.20828504 247.26789856 6.05648804 C247.76676575 6.66234741 248.26563293 7.26820679 248.77961731 7.89242554 C251.45563486 11.07056558 254.17705145 14.18840549 256.96711731 17.26742554 C260.23102579 20.88418899 263.4550268 24.53132162 266.65461731 28.20492554 C269.49981021 31.44255883 272.39565567 34.63428844 275.28352356 37.83383179 C277.17560416 39.942537 279.04617489 42.06662355 280.90461731 44.20492554 C283.71534256 47.43302066 286.58291631 50.60480996 289.46711731 53.76742554 C292.92039884 57.55405552 296.32810782 61.37218874 299.68977356 65.24008179 C301.76071218 67.60231727 303.86224579 69.93538407 305.96711731 72.26742554 C309.23102579 75.88418899 312.4550268 79.53132162 315.65461731 83.20492554 C317.73922895 85.57706982 319.85140375 87.92298619 321.96711731 90.26742554 C342.58972196 113.15816776 342.58972196 113.15816776 342.59575176 121.88172054 C342.59897621 123.05768101 342.60220065 124.23364147 342.60552281 125.4452371 C342.60397421 126.74345366 342.60242561 128.04167023 342.60083008 129.37922668 C342.60269741 130.76744669 342.6049978 132.15566617 342.6076954 133.54388481 C342.61383001 137.36767733 342.61367784 141.19144804 342.61250103 145.01524436 C342.61229742 149.13611749 342.61781207 153.25698354 342.62255859 157.37785339 C342.63087605 165.45676896 342.63361398 173.53567723 342.63417097 181.61459672 C342.63464585 188.18383664 342.63669919 194.75307415 342.6398716 201.32231331 C342.64868307 219.94788673 342.65329049 238.57345439 342.65254112 257.19902992 C342.65248119 258.70616334 342.65248119 258.70616334 342.65242004 260.2437439 C342.65237916 261.24972746 342.65233828 262.25571102 342.65229616 263.29217894 C342.6518901 279.57953805 342.6614483 295.866874 342.67555841 312.15422641 C342.68993261 328.87856451 342.69682794 345.60289133 342.69596463 362.32723576 C342.69563291 371.71621335 342.69836907 381.10516669 342.70914268 390.49413872 C342.71826167 398.49254925 342.72041165 406.49092455 342.71363326 414.48933803 C342.71037441 418.5677318 342.71028822 422.64605805 342.71898651 426.72444534 C342.72688121 430.46469949 342.72538994 434.20483291 342.71670238 437.94508422 C342.71445468 439.92536757 342.72197292 441.90565474 342.72994202 443.88592333 C342.65959232 462.2341084 337.94992022 479.59691661 325.33821106 493.48617554 C311.27850151 506.87078421 296.13062914 512.5916714 277.06968689 512.52812195 C275.84469258 512.5319475 274.61969827 512.53577304 273.35758293 512.53971452 C269.97860655 512.54821396 266.59984912 512.54782383 263.22087932 512.54353392 C259.56842974 512.54105881 255.91600532 512.55009057 252.26356506 512.55757141 C245.11625333 512.57029863 237.96897919 512.57211458 230.82165803 512.56977115 C225.01008238 512.56798563 219.19851811 512.56974263 213.38694382 512.57399559 C212.1446243 512.57488837 212.1446243 512.57488837 210.87720742 512.57579919 C209.19450427 512.57701099 207.51180112 512.57822512 205.82909797 512.57944157 C190.06072788 512.59030947 174.29237919 512.58815816 158.5240079 512.58205672 C144.11163031 512.5768881 129.69932031 512.58814291 115.28695609 512.60715494 C100.47327909 512.62654593 85.65963405 512.63478714 70.84594429 512.63103169 C62.53521937 512.62912158 54.22455198 512.6315887 45.91383743 512.64574623 C38.83888652 512.65767707 31.76402855 512.65904585 24.68907632 512.64695606 C21.08261606 512.64107933 17.47632567 512.63993432 13.86987686 512.65195847 C9.95267272 512.66486643 6.03572414 512.65432416 2.11851501 512.64164734 C0.98941086 512.64902162 -0.1396933 512.65639591 -1.30301273 512.66399366 C-17.75319061 512.55229941 -33.77643589 505.88462508 -45.53288269 494.26742554 C-60.47850317 477.35335749 -63.69017336 460.08338568 -63.66659546 438.35244751 C-63.66846498 436.7206739 -63.67076624 435.08890074 -63.67346078 433.45712829 C-63.67956779 428.98334209 -63.67944648 424.50957461 -63.67826641 420.0357852 C-63.67806212 415.20674572 -63.68358381 410.37771222 -63.68832397 405.54867554 C-63.69662506 396.09147509 -63.69937857 386.63428087 -63.69993635 377.17707708 C-63.70041177 369.48858221 -63.7024678 361.80008938 -63.70563698 354.11159515 C-63.71444207 332.30598601 -63.71905658 310.50038178 -63.7183065 288.69477084 C-63.71826655 287.5195965 -63.71822659 286.34442216 -63.71818542 285.13363647 C-63.71814454 283.95702476 -63.71810366 282.78041305 -63.71806154 281.56814644 C-63.71765511 262.50050029 -63.7272243 243.43287389 -63.74132379 224.36523345 C-63.7556919 204.77954591 -63.76259374 185.19386799 -63.76173002 165.60817504 C-63.7613982 154.6151914 -63.76413867 143.62222846 -63.77490807 132.62924957 C-63.78401878 123.26952358 -63.78618361 113.90982768 -63.77939864 104.55009916 C-63.77613634 99.77700782 -63.77606632 95.0039742 -63.78475189 90.23088837 C-63.79263055 85.85614458 -63.79117152 81.48150416 -63.78246776 77.10676286 C-63.78093578 75.52940949 -63.78273747 73.95204836 -63.78832784 72.37470415 C-63.85378488 52.58524366 -60.14177479 34.17809502 -46.40397644 19.04867554 C-33.11943045 6.40200962 -18.17762061 -0.05973905 0 0 Z M-24.53288269 29.26742554 C-25.83225769 30.10273804 -25.83225769 30.10273804 -27.15788269 30.95492554 C-36.87374542 40.41510767 -41.24452865 52.14928058 -41.6258167 65.52841616 C-41.66506087 69.63283784 -41.6711547 73.73617366 -41.66659546 77.84072876 C-41.66846507 79.43537918 -41.67076637 81.03002914 -41.67346078 82.62467837 C-41.67956665 86.99585053 -41.67944662 91.36700352 -41.67826641 95.73817897 C-41.67806209 100.45678803 -41.68358408 105.17539099 -41.68832397 109.89399719 C-41.69662443 119.13462645 -41.69937854 128.37524933 -41.69993635 137.61588201 C-41.7004118 145.12846155 -41.70246798 152.64103899 -41.70563698 160.15361786 C-41.7144419 181.46118927 -41.71905661 202.76875566 -41.7183065 224.0763289 C-41.71826655 225.22462028 -41.71822659 226.37291167 -41.71818542 227.55599976 C-41.71814454 228.70569594 -41.71810366 229.85539211 -41.71806154 231.03992757 C-41.71765512 249.67108338 -41.72722419 268.30221898 -41.74132379 286.93336895 C-41.75569264 306.07157162 -41.76259369 325.20976443 -41.76173002 344.34797263 C-41.76139822 355.08944537 -41.76413759 365.83089693 -41.77490807 376.57236481 C-41.78401975 385.71799388 -41.78618281 394.86359214 -41.77939864 404.00922379 C-41.77613683 408.67295124 -41.77606455 413.33661961 -41.78475189 418.00034142 C-41.79263273 422.27516318 -41.79116932 426.54987918 -41.78246776 430.82469842 C-41.78093626 432.36571287 -41.78273566 433.90673528 -41.78832784 435.44774035 C-41.84421781 451.95071771 -40.35437057 466.97197252 -28.50944519 479.52133179 C-18.70005803 488.18693665 -8.1297959 490.72421587 4.63676453 490.65510559 C6.43750402 490.6631839 6.43750402 490.6631839 8.27462208 490.6714254 C11.58528972 490.68320827 14.89545045 490.68165679 18.20609736 490.67425859 C21.78493855 490.66951236 25.36372669 490.6820496 28.94255066 490.692276 C35.94549695 490.70944116 42.94835341 490.71030874 49.95131527 490.7050631 C55.64561901 490.70101576 61.33989628 490.70247164 67.03419876 490.70781136 C67.8457596 490.70855978 68.65732045 490.7093082 69.49347404 490.7100793 C71.1423552 490.71161084 72.79123635 490.71314918 74.44011749 490.71469427 C89.89088739 490.72841115 105.34160661 490.72298742 120.79237534 490.71150906 C134.91378268 490.70157839 149.03505896 490.7145159 163.15644608 490.73844325 C177.67180704 490.762852 192.187107 490.7724377 206.70248806 490.76579052 C214.84555506 490.76230213 222.98852129 490.76450514 231.13157272 490.78204155 C238.06382 490.7967858 244.99589557 490.79737008 251.92813955 490.77997064 C255.46173734 490.77147629 258.99502868 490.76927225 262.52861023 490.78462219 C266.36706342 490.80108941 270.20504722 490.78628079 274.04350281 490.76863098 C275.14926127 490.77823599 276.25501974 490.78784099 277.39428604 490.79773706 C287.14174758 490.70579356 295.65485001 488.26288648 303.46711731 482.26742554 C304.45711731 481.54555054 305.44711731 480.82367554 306.46711731 480.07992554 C315.41392794 472.37442633 319.52468227 460.74850923 320.46711731 449.26742554 C320.60652431 444.8969331 320.59779589 440.52935711 320.58737183 436.1569519 C320.58822625 434.84337975 320.58908068 433.5298076 320.58996099 432.17643023 C320.59218906 428.54599028 320.58820784 424.91558002 320.58318293 421.28514385 C320.57885432 417.36432079 320.58032657 413.44349934 320.58108521 409.52267456 C320.58160891 402.73474228 320.57847811 395.94681963 320.57284737 389.15888977 C320.56471162 379.34474845 320.56211502 369.53061177 320.56085937 359.71646744 C320.55867212 343.79269563 320.55202087 327.86892894 320.54255676 311.94515991 C320.53337421 296.47901434 320.5262975 281.01287016 320.52204895 265.54672241 C320.52178623 264.59298562 320.5215235 263.63924882 320.52125282 262.65661091 C320.51994776 257.87187319 320.51868405 253.08713546 320.51744092 248.30239773 C320.50707846 208.62407007 320.48946901 168.94574814 320.46711731 129.26742554 C319.40524704 129.2615593 318.34337677 129.25569305 317.24932861 129.24964905 C307.22966688 129.19237242 297.21022115 129.11958487 287.19077969 129.03171062 C282.0399883 128.98703208 276.88927555 128.94777031 271.73835754 128.92098999 C266.76504492 128.89493206 261.79203532 128.85451179 256.8189106 128.80423927 C254.92400451 128.78758744 253.02904602 128.77606269 251.13407707 128.76981163 C248.47450563 128.76015226 245.81570648 128.73207118 243.15632629 128.69979858 C242.37732971 128.70123367 241.59833313 128.70266876 240.79573059 128.70414734 C235.65852947 128.61630299 232.01450915 127.71746553 227.46711731 125.26742554 C225.41695092 122.19217596 225.21452768 121.54498361 225.18864441 118.0723114 C225.17189919 116.79138107 225.17189919 116.79138107 225.15481567 115.48457336 C225.15265549 114.5509346 225.1504953 113.61729584 225.14826965 112.65536499 C225.13822403 111.66981628 225.12817841 110.68426758 225.11782837 109.66885376 C225.08689868 106.40614412 225.06993397 103.1435169 225.05305481 99.88070679 C225.03435104 97.62054226 225.01477823 95.36038476 224.99436951 93.10023499 C224.94295875 87.1474217 224.90338088 81.19458576 224.8662262 75.2416687 C224.82624259 69.16881666 224.77512454 63.09605962 224.72492981 57.02328491 C224.62806462 45.10473177 224.54369376 33.18612509 224.46711731 21.26742554 C195.62554469 21.1989044 166.78398171 21.14585356 137.94234364 21.11422955 C134.53295817 21.11047768 131.12357285 21.10659469 127.71418762 21.10263062 C127.03547518 21.10184368 126.35676274 21.10105675 125.65748325 21.10024597 C114.68540294 21.08721214 103.71337006 21.06356951 92.74131784 21.03596715 C81.47278064 21.00785654 70.20426703 20.99146172 58.93569303 20.98516005 C52.61059754 20.98125489 46.28560942 20.97209979 39.9605484 20.95023537 C34.00163865 20.92980443 28.04288005 20.92360513 22.0839386 20.92810249 C19.90234301 20.92728025 17.72074213 20.92135421 15.53917694 20.90980911 C0.96703269 20.83650384 -11.94247769 21.03022475 -24.53288269 29.26742554 Z M246.46711731 40.26742554 C246.46711731 62.37742554 246.46711731 84.48742554 246.46711731 107.26742554 C265.93711731 107.26742554 285.40711731 107.26742554 305.46711731 107.26742554 C303.90324568 104.13968228 303.02915203 102.57526057 300.74446106 100.20101929 C299.9440741 99.35809326 299.9440741 99.35809326 299.1275177 98.49813843 C298.27468201 97.61049805 298.27468201 97.61049805 297.40461731 96.70492554 C293.45091946 92.52607528 289.61474368 88.33500886 286.02961731 83.82992554 C281.22780718 77.82988182 275.9643714 72.30089628 270.69758606 66.71273804 C267.76001241 63.59308684 264.9102222 60.41079146 262.11164856 57.16586304 C260.04625905 54.78158916 257.94699803 52.42939959 255.84211731 50.07992554 C255.12797668 49.28199585 254.41383606 48.48406616 253.67805481 47.66195679 C251.34251985 45.13248165 248.90155441 42.70186264 246.46711731 40.26742554 Z " fill="#00b0f0" transform="translate(116.53288269042969,-0.267425537109375)" />
  <path d="M0 0 C3.95831809 -0.02892857 7.91660917 -0.04677427 11.875 -0.0625 C13.56689453 -0.07506836 13.56689453 -0.07506836 15.29296875 -0.08789062 C16.36933594 -0.09111328 17.44570312 -0.09433594 18.5546875 -0.09765625 C19.54968262 -0.10289307 20.54467773 -0.10812988 21.56982422 -0.11352539 C24 0 24 0 26 1 C26.50299072 2.68276978 26.50299072 2.68276978 26.86816406 4.91259766 C27.01243835 5.75535248 27.15671265 6.5981073 27.30535889 7.46640015 C27.4572467 8.39787872 27.60913452 9.3293573 27.765625 10.2890625 C28.1138976 12.31067774 28.46494547 14.33181628 28.81835938 16.35253906 C29.00712646 17.43265259 29.19589355 18.51276611 29.39038086 19.62561035 C30.43753504 25.42186246 31.61644457 31.19059251 32.796875 36.9609375 C33.03764771 38.14036926 33.27842041 39.31980103 33.52648926 40.53497314 C34.26576921 44.14870563 35.00781344 47.76186348 35.75 51.375 C36.26193804 53.87625721 36.77365801 56.37755907 37.28515625 58.87890625 C38.52093355 64.91978585 39.75936477 70.96011632 41 77 C42.53473187 70.24245145 44.06407486 63.48369896 45.58984375 56.72412109 C46.10848777 54.42925032 46.62832206 52.13464819 47.14941406 49.84033203 C47.90229579 46.52447938 48.65075657 43.20765374 49.3984375 39.890625 C49.6287265 38.88074524 49.8590155 37.87086548 50.09628296 36.8303833 C51.45040571 30.7998184 52.5893257 24.76923596 53.54943848 18.66320801 C54.20254351 14.80279278 55.13143859 11.03443593 56.125 7.25 C56.74375 4.8575 57.3625 2.465 58 0 C64.93 0 71.86 0 79 0 C79.639375 3.3 80.27875 6.6 80.9375 10 C83.66156495 23.84324644 86.7981445 37.59031705 89.96459961 51.33789062 C90.34619364 53.00781199 90.72778553 54.67773384 91.109375 56.34765625 C91.28523636 57.10208511 91.46109772 57.85651398 91.64228821 58.63380432 C92.73116239 63.41272428 93.43841118 68.1308145 94 73 C94.30169066 74.34084736 94.61517681 75.6806062 95 77 C96.53723822 72.64657469 97.64827229 68.33954175 98.5859375 63.8203125 C98.7277243 63.1388063 98.86951111 62.45730011 99.01559448 61.75514221 C99.47317313 59.54598379 99.92451761 57.33561556 100.375 55.125 C100.60793762 53.9915062 100.60793762 53.9915062 100.84558105 52.83511353 C103.03176331 42.18233352 105.00397424 31.51684836 106.71337891 20.77587891 C107.8385924 13.7529091 109.27381505 6.9047398 111 0 C119.58 0 128.16 0 137 0 C135.87322664 12.39450695 135.87322664 12.39450695 134.94140625 16.7578125 C134.61716675 18.28378052 134.61716675 18.28378052 134.28637695 19.84057617 C134.04749756 20.92443604 133.80861816 22.0082959 133.5625 23.125 C133.30879639 24.29716064 133.05509277 25.46932129 132.79370117 26.67700195 C131.12486768 34.25921583 129.33472402 41.80777858 127.484375 49.34765625 C127.26494736 50.2419635 127.04551971 51.13627075 126.81944275 52.05767822 C125.72925607 56.49000547 124.62945016 60.91968438 123.51586914 65.34619141 C121.39358718 73.84360157 119.51426625 82.29905231 118.07554626 90.93927002 C116.90102274 97.87566611 115.19401159 104.64318342 113.375 111.4375 C113.06304687 112.63181641 112.75109375 113.82613281 112.4296875 115.05664062 C110.15481505 123.6903699 110.15481505 123.6903699 109 126 C100.75 126 92.5 126 84 126 C81.73159347 118.09968759 79.81431161 110.44526451 78.65625 102.3125 C77.03429831 91.53349543 74.70471517 80.94235503 72.3125 70.3125 C71.89204556 68.42394661 71.47212128 66.53527511 71.05273438 64.64648438 C70.04122933 60.09627888 69.02268069 55.54770615 68 51 C67.86317558 51.85879509 67.86317558 51.85879509 67.72358704 52.73493958 C65.14767029 68.83795945 61.73690376 84.70816825 58.17407227 100.61694336 C57.98076828 101.48256393 57.78746429 102.34818451 57.58830261 103.24003601 C57.22658572 104.85732158 56.86285178 106.47415815 56.49653625 108.09040833 C55.16227288 114.0460847 54.09463896 119.97948574 53 126 C44.42 126 35.84 126 27 126 C24.18026482 114.74068619 21.36422951 103.48048477 18.59057617 92.2097168 C18.15550538 90.44617565 17.71833331 88.68315155 17.27905273 86.9206543 C14.87513495 77.2700919 12.66276518 67.65928472 11.02157593 57.84814453 C10.0064451 51.82884638 8.61475549 45.96229551 7.0625 40.0625 C6.53886474 38.00949655 6.01674317 35.95610645 5.49609375 33.90234375 C5.11686768 32.41130127 5.11686768 32.41130127 4.72998047 30.89013672 C3.65735311 26.64339334 2.61706095 22.39127409 1.625 18.125 C1.45750244 17.4431665 1.29000488 16.76133301 1.11743164 16.05883789 C-0.1084797 10.68186005 -0.16519849 5.49955672 0 0 Z " fill="#00b0f0" transform="translate(124,194)" />
  <path d="M0 0 C1.66675781 -0.0299707 1.66675781 -0.0299707 3.3671875 -0.06054688 C14.09346981 -0.0542373 22.4973523 2.90441051 30.66015625 9.9453125 C38.67255048 18.47938181 40.98506981 27.46368958 40.76220703 38.89135742 C40.03725845 51.38067643 35.44231796 61.59210261 27.63671875 71.30078125 C25.82136197 73.43033201 25.82136197 73.43033201 25 76.4375 C23.34681582 78.11754096 21.67702906 79.78126056 20 81.4375 C17.81507148 83.99362689 15.72190728 86.6214476 13.625 89.25 C9.207867 94.77141625 4.6622457 100.1092192 0 105.4375 C19.8 105.9325 19.8 105.9325 40 106.4375 C40 113.3675 40 120.2975 40 127.4375 C13.6 127.4375 -12.8 127.4375 -40 127.4375 C-40 109.4375 -40 109.4375 -39 106.4375 C-37.609375 105.0703125 -37.609375 105.0703125 -35.75 103.5625 C-26.61690549 95.79035135 -18.29663802 87.21535851 -10.90234375 77.77734375 C-9.0467445 75.49499477 -7.1866158 73.40590882 -5 71.4375 C-4.34 71.4375 -3.68 71.4375 -3 71.4375 C-2.62294922 70.59638672 -2.62294922 70.59638672 -2.23828125 69.73828125 C-0.81178021 67.08777931 0.8992102 64.94801917 2.8125 62.625 C3.52277344 61.74199219 4.23304688 60.85898438 4.96484375 59.94921875 C6.15273468 58.48316526 7.34921042 57.02384676 8.56640625 55.58203125 C13.54532317 49.32494461 14.29236748 42.38814024 13.875 34.5625 C13.46992125 31.2229554 13.17049517 29.68715365 11.25 26.875 C5.09475874 22.94248475 -0.49372954 22.56882136 -7.59375 23.9375 C-14.92963557 25.8819516 -19.71801338 29.01452008 -24 35.4375 C-29.32304552 35.4375 -31.57900353 34.28914449 -35.375 30.5 C-39.94906212 25.6345401 -39.94906212 25.6345401 -40.125 21.5 C-40 18.4375 -40 18.4375 -39 15.4375 C-37.09316256 13.79317724 -35.21242582 12.29473614 -33.1875 10.8125 C-32.65318359 10.40515625 -32.11886719 9.9978125 -31.56835938 9.578125 C-28.79540716 7.51802274 -26.46066725 5.9235017 -23 5.4375 C-23 4.7775 -23 4.1175 -23 3.4375 C-15.26575344 0.57316631 -8.20723395 -0.05236634 0 0 Z " fill="#00b0f0" transform="translate(348,192.5625)" />
  <path d="M0 0 C5.82076811 -0.02290639 11.641381 -0.04283426 17.4621582 -0.05493164 C19.44393441 -0.05997267 21.42570689 -0.06680538 23.4074707 -0.07543945 C26.24952109 -0.08751515 29.09152247 -0.09323045 31.93359375 -0.09765625 C32.82525742 -0.10281754 33.71692108 -0.10797882 34.63560486 -0.11329651 C36.75740601 -0.11349177 38.8791078 -0.0621003 41 0 C45.48454135 4.48454135 42 12.6579008 42 19 C28.14 19 14.28 19 0 19 C0 12.73 0 6.46 0 0 Z " fill="#00b0f0" transform="translate(268,253)" />
</svg>