<?xml version="1.0" encoding="UTF-8"?>
<svg id="OBJECTS" xmlns="http://www.w3.org/2000/svg" viewBox="0 0 500 378.2">
  <path d="M10.25,217.78c-.44-.54-.83-1.11-1.24-1.66-.47-.63-.95-1.24-1.39-1.89-.45-.67-.83-1.36-1.24-2.04-.35-.58-.71-1.15-1.03-1.75-.38-.7-.7-1.42-1.03-2.14-.29-.62-.6-1.23-.87-1.86-.29-.71-.53-1.43-.79-2.15-.24-.67-.5-1.33-.71-2.02-.23-.74-.39-1.49-.58-2.24-.17-.68-.36-1.35-.5-2.05-.18-.89-.29-1.8-.41-2.7-.08-.56-.19-1.11-.24-1.68-.3-2.99-.3-5.99,0-8.98,.06-.57,.17-1.12,.24-1.68,.12-.9,.23-1.8,.41-2.7,.14-.69,.33-1.36,.5-2.04,.19-.75,.35-1.5,.58-2.24,.21-.69,.47-1.35,.71-2.02,.26-.72,.49-1.44,.79-2.15,.26-.64,.57-1.24,.87-1.87,.34-.72,.66-1.44,1.03-2.14,.32-.6,.69-1.17,1.03-1.75,.41-.68,.79-1.38,1.24-2.04,.44-.65,.92-1.26,1.39-1.89,.41-.55,.8-1.12,1.24-1.66,.95-1.15,1.94-2.26,3-3.32L157.1,13.25c17.67-17.67,46.31-17.67,63.98,0,17.67,17.67,17.67,46.31,0,63.98l-66.63,66.63H454.76c24.99,0,45.24,20.26,45.24,45.24s-20.26,45.24-45.24,45.24H154.46l66.62,66.62c17.67,17.67,17.67,46.31,0,63.98-8.83,8.83-20.41,13.25-31.99,13.25s-23.16-4.42-31.99-13.25L13.25,221.09c-1.05-1.05-2.05-2.16-3-3.32Z" style="fill: #012cae;"/>
</svg>