<svg version="1.2" xmlns="http://www.w3.org/2000/svg" viewBox="0 0 58 30" width="58" height="30">
	<title>Group 249</title>
	<defs>
		<clipPath clipPathUnits="userSpaceOnUse" id="cp1">
			<path d="m0 0.6h58v29.06h-58z"/>
		</clipPath>
	</defs>
	<style>
		.s0 { fill: #0c00aa } 
	</style>
	<g id="Group 249">
		<g id="Group 248" clip-path="url(#cp1)">
			<path id="Path 975" class="s0" d="m39.8 5.6l-23.5 23.2c-0.5 0.6-1.3 0.9-2 0.9h-0.1c-0.7 0-1.5-0.4-2-0.9l-11.4-11.8q0 0 0 0c-1.1-1.2-1.1-3 0.1-4.1 1.2-1.1 3-1.1 4.1 0.1l9.3 9.6 21.5-21.2c1.1-1.1 2.9-1.1 4.1 0.1 1.1 1.1 1.1 2.9-0.1 4.1z"/>
			<path id="Path 976" class="s0" d="m26.8 25.9q0 0 0-0.1c-1.1-1.1-1.1-3 0.1-4.1 1.2-1.1 3-1 4.1 0.1l0.8 0.8 21.4-21.2c1.1-0.9 2.7-0.9 3.8 0.1 1.2 1 1.3 2.9 0.3 4.1l-23.6 23.2c-0.5 0.6-1.2 0.9-2 0.9-0.8 0-1.5-0.4-2.1-0.9z"/>
		</g>
	</g>
</svg>