<?xml version="1.0" encoding="utf-8"?>
<!-- Generator: Adobe Illustrator 25.0.1, SVG Export Plug-In . SVG Version: 6.00 Build 0)  -->
<svg version="1.1" id="Layer_1" xmlns="http://www.w3.org/2000/svg" xmlns:xlink="http://www.w3.org/1999/xlink" x="0px" y="0px"
	 viewBox="0 0 93.2 119.9" style="enable-background:new 0 0 93.2 119.9;" xml:space="preserve">
<style type="text/css">
	.st0{fill:#28429B;}
</style>
<g>
	<path class="st0" d="M4.1,84.8l13.4,14.9l-1.9,0.9c-1,0.4-1.4,1.5-1,2.5l6.3,14c0.2,0.5,0.6,0.8,1,1c0.2,0.1,0.4,0.1,0.7,0.1
		c0.3,0,0.5-0.1,0.8-0.2l22.6-10.1c0.3-0.1,0.5-0.4,0.7-0.6c0.2,0.3,0.4,0.5,0.7,0.6L69.9,118c0.2,0.1,0.5,0.2,0.8,0.2
		c0.2,0,0.5,0,0.7-0.1c0.5-0.2,0.8-0.5,1-1l6.3-14c0.4-1,0-2.1-1-2.5l-1.9-0.9l13.4-14.9c2.2-2.5,3.3-5.8,2.8-9.2l-3.5-27
		c-0.2-1.4-0.9-2.7-2.1-3.6c-1.2-0.9-2.6-1.3-4-1.1c-2.4,0.3-4.3,2.2-4.6,4.6l-2.4,16.9c-0.3-0.1-0.6-0.1-0.9-0.1
		c-1.5-0.1-2.9,0.5-4,1.6L58.5,79.6c-0.8,0.9-1.3,2-1.4,3.1l-0.6,8.4l-1.4-0.6c-1-0.4-2.1,0-2.5,1l-6,13.5l-6-13.5
		c-0.4-1-1.5-1.4-2.5-1l-1.4,0.6l-0.6-8.4c-0.1-1.2-0.6-2.3-1.4-3.1L22.7,66.9c-1-1.1-2.5-1.7-4-1.6c-0.3,0-0.6,0.1-0.9,0.1
		l-2.4-16.9c-0.3-2.4-2.2-4.3-4.6-4.6c-1.4-0.2-2.9,0.2-4,1.1c-1.2,0.9-1.9,2.2-2.1,3.6l-3.5,27C0.8,78.9,1.8,82.3,4.1,84.8
		L4.1,84.8z M60.9,83c0-0.3,0.1-0.6,0.4-0.8l12.1-12.6c0.4-0.4,0.9-0.5,1.1-0.5c0.2,0,0.7,0.1,1.1,0.5c0.5,0.6,0.4,1.4,0,1.9
		L68,79.8c-0.7,0.8-0.6,2,0.1,2.7c0.8,0.7,2,0.6,2.7-0.1l7.4-8.3c1.5-1.7,1.7-4.2,0.6-6.1l2.7-18.9c0.1-0.7,0.7-1.3,1.4-1.4
		c0.4-0.1,0.9,0.1,1.2,0.3c0.4,0.3,0.6,0.7,0.6,1.1l3.5,27c0.3,2.2-0.4,4.5-1.9,6.2L72.2,98.1l-12-5.4L60.9,83z M55.3,94.7l19.1,8.5
		l-4.7,10.6l-19.1-8.5L55.3,94.7z M42.7,105.2l-19.1,8.5l-4.7-10.6l19.1-8.5L42.7,105.2z M4.9,76.1l3.5-27c0.1-0.4,0.3-0.8,0.6-1.1
		c0.4-0.3,0.8-0.4,1.2-0.3c0.7,0.1,1.3,0.7,1.4,1.4L14.3,68c-1.1,1.9-0.9,4.4,0.6,6.1l7.4,8.3c0.7,0.8,1.9,0.8,2.7,0.1
		c0.8-0.7,0.8-1.9,0.1-2.7l-7.4-8.3c-0.5-0.5-0.5-1.4,0-1.9c0.4-0.4,0.8-0.5,1.1-0.5c0.2,0,0.7,0,1.1,0.5L32,82.2
		c0.2,0.2,0.3,0.5,0.4,0.8l0.7,9.8l-12,5.4L6.9,82.3C5.4,80.6,4.6,78.3,4.9,76.1L4.9,76.1z"/>
	<path class="st0" d="M72.4,41.5l4.7-1.6c2-0.7,3.2-2.4,3.2-4.5c0-2.1-1.3-3.8-3.2-4.5l-4.7-1.6c-0.4-0.1-0.6-0.5-0.6-0.7
		c-0.1-0.2-0.1-0.6,0.2-0.9l3.3-3.7c1.4-1.6,1.6-3.7,0.6-5.5s-3-2.7-5-2.3l-4.9,1c-0.4,0.1-0.7-0.1-0.9-0.3
		c-0.1-0.1-0.4-0.4-0.3-0.9l1-4.9c0.4-2-0.5-4-2.3-5c-1.8-1-4-0.8-5.5,0.6l-3.7,3.3c-0.3,0.3-0.7,0.3-0.9,0.2
		c-0.2-0.1-0.5-0.2-0.7-0.6L51.1,5c-0.7-2-2.4-3.3-4.5-3.3c-2.1,0-3.8,1.3-4.5,3.2l-1.6,4.7c-0.1,0.4-0.5,0.6-0.7,0.6
		s-0.6,0.1-0.9-0.2l-3.7-3.3c-1.6-1.4-3.7-1.6-5.5-0.6s-2.7,3-2.3,5l1,4.9c0.1,0.4-0.1,0.7-0.3,0.9c-0.1,0.1-0.4,0.4-0.9,0.3l-4.9-1
		c-2-0.4-4,0.5-5,2.3c-1,1.8-0.8,4,0.6,5.5l3.3,3.7c0.3,0.3,0.3,0.7,0.2,0.9c-0.1,0.2-0.2,0.5-0.6,0.7l-4.7,1.6
		c-2,0.7-3.2,2.4-3.2,4.5s1.3,3.8,3.2,4.5l4.7,1.6c0.4,0.1,0.6,0.5,0.6,0.7c0.1,0.2,0.1,0.6-0.2,0.9L18,46.7
		c-1.4,1.6-1.6,3.7-0.6,5.5c1,1.8,3,2.7,5,2.3l4.9-1c0.5-0.1,0.7,0.1,0.9,0.3s0.4,0.4,0.3,0.9l-1,4.9c-0.4,2,0.5,4,2.3,5
		c1.8,1,4,0.8,5.5-0.6l3.7-3.3c0.3-0.3,0.7-0.3,0.9-0.2c0.2,0.1,0.5,0.2,0.7,0.6l1.6,4.7c0.7,2,2.4,3.2,4.5,3.2
		c2.1,0,3.8-1.3,4.5-3.2l1.6-4.7c0.1-0.4,0.5-0.6,0.7-0.6c0.2-0.1,0.6-0.1,0.9,0.2l3.7,3.3c1.6,1.4,3.7,1.6,5.5,0.6
		c1.8-1,2.7-3,2.3-5l-1-4.9c-0.1-0.4,0.1-0.7,0.3-0.9s0.4-0.4,0.9-0.3l4.9,1c2,0.4,4-0.5,5-2.3c1-1.8,0.8-4-0.6-5.5L71.9,43
		c-0.3-0.3-0.3-0.7-0.2-0.9C71.8,41.9,71.9,41.6,72.4,41.5L72.4,41.5z M69.1,45.5l3.3,3.7c0.4,0.5,0.2,1,0.1,1.1
		c-0.1,0.2-0.4,0.6-1,0.5l-4.9-1c-1.6-0.3-3.2,0.2-4.3,1.3c-1.1,1.1-1.6,2.7-1.3,4.3l1,4.9c0.1,0.6-0.3,0.9-0.5,1
		c-0.2,0.1-0.7,0.3-1.1-0.1l-3.7-3.3c-1.2-1.1-2.8-1.4-4.4-1s-2.8,1.6-3.3,3.1l-1.6,4.7c-0.2,0.6-0.7,0.7-0.9,0.7s-0.7-0.1-0.9-0.7
		l-1.6-4.7c-0.5-1.5-1.7-2.7-3.3-3.1c-0.4-0.1-0.8-0.2-1.2-0.2c-1.1,0-2.3,0.4-3.1,1.2l-3.7,3.3c-0.5,0.4-0.9,0.2-1.1,0.1
		c-0.2-0.1-0.6-0.4-0.5-1l1-4.9c0.3-1.6-0.2-3.2-1.3-4.3c-1.1-1.1-2.7-1.6-4.3-1.3l-4.9,1c-0.6,0.1-0.9-0.3-1-0.5
		c-0.1-0.2-0.3-0.7,0.1-1.1l3.3-3.7c1.1-1.2,1.4-2.8,1-4.4c-0.4-1.5-1.6-2.8-3.1-3.3l-4.7-1.6c-0.6-0.2-0.7-0.7-0.7-0.9
		c0-0.2,0.1-0.7,0.7-0.9l4.7-1.6c1.5-0.5,2.7-1.7,3.1-3.3c0.4-1.5,0-3.2-1-4.4l-3.3-3.7c-0.4-0.5-0.2-0.9-0.1-1.1
		c0.1-0.2,0.4-0.6,1-0.5l4.9,1c1.6,0.3,3.2-0.2,4.3-1.3c1.1-1.1,1.6-2.7,1.3-4.3l-1-4.9c-0.1-0.6,0.3-0.9,0.5-1
		c0.2-0.1,0.7-0.3,1.1,0.1l3.7,3.3c1.2,1.1,2.8,1.4,4.4,1s2.8-1.6,3.3-3.1l1.6-4.7c0.2-0.6,0.7-0.7,0.9-0.7s0.7,0.1,0.9,0.7l1.6,4.7
		c0.5,1.5,1.7,2.7,3.3,3.1c1.5,0.4,3.2,0,4.4-1l3.7-3.3c0.5-0.4,0.9-0.2,1.1-0.1s0.6,0.4,0.5,1l-1,4.9c-0.3,1.6,0.2,3.2,1.3,4.3
		c1.1,1.1,2.7,1.6,4.3,1.3l4.9-1c0.6-0.1,0.9,0.3,1,0.5c0.1,0.2,0.3,0.7-0.1,1.1l-3.3,3.7c-1.1,1.2-1.4,2.8-1,4.4
		c0.4,1.5,1.6,2.8,3.1,3.3l4.7,1.6c0.6,0.2,0.7,0.7,0.7,0.9c0,0.2-0.1,0.7-0.7,0.9l-4.7,1.6c-1.5,0.5-2.7,1.7-3.1,3.3
		C67.7,42.7,68.1,44.3,69.1,45.5L69.1,45.5z"/>
	<path class="st0" d="M56.4,25.6c-0.7-0.7-1.9-0.7-2.7,0l-17,17c-0.7,0.7-0.7,1.9,0,2.7c0.4,0.4,0.9,0.6,1.3,0.6s1-0.2,1.3-0.6
		l17-17C57.1,27.5,57.1,26.3,56.4,25.6L56.4,25.6z"/>
	<path class="st0" d="M52.3,36c-2.8,0-5.1,2.3-5.1,5.1s2.3,5.1,5.1,5.1s5.1-2.3,5.1-5.1S55.1,36,52.3,36z M52.3,42.5
		c-0.8,0-1.4-0.6-1.4-1.4c0-0.8,0.6-1.4,1.4-1.4s1.4,0.6,1.4,1.4C53.7,41.9,53.1,42.5,52.3,42.5z"/>
	<path class="st0" d="M40.9,35c2.9,0,5.2-2.3,5.2-5.2s-2.3-5.2-5.2-5.2c-2.9,0-5.2,2.3-5.2,5.2S38,35,40.9,35L40.9,35z M40.9,28.3
		c0.8,0,1.5,0.7,1.5,1.5c0,0.8-0.7,1.5-1.5,1.5c-0.8,0-1.5-0.7-1.5-1.5C39.4,28.9,40.1,28.3,40.9,28.3z"/>
	<path class="st0" d="M46.4,15c-11.3,0-20.6,9.2-20.6,20.6s9.2,20.6,20.6,20.6S67,46.9,67,35.6S57.7,15,46.4,15z M46.4,52.4
		c-9.3,0-16.8-7.5-16.8-16.8c0-9.3,7.5-16.8,16.8-16.8s16.8,7.5,16.8,16.8S55.7,52.4,46.4,52.4z"/>
</g>
</svg>
