<svg version="1.2" xmlns="http://www.w3.org/2000/svg" viewBox="0 0 100 109" width="100" height="109">
	<title>Group 245</title>
	<defs>
		<clipPath clipPathUnits="userSpaceOnUse" id="cp1">
			<path d="m0 0.74h99.89v107.52h-99.89z"/>
		</clipPath>
	</defs>
	<style>
		.s0 { fill: #ffffff } 
	</style>
	<g id="Group 245">
		<path id="Rectangle 1271" class="s0" d="m12.3 18h28.5v3.9h-28.5z"/>
		<path id="Rectangle 1272" class="s0" d="m12.3 26.7h57v3.8h-57z"/>
		<path id="Rectangle 1273" class="s0" d="m12.3 35.3h57v3.9h-57z"/>
		<path id="Rectangle 1274" class="s0" d="m12.3 43.9h50.1v3.9h-50.1z"/>
		<path id="Rectangle 1275" class="s0" d="m12.3 92.4h22.1v3.9h-22.1z"/>
		<path id="Path 963" class="s0" d="m63.2 0.7l18.4 18.5v21.2h-3.9v-19.6l-16.1-16.2h-57.7v99.8h73.8v-33.7h3.9v37.6h-81.6v-107.6z"/>
		<path id="Path 964" class="s0" d="m79.7 21.9h-19.3v-19.2h3.9v15.3h15.4z"/>
		<g id="Group 244">
			<g id="Group 243" clip-path="url(#cp1)">
				<path id="Path 965" fill-rule="evenodd" class="s0" d="m56 96.3c-0.5 0-1-0.2-1.4-0.5l-15.2-15.2c-0.7-0.8-0.7-2 0-2.7l38.9-38.9c0.7-0.7 2-0.7 2.7 0l15.2 15.1c0.4 0.4 0.6 0.9 0.6 1.4 0 0.5-0.2 1-0.6 1.4l-38.9 38.9c-0.4 0.3-0.8 0.5-1.3 0.5zm-12.4-17.1l12.4 12.4 36.1-36.1-12.4-12.4z"/>
				<path id="Rectangle 1276" class="s0" d="m47 85.4l38.9-38.8 2.7 2.7-38.8 38.9z"/>
				<path id="Path 966" fill-rule="evenodd" class="s0" d="m94.8 58.3l-17.9-17.9 1.4-1.4c2.4-2.4 5.6-3.7 8.9-3.7 3.4 0 6.6 1.3 9 3.7 4.9 4.9 4.9 13 0 17.9zm-12.3-17.8l12.1 12.1c2.2-3.4 1.8-7.9-1.2-10.8-1.6-1.7-3.8-2.6-6.2-2.6-1.7 0-3.3 0.5-4.7 1.3z"/>
				<path id="Path 967" class="s0" d="m56 96.3h-17.1v-17.1h3.9v13.2h13.2z"/>
			</g>
		</g>
	</g>
</svg>