<?xml version="1.0" encoding="UTF-8"?>
<svg width="180px" height="420px" viewBox="0 0 180 420" version="1.1" xmlns="http://www.w3.org/2000/svg" xmlns:xlink="http://www.w3.org/1999/xlink">
    <title>Path 1020</title>
    <defs>
        <polygon id="path-1" points="0 0 180 0 180 420 0 420"></polygon>
    </defs>
    <g id="Page-1" stroke="none" stroke-width="1" fill="none" fill-rule="evenodd" opacity="0.1">
        <g id="Artboard" transform="translate(-180.000000, -145.000000)">
            <g id="Group-292-Clipped" transform="translate(180.000000, 145.000000)">
                <mask id="mask-2" fill="white">
                    <use xlink:href="#path-1"></use>
                </mask>
                <g id="Path"></g>
                <g id="Group-292" mask="url(#mask-2)" fill="#0C00AA">
                    <path d="M170,420 C164.5,420 160,415.5 160,410 C160,404.5 164.5,400 170,400 C175.5,400 180,404.5 180,410 C180,415.5 175.5,420 170,420 Z M170,340 C164.5,340 160,335.5 160,330 C160,324.5 164.5,320 170,320 C175.5,320 180,324.5 180,330 C180,335.5 175.5,340 170,340 Z M170,260 C164.5,260 160,255.5 160,250 C160,244.5 164.5,240 170,240 C175.5,240 180,244.5 180,250 C180,255.5 175.5,260 170,260 Z M170,180 C164.5,180 160,175.5 160,170 C160,164.5 164.5,160 170,160 C175.5,160 180,164.5 180,170 C180,175.5 175.5,180 170,180 Z M170,100 C164.5,100 160,95.5 160,90 C160,84.5 164.5,80 170,80 C175.5,80 180,84.5 180,90 C180,95.5 175.5,100 170,100 Z M170,20 C164.5,20 160,15.5 160,10 C160,4.5 164.5,0 170,0 C175.5,0 180,4.5 180,10 C180,15.5 175.5,20 170,20 Z M90,420 C84.5,420 80,415.5 80,410 C80,404.5 84.5,400 90,400 C95.5,400 100,404.5 100,410 C100,415.5 95.5,420 90,420 Z M90,340 C84.5,340 80,335.5 80,330 C80,324.5 84.5,320 90,320 C95.5,320 100,324.5 100,330 C100,335.5 95.5,340 90,340 Z M90,260 C84.5,260 80,255.5 80,250 C80,244.5 84.5,240 90,240 C95.5,240 100,244.5 100,250 C100,255.5 95.5,260 90,260 Z M90,180 C84.5,180 80,175.5 80,170 C80,164.5 84.5,160 90,160 C95.5,160 100,164.5 100,170 C100,175.5 95.5,180 90,180 Z M90,100 C84.5,100 80,95.5 80,90 C80,84.5 84.5,80 90,80 C95.5,80 100,84.5 100,90 C100,95.5 95.5,100 90,100 Z M90,20 C84.5,20 80,15.5 80,10 C80,4.5 84.5,0 90,0 C95.5,0 100,4.5 100,10 C100,15.5 95.5,20 90,20 Z M10,420 C4.5,420 0,415.5 0,410 C0,404.5 4.5,400 10,400 C15.5,400 20,404.5 20,410 C20,415.5 15.5,420 10,420 Z M10,340 C4.5,340 0,335.5 0,330 C0,324.5 4.5,320 10,320 C15.5,320 20,324.5 20,330 C20,335.5 15.5,340 10,340 Z M10,260 C4.5,260 0,255.5 0,250 C0,244.5 4.5,240 10,240 C15.5,240 20,244.5 20,250 C20,255.5 15.5,260 10,260 Z M10,180 C4.5,180 0,175.5 0,170 C0,164.5 4.5,160 10,160 C15.5,160 20,164.5 20,170 C20,175.5 15.5,180 10,180 Z M10,100 C4.5,100 0,95.5 0,90 C0,84.5 4.5,80 10,80 C15.5,80 20,84.5 20,90 C20,95.5 15.5,100 10,100 Z M10,20 C4.5,20 0,15.5 0,10 C0,4.5 4.5,0 10,0 C15.5,0 20,4.5 20,10 C20,15.5 15.5,20 10,20 Z" id="Path-1020"></path>
                </g>
            </g>
        </g>
    </g>
</svg>