<svg width="30" height="30" viewBox="0 0 30 30" fill="none" xmlns="http://www.w3.org/2000/svg">
<g clip-path="url(#clip0_85_440)">
<path d="M24.4037 7.74832C24.354 7.5609 24.2438 7.39517 24.0901 7.27693C23.9365 7.15869 23.748 7.09458 23.5541 7.09459H18.4984C20.7305 4.23785 18.7035 0 15.035 0C11.3661 0 9.33983 4.23826 11.5716 7.09459H6.16206C5.96577 7.09459 5.77513 7.1603 5.62052 7.28124C5.46592 7.40218 5.35625 7.5714 5.30899 7.76191L0.96532 25.2746C0.915307 25.4761 0.938287 25.6889 1.03018 25.8751L2.82391 29.5101C2.89647 29.6572 3.00875 29.781 3.14803 29.8676C3.28732 29.9542 3.44805 30.0001 3.61206 30.0001H26.4636C26.6308 30.0001 26.7945 29.9524 26.9355 29.8626C27.0766 29.7729 27.1891 29.6447 27.2598 29.4933L28.9798 25.813C29.235 25.2671 29.1625 25.9921 24.4037 7.74832ZM15.035 1.75781C16.4889 1.75781 17.6717 2.94064 17.6717 4.39453C17.6717 5.84842 16.4889 7.03125 15.035 7.03125C13.5811 7.03125 12.3983 5.84842 12.3983 4.39453C12.3983 2.94064 13.5811 1.75781 15.035 1.75781ZM25.9043 28.2422H4.15856L2.74886 25.3856L6.8496 8.8524H22.8779L27.2524 25.3577L25.9043 28.2422Z" fill="white"/>
<path d="M16.9621 18.1508C15.8595 17.2917 14.4156 17.2076 14.017 16.488C13.8322 16.1544 13.989 15.662 14.3594 15.413C14.8282 15.0978 15.7206 15.2173 16.0702 15.5398C16.4271 15.8689 16.9831 15.8464 17.3121 15.4896C17.6412 15.1328 17.6188 14.5767 17.262 14.2477C16.8848 13.8997 16.3919 13.6655 15.8646 13.5504V13.2422C15.8646 12.7568 15.4711 12.3633 14.9857 12.3633C14.5003 12.3633 14.1068 12.7568 14.1068 13.2422V13.6124C12.4431 14.1234 11.7263 15.9802 12.4793 17.3397C12.9989 18.2778 13.9043 18.6354 14.7032 18.9509C15.469 19.2534 16.466 19.6433 16.3675 20.5263C16.3203 20.9487 16.0073 21.365 15.5883 21.5621C15.0175 21.8307 13.9712 21.6886 13.3036 21.2519C12.8973 20.9862 12.3526 21.1 12.0869 21.5063C11.8211 21.9125 11.935 22.4572 12.3412 22.7229C12.8187 23.0352 13.445 23.2799 14.1068 23.3913V23.7655C14.1068 24.2509 14.5003 24.6444 14.9857 24.6444C15.4711 24.6444 15.8646 24.2509 15.8646 23.7655V23.326C17.0778 22.9871 17.9796 21.93 18.1144 20.7212C18.2236 19.7434 17.8035 18.8065 16.9621 18.1508Z" fill="white"/>
</g>
<defs>
<clipPath id="clip0_85_440">
<rect width="30" height="30" fill="white"/>
</clipPath>
</defs>
</svg>
