<svg width="30" height="30" viewBox="0 0 30 30" fill="none" xmlns="http://www.w3.org/2000/svg">
<path d="M22.7998 12.4943V4.50339L14.9998 0L7.19967 4.50339V12.4944L0.279297 16.4898V25.4966L8.0794 30L14.9998 26.0046L21.9202 30L29.7203 25.4966V16.4898L22.7998 12.4943ZM7.19967 27.4604L2.03869 24.4807V18.5214L7.19967 21.5011V27.4604ZM2.91841 16.9977L8.0794 14.0181L13.2404 16.9977L8.0794 19.9774L2.91841 16.9977ZM14.1201 24.4808L8.95907 27.4605V21.5011L14.1201 18.5213V24.4808ZM14.1201 15.474L8.95907 12.4943V6.53495L14.1201 9.51461V15.474ZM9.83879 5.01128L14.9998 2.03162L20.1608 5.01128L14.9998 7.99094L9.83879 5.01128ZM21.0404 6.53495V12.4943L15.8794 15.474V9.51461L21.0404 6.53495ZM21.0404 27.4604L15.8794 24.4807V18.5214L21.0404 21.5011V27.4604ZM16.7592 16.9977L21.9202 14.0181L27.0811 16.9977L21.9202 19.9774L16.7592 16.9977ZM27.9608 24.4808L22.7998 27.4604V21.5011L27.9608 18.5213V24.4808Z" fill="#5D596C"/>
</svg>
