<svg width="30" height="30" viewBox="0 0 30 30" fill="none" xmlns="http://www.w3.org/2000/svg">
<g clip-path="url(#clip0_85_451)">
<path d="M0.93882 29.9999C0.734505 30.0019 0.535192 29.9368 0.371366 29.8147C0.20754 29.6926 0.0882201 29.5202 0.0316576 29.3238C-0.0249048 29.1275 -0.0155962 28.918 0.0581598 28.7275C0.131916 28.5369 0.266058 28.3758 0.44007 28.2687L13.8776 19.8312C14.0573 19.7182 14.27 19.6695 14.4809 19.6931C14.6919 19.7168 14.8886 19.8113 15.0388 19.9612L19.3763 24.2987L28.4013 15.2737C28.5772 15.0978 28.8157 14.999 29.0644 14.999C29.3132 14.999 29.5517 15.0978 29.7276 15.2737C29.9034 15.4496 30.0022 15.6881 30.0022 15.9368C30.0022 16.1855 29.9034 16.4241 29.7276 16.5999L20.0401 26.2874C19.953 26.3746 19.8496 26.4437 19.7358 26.4908C19.6221 26.538 19.5001 26.5622 19.3769 26.5622C19.2538 26.5622 19.1318 26.538 19.018 26.4908C18.9043 26.4437 18.8009 26.3746 18.7138 26.2874L14.2426 21.8162L1.43507 29.8562C1.28666 29.9503 1.11453 30.0001 0.93882 29.9999Z" fill="white"/>
<path d="M29.0625 21.875C28.8139 21.875 28.5754 21.7762 28.3996 21.6004C28.2238 21.4246 28.125 21.1861 28.125 20.9375V16.875H24.0625C23.8139 16.875 23.5754 16.7762 23.3996 16.6004C23.2238 16.4246 23.125 16.1861 23.125 15.9375C23.125 15.6889 23.2238 15.4504 23.3996 15.2746C23.5754 15.0988 23.8139 15 24.0625 15H29.0625C29.3112 15 29.5496 15.0988 29.7254 15.2746C29.9013 15.4504 30 15.6889 30 15.9375V20.9375C30 21.1861 29.9013 21.4246 29.7254 21.6004C29.5496 21.7762 29.3112 21.875 29.0625 21.875ZM8.18754 21.775C8.06522 21.7753 7.94408 21.7511 7.83129 21.7038C5.88083 20.9063 4.21268 19.5449 3.04027 17.794C1.86787 16.0431 1.24454 13.9822 1.25004 11.875C1.25004 6.01625 6.01629 1.25 11.875 1.25C17.7338 1.25 22.5 6.01625 22.5 11.875C22.5049 13.476 22.1458 15.0571 21.4498 16.4989C20.7538 17.9407 19.7391 19.2055 18.4825 20.1975C18.386 20.274 18.2754 20.3307 18.1569 20.3645C18.0385 20.3982 17.9145 20.4083 17.7922 20.3941C17.6699 20.38 17.5515 20.3418 17.4439 20.2819C17.3363 20.222 17.2415 20.1415 17.165 20.045C17.0885 19.9485 17.0318 19.8378 16.9981 19.7194C16.9643 19.6009 16.9543 19.477 16.9684 19.3547C16.9826 19.2323 17.0207 19.114 17.0806 19.0064C17.1405 18.8988 17.221 18.804 17.3175 18.7275C18.3522 17.9107 19.1876 16.8694 19.7606 15.6823C20.3336 14.4951 20.6292 13.1932 20.625 11.875C20.625 7.05 16.6988 3.125 11.875 3.125C7.05129 3.125 3.12504 7.05 3.12504 11.875C3.12067 13.6104 3.63392 15.3077 4.59917 16.7499C5.56441 18.1921 6.93781 19.3136 8.54379 19.9713C8.74405 20.0541 8.9094 20.2038 9.01173 20.3949C9.11406 20.5859 9.14703 20.8065 9.10503 21.0192C9.06304 21.2318 8.94867 21.4233 8.7814 21.5611C8.61412 21.6989 8.40427 21.7745 8.18754 21.775Z" fill="white"/>
<path d="M12.3504 16.25H9.68789C9.43925 16.25 9.20079 16.1512 9.02498 15.9754C8.84916 15.7996 8.75039 15.5611 8.75039 15.3125C8.75039 15.0639 8.84916 14.8254 9.02498 14.6496C9.20079 14.4738 9.43925 14.375 9.68789 14.375H12.3504C12.5559 14.375 12.7531 14.2933 12.8984 14.148C13.0437 14.0027 13.1254 13.8055 13.1254 13.6C13.1265 13.4973 13.1074 13.3954 13.069 13.3002C13.0306 13.2049 12.9738 13.1182 12.9017 13.045C12.8297 12.9718 12.7439 12.9136 12.6493 12.8737C12.5547 12.8338 12.4531 12.813 12.3504 12.8125H11.4004C10.6959 12.8125 10.0203 12.5326 9.52214 12.0345C9.024 11.5364 8.74414 10.8607 8.74414 10.1563C8.74414 9.45177 9.024 8.77614 9.52214 8.278C10.0203 7.77985 10.6959 7.5 11.4004 7.5H14.0629C14.3115 7.5 14.55 7.59877 14.7258 7.77459C14.9016 7.9504 15.0004 8.18886 15.0004 8.4375C15.0004 8.68614 14.9016 8.9246 14.7258 9.10041C14.55 9.27623 14.3115 9.375 14.0629 9.375H11.4004C11.1948 9.375 10.9977 9.45665 10.8524 9.60199C10.707 9.74733 10.6254 9.94446 10.6254 10.15C10.6254 10.59 10.9729 10.9375 11.4004 10.9375H12.3504C13.0549 10.9375 13.7305 11.2174 14.2286 11.7155C14.7268 12.2136 15.0066 12.8893 15.0066 13.5938C15.0066 14.2982 14.7268 14.9739 14.2286 15.472C13.7305 15.9701 13.0549 16.25 12.3504 16.25Z" fill="white"/>
<path d="M11.875 9.375C11.6264 9.375 11.3879 9.27623 11.2121 9.10041C11.0363 8.9246 10.9375 8.68614 10.9375 8.4375V6.5625C10.9375 6.31386 11.0363 6.0754 11.2121 5.89959C11.3879 5.72377 11.6264 5.625 11.875 5.625C12.1236 5.625 12.3621 5.72377 12.5379 5.89959C12.7137 6.0754 12.8125 6.31386 12.8125 6.5625V8.4375C12.8125 8.68614 12.7137 8.9246 12.5379 9.10041C12.3621 9.27623 12.1236 9.375 11.875 9.375ZM11.875 18.125C11.6264 18.125 11.3879 18.0262 11.2121 17.8504C11.0363 17.6746 10.9375 17.4361 10.9375 17.1875V15.3125C10.9375 15.0639 11.0363 14.8254 11.2121 14.6496C11.3879 14.4738 11.6264 14.375 11.875 14.375C12.1236 14.375 12.3621 14.4738 12.5379 14.6496C12.7137 14.8254 12.8125 15.0639 12.8125 15.3125V17.1875C12.8125 17.4361 12.7137 17.6746 12.5379 17.8504C12.3621 18.0262 12.1236 18.125 11.875 18.125Z" fill="white"/>
</g>
<defs>
<clipPath id="clip0_85_451">
<rect width="30" height="30" fill="white"/>
</clipPath>
</defs>
</svg>
