<svg width="30" height="30" viewBox="0 0 30 30" fill="none" xmlns="http://www.w3.org/2000/svg">
<g clip-path="url(#clip0_85_429)">
<path d="M22.9683 29.0625H7.03084C4.68709 29.0625 2.81209 27.1875 2.81209 24.8438V14.0625H1.40584C0.843335 14.0625 0.280835 13.6875 0.093335 13.125C-0.094165 12.5625 0.0933351 11.9062 0.562085 11.5312L12.9371 1.3125C14.1558 0.28125 15.9371 0.28125 17.1558 1.3125L29.5308 11.5312C29.9996 11.9062 30.1871 12.5625 29.9996 13.125C29.8121 13.6875 29.2496 14.0625 28.6871 14.0625H27.1871V24.8438C27.1871 27.1875 25.3121 29.0625 22.9683 29.0625ZM4.96834 11.5312C5.34334 11.7188 5.62459 12.1875 5.62459 12.6562V24.8438C5.62459 25.5938 6.28084 26.25 7.03084 26.25H22.9683C23.7183 26.25 24.3746 25.5938 24.3746 24.8438V12.6562C24.3746 12.1875 24.6558 11.7188 25.0308 11.5312L15.2808 3.46875C15.0933 3.28125 14.8121 3.28125 14.7183 3.46875L4.96834 11.5312Z" fill="white"/>
<path d="M19.2188 29.0625H11.7188C10.9688 29.0625 10.3125 28.4062 10.3125 27.6562V20.1562C10.3125 17.8125 12.1875 15.9375 14.5312 15.9375H16.4062C18.75 15.9375 20.625 17.8125 20.625 20.1562V27.6562C20.625 28.4062 19.9688 29.0625 19.2188 29.0625ZM13.125 26.25H17.8125V20.1562C17.8125 19.4062 17.1562 18.75 16.4062 18.75H14.5312C13.7812 18.75 13.125 19.4062 13.125 20.1562V26.25Z" fill="white"/>
</g>
<defs>
<clipPath id="clip0_85_429">
<rect width="30" height="30" fill="white"/>
</clipPath>
</defs>
</svg>
