<svg width="30" height="30" viewBox="0 0 30 30" fill="none" xmlns="http://www.w3.org/2000/svg">
<path d="M16.5753 7.63473C16.2204 7.129 15.3279 6.75318 14.1615 7.10451C13.0906 7.42713 12.6106 9.141 14.0076 9.79971C14.2268 9.90307 14.7884 10.1237 15.6359 10.4233C17.5326 11.0937 17.5949 13.5847 15.3438 13.7814C14.5938 13.8469 13.5242 13.8211 12.955 13.1145M14.908 13.8598V14.4403M14.908 6.23633V6.92633M10.7832 19.1691H19.2182M10.7832 23.7631H19.2182" stroke="#5D596C" stroke-width="2" stroke-miterlimit="10" stroke-linecap="round" stroke-linejoin="round"/>
<path d="M25.2039 19.4743V6.82887C25.2039 6.36719 25.113 5.91003 24.9363 5.4835C24.7596 5.05697 24.5006 4.66941 24.1742 4.34297L22.0328 2.2016C21.7064 1.87513 21.3188 1.61617 20.8923 1.43948C20.4657 1.2628 20.0086 1.17187 19.5469 1.17188H8.3125C6.37088 1.17188 4.79688 2.74588 4.79688 4.6875V25.3125C4.79688 27.2541 6.37088 28.8281 8.3125 28.8281H21.6883C23.6228 28.8281 25.1924 27.2655 25.2038 25.3337" stroke="#5D596C" stroke-width="2" stroke-miterlimit="10" stroke-linecap="round" stroke-linejoin="round"/>
</svg>
