<svg width="30" height="30" viewBox="0 0 30 30" fill="none" xmlns="http://www.w3.org/2000/svg">
<path d="M22.2281 20.8965L20.3531 19.0215C20.2659 18.9336 20.1622 18.8638 20.048 18.8162C19.9337 18.7686 19.8112 18.7441 19.6874 18.7441C19.5637 18.7441 19.4411 18.7686 19.3269 18.8162C19.2126 18.8638 19.109 18.9336 19.0218 19.0215L17.1468 20.8965C17.0594 20.9839 16.9901 21.0876 16.9427 21.2018C16.8954 21.3161 16.8711 21.4385 16.8711 21.5621C16.8711 21.6857 16.8954 21.8081 16.9427 21.9223C16.9901 22.0365 17.0594 22.1403 17.1468 22.2277C17.2342 22.3151 17.338 22.3845 17.4522 22.4318C17.5664 22.4791 17.6888 22.5034 17.8124 22.5034C17.936 22.5034 18.0585 22.4791 18.1727 22.4318C18.2869 22.3845 18.3906 22.3151 18.4781 22.2277L18.7499 21.9465V25.3121C18.7499 25.5607 18.8487 25.7992 19.0245 25.975C19.2003 26.1508 19.4388 26.2496 19.6874 26.2496C19.9361 26.2496 20.1745 26.1508 20.3503 25.975C20.5262 25.7992 20.6249 25.5607 20.6249 25.3121V21.9465L20.8968 22.2277C20.984 22.3156 21.0876 22.3853 21.2019 22.4329C21.3161 22.4805 21.4387 22.505 21.5624 22.505C21.6862 22.505 21.8087 22.4805 21.923 22.4329C22.0372 22.3853 22.1409 22.3156 22.2281 22.2277C22.3159 22.1405 22.3857 22.0369 22.4333 21.9226C22.4809 21.8084 22.5054 21.6858 22.5054 21.5621C22.5054 21.4383 22.4809 21.3158 22.4333 21.2015C22.3857 21.0873 22.3159 20.9836 22.2281 20.8965ZM27.8531 22.7715C27.7659 22.6836 27.6622 22.6138 27.548 22.5662C27.4337 22.5186 27.3112 22.4941 27.1874 22.4941C27.0637 22.4941 26.9411 22.5186 26.8269 22.5662C26.7126 22.6138 26.609 22.6836 26.5218 22.7715L26.2499 23.0527V19.6871C26.2499 19.4384 26.1512 19.2 25.9753 19.0242C25.7995 18.8483 25.5611 18.7496 25.3124 18.7496C25.0638 18.7496 24.8253 18.8483 24.6495 19.0242C24.4737 19.2 24.3749 19.4384 24.3749 19.6871V23.0527L24.1031 22.7715C23.9265 22.5949 23.6871 22.4957 23.4374 22.4957C23.1878 22.4957 22.9483 22.5949 22.7718 22.7715C22.5953 22.948 22.4961 23.1874 22.4961 23.4371C22.4961 23.6867 22.5953 23.9262 22.7718 24.1027L24.6468 25.9777C24.734 26.0656 24.8376 26.1353 24.9519 26.1829C25.0661 26.2305 25.1887 26.255 25.3124 26.255C25.4362 26.255 25.5587 26.2305 25.673 26.1829C25.7872 26.1353 25.8909 26.0656 25.9781 25.9777L27.8531 24.1027C27.9409 24.0155 28.0107 23.9119 28.0583 23.7976C28.1059 23.6834 28.1304 23.5608 28.1304 23.4371C28.1304 23.3133 28.1059 23.1908 28.0583 23.0765C28.0107 22.9623 27.9409 22.8586 27.8531 22.7715Z" fill="#5D596C"/>
<path d="M15.6747 24.0187C14.8459 24.2576 13.9873 24.3775 13.1247 24.375C11.2705 24.375 9.45796 23.8252 7.91625 22.795C6.37454 21.7649 5.17293 20.3007 4.46335 18.5877C3.75378 16.8746 3.56813 14.9896 3.92986 13.171C4.2916 11.3525 5.18448 9.68199 6.4956 8.37087C7.80672 7.05975 9.47718 6.16687 11.2958 5.80514C13.1143 5.4434 14.9993 5.62906 16.7124 6.33863C18.4254 7.0482 19.8896 8.24982 20.9198 9.79153C21.9499 11.3332 22.4997 13.1458 22.4997 15C22.5026 15.997 22.3443 16.9879 22.031 17.9344C21.9916 18.0513 21.9756 18.1749 21.984 18.298C21.9923 18.4212 22.0249 18.5414 22.0797 18.652C22.1905 18.8753 22.3854 19.0454 22.6216 19.125C22.8578 19.2046 23.1159 19.187 23.3392 19.0763C23.5625 18.9655 23.7327 18.7706 23.8122 18.5344C24.5593 16.2767 24.5718 13.8404 23.8479 11.5752C23.1239 9.30999 21.7008 7.33247 19.7828 5.92656C17.8648 4.52066 15.5507 3.75869 13.1726 3.75007C10.7946 3.74146 8.47494 4.48663 6.54682 5.87859C4.6187 7.27056 3.18127 9.23771 2.44092 11.4976C1.70057 13.7575 1.69538 16.1939 2.42611 18.4569C3.15684 20.7199 4.58588 22.6931 6.50806 24.0933C8.43023 25.4935 10.7467 26.2485 13.1247 26.25C14.1652 26.256 15.201 26.1108 16.1997 25.8187C16.3179 25.7843 16.4282 25.7269 16.5242 25.6498C16.6202 25.5727 16.7 25.4775 16.7592 25.3695C16.8184 25.2616 16.8558 25.143 16.8692 25.0206C16.8826 24.8983 16.8717 24.7744 16.8372 24.6562C16.8028 24.5381 16.7453 24.4278 16.6683 24.3318C16.5912 24.2358 16.496 24.1559 16.388 24.0967C16.2801 24.0375 16.1615 24.0002 16.0391 23.9868C15.9167 23.9734 15.7929 23.9843 15.6747 24.0187Z" fill="#5D596C"/>
<path d="M15.9375 12.1875C16.1861 12.1875 16.4246 12.0887 16.6004 11.9129C16.7762 11.7371 16.875 11.4986 16.875 11.25C16.875 11.0014 16.7762 10.7629 16.6004 10.5871C16.4246 10.4113 16.1861 10.3125 15.9375 10.3125H14.0625V9.375C14.0625 9.12636 13.9637 8.8879 13.7879 8.71209C13.6121 8.53627 13.3736 8.4375 13.125 8.4375C12.8764 8.4375 12.6379 8.53627 12.4621 8.71209C12.2863 8.8879 12.1875 9.12636 12.1875 9.375V10.3125H11.25C10.7527 10.3125 10.2758 10.51 9.92418 10.8617C9.57254 11.2133 9.375 11.6902 9.375 12.1875V14.0625C9.375 14.5598 9.57254 15.0367 9.92418 15.3883C10.2758 15.74 10.7527 15.9375 11.25 15.9375H15V17.8125H10.3125C10.0639 17.8125 9.8254 17.9113 9.64959 18.0871C9.47377 18.2629 9.375 18.5014 9.375 18.75C9.375 18.9986 9.47377 19.2371 9.64959 19.4129C9.8254 19.5887 10.0639 19.6875 10.3125 19.6875H12.1875V20.625C12.1875 20.8736 12.2863 21.1121 12.4621 21.2879C12.6379 21.4637 12.8764 21.5625 13.125 21.5625C13.3736 21.5625 13.6121 21.4637 13.7879 21.2879C13.9637 21.1121 14.0625 20.8736 14.0625 20.625V19.6875H15C15.4973 19.6875 15.9742 19.49 16.3258 19.1383C16.6775 18.7867 16.875 18.3098 16.875 17.8125V15.9375C16.875 15.4402 16.6775 14.9633 16.3258 14.6117C15.9742 14.26 15.4973 14.0625 15 14.0625H11.25V12.1875H15.9375Z" fill="#5D596C"/>
</svg>
