<?xml version="1.0" encoding="utf-8"?>
<!-- Generator: Adobe Illustrator 24.0.0, SVG Export Plug-In . SVG Version: 6.00 Build 0)  -->
<svg version="1.1" id="svg783" xmlns:svg="http://www.w3.org/2000/svg"
	 xmlns="http://www.w3.org/2000/svg" xmlns:xlink="http://www.w3.org/1999/xlink" x="0px" y="0px" viewBox="0 0 682.7 682.7"
	 style="enable-background:new 0 0 682.7 682.7;" xml:space="preserve">
<style type="text/css">
	.st0{fill:#0027B7;}
</style>
<g>
	<path class="st0" d="M64.1,0.3c149.8,0,299.5,0,449.3,0c0.5,0.1,1.1,0.3,1.6,0.4c3.2,0.2,6.4,0.7,9.5,1.4
		c29.9,6.4,52.4,33.8,52.4,65.4c-0.2,116-0.1,232.1-0.1,348.1c0,0.8,0,1.6,0,2.4c0,0.9,0.3,1.3,1.2,1.4c0.4,0,0.8,0.2,1.2,0.3
		c45,10.2,81.4,42.4,96.7,85.6c3.8,10.8,6.5,21.9,7,33.4c0,0.5-0.1,1.1,0.4,1.6c0,6.2,0,12.5,0,18.7c-0.3,0.7-0.4,1.5-0.4,2.3
		c-0.1,5.5-1,10.8-2.2,16.1c-8.2,36.7-28.2,65.2-59.8,85.4c-17.2,11-36.2,17.4-56.5,19.6c-2.4,0.3-4.9,0-7.3,0.8c-4.3,0-8.6,0-13,0
		c-0.8-0.4-1.7-0.4-2.6-0.4c-3.8-0.1-7.5-0.6-11.2-1.2c-21.2-3.3-40.5-11.1-57.8-23.6c-1.7-1.2-3.3-1.7-5.3-1.7
		c-97.5,0-195,0-292.5,0c-2.9,0-5.7-0.1-8.6-0.5c-18.2-2.4-33-10.8-44.3-25.1c-9.8-12.4-14.3-26.6-14.3-42.3
		c0-159.4,0-318.8,0-478.2c0-3.6,0.4-3.2-3.2-3.2c-29.7,0-59.4-0.1-89,0.1c-7.9,0-14.6-5.6-14.5-14.7c0.1-7.8,0.1-15.7,0-23.5
		c0-4,0.3-8,0.9-11.9C6,28.1,29.2,5.2,58.4,1.2C60.3,0.9,62.3,1.1,64.1,0.3z M121.3,27.5c0.1,0.3,0.1,0.4,0.1,0.4
		c0.2,0.3,0.3,0.6,0.5,0.8c8.4,12,12.3,25.4,12.3,40.1c0,173.4,0,346.7,0,520.1c0,2,0.1,4,0.3,6c2.1,17.9,17.4,35,39.7,34.9
		c15.7-0.1,27.5-7.5,35.2-21.2c3.3-5.9,4.7-12.4,4.7-19.1c0-8.7,0-17.4,0-26.2c0-6.7,4.3-11.9,10.7-13.2c1.5-0.3,3-0.2,4.5-0.2
		c61.3,0,122.6,0,183.8,0c0.8,0,1.6,0,2.4,0c0.8,0,1.2-0.3,1.2-1.1c0-0.5,0-1,0-1.4c0.1-8.3,1.1-16.6,2.8-24.7
		c12.8-60.7,65.7-104.6,127.8-106c2.9-0.1,2.8,0.5,2.8-2.9c0-115.3,0-230.6,0-345.8c0-2.2-0.1-4.5-0.5-6.7
		c-3.3-19.9-19.8-33.8-40-33.8c-128.6,0-257.3,0-385.9,0C123,27.3,122.2,27.1,121.3,27.5z M443.5,549.9
		c0,58.8,47.9,106.6,106.6,106.6c58.9,0,106.9-47.9,106.7-106.7c-0.2-60.4-49.8-107.1-107.7-106.5
		C492.2,443.8,443.7,490.2,443.5,549.9z M443.1,629.9c-0.4-1.2-1-1.8-1.5-2.5c-10.3-14.5-17.5-30.4-21.5-47.8
		c-0.6-2.8-0.6-2.8-3.5-2.8c-57.6,0-115.2,0-172.8,0c-0.5,0-1,0-1.4,0c-1.3-0.1-1.6,0.5-1.6,1.7c0.1,3.9,0,7.8,0,11.8
		c0,3.6-0.2,7.2-0.8,10.7c-1.7,9.9-5.4,19-11.1,27.3c-0.3,0.5-1,0.9-0.6,1.7C299.8,629.9,371.3,629.9,443.1,629.9z M67.7,80.5
		c12.2,0,24.5,0,36.7,0c0.6,0,1.1,0,1.7,0c1.1,0.1,1.4-0.5,1.4-1.4c0-1.8,0-3.7,0-5.5c0-3.8,0.2-7.7-0.3-11.5
		c-3-21.8-22.6-37-44.4-34.5C46.9,29.4,33.4,40.9,29,56.4c-2.2,7.6-1.3,15.4-1.5,23.1c0,0.7,0.3,1,1,1c0.6,0,1.3,0,1.9,0
		C42.9,80.5,55.3,80.5,67.7,80.5z"/>
	<path class="st0" d="M267.6,300.7c0,11,0,21.9,0,32.9c0,4.9-2,8.8-6.1,11.6c-2,1.4-4.3,2-6.8,2.2c-0.6,0-1.3,0-1.9,0
		c-21.4,0-42.7,0-64.1,0c-3.5,0-6.7-0.7-9.4-2.9c-3.6-2.8-5.2-6.6-5.2-11.1c0-4.2,0-8.5,0-12.7c0-17.3,0-34.5,0-51.8
		c0-1.9,0.1-3.7,0.6-5.5c1.7-5.5,6.6-9.3,12.5-9.5c1.6-0.1,3.2,0,4.8,0c20.5,0,40.9,0,61.4,0c3.7,0,7,1,9.7,3.5
		c3,2.7,4.4,6.2,4.4,10.2C267.6,278.6,267.6,289.7,267.6,300.7z M240.8,300.8c0-6.1,0-12.2,0-18.2c0-1.9,0-2-2-2
		c-11.9,0-23.8,0-35.8,0c-2.1,0-2.1,0-2.1,2.1c0,11.9,0,23.8,0,35.8c0,2.1,0,2.1,2.1,2.1c11.9,0,23.8,0,35.8,0c2,0,2,0,2-2
		C240.8,312.7,240.8,306.7,240.8,300.8z"/>
	<path class="st0" d="M220.8,213.9c-10.9,0-21.8-0.2-32.6,0.1c-6.5,0.1-14.1-4.5-14.1-14c0-21.8,0-43.7,0-65.5c0-8.5,6.5-14,14.1-14
		c21.7,0.1,43.5,0.1,65.2,0c8.5-0.1,14.2,6.5,14.1,14c-0.1,21.8,0,43.7,0,65.5c0,7-4.2,12.3-10.8,13.7c-1.1,0.2-2.2,0.2-3.3,0.2
		C242.6,213.9,231.7,213.9,220.8,213.9z M220.8,187.2c6,0,12,0,18,0c2,0,2,0,2-2c0-12,0-24,0-36c0-2,0-2-2-2c-11.9,0-23.8,0-35.8,0
		c-2.1,0-2.2,0-2.2,2.1c0,11.9,0,23.8,0,35.8c0,2.1,0,2.1,2.1,2.1C208.9,187.2,214.9,187.2,220.8,187.2z"/>
	<path class="st0" d="M267.6,433.9c0,11,0,22.1,0,33.1c0,6.2-3.8,11.3-9.5,13c-1.5,0.5-3.1,0.6-4.7,0.6c-21.7,0-43.3,0-65,0
		c-6.6,0-11.6-3.4-13.5-9.2c-0.5-1.6-0.8-3.3-0.8-5c0-21.8,0-43.5,0-65.3c0-9.2,7.1-14.2,14.3-14.1c21.7,0.2,43.3,0.2,65,0
		c8-0.1,14.4,6,14.3,14.4C267.4,412.3,267.6,423.1,267.6,433.9z M220.8,453.9c5.9,0,11.8,0,17.7,0c2.2,0,2.2,0,2.2-2.2
		c0-11.8,0-23.7,0-35.5c0-2.1,0-2.2-2-2.2c-11.9,0-23.8,0-35.7,0c-2.1,0-2.1,0-2.1,2.1c0,11.9,0,23.8,0,35.7c0,2,0,2.1,2.2,2.1
		C209,453.9,214.9,453.9,220.8,453.9z"/>
	<path class="st0" d="M408.8,153.9c-29.2,0-58.4,0-87.6,0c-5,0-9-2-11.7-6.3c-5.5-8.7,0.5-19.9,10.9-20.5c0.6,0,1.3,0,1.9,0
		c57.7,0,115.3,0,173,0c1.8,0,3.7,0.1,5.5,0.6c6.4,2,10.2,8.1,9.2,15c-0.9,6.3-6.5,11.1-13.1,11.1c-17.8,0-35.5,0-53.3,0
		C432,153.9,420.4,153.9,408.8,153.9z"/>
	<path class="st0" d="M385.6,207.3c-21.4,0-42.7,0-64.1,0c-3.5,0-6.7-0.9-9.3-3.2c-4.3-3.8-5.7-8.6-4.1-14.1c1.4-5.1,6-8.8,11.4-9.3
		c0.9-0.1,1.8-0.1,2.6-0.1c42.3,0,84.6,0,127,0c1.7,0,3.4,0.1,5,0.6c6.4,2,10.3,8.2,9.4,14.9c-0.9,6.3-6.5,11.2-13,11.2
		c-16.1,0-32.2,0-48.2,0C396.6,207.3,391.1,207.3,385.6,207.3z"/>
	<path class="st0" d="M385.4,393.9c21.3,0,42.6,0,63.8,0c3.6,0,6.8,0.8,9.5,3.2c4.2,3.7,5.7,8.5,4.1,13.9c-1.5,5.3-5.2,8.5-10.7,9.4
		c-1.2,0.2-2.4,0.3-3.6,0.3c-42.2,0-84.3,0-126.5,0c-1.8,0-3.5-0.1-5.2-0.6c-6.2-1.9-10.3-8-9.5-14.4c0.8-6.6,6.2-11.6,12.9-11.7
		c5.7-0.1,11.4,0,17,0C353.4,393.9,369.4,393.9,385.4,393.9z"/>
	<path class="st0" d="M439,287.3c-19.3,0-38.6,0-57.8,0c-6.6,0-11.8-4.1-13.3-10.3c-1.9-8.2,4-16,12.4-16.4c0.6,0,1.1,0,1.7,0
		c37.9,0,75.8,0,113.7,0c1.9,0,3.7,0.1,5.4,0.7c6.2,2.1,9.8,8,8.9,14.7c-0.8,6.1-6.2,11-12.5,11.3c-0.7,0-1.4,0-2.2,0
		C476.6,287.3,457.8,287.3,439,287.3z"/>
	<path class="st0" d="M358.3,340.6c-12.5,0-24.9,0-37.4,0c-6.2,0-11.4-4-13-9.8c-2.2-8.4,3.7-16.5,12.5-17c0.5,0,1,0,1.4,0
		c24.5,0,48.9,0,73.4,0c4.1,0,7.8,1.1,10.6,4.2c3.9,4.2,4.9,9.2,2.6,14.4c-2.2,5.3-6.5,8.1-12.2,8.1
		C383.6,340.7,371,340.6,358.3,340.6z"/>
	<path class="st0" d="M358.8,447.2c12.3,0,24.6,0,36.9,0c3.1,0,5.8,0.8,8.3,2.5c4.5,3.3,6.5,9,5,14.5c-1.5,5.5-6.3,9.3-12.3,9.8
		c-0.7,0.1-1.4,0-2.2,0c-24.1,0-48.1,0-72.2,0c-1.8,0-3.7-0.1-5.5-0.6c-6.2-1.9-10.2-8.1-9.4-14.4c0.8-6.5,6.2-11.4,12.6-11.7
		c2.3-0.1,4.6,0,7,0C337.7,447.2,348.2,447.2,358.8,447.2z"/>
	<path class="st0" d="M307.5,273.8c0-7.4,6.1-13.4,13.5-13.3c7.3,0.1,13.2,6.1,13.3,13.3c0,7.4-6,13.4-13.4,13.4
		C313.4,287.3,307.5,281.3,307.5,273.8z"/>
	<path class="st0" d="M560.4,576.7c-0.3-4.9-2.9-9.1-8.2-11.4c-4.7-2-9.5-3.9-14.2-5.9c-14.2-6.2-22.6-17.1-24.5-32.4
		c-2.2-17.2,7-32.4,20.9-39.7c0.4-0.2,0.7-0.4,1.1-0.5c1-0.4,1.4-1.1,1.4-2.2c-0.1-2.6,0-5.1,0-7.7c0.1-7.1,4.8-12.5,11.8-13.5
		c6.9-0.9,13.7,4.2,14.7,11.1c0.4,2.5,0.2,5.1,0.2,7.7c0,1.2,0.4,1.8,1.6,2.2c3.6,1.3,7.2,2.7,10.7,4.2c5.7,2.5,9,8.6,7.9,14.4
		c-1.2,6.5-6.3,10.9-12.8,11.2c-1.9,0.1-3.8-0.3-5.6-1.1c-2.3-1-4.6-1.9-6.9-2.8c-7.2-3.1-14.8,0.8-17.4,7
		c-2.8,6.7,0.3,14.3,7.3,17.3c4.9,2.1,9.9,4,14.8,6.2c13.3,6,21.3,16.4,23.6,30.8c2.7,16.5-5.7,32.9-20.4,40.9
		c-0.5,0.3-1,0.6-1.5,0.8c-1,0.4-1.3,1-1.3,2c0,2.6,0.1,5.3,0,7.9c-0.1,7.2-4.9,12.4-12,13.3c-7.4,0.9-14.4-5-14.7-12.5
		c-0.1-2.2-0.1-4.3,0-6.5c0-1.1-0.4-1.7-1.5-2c-3.7-1.1-7.2-2.7-10.7-4.2c-5.9-2.6-9.1-8.5-7.9-14.9c1-5.9,6.2-10.4,12.4-10.8
		c2.1-0.1,4.1,0.3,6.1,1.1c2.6,1.1,5.1,2.2,7.8,3.1C551.5,592.8,560.4,586.4,560.4,576.7z"/>
</g>
</svg>
