<?xml version="1.0" encoding="utf-8"?>
<!-- Generator: Adobe Illustrator 24.0.0, SVG Export Plug-In . SVG Version: 6.00 Build 0)  -->
<svg version="1.1" id="Layer_1" xmlns="http://www.w3.org/2000/svg" xmlns:xlink="http://www.w3.org/1999/xlink" x="0px" y="0px"
	 viewBox="0 0 512 512" style="enable-background:new 0 0 512 512;" xml:space="preserve">
<style type="text/css">
	.st0{fill:#0027B7;}
</style>
<path class="st0" d="M112,168H80c-4.4,0-8,3.6-8,8v32c0,4.4,3.6,8,8,8h32c4.4,0,8-3.6,8-8v-32C120,171.6,116.4,168,112,168z
	 M104,200H88v-16h16V200z"/>
<path class="st0" d="M80,80h72c4.4,0,8-3.6,8-8s-3.6-8-8-8H80c-4.4,0-8,3.6-8,8S75.6,80,80,80z"/>
<path class="st0" d="M80,112h112c4.4,0,8-3.6,8-8s-3.6-8-8-8H80c-4.4,0-8,3.6-8,8S75.6,112,80,112z"/>
<path class="st0" d="M136,176c0,4.4,3.6,8,8,8h176c4.4,0,8-3.6,8-8s-3.6-8-8-8H144C139.6,168,136,171.6,136,176z"/>
<path class="st0" d="M144,216h88c4.4,0,8-3.6,8-8s-3.6-8-8-8h-88c-4.4,0-8,3.6-8,8S139.6,216,144,216z"/>
<path class="st0" d="M112,248H80c-4.4,0-8,3.6-8,8v32c0,4.4,3.6,8,8,8h32c4.4,0,8-3.6,8-8v-32C120,251.6,116.4,248,112,248z
	 M104,280H88v-16h16V280z"/>
<path class="st0" d="M136,256c0,4.4,3.6,8,8,8h192c4.4,0,8-3.6,8-8s-3.6-8-8-8H144C139.6,248,136,251.6,136,256z"/>
<path class="st0" d="M144,280c-4.4,0-8,3.6-8,8s3.6,8,8,8h128c4.4,0,8-3.6,8-8s-3.6-8-8-8H144z"/>
<path class="st0" d="M112,328H80c-4.4,0-8,3.6-8,8v32c0,4.4,3.6,8,8,8h32c4.4,0,8-3.6,8-8v-32C120,331.6,116.4,328,112,328z
	 M104,360H88v-16h16V360z"/>
<path class="st0" d="M344,336c0-4.4-3.6-8-8-8H144c-4.4,0-8,3.6-8,8s3.6,8,8,8h192C340.4,344,344,340.4,344,336z"/>
<path class="st0" d="M144,376h88c4.4,0,8-3.6,8-8s-3.6-8-8-8h-88c-4.4,0-8,3.6-8,8S139.6,376,144,376z"/>
<path class="st0" d="M112,408H80c-4.4,0-8,3.6-8,8v32c0,4.4,3.6,8,8,8h32c4.4,0,8-3.6,8-8v-32C120,411.6,116.4,408,112,408z
	 M104,440H88v-16h16V440z"/>
<path class="st0" d="M320,408H144c-4.4,0-8,3.6-8,8s3.6,8,8,8h176c4.4,0,8-3.6,8-8S324.4,408,320,408z"/>
<path class="st0" d="M272,440H144c-4.4,0-8,3.6-8,8s3.6,8,8,8h128c4.4,0,8-3.6,8-8S276.4,440,272,440z"/>
<path class="st0" d="M488,328c0-8.5-3.3-16.6-9.4-22.6c-12.5-12.5-32.8-12.5-45.2,0L392,346.7V88c0-0.2-0.1-0.3-0.1-0.5
	c0-0.7-0.2-1.4-0.4-2.1c-0.1-0.3-0.2-0.5-0.3-0.8c-0.4-0.8-0.9-1.6-1.5-2.3c0,0,0,0,0,0l-80-80c-0.7-0.7-1.5-1.2-2.3-1.6
	c-0.2-0.1-0.5-0.2-0.7-0.3c-0.7-0.2-1.4-0.4-2.1-0.4c-0.2,0-0.3-0.1-0.5-0.1H48C34.8,0,24,10.8,24,24v464c0,13.2,10.8,24,24,24h320
	c13.2,0,24-10.8,24-24v-50.8l86.6-86.6C484.7,344.6,488,336.5,488,328L488,328z M312,27.3L364.7,80H320c-4.4,0-8-3.6-8-8V27.3z
	 M368,496H48c-4.4,0-8-3.6-8-8V24c0-4.4,3.6-8,8-8h248v56c0,13.2,10.8,24,24,24h56v266.7l-30.6,30.6c-0.1,0-0.1,0.1-0.1,0.2
	c-0.6,0.7-1.2,1.4-1.5,2.3c-0.1,0.2-0.1,0.4-0.2,0.6c-0.1,0.4-0.3,0.8-0.4,1.2l-7,41c-0.4,2.6,0.4,5.2,2.2,7
	c1.5,1.5,3.6,2.4,5.7,2.4c0.5,0,0.9,0,1.4-0.1l30.6-5.3V488C376,492.4,372.4,496,368,496L368,496z M356.3,415.6l12.1,12.1l-14.6,2.5
	L356.3,415.6z M467.3,339.3L385,421.7L362.3,399l27.3-27.3c0,0,0,0,0,0l55-55c6.2-6.2,16.4-6.2,22.6,0c3,3,4.7,7,4.7,11.3
	S470.3,336.3,467.3,339.3L467.3,339.3z"/>
</svg>
