<?xml version="1.0" encoding="UTF-8"?><svg id="a" xmlns="http://www.w3.org/2000/svg" viewBox="0 0 256 256"><defs><style>.b{fill:#fff;}</style></defs><g><path class="b" d="M195.82,175.79l-51.02-51.02,46.5-46.5h-45.13l-21.79,19.17V32.21h-33.62v48.41c-4.71-1.53-9.73-2.35-14.94-2.35-5.75,0-11.27,1-16.39,2.84V32.21H27.27V126.83c0,4.53,.62,8.91,1.79,13.07,5.7,20.47,24.49,35.48,46.77,35.48,19.58,0,36.46-11.6,44.14-28.3l28.7,28.7h47.16Zm-120-25.93c-7.86,0-14.81-3.94-18.97-9.96-2.57-3.71-4.07-8.22-4.07-13.07,0-12.72,10.31-23.04,23.03-23.04s23.04,10.31,23.04,23.04c0,4.86-1.51,9.36-4.07,13.07-4.15,6.02-11.1,9.96-18.97,9.96Z"/><g><path class="b" d="M217.6,167.35v.75h-3.22v7.69h-.83v-7.69h-3.22v-.75h7.27Z"/><path class="b" d="M220.67,167.35l3.55,7.24,3.53-7.24h.98v8.44h-.82v-7.01l-3.42,7.01h-.56l-3.43-7.01v7.01h-.81v-8.44h.99Z"/></g></g><g><path class="b" d="M40.12,216.98c0,4.2-3.18,6.61-9.37,6.61h-11.68v-24.47h10.98c5.63,0,8.78,2.38,8.78,6.33,0,2.66-1.36,4.51-3.29,5.45,2.76,.77,4.58,2.83,4.58,6.08Zm-17.55-15.03v7.83h7.17c3.57,0,5.59-1.33,5.59-3.92s-2.03-3.92-5.59-3.92h-7.17Zm14.02,14.75c0-2.83-2.1-4.09-5.98-4.09h-8.04v8.15h8.04c3.88,0,5.98-1.22,5.98-4.06Z"/><path class="b" d="M53.51,212.71l-4.48,4.55v6.33h-3.5v-24.47h3.5v13.67l13.29-13.67h3.99l-10.45,11.01,11.12,13.46h-4.09l-9.37-10.87Z"/><path class="b" d="M95.68,217.46h-13.01l-2.69,6.12h-3.6l11.08-24.47h3.46l11.12,24.47h-3.67l-2.69-6.12Zm-1.22-2.8l-5.28-11.99-5.28,11.99h10.56Z"/><path class="b" d="M102.67,221.63l1.4-2.66c1.57,1.12,4.09,1.92,6.5,1.92,3.11,0,4.41-.94,4.41-2.52,0-4.16-11.71-.56-11.71-7.94,0-3.32,2.97-5.56,7.73-5.56,2.41,0,5.14,.63,6.75,1.68l-1.43,2.66c-1.68-1.08-3.53-1.47-5.35-1.47-2.94,0-4.37,1.08-4.37,2.55,0,4.37,11.75,.8,11.75,8.01,0,3.36-3.08,5.49-8.01,5.49-3.08,0-6.12-.94-7.66-2.17Z"/><path class="b" d="M120.19,221.63l1.4-2.66c1.57,1.12,4.09,1.92,6.5,1.92,3.11,0,4.41-.94,4.41-2.52,0-4.16-11.71-.56-11.71-7.94,0-3.32,2.97-5.56,7.73-5.56,2.41,0,5.14,.63,6.75,1.68l-1.43,2.66c-1.68-1.08-3.53-1.47-5.35-1.47-2.94,0-4.37,1.08-4.37,2.55,0,4.37,11.75,.8,11.75,8.01,0,3.36-3.08,5.49-8.01,5.49-3.08,0-6.12-.94-7.66-2.17Z"/><path class="b" d="M139.45,199.32c0-1.22,.98-2.2,2.27-2.2s2.27,.94,2.27,2.13c0,1.26-.94,2.24-2.27,2.24s-2.27-.94-2.27-2.17Zm.59,5.73h3.36v18.53h-3.36v-18.53Z"/><path class="b" d="M147.46,221.63l1.4-2.66c1.57,1.12,4.09,1.92,6.5,1.92,3.11,0,4.41-.94,4.41-2.52,0-4.16-11.71-.56-11.71-7.94,0-3.32,2.97-5.56,7.73-5.56,2.41,0,5.14,.63,6.75,1.68l-1.43,2.66c-1.68-1.08-3.53-1.47-5.35-1.47-2.94,0-4.37,1.08-4.37,2.55,0,4.37,11.75,.8,11.75,8.01,0,3.36-3.08,5.49-8.01,5.49-3.08,0-6.12-.94-7.66-2.17Z"/><path class="b" d="M177.74,222.5c-1.01,.87-2.55,1.29-4.06,1.29-3.74,0-5.87-2.06-5.87-5.8v-10.17h-3.15v-2.76h3.15v-4.06h3.36v4.06h5.31v2.76h-5.31v10.03c0,1.99,1.05,3.11,2.9,3.11,.98,0,1.92-.31,2.62-.87l1.05,2.41Z"/><path class="b" d="M196.48,212.4v11.19h-3.18v-2.45c-1.12,1.68-3.18,2.66-6.08,2.66-4.2,0-6.85-2.24-6.85-5.45,0-2.97,1.92-5.42,7.45-5.42h5.31v-.66c0-2.83-1.64-4.48-4.96-4.48-2.2,0-4.44,.77-5.87,1.99l-1.4-2.52c1.92-1.54,4.69-2.38,7.66-2.38,5.07,0,7.94,2.45,7.94,7.52Zm-3.36,5.52v-2.59h-5.17c-3.32,0-4.27,1.29-4.27,2.87,0,1.85,1.54,3.01,4.09,3.01s4.51-1.15,5.35-3.29Z"/><path class="b" d="M220.29,212.92v10.66h-3.36v-10.28c0-3.64-1.82-5.42-5-5.42-3.57,0-5.87,2.13-5.87,6.15v9.54h-3.36v-18.53h3.22v2.8c1.36-1.89,3.74-2.97,6.68-2.97,4.51,0,7.69,2.59,7.69,8.04Z"/><path class="b" d="M236.93,222.5c-1.01,.87-2.55,1.29-4.06,1.29-3.74,0-5.87-2.06-5.87-5.8v-10.17h-3.15v-2.76h3.15v-4.06h3.36v4.06h5.31v2.76h-5.31v10.03c0,1.99,1.05,3.11,2.9,3.11,.98,0,1.92-.31,2.62-.87l1.05,2.41Z"/></g></svg>