<?xml version="1.0" encoding="utf-8"?>
<!-- Generator: Adobe Illustrator 24.0.0, SVG Export Plug-In . SVG Version: 6.00 Build 0)  -->
<svg version="1.1" id="Layer_1" xmlns="http://www.w3.org/2000/svg" xmlns:xlink="http://www.w3.org/1999/xlink" x="0px" y="0px"
	 viewBox="0 0 512 512" style="enable-background:new 0 0 512 512;" xml:space="preserve">
<style type="text/css">
	.st0{fill:#0027B7;}
</style>
<g id="_11-best_price">
	<path class="st0" d="M336,336c0-17.7-14.3-32-32-32H201l7-55c0-0.3,0-0.6,0-1c0-44.3-31.4-56-48-56c-3.7-0.1-7,2.3-8,5.8L120,309
		c-5.4,10.6-13.7,19.4-24,25.4V328c0-4.4-3.6-8-8-8H8c-4.4,0-8,3.6-8,8v176c0,4.4,3.6,8,8,8h80c4.4,0,8-3.6,8-8v-5.4l45.8,13.4
		c0.7,0.1,1.4,0.1,2.2,0h136c17.7-0.2,31.8-14.8,31.5-32.4c-0.1-7.4-2.8-14.5-7.5-20.2c15.1-9.1,20-28.8,10.9-43.9
		c-0.9-1.4-1.8-2.8-2.9-4.1c15.1-9.1,20-28.8,10.9-43.9c-0.9-1.4-1.8-2.8-2.9-4.1C329.8,357.7,335.9,347.3,336,336z M80,496H16V336
		h64V496z M280,496H145.1L96,482V351c24-5.5,38.5-34.1,39.1-35.4c0.2-0.5,0.4-0.9,0.6-1.4l30.2-105.4c9.4,2.1,26,9.8,26.2,38.8
		l-8,63.5c-0.3,2.3,0.4,4.5,1.9,6.2c1.5,1.7,3.8,2.7,6.1,2.7h112c8.8,0,16,7.2,16,16s-7.2,16-16,16h-40c-4.4,0-8,3.6-8,8s3.6,8,8,8
		h32c8.8,0,16,7.2,16,16s-7.2,16-16,16h-40c-4.4,0-8,3.6-8,8s3.6,8,8,8h32c8.8,0,16,7.2,16,16s-7.2,16-16,16h-40c-4.4,0-8,3.6-8,8
		s3.6,8,8,8h32c8.8,0,16,7.2,16,16S288.8,496,280,496z"/>
	<path class="st0" d="M104,120h8v8c0,4.4,3.6,8,8,8s8-3.6,8-8v-8h8c4.4,0,8-3.6,8-8s-3.6-8-8-8h-8v-8c0-4.4-3.6-8-8-8s-8,3.6-8,8v8
		h-8c-4.4,0-8,3.6-8,8S99.6,120,104,120z"/>
	<path class="st0" d="M432,400h-8v-8c0-4.4-3.6-8-8-8s-8,3.6-8,8v8h-8c-4.4,0-8,3.6-8,8s3.6,8,8,8h8v8c0,4.4,3.6,8,8,8s8-3.6,8-8v-8
		h8c4.4,0,8-3.6,8-8S436.4,400,432,400z"/>
	<path class="st0" d="M336,0c-97.2,0-176,78.8-176,176c0,4.4,3.6,8,8,8s8-3.6,8-8c0-88.4,71.7-160,160.1-159.9
		c88.4,0,160,71.7,159.9,160.1c0,76.6-54.3,142.4-129.5,157c-4.4,0.4-7.7,4.3-7.2,8.8c0.4,4.4,4.3,7.7,8.8,7.2h1.5
		c95.6-17.5,159-109.2,141.5-204.8C495.6,60,421.7-0.9,336,0z"/>
	<path class="st0" d="M408,208c0-35.3-28.7-64-64-64h-16c-8.8,0-16-7.2-16-16s7.2-16,16-16h56c13.3,0,24-10.7,24-24s-10.7-24-24-24
		h-24V40c0-4.4-3.6-8-8-8h-32c-4.4,0-8,3.6-8,8v26.1c-34.2,8.9-54.7,43.9-45.7,78.1c7.3,28.1,32.7,47.7,61.7,47.8h16
		c8.8,0,16,7.2,16,16s-7.2,16-16,16h-56c-13.3,0-24,10.7-24,24c0,13.3,10.7,24,24,24h24v24c0,4.4,3.6,8,8,8h32c4.4,0,8-3.6,8-8
		v-26.1C388.2,262.6,408,237.2,408,208z M350.9,255.4c-4,0.6-6.9,4-6.9,8V288h-16v-24c0-4.4-3.6-8-8-8h-32c-4.4,0-8-3.6-8-8
		s3.6-8,8-8h56c17.7,0,32-14.3,32-32s-14.3-32-32-32h-16c-26.5-0.2-47.8-21.9-47.6-48.4c0.2-23.5,17.4-43.4,40.7-47
		c4-0.6,6.9-4,6.9-8V48h16v24c0,4.4,3.6,8,8,8h32c4.4,0,8,3.6,8,8s-3.6,8-8,8h-56c-17.7,0-32,14.3-32,32s14.3,32,32,32h16
		c26.5,0.2,47.8,21.9,47.6,48.4C391.4,231.9,374.1,251.9,350.9,255.4z"/>
</g>
</svg>
