<?xml version="1.0" encoding="utf-8"?>
<!-- Generator: Adobe Illustrator 24.0.0, SVG Export Plug-In . SVG Version: 6.00 Build 0)  -->
<svg version="1.1" id="Layer_1" xmlns="http://www.w3.org/2000/svg" xmlns:xlink="http://www.w3.org/1999/xlink" x="0px" y="0px"
	 viewBox="0 0 512 512" style="enable-background:new 0 0 512 512;" xml:space="preserve">
<style type="text/css">
	.st0{fill:#0027B7;}
</style>
<g id="Online_Survey">
	<g>
		<path class="st0" d="M436,89.6V58c0-24.1-19.6-42.9-42.9-42.9H119C94.9,15.1,76,34.6,76,58v30.9c-26.4,0.8-47.4,21.8-47.4,48.2
			v250c0,26.4,21.8,48.2,48.2,48.2h92.6v46.7h-24.1c-4.5,0-7.5,3.8-7.5,7.5c0,4.5,3.8,7.5,7.5,7.5h220.6c4.5,0,7.5-3.8,7.5-7.5
			c0-4.5-3.8-7.5-7.5-7.5h-24.1V436h92.6c26.4,0,48.2-21.8,48.2-48.2v-250C483.4,111.4,462.3,89.6,436,89.6L436,89.6z M43.7,137.8
			c0-18.1,14.3-32.4,32.4-33.1v245.5H43.7V137.8z M91.1,58c0-15.1,12.8-27.9,27.9-27.9h273.3c15.1,0,27.9,12.8,27.9,27.9v291.4h-329
			C91.1,236.4,91.1,164.1,91.1,58L91.1,58z M468.3,350.1H436V104.7c18.1,0.8,32.4,15.1,32.4,33.1V350.1z M238.7,393
			c0-9,7.5-17.3,17.3-17.3c9.8,0,17.3,7.5,17.3,17.3c0,9.8-7.5,17.3-17.3,17.3C247,409.6,238.7,402.1,238.7,393z"/>
		<path class="st0" d="M134.8,128.8h42.2c9,0,16.6-7.5,16.6-16.6c0-0.8,0-43.7,0-42.2c0-9-7.5-16.6-16.6-16.6h-42.2
			c-9,0-16.6,7.5-16.6,16.6v42.2C117.5,121.2,125,128.8,134.8,128.8L134.8,128.8z M134.8,97.1c-2.3-3-3-6.8,0-10.5
			c6.8-7.5,15.8,4.5,15.1,3.8c0.8-0.8,13.6-14.3,12.8-13.6c3-3,7.5-3.8,10.5-0.8c3,3,3,7.5,0.8,10.5c-8.3,9.8-18.1,20.3-17.3,19.6
			c-3,3-7.5,3-10.5,0.8C134.8,97.1,135.5,97.9,134.8,97.1L134.8,97.1z"/>
		<path class="st0" d="M134.8,228.1h42.2c9,0,16.6-7.5,16.6-16.6v-42.2c0-9-7.5-16.6-16.6-16.6h-42.2c-9,0-16.6,7.5-16.6,16.6v42.2
			C117.5,220.6,125,228.1,134.8,228.1z M134.8,185.2c3-3,7.5-3,10.5,0l4.5,4.5l12.8-13.6c3-3,7.5-3,10.5-0.8c3,3,3,7.5,0.8,10.5
			l-17.3,19.6c-3,3-7.5,3.8-10.5,0.8l-10.5-10.5C132.5,192.8,132.5,188.2,134.8,185.2L134.8,185.2z"/>
		<path class="st0" d="M134.8,327.5h42.2c9,0,16.6-7.5,16.6-16.6v-42.2c0-9-7.5-16.6-16.6-16.6h-42.2c-9,0-16.6,7.5-16.6,16.6V311
			C117.5,320,125,327.5,134.8,327.5z"/>
		<path class="st0" d="M238.7,81.3h143.1c4.5,0,7.5-3.8,7.5-7.5c0-3.8-3.8-7.5-7.5-7.5H238.7c-4.5,0-7.5,3.8-7.5,7.5
			C231.2,77.6,234.9,81.3,238.7,81.3z"/>
		<path class="st0" d="M238.7,116H317c4.5,0,7.5-3.8,7.5-7.5c0-1.5,0-2.3-0.8-3c-1.5-2.3-3.8-4.5-6.8-4.5h-78.3c-3,0-6,1.5-6.8,4.5
			c-0.8,0.8-0.8,2.3-0.8,3C231.2,112.2,234.9,116,238.7,116L238.7,116z"/>
		<path class="st0" d="M238.7,180.7h143.1c4.5,0,7.5-3.8,7.5-7.5c0-4.5-3.8-7.5-7.5-7.5H238.7c-4.5,0-7.5,3.8-7.5,7.5
			S234.9,180.7,238.7,180.7z"/>
		<path class="st0" d="M238.7,215.3H317c4.5,0,7.5-3,7.5-7.5s-3-7.5-7.5-7.5h-78.3c-4.5,0-7.5,3.8-7.5,7.5S234.9,215.3,238.7,215.3
			L238.7,215.3z"/>
		<path class="st0" d="M238.7,280.1h143.1c4.5,0,7.5-3.8,7.5-7.5c0-4.5-3.8-7.5-7.5-7.5H238.7c-4.5,0-7.5,3-7.5,7.5
			C231.2,277.1,234.9,280.1,238.7,280.1z"/>
		<path class="st0" d="M238.7,314.7H317c4.5,0,7.5-3.8,7.5-7.5c0-3.8-3-7.5-7.5-7.5h-78.3c-4.5,0-7.5,3.8-7.5,7.5
			C231.2,311,234.9,314.7,238.7,314.7L238.7,314.7z"/>
	</g>
</g>
</svg>
