<?xml version="1.0" encoding="utf-8"?>
<!-- Generator: Adobe Illustrator 25.0.1, SVG Export Plug-In . SVG Version: 6.00 Build 0)  -->
<svg version="1.1" id="Layer_1" xmlns="http://www.w3.org/2000/svg" xmlns:xlink="http://www.w3.org/1999/xlink" x="0px" y="0px"
	 viewBox="0 0 80 80" style="enable-background:new 0 0 80 80;" xml:space="preserve">
<style type="text/css">
	.st0{fill:#989898;}
	.st1{fill:#2D439B;}
	.st2{fill:#010101;}
	.st3{fill:#09BED2;}
</style>
<g>
	<path class="st0" d="M25.7,35.4L25.7,35.4c-0.3,3.1,1.4,6,4.2,7.4l0,0c1,0.5,1.8,1.3,2.3,2.2l0,0c1.4,2.7,7.5,4.2,7.5,4.2h-0.2
		c1.2-0.1,2.3,0.2,3.3,0.8c2.7,1.7,6.1,1.7,8.8,0c1-0.6,2.1-0.9,3.3-0.8H55c3.2,0.2,6.1-1.5,7.6-4.2v0c0.5-1,1.4-1.8,2.4-2.3l0,0
		c2.9-1.4,4.6-4.3,4.4-7.3v0c-0.1-1.1,0.3-2.2,0.9-3c1.8-2.6,1.8-6,0-8.5c-0.6-0.9-0.9-2-0.9-3v0c0.2-3.1-1.6-5.9-4.4-7.3l0,0
		c-1-0.5-1.8-1.3-2.4-2.2l0,0c-1.4-2.7-4.4-4.4-7.6-4.2H55c0,0-2.3-0.2-3.2-0.8l0,0c-2.7-1.7-6-1.7-8.7,0c-1,0.6-2.1,0.9-3.2,0.8h0
		c-3.1-0.1-6.1,1.6-7.5,4.3l0,0c-0.5,1-1.3,1.8-2.3,2.2l0,0c-2.8,1.4-4.5,4.3-4.4,7.3v0c0,1.1-0.3,2.2-0.9,3c-1.8,2.6-1.8,6,0,8.5
		C25.3,33.3,25.6,34.3,25.7,35.4z M26.9,25.4c0.9-1.4,1.5-4.7,1.5-4.7v-0.1c-0.1-2,1-3.9,2.9-4.8l0,0c1.5-0.7,2.7-1.9,3.5-3.4l0,0
		c0.9-1.8,2.9-2.9,5-2.8h0c1.7,0.1,3.3-0.3,4.8-1.2c1.8-1.1,4.1-1.1,5.9,0c1.4,0.9,3.1,1.3,4.8,1.2h0c2.1-0.1,4.1,1,5,2.8l0,0
		c0.8,1.5,2,2.7,3.5,3.4l0,0c1.9,0.9,3,2.8,2.9,4.8v0c-0.1,1.7,0.4,3.3,1.3,4.7c1.1,1.7,1.1,3.9,0,5.5c-0.9,1.4-1.4,3-1.3,4.7v0
		c0.1,2-1,3.9-2.9,4.8l0,0c-1.5,0.7-2.7,1.9-3.5,3.4l0,0c-0.9,1.8-2.9,2.9-5,2.8h-0.1c0,0-3.4,0.4-4.8,1.3c-1.8,1.1-4.1,1.1-5.9,0
		c-1.3-0.8-2.8-1.3-4.3-1.3c-0.1,0-0.3,0-0.4,0h0c-2.1,0.1-4.1-0.9-5-2.8l0,0c-0.8-1.5-2-2.7-3.5-3.4l0,0c-1.9-0.9-3-2.8-2.9-4.8v0
		c0.1-1.7-0.4-3.3-1.3-4.7C25.7,29.2,25.7,27,26.9,25.4L26.9,25.4z"/>
	<path class="st0" d="M38.9,41.8c0.6,0.4,1.4,0.2,1.8-0.4l15.6-25.1c0.2-0.4,0.3-0.9,0-1.3c-0.2-0.4-0.6-0.7-1.1-0.7
		c-0.5,0-0.9,0.2-1.2,0.6L38.5,40C38.1,40.6,38.3,41.4,38.9,41.8z"/>
	<path class="st0" d="M40.3,28.2c3.2,0,5.8-3,5.8-6.6s-2.6-6.6-5.8-6.6c-3.2,0-5.8,3-5.8,6.6S37.1,28.2,40.3,28.2z M40.3,17.5
		c1.8,0,3.2,1.8,3.2,4s-1.4,4-3.2,4s-3.2-1.8-3.2-4S38.6,17.5,40.3,17.5z"/>
	<path class="st0" d="M48.7,34.7c0,3.7,2.6,6.6,5.8,6.6c3.2,0,5.8-3,5.8-6.6c0-3.7-2.6-6.6-5.8-6.6C51.3,28.1,48.7,31.1,48.7,34.7z
		 M57.7,34.7c0,2.2-1.4,4-3.2,4c-1.8,0-3.2-1.8-3.2-4s1.4-4,3.2-4C56.3,30.7,57.7,32.5,57.7,34.7z"/>
	<path class="st0" d="M75.3,56.6c-1.8-3.1-5.6-4.3-8.8-2.7l-10.4,4.9c-1.4-2.7-4.2-4.4-7.2-4.4l-9.6-0.3c-1.5,0-3-0.4-4.4-1.1
		l-1-0.5c-5-2.6-10.9-2.6-15.9,0l0.1-2.2c0-0.7-0.6-1.3-1.3-1.4L6.5,48.6c-0.7,0-1.3,0.6-1.4,1.3l-0.6,23c0,0.7,0.6,1.3,1.3,1.4
		l10.5,0.3h0c0.7,0,1.3-0.6,1.3-1.3l0-1.1l2.7-1.5c1.1-0.6,2.3-0.7,3.5-0.4l16.3,4.6c0,0,0,0,0.1,0c1.2,0.2,2.4,0.4,3.6,0.4
		c2.5,0,5.1-0.5,7.4-1.6c0,0,0.1,0,0.2-0.1l23.6-15.2C75.5,58,75.6,57.2,75.3,56.6z M7.2,71.7l0.6-20.3l7.8,0.2L15,71.9L7.2,71.7z
		 M50,71.3c-2.9,1.3-6.1,1.7-9.2,1l-16.2-4.5c-1.8-0.5-3.8-0.3-5.4,0.6l-1.4,0.7l0.4-13.5c4.4-2.9,10.1-3.2,14.8-0.8l1,0.5
		c1.7,0.9,3.6,1.4,5.5,1.4l9.6,0.3c2.7,0.1,5,2,5.5,4.6l-14.2-0.4c-0.7,0-1.3,0.6-1.4,1.3s0.6,1.3,1.3,1.4l15.7,0.4h0
		c0.7,0,1.3-0.6,1.3-1.3c0-0.6,0-1.1-0.1-1.7l10.6-5l0,0c1.5-0.8,3.3-0.5,4.6,0.6L50,71.3z"/>
</g>
</svg>
