<?xml version="1.0" encoding="utf-8"?>
<!-- Generator: Adobe Illustrator 25.0.1, SVG Export Plug-In . SVG Version: 6.00 Build 0)  -->
<svg version="1.1" id="Layer_1" xmlns="http://www.w3.org/2000/svg" xmlns:xlink="http://www.w3.org/1999/xlink" x="0px" y="0px"
	 viewBox="0 0 80 80" style="enable-background:new 0 0 80 80;" xml:space="preserve">
<style type="text/css">
	.st0{fill:#989898;}
	.st1{fill:#2D439B;}
	.st2{fill:#010101;}
	.st3{fill:#09BED2;}
</style>
<g>
	<g id="_11-best_price_00000109021840141655987750000006415005596994177665_">
		<path class="st1" d="M50.9,51c0-2.4-2-4.4-4.4-4.4H32.3l1-7.6c0,0,0-0.1,0-0.1c0-6.1-4.3-7.7-6.6-7.7c-0.5,0-1,0.3-1.1,0.8
			l-4.4,15.3c-0.7,1.5-1.9,2.7-3.3,3.5v-0.9c0-0.6-0.5-1.1-1.1-1.1h-11c-0.6,0-1.1,0.5-1.1,1.1v24.2c0,0.6,0.5,1.1,1.1,1.1h11
			c0.6,0,1.1-0.5,1.1-1.1v-0.7l6.3,1.8c0.1,0,0.2,0,0.3,0h18.7c2.4,0,4.4-2,4.3-4.4c0-1-0.4-2-1-2.8c2.1-1.2,2.7-4,1.5-6
			c-0.1-0.2-0.2-0.4-0.4-0.6c2.1-1.2,2.7-4,1.5-6c-0.1-0.2-0.2-0.4-0.4-0.6C50,54,50.9,52.5,50.9,51z M15.7,73H6.9V51h8.8V73z
			 M43.2,73H24.7L17.9,71v-18c3.3-0.8,5.3-4.7,5.4-4.9c0-0.1,0.1-0.1,0.1-0.2l4.1-14.5c1.3,0.3,3.6,1.3,3.6,5.3L30,47.6
			c0,0.3,0.1,0.6,0.3,0.9c0.2,0.2,0.5,0.4,0.8,0.4h15.3c1.1,0,2,0.7,2.2,1.8c0.3,1.4-0.8,2.6-2.2,2.6H41c-0.5,0-1,0.3-1.1,0.8
			c-0.2,0.7,0.4,1.4,1.1,1.4h4.3c1.1,0,2,0.7,2.2,1.8c0.3,1.4-0.8,2.6-2.2,2.6h-5.5c-0.5,0-1,0.3-1.1,0.8c-0.2,0.7,0.4,1.4,1.1,1.4
			h4.3c1.1,0,2,0.7,2.2,1.8c0.3,1.4-0.8,2.6-2.2,2.6h-5.5c-0.5,0-1,0.3-1.1,0.8c-0.2,0.7,0.4,1.4,1.1,1.4h4.4c1,0,2,0.7,2.2,1.7
			C45.6,71.7,44.5,73,43.2,73z"/>
		<path class="st1" d="M19,21.3l1.1,0v1.1c0,0.5,0.3,1,0.8,1.1c0.7,0.2,1.4-0.4,1.4-1.1v-1.1l1.1,0c0.5,0,1-0.3,1.1-0.8
			c0.2-0.7-0.4-1.4-1.1-1.4h-1.1v-1.1c0-0.5-0.3-1-0.8-1.1c-0.7-0.2-1.4,0.4-1.4,1.1v1.1H19c-0.7,0-1.2,0.6-1.1,1.4
			C18.1,21,18.5,21.3,19,21.3z"/>
		<path class="st1" d="M64,59.8H63v-1.1c0-0.5-0.3-1-0.8-1.1c-0.7-0.2-1.4,0.4-1.4,1.1v1.1h-1.1c-0.5,0-1,0.3-1.1,0.8
			C58.4,61.3,59,62,59.7,62h1.1l0,1.1c0,0.5,0.3,1,0.8,1.1c0.7,0.2,1.4-0.4,1.4-1.1V62h1.1c0.7,0,1.2-0.6,1.1-1.4
			C65,60.1,64.5,59.8,64,59.8z"/>
		<path class="st1" d="M50.8,4.8C37.5,4.8,26.7,15.6,26.7,29c0,0.5,0.3,1,0.8,1.1c0.7,0.2,1.4-0.4,1.4-1.1c0-12.1,9.8-22,22-22
			c12.1,0,22,9.8,22,22c0,10.5-7.5,19.6-17.8,21.6c-0.6,0.1-1.1,0.6-1,1.2c0.1,0.6,0.6,1.1,1.2,1h0.2c13.1-2.4,21.8-15,19.4-28.1
			C72.7,13.1,62.6,4.7,50.8,4.8z"/>
		<path class="st1" d="M59.1,28.1c-1.4-2.2-3.9-3.5-6.5-3.5h-2.9c-1.1,0-2-0.7-2.2-1.8c-0.3-1.4,0.8-2.6,2.2-2.6h7.6
			c1.7,0,3.2-1.3,3.4-3.1c0.1-1.9-1.4-3.5-3.3-3.5h-3.3v-3.3c0-0.6-0.5-1.1-1.1-1.1h-4.4c-0.6,0-1.1,0.5-1.1,1.1v3.6
			c-4.7,1.2-7.5,6-6.3,10.7c1,3.9,4.5,6.6,8.5,6.6l2.1,0c1.1,0,2,0.7,2.2,1.8c0.3,1.4-0.8,2.6-2.2,2.6h-7.6c-1.7,0-3.2,1.3-3.4,3.1
			c-0.1,1.9,1.4,3.5,3.3,3.5h3.3v3.4c0,0.5,0.4,0.9,0.9,0.9h4.7c0.5,0,0.9-0.4,0.9-0.9v-3.7C59.7,40.5,62.9,34,59.1,28.1z
			 M52.9,39.9C52.4,40,52,40.5,52,41v3.4h-2.2v-3.3c0-0.6-0.5-1.1-1.1-1.1h-4.4c-0.5,0-1-0.3-1.1-0.8c-0.2-0.7,0.4-1.4,1.1-1.4h7.6
			c2.3,0,4.3-1.8,4.5-4.1c0.2-2.6-1.8-4.7-4.4-4.7h-2.2c-3.6,0-6.6-3-6.5-6.6c0-3.2,2.4-6,5.6-6.5c0.5-0.1,0.9-0.5,0.9-1.1v-3.4H52
			v3.3c0,0.6,0.5,1.1,1.1,1.1h4.4c0.5,0,1,0.3,1.1,0.8c0.2,0.7-0.4,1.4-1.1,1.4h-7.6c-2.3,0-4.3,1.8-4.5,4.1
			c-0.2,2.6,1.8,4.7,4.4,4.7H52c3.6,0,6.6,3,6.5,6.6C58.5,36.7,56.1,39.4,52.9,39.9z"/>
	</g>
</g>
</svg>
