<?xml version="1.0" encoding="utf-8"?>
<!-- Generator: Adobe Illustrator 25.0.1, SVG Export Plug-In . SVG Version: 6.00 Build 0)  -->
<svg version="1.1" id="Layer_1" xmlns="http://www.w3.org/2000/svg" xmlns:xlink="http://www.w3.org/1999/xlink" x="0px" y="0px"
	 viewBox="0 0 80 80" style="enable-background:new 0 0 80 80;" xml:space="preserve">
<style type="text/css">
	.st0{fill:#989898;}
	.st1{fill:#2D439B;}
	.st2{fill:#010101;}
	.st3{fill:#09BED2;}
</style>
<g>
	<g>
		<g>
			<path class="st2" d="M73.6,18.1l-2.6,0c-0.5,0-0.9,0.3-1.1,0.8c-0.2,0.7,0.4,1.3,1,1.3h2.5c0.2,0,0.4,0.2,0.4,0.4v36.5
				c0,0.2-0.2,0.4-0.4,0.4H55.7l0-13.1c0-0.5-0.3-0.9-0.8-1.1c-0.7-0.2-1.3,0.4-1.3,1v17c0,0.2-0.2,0.4-0.4,0.4h-3.9v-0.2
				c0-1.7-1.4-3.2-3.2-3.2H33.8c-1.7,0-3.2,1.4-3.2,3.2v0.2h-3.9c-0.2,0-0.4-0.2-0.4-0.4V23.2h27.1l0,16.2c0,0.5,0.3,0.9,0.8,1.1
				c0.7,0.2,1.3-0.4,1.3-1V20.2l10.3,0c0.5,0,0.9-0.3,1.1-0.8c0.2-0.7-0.4-1.3-1-1.3H55.7v-2.9c0-1.4-1.1-2.5-2.5-2.5H26.8
				c-1.4,0-2.5,1.1-2.5,2.5v2.9H6.4c-1.4,0-2.5,1.1-2.5,2.5v37.9c0,0.6,0.5,1.1,1.1,1.1h10.4c0.1,0,0.3,0,0.3-0.1
				c0.9-0.9,0.3-2-0.6-2H6.4c-0.2,0-0.4-0.2-0.4-0.4V20.6c0-0.2,0.2-0.4,0.4-0.4h17.9v37.3h-4.1c-0.5,0-0.9,0.3-1.1,0.8
				c-0.2,0.7,0.4,1.3,1,1.3h4.1v2.9c0,0.7,0.6,1.3,1.3,1.3h5v1.7c0,0.9,0.8,1.7,1.7,1.7h13.8c1.7,0,3.2-1.4,3.2-3.2v-0.2h3.9
				c1.4,0,2.5-1.1,2.5-2.5v-1.8h17.9c1.4,0,2.5-1.1,2.5-2.5V20.6C76.1,19.2,75,18.1,73.6,18.1z M26.8,14.9h26.4
				c0.2,0,0.4,0.2,0.4,0.4v5.8H26.4v-5.8C26.4,15.1,26.6,14.9,26.8,14.9z M46.2,65.1H33.8c-0.6,0-1.1-0.5-1.1-1.1v-2.5
				c0-0.6,0.5-1.1,1.1-1.1h12.4c0.6,0,1.1,0.5,1.1,1.1V64C47.2,64.6,46.8,65.1,46.2,65.1z"/>
			<path class="st2" d="M49.1,27.1l-9.9,0c-0.5,0-0.9,0.3-1.1,0.8c-0.2,0.7,0.4,1.3,1,1.3l9.9,0c0.5,0,0.9-0.3,1.1-0.8
				C50.3,27.8,49.7,27.1,49.1,27.1z"/>
			<path class="st2" d="M49.1,30.8h-9.9c-0.5,0-0.9,0.3-1.1,0.8c-0.2,0.7,0.4,1.3,1,1.3H49c0.5,0,0.9-0.3,1.1-0.8
				C50.3,31.4,49.7,30.8,49.1,30.8z"/>
			<path class="st2" d="M49.1,34.6h-9.9c-0.5,0-0.9,0.3-1.1,0.8c-0.2,0.7,0.4,1.3,1,1.3H49c0.5,0,0.9-0.3,1.1-0.8
				C50.3,35.2,49.7,34.6,49.1,34.6z"/>
			<path class="st2" d="M49.1,40.2H34.4c-0.5,0-0.9,0.3-1.1,0.8c-0.2,0.7,0.4,1.3,1,1.3H49c0.5,0,0.9-0.3,1.1-0.8
				C50.3,40.8,49.7,40.2,49.1,40.2z"/>
			<path class="st2" d="M49.1,44.7H34.4c-0.5,0-0.9,0.3-1.1,0.8c-0.2,0.7,0.4,1.3,1,1.3H49c0.5,0,0.9-0.3,1.1-0.8
				C50.3,45.3,49.7,44.7,49.1,44.7z"/>
			<path class="st2" d="M49.1,49.2H34.4c-0.5,0-0.9,0.3-1.1,0.8c-0.2,0.7,0.4,1.3,1,1.3H49c0.5,0,0.9-0.3,1.1-0.8
				C50.3,49.8,49.7,49.2,49.1,49.2z"/>
			<path class="st2" d="M49.1,53.7H34.4c-0.5,0-0.9,0.3-1.1,0.8c-0.2,0.7,0.4,1.3,1,1.3H49c0.5,0,0.9-0.3,1.1-0.8
				C50.3,54.3,49.7,53.7,49.1,53.7z"/>
			<path class="st2" d="M31.2,40.2H31c-0.5,0-0.9,0.3-1.1,0.8c-0.2,0.7,0.4,1.3,1,1.3h0.2c0.5,0,0.9-0.3,1.1-0.8
				C32.4,40.8,31.9,40.2,31.2,40.2z"/>
			<path class="st2" d="M31.2,44.7H31c-0.5,0-0.9,0.3-1.1,0.8c-0.2,0.7,0.4,1.3,1,1.3h0.2c0.5,0,0.9-0.3,1.1-0.8
				C32.4,45.3,31.9,44.7,31.2,44.7z"/>
			<path class="st2" d="M31.2,49.2H31c-0.5,0-0.9,0.3-1.1,0.8c-0.2,0.7,0.4,1.3,1,1.3h0.2c0.5,0,0.9-0.3,1.1-0.8
				C32.4,49.8,31.9,49.2,31.2,49.2z"/>
			<path class="st2" d="M31.2,53.7H31c-0.5,0-0.9,0.3-1.1,0.8c-0.2,0.7,0.4,1.3,1,1.3h0.2c0.5,0,0.9-0.3,1.1-0.8
				C32.4,54.3,31.9,53.7,31.2,53.7z"/>
			<path class="st2" d="M44.5,61.7l-9,0c-0.5,0-0.9,0.3-1.1,0.8c-0.2,0.7,0.4,1.3,1,1.3l9,0c0.5,0,0.9-0.3,1.1-0.8
				C45.7,62.3,45.2,61.7,44.5,61.7z"/>
			<path class="st2" d="M70.4,45.8h-7.9c-0.5,0-0.9,0.3-1.1,0.8c-0.2,0.7,0.4,1.3,1,1.3h7.9c0.5,0,0.9-0.3,1.1-0.8
				C71.5,46.5,71,45.8,70.4,45.8z"/>
			<path class="st2" d="M59.2,45.8H59c-0.5,0-0.9,0.3-1.1,0.8c-0.2,0.7,0.4,1.3,1,1.3h0.2c0.5,0,0.9-0.3,1.1-0.8
				C60.4,46.5,59.9,45.8,59.2,45.8z"/>
			<path class="st2" d="M70.4,50.3h-7.9c-0.5,0-0.9,0.3-1.1,0.8c-0.2,0.7,0.4,1.3,1,1.3h7.9c0.5,0,0.9-0.3,1.1-0.8
				C71.5,51,71,50.3,70.4,50.3z"/>
			<path class="st2" d="M59.2,50.3H59c-0.5,0-0.9,0.3-1.1,0.8c-0.2,0.7,0.4,1.3,1,1.3h0.2c0.5,0,0.9-0.3,1.1-0.8
				C60.4,51,59.9,50.3,59.2,50.3z"/>
			<path class="st2" d="M70.4,41.3h-7.9c-0.5,0-0.9,0.3-1.1,0.8c-0.2,0.7,0.4,1.3,1,1.3h7.9c0.5,0,0.9-0.3,1.1-0.8
				C71.5,42,71,41.3,70.4,41.3z"/>
			<path class="st2" d="M59.2,41.3H59c-0.5,0-0.9,0.3-1.1,0.8c-0.2,0.7,0.4,1.3,1,1.3h0.2c0.5,0,0.9-0.3,1.1-0.8
				C60.4,42,59.9,41.3,59.2,41.3z"/>
			<path class="st2" d="M70.4,36.7h-7.9c-0.5,0-0.9,0.3-1.1,0.8c-0.2,0.7,0.4,1.3,1,1.3h7.9c0.5,0,0.9-0.3,1.1-0.8
				C71.5,37.3,71,36.7,70.4,36.7z"/>
			<path class="st2" d="M59.2,36.7H59c-0.5,0-0.9,0.3-1.1,0.8c-0.2,0.7,0.4,1.3,1,1.3h0.2c0.5,0,0.9-0.3,1.1-0.8
				C60.4,37.3,59.9,36.7,59.2,36.7z"/>
			<path class="st2" d="M21,45.8h-7.9c-0.5,0-0.9,0.3-1.1,0.8c-0.2,0.7,0.4,1.3,1,1.3H21c0.5,0,0.9-0.3,1.1-0.8
				C22.2,46.5,21.7,45.8,21,45.8z"/>
			<path class="st2" d="M9.9,45.8H9.7c-0.5,0-0.9,0.3-1.1,0.8c-0.2,0.7,0.4,1.3,1,1.3h0.2c0.5,0,0.9-0.3,1.1-0.8
				C11.1,46.5,10.6,45.8,9.9,45.8z"/>
			<path class="st2" d="M13.1,52.4H21c0.5,0,0.9-0.3,1.1-0.8c0.2-0.7-0.4-1.3-1-1.3h-7.9c-0.5,0-0.9,0.3-1.1,0.8
				C11.9,51.8,12.4,52.4,13.1,52.4z"/>
			<path class="st2" d="M9.9,50.3H9.7c-0.5,0-0.9,0.3-1.1,0.8c-0.2,0.7,0.4,1.3,1,1.3h0.2c0.5,0,0.9-0.3,1.1-0.8
				C11.1,51,10.6,50.3,9.9,50.3z"/>
			<path class="st2" d="M21,41.3h-7.9c-0.5,0-0.9,0.3-1.1,0.8c-0.2,0.7,0.4,1.3,1,1.3H21c0.5,0,0.9-0.3,1.1-0.8
				C22.2,42,21.7,41.3,21,41.3z"/>
			<path class="st2" d="M9.9,41.3H9.7c-0.5,0-0.9,0.3-1.1,0.8c-0.2,0.7,0.4,1.3,1,1.3h0.2c0.5,0,0.9-0.3,1.1-0.8
				C11.1,42,10.6,41.3,9.9,41.3z"/>
			<path class="st2" d="M21,36.7h-7.9c-0.5,0-0.9,0.3-1.1,0.8c-0.2,0.7,0.4,1.3,1,1.3H21c0.5,0,0.9-0.3,1.1-0.8
				C22.2,37.3,21.7,36.7,21,36.7z"/>
			<path class="st2" d="M9.9,36.7H9.7c-0.5,0-0.9,0.3-1.1,0.8c-0.2,0.7,0.4,1.3,1,1.3h0.2c0.5,0,0.9-0.3,1.1-0.8
				C11.1,37.3,10.6,36.7,9.9,36.7z"/>
			<path class="st2" d="M59.7,28.8c0,2.7,2.2,4.9,4.9,4.9c2.7,0,4.9-2.2,4.9-4.9s-2.2-4.9-4.9-4.9C61.9,23.8,59.7,26.1,59.7,28.8z
				 M67.5,28.8c0,1.5-1.3,2.8-2.8,2.8c-1.5,0-2.8-1.3-2.8-2.8s1.3-2.8,2.8-2.8C66.2,26,67.5,27.2,67.5,28.8z"/>
			<path class="st2" d="M15.3,33.7c2.7,0,4.9-2.2,4.9-4.9s-2.2-4.9-4.9-4.9s-4.9,2.2-4.9,4.9S12.6,33.7,15.3,33.7z M15.3,26
				c1.5,0,2.8,1.3,2.8,2.8s-1.3,2.8-2.8,2.8s-2.8-1.3-2.8-2.8S13.8,26,15.3,26z"/>
			<path class="st2" d="M48.1,16.9H31.9c-0.5,0-0.9,0.3-1.1,0.8c-0.2,0.7,0.4,1.3,1,1.3h16.3c0.5,0,0.9-0.3,1.1-0.8
				C49.3,17.5,48.8,16.9,48.1,16.9z"/>
			<path class="st2" d="M33.4,36.8c0.5-0.1,0.9-0.6,0.9-1.1v-0.4c1.4-0.1,2.5-1.4,2.3-2.8c-0.2-1.3-1.3-2.2-2.6-2.2h-1.6
				c-0.2,0-0.4-0.2-0.4-0.4c0-0.2,0.2-0.4,0.4-0.4h2.8c0.5,0,0.9-0.3,1.1-0.8c0.2-0.7-0.4-1.3-1-1.3h-1v-0.8c0-0.1,0-0.1-0.1-0.2
				c-0.9-1-2.1-0.4-2.1,0.5v0.5c-2,0.2-3.4,2.8-1.1,4.9c0.1,0.1,0.2,0.2,0.4,0.2l2.6,0c0.3,0,0.6,0.4,0.2,0.8c0,0,0,0-0.1,0h-3
				c-0.5,0-0.9,0.3-1.1,0.8c-0.2,0.7,0.4,1.3,1,1.3h1v0.4C32.2,36.4,32.7,36.9,33.4,36.8z"/>
		</g>
	</g>
</g>
</svg>
