<?xml version="1.0" encoding="utf-8"?>
<!-- Generator: Adobe Illustrator 25.0.1, SVG Export Plug-In . SVG Version: 6.00 Build 0)  -->
<svg version="1.1" id="Layer_1" xmlns="http://www.w3.org/2000/svg" xmlns:xlink="http://www.w3.org/1999/xlink" x="0px" y="0px"
	 viewBox="0 0 80 80" style="enable-background:new 0 0 80 80;" xml:space="preserve">
<style type="text/css">
	.st0{fill:#989898;}
	.st1{fill:#2D439B;}
	.st2{fill:#010101;}
	.st3{fill:#09BED2;}
</style>
<g>
	<g>
		<path class="st1" d="M11.5,4.9h46.1c0.1,0,0.1,0,0.2,0c0.3,0,0.7,0.1,1,0.1c3.1,0.7,5.4,3.5,5.4,6.7c0,11.9,0,23.8,0,35.7
			c0,0.1,0,0.1,0,0.2c0,0.1,0,0.1,0.1,0.1c0,0,0.1,0,0.1,0c4.6,1.1,8.4,4.4,10,8.8c0.4,1.1,0.7,2.3,0.7,3.4c0,0.1,0,0.1,0,0.2
			c0,0.6,0,1.3,0,1.9c0,0.1,0,0.2,0,0.2c0,0.6-0.1,1.1-0.2,1.7c-0.8,3.8-2.9,6.7-6.2,8.8c-1.8,1.1-3.7,1.8-5.8,2
			c-0.2,0-0.5,0-0.8,0.1c-0.4,0-0.9,0-1.3,0c-0.1,0-0.2,0-0.3,0c-0.4,0-0.8-0.1-1.2-0.1c-2.2-0.3-4.2-1.1-6-2.4
			c-0.2-0.1-0.3-0.2-0.5-0.2c-10.1,0-19.9,0-30,0c-0.3,0-0.6,0-0.9-0.1c-1.9-0.2-3.4-1.1-4.5-2.6c-1-1.3-1.5-2.7-1.5-4.3V16.2
			c0-0.2-0.1-0.3-0.3-0.3c-3,0-6.1,0-9.1,0c-0.8,0-1.5-0.6-1.5-1.5c0-0.8,0-1.6,0-2.4c0-0.4,0-0.8,0.1-1.2c0.4-3,2.8-5.3,5.8-5.7
			C11.1,5,11.3,5,11.5,4.9z M17.4,7.7C17.4,7.7,17.4,7.8,17.4,7.7c0,0.1,0,0.1,0.1,0.1c0.9,1.2,1.3,2.6,1.3,4.1
			c0,17.8,0,35.6,0,53.4c0,0.2,0,0.4,0,0.6c0.2,1.8,1.8,3.6,4.1,3.6c1.6,0,2.8-0.8,3.6-2.2c0.3-0.6,0.5-1.3,0.5-2c0-0.9,0-1.8,0-2.7
			c0-0.7,0.4-1.2,1.1-1.4c0.2,0,0.3,0,0.5,0c6.3,0,12.6,0,18.9,0h0.2c0.1,0,0.1-0.1,0.1-0.1V61c0-0.9,0.1-1.7,0.3-2.5
			c1.3-6.2,6.7-10.7,13.1-10.9c0.3,0,0.3,0.1,0.3-0.3c0-11.8,0-23.7,0-35.5c0-0.2,0-0.5-0.1-0.7c-0.3-2-2-3.5-4.1-3.5
			c-13.2,0-26.4,0-39.6,0C17.5,7.7,17.4,7.7,17.4,7.7z M50.4,61.4c0,6,4.9,10.9,10.9,10.9c6,0,11-4.9,11-11c0-6.2-5.1-11-11.1-10.9
			C55.4,50.5,50.4,55.2,50.4,61.4z M50.4,69.5c0-0.1-0.1-0.2-0.2-0.3c-1.1-1.5-1.8-3.1-2.2-4.9c-0.1-0.3-0.1-0.3-0.4-0.3
			c-5.9,0-11.8,0-17.7,0c-0.1,0-0.1,0-0.1,0c-0.1,0-0.2,0.1-0.2,0.2c0,0.4,0,0.8,0,1.2c0,0.4,0,0.7-0.1,1.1c-0.2,1-0.6,2-1.1,2.8
			c0,0.1-0.1,0.1-0.1,0.2C35.7,69.5,43,69.5,50.4,69.5z M11.8,13.2c1.3,0,2.5,0,3.8,0c0.1,0,0.1,0,0.2,0c0.1,0,0.1-0.1,0.1-0.1
			c0-0.2,0-0.4,0-0.6c0-0.4,0-0.8,0-1.2c-0.3-2.2-2.3-3.8-4.6-3.5c-1.6,0.2-3,1.4-3.5,3c-0.2,0.8-0.1,1.6-0.2,2.4
			c0,0.1,0,0.1,0.1,0.1c0.1,0,0.1,0,0.2,0C9.3,13.2,10.5,13.2,11.8,13.2z"/>
		<path class="st3" d="M32.3,35.7c0,1.1,0,2.3,0,3.4c0,0.5-0.2,0.9-0.6,1.2c-0.2,0.1-0.4,0.2-0.7,0.2c-0.1,0-0.1,0-0.2,0
			c-2.2,0-4.4,0-6.5,0c-0.4,0-0.7-0.1-1-0.3c-0.4-0.3-0.5-0.7-0.5-1.1c0-0.4,0-0.9,0-1.3c0-1.8,0-3.6,0-5.3c0-0.2,0-0.4,0.1-0.6
			c0.2-0.6,0.7-1,1.3-1c0.2,0,0.3,0,0.5,0c2.1,0,4.2,0,6.3,0c0.4,0,0.7,0.1,1,0.4c0.3,0.3,0.4,0.6,0.4,1.1
			C32.3,33.5,32.3,34.6,32.3,35.7z M29.6,35.8c0-0.6,0-1.3,0-1.9c0-0.2,0-0.2-0.2-0.2h-3.7c-0.1,0-0.2,0.1-0.2,0.2v3.7
			c0,0.1,0.1,0.2,0.2,0.2h3.7c0.1,0,0.2-0.1,0.2-0.2V35.8z"/>
		<path class="st3" d="M27.6,26.8c-1.1,0-2.2,0-3.3,0c-0.7,0-1.4-0.5-1.4-1.4c0-2.2,0-4.5,0-6.7c0-0.9,0.7-1.4,1.4-1.4
			c2.2,0,4.5,0,6.7,0c0.9,0,1.5,0.7,1.4,1.4c0,2.2,0,4.5,0,6.7c0,0.7-0.4,1.3-1.1,1.4c-0.1,0-0.2,0-0.3,0
			C29.8,26.8,28.7,26.8,27.6,26.8z M27.5,24.1h1.8c0.1,0,0.2-0.1,0.2-0.2v-3.7c0-0.1-0.1-0.2-0.2-0.2h-3.7c-0.1,0-0.2,0.1-0.2,0.2
			v3.7c0,0.1,0.1,0.2,0.2,0.2C26.3,24.1,26.9,24.1,27.5,24.1z"/>
		<path class="st3" d="M32.3,49.4c0,1.1,0,2.3,0,3.4c0,0.6-0.4,1.2-1,1.3c-0.2,0.1-0.3,0.1-0.5,0.1c-2.2,0-4.5,0-6.7,0
			c-0.7,0-1.2-0.3-1.4-0.9c-0.1-0.3-0.1-0.5-0.1-0.8c0-2,0-3.9,0-5.9c-0.3-1.2,0.6-1.9,1.4-1.9c2.2,0,4.5,0,6.7,0
			c0.8,0,1.5,0.6,1.5,1.5C32.3,47.2,32.3,48.3,32.3,49.4z M27.5,51.5h1.8c0.1,0,0.2-0.1,0.2-0.2v-3.7c0-0.2,0-0.2-0.2-0.2h-3.7
			c-0.1,0-0.2,0.1-0.2,0.2v3.7c0,0.2,0,0.2,0.2,0.2C26.3,51.5,26.9,51.5,27.5,51.5z"/>
		<path class="st3" d="M46.9,20.8c0,0-6,0-9,0c-0.5,0-0.9-0.2-1.2-0.7c-0.6-0.9,0.1-2.1,1.1-2.1c0.1,0,0,0,0.1,0c6,0,12,0,18,0
			c0.2,0,0.4,0,0.6,0.1c0.7,0.2,1.1,0.8,1,1.6c-0.1,0.7-0.7,1.2-1.4,1.2c-1.8,0-5.6,0-5.6,0H46.9z"/>
		<path class="st3" d="M44.5,26.2c-2.2,0-4.4,0-6.7,0c-0.4,0-0.7-0.1-1-0.3c-0.4-0.4-0.6-0.9-0.4-1.5c0.1-0.5,0.6-0.9,1.2-1
			c0.1,0,0.2,0,0.3,0c4.4,0,8.8,0,13.2,0c0.2,0,0.4,0,0.5,0.1c0.7,0.2,1.1,0.9,1,1.5c-0.1,0.7-0.7,1.2-1.3,1.2c-1.7,0-3.3,0-5,0
			C45.6,26.2,45,26.2,44.5,26.2z"/>
		<path class="st3" d="M44.5,45.3c2.2,0,4.4,0,6.6,0c0.4,0,0.7,0.1,1,0.3c0.4,0.4,0.6,0.9,0.4,1.4c-0.2,0.5-0.5,0.9-1.1,1
			c-0.1,0-0.2,0-0.4,0c-4.4,0-8.7,0-13.1,0c-0.2,0-0.4,0-0.5-0.1c-0.6-0.2-1.1-0.8-1-1.5c0.1-0.7,0.6-1.2,1.3-1.2c0.6,0,1.2,0,1.8,0
			C41.1,45.3,42.8,45.3,44.5,45.3z"/>
		<path class="st3" d="M50,34.4c-2,0-4,0-6,0c-0.7,0-1.2-0.4-1.4-1.1c-0.2-0.9,0.4-1.7,1.3-1.7c0.1,0,0.1,0,0.2,0
			c3.9,0,7.9,0,11.8,0c0.2,0,0.4,0,0.6,0.1c0.6,0.2,1,0.8,0.9,1.5c-0.1,0.6-0.6,1.1-1.3,1.2c-0.1,0-0.1,0-0.2,0
			C53.9,34.4,51.9,34.4,50,34.4z"/>
		<path class="st3" d="M41.7,39.8c-1.3,0-2.6,0-3.9,0c-0.6,0-1.2-0.4-1.3-1c-0.2-0.9,0.4-1.7,1.3-1.8c0.1,0,0.1,0,0.1,0
			c2.5,0,5.1,0,7.6,0c0.4,0,0.8,0.1,1.1,0.4c0.4,0.4,0.5,1,0.3,1.5c-0.2,0.5-0.7,0.8-1.3,0.8C44.3,39.9,43,39.8,41.7,39.8z"/>
		<path class="st3" d="M41.7,50.8c1.3,0,2.5,0,3.8,0c0.3,0,0.6,0.1,0.9,0.3c0.5,0.3,0.7,0.9,0.5,1.5c-0.2,0.6-0.7,1-1.3,1
			c-0.1,0-0.1,0-0.2,0c-2.5,0-5,0-7.5,0c-0.2,0-0.4,0-0.6-0.1c-0.6-0.2-1.1-0.8-1-1.5c0.1-0.7,0.6-1.2,1.3-1.2c0.2,0,0.5,0,0.7,0
			C39.5,50.8,40.6,50.8,41.7,50.8z"/>
		<path class="st3" d="M36.5,33c0-0.8,0.6-1.4,1.4-1.4c0.7,0,1.4,0.6,1.4,1.4c0,0.8-0.6,1.4-1.4,1.4C37.1,34.4,36.5,33.8,36.5,33z"
			/>
		<path class="st1" d="M62.4,64.1c0-0.5-0.3-0.9-0.8-1.2c-0.5-0.2-1-0.4-1.5-0.6c-1.5-0.6-2.3-1.8-2.5-3.3c-0.2-1.8,0.7-3.3,2.1-4.1
			c0,0,0.1,0,0.1-0.1c0.1,0,0.1-0.1,0.1-0.2c0-0.3,0-0.5,0-0.8c0-0.7,0.5-1.3,1.2-1.4c0.7-0.1,1.4,0.4,1.5,1.1c0,0.3,0,0.5,0,0.8
			c0,0.1,0,0.2,0.2,0.2c0.4,0.1,0.7,0.3,1.1,0.4c0.6,0.3,0.9,0.9,0.8,1.5c-0.1,0.7-0.6,1.1-1.3,1.1c-0.2,0-0.4,0-0.6-0.1
			c-0.2-0.1-0.5-0.2-0.7-0.3c-0.7-0.3-1.5,0.1-1.8,0.7c-0.3,0.7,0,1.5,0.7,1.8c0.5,0.2,1,0.4,1.5,0.6c1.4,0.6,2.2,1.7,2.4,3.2
			c0.3,1.7-0.6,3.4-2.1,4.2c-0.1,0-0.1,0.1-0.2,0.1c-0.1,0-0.1,0.1-0.1,0.2c0,0.3,0,0.5,0,0.8c0,0.7-0.5,1.3-1.2,1.4
			C60.8,70.3,60,69.7,60,69c0-0.2,0-0.4,0-0.7c0-0.1,0-0.2-0.2-0.2c-0.4-0.1-0.7-0.3-1.1-0.4c-0.6-0.3-0.9-0.9-0.8-1.5
			c0.1-0.6,0.6-1.1,1.3-1.1c0.2,0,0.4,0,0.6,0.1c0.3,0.1,0.5,0.2,0.8,0.3C61.5,65.8,62.4,65.1,62.4,64.1z"/>
	</g>
</g>
</svg>
