<?xml version="1.0" encoding="utf-8"?>
<!-- Generator: Adobe Illustrator 25.0.1, SVG Export Plug-In . SVG Version: 6.00 Build 0)  -->
<svg version="1.1" id="Layer_1" xmlns="http://www.w3.org/2000/svg" xmlns:xlink="http://www.w3.org/1999/xlink" x="0px" y="0px"
	 viewBox="0 0 117.1 119.9" style="enable-background:new 0 0 117.1 119.9;" xml:space="preserve">
<style type="text/css">
	.st0{fill:#28429B;}
</style>
<g>
	<g>
		<path class="st0" d="M11.5,1.7h76c0.1,0,0.2,0.1,0.3,0.1c0.5,0,1.1,0.1,1.6,0.2c5.1,1.1,8.9,5.7,8.9,11.1c0,19.6,0,39.3,0,58.9
			c0,0.1,0,0.1,0,0.3c0,0.2,0.1,0.2,0.2,0.2c0.1,0,0.1,0,0.2,0.1c7.7,1.7,13.8,7.2,16.4,14.5c0.6,1.8,1.1,3.7,1.2,5.7
			c0,0.1,0,0.2,0.1,0.3c0,1.1,0,2.1,0,3.2c-0.1,0.1-0.1,0.3-0.1,0.4c0,0.9-0.2,1.8-0.4,2.7c-1.4,6.2-4.8,11.1-10.2,14.5
			c-2.9,1.9-6.2,3-9.6,3.3c-0.4,0.1-0.8,0-1.2,0.1c-0.7,0-1.5,0-2.2,0c-0.1-0.1-0.3-0.1-0.4-0.1c-0.6,0-1.3-0.1-1.9-0.2
			c-3.6-0.6-6.9-1.9-9.8-4c-0.3-0.2-0.6-0.3-0.9-0.3c-16.6,0-32.9,0-49.4,0c-0.5,0-1,0-1.5-0.1c-3.1-0.4-5.6-1.8-7.5-4.2
			c-1.7-2.1-2.4-4.5-2.4-7.2V20.3c0-0.3-0.2-0.5-0.5-0.5c-5,0-10,0-15.1,0c-1.3,0-2.5-0.9-2.5-2.5c0-1.3,0-2.7,0-4
			c0-0.7,0.1-1.4,0.2-2c0.7-4.9,4.7-8.8,9.6-9.4C10.8,1.8,11.2,1.8,11.5,1.7z M21.2,6.2C21.2,6.3,21.2,6.3,21.2,6.2
			c0.1,0.1,0.1,0.2,0.1,0.2c1.4,2,2.1,4.3,2.1,6.8c0,29.3,0,58.6,0,88c0,0.3,0,0.7,0.1,1c0.4,3,2.9,5.9,6.7,5.9c2.7,0,4.7-1.3,6-3.6
			c0.6-1,0.8-2.1,0.8-3.2c0-1.5,0-2.9,0-4.4c0-1.1,0.7-2,1.8-2.2c0.3-0.1,0.5,0,0.8,0c10.4,0,20.8,0,31.2,0h0.4
			c0.1,0,0.2-0.1,0.2-0.2v-0.2c0-1.4,0.2-2.8,0.5-4.2c2.2-10.3,11.1-17.7,21.6-17.9c0.5,0,0.5,0.1,0.5-0.5c0-19.5,0-39,0-58.5
			c0-0.4,0-0.8-0.1-1.1c-0.6-3.4-3.3-5.7-6.8-5.7c-21.7,0-43.6,0-65.4,0C21.5,6.2,21.3,6.2,21.2,6.2z M75.7,94.7c0,10,8.1,18,18,18
			c10,0,18.1-8.1,18.1-18.1c0-10.2-8.4-18.1-18.2-18C83.9,76.7,75.7,84.6,75.7,94.7z M75.6,108.2c-0.1-0.2-0.2-0.3-0.3-0.4
			c-1.7-2.5-3-5.1-3.6-8.1c-0.1-0.5-0.1-0.5-0.6-0.5c-9.7,0-19.5,0-29.2,0c-0.1,0-0.2,0-0.2,0c-0.2,0-0.3,0.1-0.3,0.3
			c0,0.7,0,1.3,0,2c0,0.6,0,1.2-0.1,1.8c-0.3,1.7-0.9,3.2-1.9,4.6c-0.1,0.1-0.2,0.2-0.1,0.3C51.4,108.2,63.5,108.2,75.6,108.2z
			 M12.1,15.2c2.1,0,4.1,0,6.2,0c0.1,0,0.2,0,0.3,0c0.2,0,0.2-0.1,0.2-0.2c0-0.3,0-0.6,0-0.9c0-0.6,0-1.3-0.1-1.9
			c-0.5-3.7-3.8-6.3-7.5-5.8c-2.7,0.3-5,2.3-5.7,4.9c-0.4,1.3-0.2,2.6-0.3,3.9c0,0.1,0.1,0.2,0.2,0.2c0.1,0,0.2,0,0.3,0
			C7.9,15.2,10,15.2,12.1,15.2z"/>
		<path class="st0" d="M45.9,52.5c0,1.9,0,3.7,0,5.6c0,0.8-0.3,1.5-1,2c-0.3,0.2-0.7,0.3-1.1,0.4c-0.1,0-0.2,0-0.3,0
			c-3.6,0-7.2,0-10.8,0c-0.6,0-1.1-0.1-1.6-0.5c-0.6-0.5-0.9-1.1-0.9-1.9c0-0.7,0-1.4,0-2.2c0-2.9,0-5.9,0-8.8c0-0.3,0-0.6,0.1-0.9
			c0.3-0.9,1.1-1.6,2.1-1.6c0.3,0,0.5,0,0.8,0c3.5,0,6.9,0,10.3,0c0.6,0,1.2,0.2,1.6,0.6c0.5,0.5,0.7,1.1,0.7,1.7
			C45.9,48.7,45.9,50.6,45.9,52.5z M41.3,52.5c0-1,0-2.1,0-3.1c0-0.3,0-0.3-0.3-0.3h-6.1c-0.2,0-0.4,0.2-0.4,0.4v6.1
			c0,0.2,0.2,0.4,0.4,0.4H41c0.2,0,0.3-0.2,0.3-0.3V52.5z"/>
		<path class="st0" d="M38.1,37.7c-1.8,0-3.7,0-5.5,0c-1.1,0-2.4-0.8-2.4-2.4c0-3.7,0-7.4,0-11.1c0-1.4,1.1-2.4,2.4-2.4
			c3.7,0,7.4,0,11,0c1.4,0,2.4,1.1,2.4,2.4c0,3.7,0,7.4,0,11.1c0,1.2-0.7,2.1-1.8,2.3c-0.2,0-0.4,0-0.6,0
			C41.7,37.7,39.9,37.7,38.1,37.7z M37.9,33.3h3c0.2,0,0.3-0.2,0.3-0.3v-6.1c0-0.2-0.2-0.3-0.3-0.3h-6.1c-0.2,0-0.4,0.2-0.4,0.4v6
			c0,0.2,0.2,0.4,0.4,0.4C35.9,33.3,36.9,33.3,37.9,33.3z"/>
		<path class="st0" d="M45.9,75c0,1.9,0,3.7,0,5.6c0,1-0.6,1.9-1.6,2.2c-0.3,0.1-0.5,0.1-0.8,0.1c-3.7,0-7.4,0-11.1,0
			c-1.1,0-2-0.6-2.3-1.6C30,80.9,29.9,80.5,30,80c0-3.3,0-6.5,0-9.8c-0.5-2.1,0.9-3.2,2.3-3.2c3.7,0,7.4,0,11.1,0
			c1.4,0,2.5,1,2.4,2.4C45.9,71.4,45.9,73.2,45.9,75z M37.9,78.5h3c0.2,0,0.4-0.2,0.4-0.4v-6c0-0.4,0-0.4-0.3-0.4h-6.1
			c-0.2,0-0.4,0.2-0.4,0.4v6.1c0,0.3,0,0.4,0.4,0.4C35.9,78.5,36.9,78.5,37.9,78.5z"/>
		<path class="st0" d="M69.8,27.7c0,0-9.9,0-14.8,0c-0.9,0-1.5-0.3-2-1.1c-0.9-1.5,0.1-3.4,1.9-3.5c0.1,0,0,0,0.2,0
			c9.9,0,19.7,0,29.6,0c0.3,0,0.6,0,0.9,0.1c1.1,0.3,1.7,1.4,1.6,2.6c-0.2,1.1-1.1,1.9-2.2,1.9c-3,0-9.2,0-9.2,0H69.8z"/>
		<path class="st0" d="M65.9,36.7c-3.7,0-7.3,0-11,0c-0.6,0-1.1-0.2-1.6-0.5c-0.7-0.7-1-1.5-0.7-2.4c0.2-0.9,1-1.5,2-1.6
			c0.2,0,0.3,0,0.4,0c7.2,0,14.5,0,21.7,0c0.3,0,0.6,0,0.9,0.1c1.1,0.3,1.8,1.4,1.6,2.6c-0.2,1.1-1.1,1.9-2.2,1.9
			c-2.8,0-5.5,0-8.3,0C67.8,36.7,66.8,36.7,65.9,36.7z"/>
		<path class="st0" d="M65.9,68.2c3.6,0,7.3,0,10.9,0c0.6,0,1.2,0.1,1.6,0.5c0.7,0.6,1,1.4,0.7,2.4c-0.3,0.9-0.9,1.4-1.8,1.6
			c-0.2,0-0.4,0.1-0.6,0.1c-7.2,0-14.4,0-21.6,0c-0.3,0-0.6,0-0.9-0.1c-1.1-0.3-1.8-1.4-1.6-2.5c0.1-1.1,1.1-2,2.2-2
			c1,0,1.9,0,2.9,0C60.4,68.2,63.1,68.2,65.9,68.2z"/>
		<path class="st0" d="M74.9,50.2c-3.3,0-6.6,0-9.9,0c-1.1,0-2-0.7-2.3-1.8c-0.3-1.4,0.7-2.7,2.1-2.8c0.1,0,0.2,0,0.3,0
			c6.5,0,13,0,19.5,0c0.3,0,0.6,0,0.9,0.1c1.1,0.4,1.7,1.4,1.5,2.5c-0.1,1-1.1,1.9-2.1,1.9c-0.1,0-0.2,0-0.4,0
			C81.4,50.2,78.2,50.2,74.9,50.2z"/>
		<path class="st0" d="M61.3,59.2c-2.1,0-4.2,0-6.4,0c-1.1,0-1.9-0.7-2.2-1.7c-0.4-1.4,0.6-2.8,2.1-2.9c0.1,0,0.2,0,0.2,0
			c4.2,0,8.3,0,12.5,0c0.7,0,1.3,0.2,1.8,0.7c0.7,0.7,0.8,1.6,0.4,2.5c-0.4,0.9-1.1,1.4-2.1,1.4C65.6,59.2,63.4,59.2,61.3,59.2z"/>
		<path class="st0" d="M61.4,77.3c2.1,0,4.2,0,6.3,0c0.5,0,1,0.1,1.4,0.4c0.8,0.6,1.1,1.5,0.9,2.5c-0.3,0.9-1.1,1.6-2.1,1.7
			c-0.1,0-0.2,0-0.4,0c-4.1,0-8.2,0-12.3,0c-0.3,0-0.6,0-0.9-0.1c-1.1-0.3-1.7-1.4-1.6-2.5c0.1-1.1,1.1-1.9,2.1-2c0.4,0,0.8,0,1.2,0
			C57.8,77.3,59.6,77.3,61.4,77.3z"/>
		<path class="st0" d="M52.7,47.9c0-1.3,1-2.3,2.3-2.3c1.2,0,2.2,1,2.3,2.3c0,1.3-1,2.3-2.3,2.3C53.7,50.2,52.7,49.2,52.7,47.9z"/>
		<path class="st0" d="M95.5,99.2c-0.1-0.8-0.5-1.5-1.4-1.9c-0.8-0.3-1.6-0.7-2.4-1c-2.4-1-3.8-2.9-4.1-5.5
			c-0.4-2.9,1.2-5.5,3.5-6.7c0.1,0,0.1-0.1,0.2-0.1c0.2-0.1,0.2-0.2,0.2-0.4c0-0.4,0-0.9,0-1.3c0-1.2,0.8-2.1,2-2.3
			c1.2-0.2,2.3,0.7,2.5,1.9c0.1,0.4,0,0.9,0,1.3c0,0.2,0.1,0.3,0.3,0.4c0.6,0.2,1.2,0.5,1.8,0.7c1,0.4,1.5,1.5,1.3,2.4
			c-0.2,1.1-1.1,1.8-2.2,1.9c-0.3,0-0.6-0.1-0.9-0.2c-0.4-0.2-0.8-0.3-1.2-0.5c-1.2-0.5-2.5,0.1-2.9,1.2c-0.5,1.1,0.1,2.4,1.2,2.9
			c0.8,0.4,1.7,0.7,2.5,1c2.3,1,3.6,2.8,4,5.2c0.5,2.8-1,5.6-3.5,6.9c-0.1,0.1-0.2,0.1-0.3,0.1c-0.2,0.1-0.2,0.2-0.2,0.3
			c0,0.4,0,0.9,0,1.3c0,1.2-0.8,2.1-2,2.3c-1.3,0.2-2.4-0.8-2.5-2.1c0-0.4,0-0.7,0-1.1c0-0.2-0.1-0.3-0.3-0.3
			c-0.6-0.2-1.2-0.5-1.8-0.7c-1-0.4-1.5-1.4-1.3-2.5c0.2-1,1-1.8,2.1-1.8c0.4,0,0.7,0.1,1,0.2c0.4,0.2,0.9,0.4,1.3,0.5
			C94,101.9,95.5,100.9,95.5,99.2z"/>
	</g>
</g>
</svg>
