<?xml version="1.0" encoding="UTF-8"?>
<svg version="1.1" viewBox="0 0 1758 2048" width="1280" height="1280" xmlns="http://www.w3.org/2000/svg">
<path transform="translate(0)" d="m0 0h1758v2048h-1758z" fill="#FCFCFC"/>
<path transform="translate(294,66)" d="m0 0 652 1 1 21 1 336 1 33 3 26 5 19 6 15 10 18 9 12 9 9 12 9 14 8 17 7 21 5 13 2 12 1 324 1v352l1 216v49l-7-1-41-11-37-8-31-5-18-2h-57l-28 3-44 8-32 8-24 8-20 9-16 8-27 15-30 20-13 10-11 9-14 12-12 11-13 13-9 11-14 17-14 19-10 15-15 27-15 30-11 27-8 26-8 35-4 27-2 22-1 24v21l1 22 5 35 5 27 7 28 11 33 8 18 10 20 15 25 2 3v3l-8 1-59 1h-475l-53-1-19-2-20-6-16-7-15-9-12-11-9-10-10-14-10-17-7-17-3-12-1-7-1-17v-1497l1-24 2-14 4-13 8-16 9-14 10-13 13-13 14-10 10-6 23-9 14-3z" fill="#1180FD"/>
<path transform="translate(1214,1241)" d="m0 0h54l19 2 32 6 23 6 25 9 33 15 24 13 19 12 18 13 11 9 14 12 16 15 7 8 11 13 14 19 14 21 12 21 9 19 9 24 8 25 7 27 6 33 2 19v43l-3 25-5 26-6 22-12 36-8 19-8 17-12 20-12 17-13 18-9 11-9 10-24 24-11 9-13 10-14 10-15 10-18 10-17 8-25 9-30 10-32 8-30 6-8 1h-42l-31-4-34-7-35-10-24-9-24-11-19-10-18-12-14-10-14-11-10-8v-2l-4-2-15-15-7-8-11-13-11-14-9-12-10-17-13-24-10-22-10-26-9-28-7-31-3-20-2-23v-20l2-25 5-32 7-29 9-27 9-22 14-29 9-16 12-18 11-14 8-10 12-14 21-21 8-7 13-11 13-10 15-10 21-12 23-12 24-10 27-9 24-6 36-6z" fill="#1180FD"/>
<path transform="translate(1015,71)" d="m0 0 5 3 12 13 9 11 14 17 11 13 9 10 9 11 14 17 11 13 14 15 9 11 11 13 9 11 26 30 12 14 9 11 12 14 9 10 9 11 11 12 9 11 12 14 9 11 12 13 9 11 11 12 8 10 9 11 12 14 10 11 9 11 10 11 18 22 13 15 9 10 1 5-13 1h-287l-24-1-14-2-11-4-14-8-8-7-9-14-4-13-2-15-1-95v-252z" fill="#1180FD"/>
<path transform="translate(1209,1371)" d="m0 0h66l1 2v195h185l7 1 2 4v57l-2 2-36 1h-156v187l-1 7-1 1-11 1-53 1-1-1-1-12-1-185-105 1-61 1h-26l-1-1-1-12v-30l1-22 1-1h171l23 1-1-32-1-164z" fill="#FCFCFC"/>
</svg>
