<svg version="1.2" xmlns="http://www.w3.org/2000/svg" viewBox="0 0 106 110" width="106" height="110">
	<title>Group 242</title>
	<style>
		.s0 { fill: #ffffff } 
	</style>
	<g id="Group 242">
		<path id="Path 957" fill-rule="evenodd" class="s0" d="m63.7 0l18.4 18.4v91.5h-81.6v-109.9zm-59.3 106h73.9v-86l-16.2-16.1h-57.7z"/>
		<path id="Path 958" class="s0" d="m80.2 21.2h-19.2v-19.3h3.9v15.4h15.3z"/>
		<path id="Rectangle 1263" class="s0" d="m13.7 17.3h27.6v3.9h-27.6z"/>
		<path id="Rectangle 1264" class="s0" d="m13.3 58.5h56.1v3.9h-56.1z"/>
		<path id="Rectangle 1265" class="s0" d="m13.3 67.2h56.1v3.8h-56.1z"/>
		<path id="Rectangle 1266" class="s0" d="m13.3 75.8h56.1v3.9h-56.1z"/>
		<path id="Rectangle 1267" class="s0" d="m13.3 84.4h56.1v3.9h-56.1z"/>
		<path id="Rectangle 1268" class="s0" d="m13.3 93.1h56.1v3.9h-56.1z"/>
		<path id="Path 959" class="s0" d="m16.8 49.9l-2.7-2.8 12.8-12.9 8.7 8.7 11.5-11.6 8.6 8.7 10.2-10.2 2.7 2.8-12.9 12.9-8.6-8.7-11.5 11.6-8.7-8.7z"/>
		<path id="Path 960" class="s0" d="m69.2 40h-3.9v-6.8h-6.9v-3.9h10.8z"/>
		<path id="Path 961" class="s0" d="m105.5 59.3v42h-16.7v-3.9h12.8v-38.1z"/>
		<path id="Path 962" fill-rule="evenodd" class="s0" d="m93.2 12.2l6.2 6.2v91.5h-12.5v-91.5zm-2.4 93.9h4.8v-86l-2.4-2.4-2.4 2.4z"/>
		<path id="Rectangle 1269" class="s0" d="m88.8 57.3h8.7v3.9h-8.7z"/>
		<path id="Rectangle 1270" class="s0" d="m91.2 10.6h3.9v4.3h-3.9z"/>
	</g>
</svg>