<?xml version="1.0" encoding="utf-8"?>
<!-- Generator: Adobe Illustrator 25.0.1, SVG Export Plug-In . SVG Version: 6.00 Build 0)  -->
<svg version="1.1" id="Video_Tutorial" xmlns="http://www.w3.org/2000/svg" xmlns:xlink="http://www.w3.org/1999/xlink" x="0px"
	 y="0px" viewBox="0 0 512 512" style="enable-background:new 0 0 512 512;" xml:space="preserve">
<style type="text/css">
	.st0{fill:#FFFFFF;}
</style>
<g>
	<path class="st0" d="M200.2,181.3c-39.7-8.2-79.9-8.2-119.6,0c-5.4,1.1-8.9,6.4-7.8,11.8c1.8,8.9,10.6,8,11.8,7.8
		c37-7.6,74.5-7.6,111.5,0c5.4,1.1,10.7-2.4,11.8-7.8C209.1,187.7,205.6,182.4,200.2,181.3L200.2,181.3z"/>
	<path class="st0" d="M200.2,226.6c-39.7-8.2-79.9-8.2-119.6,0c-5.4,1.1-8.9,6.4-7.8,11.8c1.1,5.4,6.4,8.9,11.8,7.8
		c37-7.6,74.5-7.6,111.5,0c0.8,0.2,10,1.2,11.8-7.8C209.1,233.1,205.6,227.8,200.2,226.6L200.2,226.6z"/>
	<path class="st0" d="M200.2,136c-39.7-8.2-79.9-8.2-119.6,0c-5.4,1.1-8.9,6.4-7.8,11.8c1.8,8.9,10.6,8,11.8,7.8
		c37-7.6,74.5-7.6,111.5,0c5.4,1.1,10.7-2.4,11.8-7.8C209.1,142.4,205.6,137.1,200.2,136L200.2,136z"/>
	<path class="st0" d="M200.2,90.6c-39.7-8.2-79.9-8.2-119.6,0c-5.4,1.1-8.9,6.4-7.8,11.8s6.4,8.9,11.8,7.8c37-7.6,74.5-7.6,111.5,0
		c0.8,0.2,10,1.2,11.8-7.8C209.1,97,205.6,91.8,200.2,90.6L200.2,90.6z"/>
	<path class="st0" d="M338.1,222.8l84.9-36.6c8.4-3.6,13.6-11.6,13.6-20.7s-5.2-17.1-13.6-20.7l-84.9-36.6c-7-3-15-2.3-21.3,1.9
		c-6.4,4.2-10.2,11.2-10.2,18.9v73.2c0,7.6,3.8,14.7,10.2,18.9C323.1,225.1,331,225.8,338.1,222.8L338.1,222.8z M327.7,204.2
		c-0.5-0.3-1.2-1-1.2-2.1v-73.2c0-1.1,0.6-1.8,1.2-2.1c0.5-0.4,1.3-0.7,2.4-0.2l84.9,36.6c1.3,0.6,1.5,1.6,1.5,2.4s-0.3,1.8-1.5,2.4
		l-84.9,36.6C329.1,204.9,328.2,204.6,327.7,204.2z"/>
	<path class="st0" d="M497.3,445.2l-22.7-102.9c-3.2-14.6-16-23.9-30.4-22.2l-62.7,7.3l-5-22.8c31.6,0.3,63.1,3.2,94.4,8.9
		c15.3,2.8,26.2-8.2,26.2-18.7V43.6c0-9.1-7-16.7-17.1-18.6c-74.3-14.2-149.6-13.7-224,1.4c-74.4-15-149.7-15.5-224.1-1.4
		c-10.1,1.9-17.1,9.6-17.1,18.6v251.1c0,10.1,10.4,21.5,26.2,18.7c70.6-12.7,142.3-11.8,212.9,2.7c1.3,0.3,2.7,0.3,4,0
		c22.7-4.7,45.6-7.9,68.5-9.8l6.4,29H87c-39.8,0-72.1,32.3-72.1,72.1s32.3,72.1,72.1,72.1h277.7l1.2,5.6
		c2.9,13.3,16.8,12.5,19.6,11.6l100.9-32.1l0,0C494.4,462,499.2,453.5,497.3,445.2L497.3,445.2z M477.1,446.5L384.4,476l-2.2-9.8
		l92.8-29.5L477.1,446.5z M339.1,270.7c-0.7-3.1,1.2-6.6,4-7.5c2.7-0.8,4.1,1.2,4.4,2.9l16.4,74.3c1.1,5,5.8,8.4,10.9,7.8l71.7-8.3
		c4.1-0.5,7.6,2.3,8.6,6.7l15.6,70.5l-98.9,31.4l-62.3-37.2c0-0.1,0-0.4,0.2-0.6c1.5-2.7,3.8-4.6,6.5-5.3c1.4-0.4,3.6-0.6,5.7,0.7
		l34.4,20.5c3.4,2,7.7,1.9,11-0.5s4.8-6.4,3.9-10.3L339.1,270.7z M37.5,293.7c-1.2,0.2-2.1,0-2.7-0.2V44.8c0.2-0.1,0.5-0.2,0.8-0.2
		c69.8-13.2,140.5-13.2,210.3,0.2v249.4C151.6,276.7,75.9,286.8,37.5,293.7z M266,294.1V44.8c69.8-13.3,140.6-13.4,210.3-0.2
		c0.3,0.1,0.6,0.2,0.8,0.2v248.6c-0.6,0.2-1.5,0.5-2.7,0.2c-34-6.1-68.2-9.2-102.4-9.2l-5-22.6c-1.5-6.7-5.6-12.4-11.3-15.7
		c-5.7-3.3-12.3-4-18.7-1.9c-12.7,4-20.4,17.6-17.5,30.8l2.5,11.6C303.4,288.2,284.7,290.7,266,294.1z M34.9,407.3
		c0-28.7,23.4-52.1,52.1-52.1h250.3l9.3,42.1h-0.5l-14-8.3c-6.3-3.8-13.8-4.8-21.1-2.9c-6.4,1.7-12.2,5.7-16.4,11.2H163.5
		c-4.5-14-17.7-24.2-33.3-24.2s-28.7,10.2-33.3,24.2h-28c-5.5,0-10,4.5-10,10s4.5,10,10,10h27.7c4.1,14.8,17.6,25.7,33.7,25.7
		s29.6-10.9,33.7-25.7h126.5c1.4,4.5,4.2,8.5,8.4,11l52.2,31.1H87C58.2,459.4,34.9,436.1,34.9,407.3L34.9,407.3z M145.2,408.1
		c0,8.2-6.7,15-15,15s-15-6.7-15-15s6.7-15,15-15S145.2,399.8,145.2,408.1z"/>
</g>
</svg>
