<?xml version="1.0" encoding="utf-8"?>
<!-- Generator: Adobe Illustrator 24.0.0, SVG Export Plug-In . SVG Version: 6.00 Build 0)  -->
<svg version="1.1" id="Capa_1" xmlns="http://www.w3.org/2000/svg" xmlns:xlink="http://www.w3.org/1999/xlink" x="0px" y="0px"
	 viewBox="0 0 512 512" style="enable-background:new 0 0 512 512;" xml:space="preserve">
<style type="text/css">
	.st0{fill:#0027B7;}
</style>
<g>
	<g>
		<path class="st0" d="M494.5,100.5H476c-4.1,0-7.5,3.4-7.5,7.5s3.4,7.5,7.5,7.5h18.5c1.4,0,2.5,1.1,2.5,2.5v260
			c0,1.4-1.1,2.5-2.5,2.5h-127V287c0-4.1-3.4-7.5-7.5-7.5s-7.5,3.4-7.5,7.5v121c0,1.4-1.1,2.5-2.5,2.5h-27.5V409
			c0-12.4-10.1-22.5-22.5-22.5h-88c-12.4,0-22.5,10.1-22.5,22.5v1.5H162c-1.4,0-2.5-1.1-2.5-2.5V136.5h193V252
			c0,4.1,3.4,7.5,7.5,7.5s7.5-3.4,7.5-7.5V115.5H441c4.1,0,7.5-3.4,7.5-7.5s-3.4-7.5-7.5-7.5h-73.5V80c0-9.6-7.9-17.5-17.5-17.5H162
			c-9.6,0-17.5,7.9-17.5,17.5v20.5h-127C7.9,100.5,0,108.4,0,118v260c0,9.6,7.9,17.5,17.5,17.5H80c4.1,0,7.5-3.4,7.5-7.5
			s-3.4-7.5-7.5-7.5H17.5c-1.4,0-2.5-1.1-2.5-2.5V118c0-1.4,1.1-2.5,2.5-2.5h127v265H115c-4.1,0-7.5,3.4-7.5,7.5s3.4,7.5,7.5,7.5
			h29.5V408c0,9.6,7.9,17.5,17.5,17.5h27.5v1.5c0,12.4,10.1,22.5,22.5,22.5h88c12.4,0,22.5-10.1,22.5-22.5v-1.5H350
			c9.6,0,17.5-7.9,17.5-17.5v-12.5h127c9.6,0,17.5-7.9,17.5-17.5V118C512,108.4,504.1,100.5,494.5,100.5z M159.5,80
			c0-1.4,1.1-2.5,2.5-2.5h188c1.4,0,2.5,1.1,2.5,2.5v41.5h-193V80z M307.5,427c0,4.1-3.4,7.5-7.5,7.5h-88c-4.1,0-7.5-3.4-7.5-7.5
			v-18c0-4.1,3.4-7.5,7.5-7.5h88c4.1,0,7.5,3.4,7.5,7.5V427z"/>
		<path class="st0" d="M320.5,164.5h-71c-4.1,0-7.5,3.4-7.5,7.5s3.4,7.5,7.5,7.5h71c4.1,0,7.5-3.4,7.5-7.5S324.6,164.5,320.5,164.5z
			"/>
		<path class="st0" d="M320.5,191h-71c-4.1,0-7.5,3.4-7.5,7.5s3.4,7.5,7.5,7.5h71c4.1,0,7.5-3.4,7.5-7.5S324.6,191,320.5,191z"/>
		<path class="st0" d="M320.5,217.5h-71c-4.1,0-7.5,3.4-7.5,7.5s3.4,7.5,7.5,7.5h71c4.1,0,7.5-3.4,7.5-7.5S324.6,217.5,320.5,217.5z
			"/>
		<path class="st0" d="M320.5,257.5H216c-4.1,0-7.5,3.4-7.5,7.5s3.4,7.5,7.5,7.5h104.5c4.1,0,7.5-3.4,7.5-7.5
			S324.6,257.5,320.5,257.5z"/>
		<path class="st0" d="M320.5,289.5H216c-4.1,0-7.5,3.4-7.5,7.5s3.4,7.5,7.5,7.5h104.5c4.1,0,7.5-3.4,7.5-7.5
			S324.6,289.5,320.5,289.5z"/>
		<path class="st0" d="M320.5,321.5H216c-4.1,0-7.5,3.4-7.5,7.5s3.4,7.5,7.5,7.5h104.5c4.1,0,7.5-3.4,7.5-7.5
			S324.6,321.5,320.5,321.5z"/>
		<path class="st0" d="M320.5,353.5H216c-4.1,0-7.5,3.4-7.5,7.5s3.4,7.5,7.5,7.5h104.5c4.1,0,7.5-3.4,7.5-7.5
			S324.6,353.5,320.5,353.5z"/>
		<path class="st0" d="M193.5,257.5h-2c-4.1,0-7.5,3.4-7.5,7.5s3.4,7.5,7.5,7.5h2c4.1,0,7.5-3.4,7.5-7.5S197.6,257.5,193.5,257.5z"
			/>
		<path class="st0" d="M193.5,289.5h-2c-4.1,0-7.5,3.4-7.5,7.5s3.4,7.5,7.5,7.5h2c4.1,0,7.5-3.4,7.5-7.5S197.6,289.5,193.5,289.5z"
			/>
		<path class="st0" d="M193.5,321.5h-2c-4.1,0-7.5,3.4-7.5,7.5s3.4,7.5,7.5,7.5h2c4.1,0,7.5-3.4,7.5-7.5S197.6,321.5,193.5,321.5z"
			/>
		<path class="st0" d="M193.5,353.5h-2c-4.1,0-7.5,3.4-7.5,7.5s3.4,7.5,7.5,7.5h2c4.1,0,7.5-3.4,7.5-7.5S197.6,353.5,193.5,353.5z"
			/>
		<path class="st0" d="M288,410.5h-64c-4.1,0-7.5,3.4-7.5,7.5s3.4,7.5,7.5,7.5h64c4.1,0,7.5-3.4,7.5-7.5S292.1,410.5,288,410.5z"/>
		<path class="st0" d="M472,298h-56.5c-4.1,0-7.5,3.4-7.5,7.5s3.4,7.5,7.5,7.5H472c4.1,0,7.5-3.4,7.5-7.5S476.1,298,472,298z"/>
		<path class="st0" d="M393,298h-2c-4.1,0-7.5,3.4-7.5,7.5s3.4,7.5,7.5,7.5h2c4.1,0,7.5-3.4,7.5-7.5S397.1,298,393,298z"/>
		<path class="st0" d="M472,330h-56.5c-4.1,0-7.5,3.4-7.5,7.5s3.4,7.5,7.5,7.5H472c4.1,0,7.5-3.4,7.5-7.5S476.1,330,472,330z"/>
		<path class="st0" d="M393,330h-2c-4.1,0-7.5,3.4-7.5,7.5s3.4,7.5,7.5,7.5h2c4.1,0,7.5-3.4,7.5-7.5S397.1,330,393,330z"/>
		<path class="st0" d="M472,266h-56.5c-4.1,0-7.5,3.4-7.5,7.5s3.4,7.5,7.5,7.5H472c4.1,0,7.5-3.4,7.5-7.5S476.1,266,472,266z"/>
		<path class="st0" d="M393,266h-2c-4.1,0-7.5,3.4-7.5,7.5s3.4,7.5,7.5,7.5h2c4.1,0,7.5-3.4,7.5-7.5S397.1,266,393,266z"/>
		<path class="st0" d="M472,233h-56.5c-4.1,0-7.5,3.4-7.5,7.5s3.4,7.5,7.5,7.5H472c4.1,0,7.5-3.4,7.5-7.5S476.1,233,472,233z"/>
		<path class="st0" d="M393,233h-2c-4.1,0-7.5,3.4-7.5,7.5s3.4,7.5,7.5,7.5h2c4.1,0,7.5-3.4,7.5-7.5S397.1,233,393,233z"/>
		<path class="st0" d="M121,298H64.5c-4.1,0-7.5,3.4-7.5,7.5s3.4,7.5,7.5,7.5H121c4.1,0,7.5-3.4,7.5-7.5S125.1,298,121,298z"/>
		<path class="st0" d="M42,298h-2c-4.1,0-7.5,3.4-7.5,7.5s3.4,7.5,7.5,7.5h2c4.1,0,7.5-3.4,7.5-7.5S46.1,298,42,298z"/>
		<path class="st0" d="M64.5,345H121c4.1,0,7.5-3.4,7.5-7.5s-3.4-7.5-7.5-7.5H64.5c-4.1,0-7.5,3.4-7.5,7.5S60.4,345,64.5,345z"/>
		<path class="st0" d="M42,330h-2c-4.1,0-7.5,3.4-7.5,7.5s3.4,7.5,7.5,7.5h2c4.1,0,7.5-3.4,7.5-7.5S46.1,330,42,330z"/>
		<path class="st0" d="M121,266H64.5c-4.1,0-7.5,3.4-7.5,7.5s3.4,7.5,7.5,7.5H121c4.1,0,7.5-3.4,7.5-7.5S125.1,266,121,266z"/>
		<path class="st0" d="M42,266h-2c-4.1,0-7.5,3.4-7.5,7.5s3.4,7.5,7.5,7.5h2c4.1,0,7.5-3.4,7.5-7.5S46.1,266,42,266z"/>
		<path class="st0" d="M121,233H64.5c-4.1,0-7.5,3.4-7.5,7.5s3.4,7.5,7.5,7.5H121c4.1,0,7.5-3.4,7.5-7.5S125.1,233,121,233z"/>
		<path class="st0" d="M42,233h-2c-4.1,0-7.5,3.4-7.5,7.5s3.4,7.5,7.5,7.5h2c4.1,0,7.5-3.4,7.5-7.5S46.1,233,42,233z"/>
		<path class="st0" d="M396.5,176.5c0,19.3,15.7,35,35,35s35-15.7,35-35s-15.7-35-35-35S396.5,157.2,396.5,176.5z M451.5,176.5
			c0,11-9,20-20,20s-20-9-20-20s9-20,20-20S451.5,165.5,451.5,176.5z"/>
		<path class="st0" d="M80.5,211.5c19.3,0,35-15.7,35-35s-15.7-35-35-35s-35,15.7-35,35S61.2,211.5,80.5,211.5z M80.5,156.5
			c11,0,20,9,20,20s-9,20-20,20s-20-9-20-20S69.5,156.5,80.5,156.5z"/>
		<path class="st0" d="M314,91.5H198c-4.1,0-7.5,3.4-7.5,7.5s3.4,7.5,7.5,7.5h116c4.1,0,7.5-3.4,7.5-7.5S318.1,91.5,314,91.5z"/>
		<path class="st0" d="M207.8,234.1c4.1,0,7.5-3.4,7.5-7.5v-3.3c9.1-0.9,16.3-8.6,16.3-17.9c0-9.9-8.1-18-18-18H202
			c-1.6,0-3-1.3-3-3c0-1.6,1.3-3,3-3h20.4c4.1,0,7.5-3.4,7.5-7.5s-3.4-7.5-7.5-7.5h-7.1v-3.2c0-4.1-3.4-7.5-7.5-7.5
			s-7.5,3.4-7.5,7.5v3.3c-9.1,0.9-16.3,8.6-16.3,17.9c0,9.9,8.1,18,18,18h11.6c1.6,0,3,1.3,3,3s-1.3,3-3,3h-20.4
			c-4.1,0-7.5,3.4-7.5,7.5s3.4,7.5,7.5,7.5h7.1v3.2C200.3,230.7,203.6,234.1,207.8,234.1z"/>
	</g>
</g>
</svg>
