<svg width="17" height="24" viewBox="0 0 17 24" fill="none" xmlns="http://www.w3.org/2000/svg">
<g clip-path="url(#clip0_601_173)">
<path d="M8.21052 11.3684C5.07662 11.3684 2.52631 8.81811 2.52631 5.68421C2.52631 2.55032 5.07662 0 8.21052 0C11.3444 0 13.8947 2.55032 13.8947 5.68421C13.8947 8.81811 11.3444 11.3684 8.21052 11.3684ZM8.21052 1.26316C5.77262 1.26316 3.78946 3.24632 3.78946 5.68421C3.78946 8.12211 5.77262 10.1053 8.21052 10.1053C10.6484 10.1053 12.6316 8.12211 12.6316 5.68421C12.6316 3.24632 10.6484 1.26316 8.21052 1.26316Z" fill="#00BDD1"/>
<path d="M15.7895 24.0003C15.4408 24.0003 15.1579 23.7174 15.1579 23.3687V20.8424C15.1579 18.4045 13.1747 16.4214 10.7368 16.4214H5.68421C3.24632 16.4214 1.26316 18.4045 1.26316 20.8424V23.3687C1.26316 23.7174 0.980211 24.0003 0.631579 24.0003C0.282947 24.0003 0 23.7174 0 23.3687V20.8424C0 17.7085 2.55032 15.1582 5.68421 15.1582H10.7368C13.8707 15.1582 16.4211 17.7085 16.4211 20.8424V23.3687C16.4211 23.7174 16.1381 24.0003 15.7895 24.0003Z" fill="#00BDD1"/>
</g>
<defs>
<clipPath id="clip0_601_173">
<rect width="16.4211" height="24" fill="white"/>
</clipPath>
</defs>
</svg>
