<svg width="25" height="20" viewBox="0 0 25 20" fill="none" xmlns="http://www.w3.org/2000/svg">
<g clip-path="url(#clip0_602_1863)">
<path d="M21.7647 20C21.66 20 21.5553 19.9729 21.4624 19.9165L19.3518 18.6518C18.7965 18.7659 18.2235 18.8235 17.6471 18.8235C14.6447 18.8235 12.0753 17.2541 11.0553 15.0471C10.3329 15.2118 9.58353 15.2941 8.82353 15.2941C8.81647 15.2941 8.80824 15.2941 8.80118 15.2941C7.79059 15.2941 6.78941 15.1412 5.82235 14.84L3.24235 16.3859C3.06118 16.4953 2.83529 16.4988 2.65059 16.3929C2.46706 16.2906 2.35294 16.0941 2.35294 15.8824V12.8482C0.832941 11.4306 0 9.59294 0 7.64706C0 3.43059 3.95765 0 8.82353 0C13.4753 0 17.2753 3.07647 17.6259 7.05882C17.6329 7.05882 17.64 7.05882 17.6471 7.05882C21.54 7.05882 24.7059 9.69765 24.7059 12.9412C24.7059 14.6294 23.8518 16.2118 22.3529 17.3282V19.4118C22.3529 19.6235 22.2388 19.82 22.0541 19.9247C21.9647 19.9753 21.8647 20 21.7647 20ZM19.4541 17.4376C19.56 17.4376 19.6647 17.4659 19.7565 17.5212L21.1765 18.3729V17.0247C21.1765 16.8294 21.2729 16.6471 21.4353 16.5376C22.7671 15.6376 23.5294 14.3271 23.5294 12.9412C23.5294 10.3459 20.8906 8.23529 17.6471 8.23529C14.4035 8.23529 11.7647 10.3459 11.7647 12.9412C11.7647 15.5365 14.4035 17.6471 17.6471 17.6471C18.2141 17.6471 18.7776 17.5812 19.3188 17.4541C19.3635 17.4435 19.4094 17.4376 19.4541 17.4376ZM8.82353 1.17647C4.60706 1.17647 1.17647 4.07882 1.17647 7.64706C1.17647 9.33294 1.94 10.9306 3.32824 12.1447C3.45647 12.2565 3.52941 12.4176 3.52941 12.5871V14.8435L5.44824 13.6929C5.59647 13.6047 5.77647 13.5847 5.94118 13.64C6.86588 13.9576 7.82824 14.1165 8.80353 14.1165C8.80941 14.1165 8.81647 14.1165 8.82353 14.1165C9.45882 14.1165 10.0835 14.0506 10.6882 13.9235C10.6224 13.6035 10.5882 13.2753 10.5882 12.9412C10.5882 10.0365 13.1282 7.61647 16.4541 7.14235C16.1588 3.78706 12.8624 1.17647 8.82353 1.17647Z" fill="#00BDD1"/>
</g>
<defs>
<clipPath id="clip0_602_1863">
<rect width="24.7059" height="20" fill="white"/>
</clipPath>
</defs>
</svg>
