<?xml version="1.0" encoding="UTF-8"?>
<svg version="1.1" xmlns="http://www.w3.org/2000/svg" width="512" height="512">
    <path d="M0 0 C1.02434452 -0.00453111 2.04868904 -0.00906223 3.1040743 -0.01373065 C6.51704604 -0.02633388 9.92985738 -0.02475693 13.34284973 -0.02310181 C15.79746708 -0.02908933 18.25208255 -0.03589539 20.70669556 -0.04345703 C26.6692153 -0.05926534 32.6316726 -0.06556402 38.59420749 -0.06668179 C43.44043838 -0.06763415 48.28665629 -0.0717538 53.13288307 -0.07808304 C66.88370445 -0.09567562 80.6344947 -0.10492423 94.38532742 -0.10342209 C95.12541135 -0.10334218 95.86549527 -0.10326227 96.62800598 -0.10317993 C97.73949146 -0.10305729 97.73949146 -0.10305729 98.87343118 -0.10293217 C110.89659854 -0.10211832 122.91964092 -0.12128612 134.94277211 -0.14945666 C147.29865052 -0.17817796 159.65446792 -0.1919976 172.01038057 -0.19026911 C178.94325538 -0.18960528 185.8759989 -0.19509553 192.80884361 -0.21662521 C199.32354601 -0.23672785 205.8380181 -0.23617134 212.35275078 -0.22159195 C214.74488988 -0.21949607 217.13704612 -0.22425081 219.52915573 -0.23631287 C222.79149489 -0.2516996 226.05286788 -0.24250016 229.31518555 -0.22705078 C230.26430649 -0.23733791 231.21342744 -0.24762503 232.19130963 -0.25822389 C238.99309386 -0.18690967 242.38793877 1.20828504 247.26789856 6.05648804 C247.76676575 6.66234741 248.26563293 7.26820679 248.77961731 7.89242554 C251.45563486 11.07056558 254.17705145 14.18840549 256.96711731 17.26742554 C260.23102579 20.88418899 263.4550268 24.53132162 266.65461731 28.20492554 C269.49981021 31.44255883 272.39565567 34.63428844 275.28352356 37.83383179 C277.17560416 39.942537 279.04617489 42.06662355 280.90461731 44.20492554 C283.71534256 47.43302066 286.58291631 50.60480996 289.46711731 53.76742554 C292.92039884 57.55405552 296.32810782 61.37218874 299.68977356 65.24008179 C301.76071218 67.60231727 303.86224579 69.93538407 305.96711731 72.26742554 C309.23102579 75.88418899 312.4550268 79.53132162 315.65461731 83.20492554 C317.73922895 85.57706982 319.85140375 87.92298619 321.96711731 90.26742554 C342.58972196 113.15816776 342.58972196 113.15816776 342.59575176 121.88172054 C342.59897621 123.05768101 342.60220065 124.23364147 342.60552281 125.4452371 C342.60397421 126.74345366 342.60242561 128.04167023 342.60083008 129.37922668 C342.60269741 130.76744669 342.6049978 132.15566617 342.6076954 133.54388481 C342.61383001 137.36767733 342.61367784 141.19144804 342.61250103 145.01524436 C342.61229742 149.13611749 342.61781207 153.25698354 342.62255859 157.37785339 C342.63087605 165.45676896 342.63361398 173.53567723 342.63417097 181.61459672 C342.63464585 188.18383664 342.63669919 194.75307415 342.6398716 201.32231331 C342.64868307 219.94788673 342.65329049 238.57345439 342.65254112 257.19902992 C342.65248119 258.70616334 342.65248119 258.70616334 342.65242004 260.2437439 C342.65237916 261.24972746 342.65233828 262.25571102 342.65229616 263.29217894 C342.6518901 279.57953805 342.6614483 295.866874 342.67555841 312.15422641 C342.68993261 328.87856451 342.69682794 345.60289133 342.69596463 362.32723576 C342.69563291 371.71621335 342.69836907 381.10516669 342.70914268 390.49413872 C342.71826167 398.49254925 342.72041165 406.49092455 342.71363326 414.48933803 C342.71037441 418.5677318 342.71028822 422.64605805 342.71898651 426.72444534 C342.72688121 430.46469949 342.72538994 434.20483291 342.71670238 437.94508422 C342.71445468 439.92536757 342.72197292 441.90565474 342.72994202 443.88592333 C342.65959232 462.2341084 337.94992022 479.59691661 325.33821106 493.48617554 C311.27850151 506.87078421 296.13062914 512.5916714 277.06968689 512.52812195 C275.84469258 512.5319475 274.61969827 512.53577304 273.35758293 512.53971452 C269.97860655 512.54821396 266.59984912 512.54782383 263.22087932 512.54353392 C259.56842974 512.54105881 255.91600532 512.55009057 252.26356506 512.55757141 C245.11625333 512.57029863 237.96897919 512.57211458 230.82165803 512.56977115 C225.01008238 512.56798563 219.19851811 512.56974263 213.38694382 512.57399559 C212.1446243 512.57488837 212.1446243 512.57488837 210.87720742 512.57579919 C209.19450427 512.57701099 207.51180112 512.57822512 205.82909797 512.57944157 C190.06072788 512.59030947 174.29237919 512.58815816 158.5240079 512.58205672 C144.11163031 512.5768881 129.69932031 512.58814291 115.28695609 512.60715494 C100.47327909 512.62654593 85.65963405 512.63478714 70.84594429 512.63103169 C62.53521937 512.62912158 54.22455198 512.6315887 45.91383743 512.64574623 C38.83888652 512.65767707 31.76402855 512.65904585 24.68907632 512.64695606 C21.08261606 512.64107933 17.47632567 512.63993432 13.86987686 512.65195847 C9.95267272 512.66486643 6.03572414 512.65432416 2.11851501 512.64164734 C0.98941086 512.64902162 -0.1396933 512.65639591 -1.30301273 512.66399366 C-17.75319061 512.55229941 -33.77643589 505.88462508 -45.53288269 494.26742554 C-60.47850317 477.35335749 -63.69017336 460.08338568 -63.66659546 438.35244751 C-63.66846498 436.7206739 -63.67076624 435.08890074 -63.67346078 433.45712829 C-63.67956779 428.98334209 -63.67944648 424.50957461 -63.67826641 420.0357852 C-63.67806212 415.20674572 -63.68358381 410.37771222 -63.68832397 405.54867554 C-63.69662506 396.09147509 -63.69937857 386.63428087 -63.69993635 377.17707708 C-63.70041177 369.48858221 -63.7024678 361.80008938 -63.70563698 354.11159515 C-63.71444207 332.30598601 -63.71905658 310.50038178 -63.7183065 288.69477084 C-63.71826655 287.5195965 -63.71822659 286.34442216 -63.71818542 285.13363647 C-63.71814454 283.95702476 -63.71810366 282.78041305 -63.71806154 281.56814644 C-63.71765511 262.50050029 -63.7272243 243.43287389 -63.74132379 224.36523345 C-63.7556919 204.77954591 -63.76259374 185.19386799 -63.76173002 165.60817504 C-63.7613982 154.6151914 -63.76413867 143.62222846 -63.77490807 132.62924957 C-63.78401878 123.26952358 -63.78618361 113.90982768 -63.77939864 104.55009916 C-63.77613634 99.77700782 -63.77606632 95.0039742 -63.78475189 90.23088837 C-63.79263055 85.85614458 -63.79117152 81.48150416 -63.78246776 77.10676286 C-63.78093578 75.52940949 -63.78273747 73.95204836 -63.78832784 72.37470415 C-63.85378488 52.58524366 -60.14177479 34.17809502 -46.40397644 19.04867554 C-33.11943045 6.40200962 -18.17762061 -0.05973905 0 0 Z M-24.53288269 29.26742554 C-25.83225769 30.10273804 -25.83225769 30.10273804 -27.15788269 30.95492554 C-36.87374542 40.41510767 -41.24452865 52.14928058 -41.6258167 65.52841616 C-41.66506087 69.63283784 -41.6711547 73.73617366 -41.66659546 77.84072876 C-41.66846507 79.43537918 -41.67076637 81.03002914 -41.67346078 82.62467837 C-41.67956665 86.99585053 -41.67944662 91.36700352 -41.67826641 95.73817897 C-41.67806209 100.45678803 -41.68358408 105.17539099 -41.68832397 109.89399719 C-41.69662443 119.13462645 -41.69937854 128.37524933 -41.69993635 137.61588201 C-41.7004118 145.12846155 -41.70246798 152.64103899 -41.70563698 160.15361786 C-41.7144419 181.46118927 -41.71905661 202.76875566 -41.7183065 224.0763289 C-41.71826655 225.22462028 -41.71822659 226.37291167 -41.71818542 227.55599976 C-41.71814454 228.70569594 -41.71810366 229.85539211 -41.71806154 231.03992757 C-41.71765512 249.67108338 -41.72722419 268.30221898 -41.74132379 286.93336895 C-41.75569264 306.07157162 -41.76259369 325.20976443 -41.76173002 344.34797263 C-41.76139822 355.08944537 -41.76413759 365.83089693 -41.77490807 376.57236481 C-41.78401975 385.71799388 -41.78618281 394.86359214 -41.77939864 404.00922379 C-41.77613683 408.67295124 -41.77606455 413.33661961 -41.78475189 418.00034142 C-41.79263273 422.27516318 -41.79116932 426.54987918 -41.78246776 430.82469842 C-41.78093626 432.36571287 -41.78273566 433.90673528 -41.78832784 435.44774035 C-41.84421781 451.95071771 -40.35437057 466.97197252 -28.50944519 479.52133179 C-18.70005803 488.18693665 -8.1297959 490.72421587 4.63676453 490.65510559 C6.43750402 490.6631839 6.43750402 490.6631839 8.27462208 490.6714254 C11.58528972 490.68320827 14.89545045 490.68165679 18.20609736 490.67425859 C21.78493855 490.66951236 25.36372669 490.6820496 28.94255066 490.692276 C35.94549695 490.70944116 42.94835341 490.71030874 49.95131527 490.7050631 C55.64561901 490.70101576 61.33989628 490.70247164 67.03419876 490.70781136 C67.8457596 490.70855978 68.65732045 490.7093082 69.49347404 490.7100793 C71.1423552 490.71161084 72.79123635 490.71314918 74.44011749 490.71469427 C89.89088739 490.72841115 105.34160661 490.72298742 120.79237534 490.71150906 C134.91378268 490.70157839 149.03505896 490.7145159 163.15644608 490.73844325 C177.67180704 490.762852 192.187107 490.7724377 206.70248806 490.76579052 C214.84555506 490.76230213 222.98852129 490.76450514 231.13157272 490.78204155 C238.06382 490.7967858 244.99589557 490.79737008 251.92813955 490.77997064 C255.46173734 490.77147629 258.99502868 490.76927225 262.52861023 490.78462219 C266.36706342 490.80108941 270.20504722 490.78628079 274.04350281 490.76863098 C275.14926127 490.77823599 276.25501974 490.78784099 277.39428604 490.79773706 C287.14174758 490.70579356 295.65485001 488.26288648 303.46711731 482.26742554 C304.45711731 481.54555054 305.44711731 480.82367554 306.46711731 480.07992554 C315.41392794 472.37442633 319.52468227 460.74850923 320.46711731 449.26742554 C320.60652431 444.8969331 320.59779589 440.52935711 320.58737183 436.1569519 C320.58822625 434.84337975 320.58908068 433.5298076 320.58996099 432.17643023 C320.59218906 428.54599028 320.58820784 424.91558002 320.58318293 421.28514385 C320.57885432 417.36432079 320.58032657 413.44349934 320.58108521 409.52267456 C320.58160891 402.73474228 320.57847811 395.94681963 320.57284737 389.15888977 C320.56471162 379.34474845 320.56211502 369.53061177 320.56085937 359.71646744 C320.55867212 343.79269563 320.55202087 327.86892894 320.54255676 311.94515991 C320.53337421 296.47901434 320.5262975 281.01287016 320.52204895 265.54672241 C320.52178623 264.59298562 320.5215235 263.63924882 320.52125282 262.65661091 C320.51994776 257.87187319 320.51868405 253.08713546 320.51744092 248.30239773 C320.50707846 208.62407007 320.48946901 168.94574814 320.46711731 129.26742554 C319.40524704 129.2615593 318.34337677 129.25569305 317.24932861 129.24964905 C307.22966688 129.19237242 297.21022115 129.11958487 287.19077969 129.03171062 C282.0399883 128.98703208 276.88927555 128.94777031 271.73835754 128.92098999 C266.76504492 128.89493206 261.79203532 128.85451179 256.8189106 128.80423927 C254.92400451 128.78758744 253.02904602 128.77606269 251.13407707 128.76981163 C248.47450563 128.76015226 245.81570648 128.73207118 243.15632629 128.69979858 C242.37732971 128.70123367 241.59833313 128.70266876 240.79573059 128.70414734 C235.65852947 128.61630299 232.01450915 127.71746553 227.46711731 125.26742554 C225.41695092 122.19217596 225.21452768 121.54498361 225.18864441 118.0723114 C225.17189919 116.79138107 225.17189919 116.79138107 225.15481567 115.48457336 C225.15265549 114.5509346 225.1504953 113.61729584 225.14826965 112.65536499 C225.13822403 111.66981628 225.12817841 110.68426758 225.11782837 109.66885376 C225.08689868 106.40614412 225.06993397 103.1435169 225.05305481 99.88070679 C225.03435104 97.62054226 225.01477823 95.36038476 224.99436951 93.10023499 C224.94295875 87.1474217 224.90338088 81.19458576 224.8662262 75.2416687 C224.82624259 69.16881666 224.77512454 63.09605962 224.72492981 57.02328491 C224.62806462 45.10473177 224.54369376 33.18612509 224.46711731 21.26742554 C195.62554469 21.1989044 166.78398171 21.14585356 137.94234364 21.11422955 C134.53295817 21.11047768 131.12357285 21.10659469 127.71418762 21.10263062 C127.03547518 21.10184368 126.35676274 21.10105675 125.65748325 21.10024597 C114.68540294 21.08721214 103.71337006 21.06356951 92.74131784 21.03596715 C81.47278064 21.00785654 70.20426703 20.99146172 58.93569303 20.98516005 C52.61059754 20.98125489 46.28560942 20.97209979 39.9605484 20.95023537 C34.00163865 20.92980443 28.04288005 20.92360513 22.0839386 20.92810249 C19.90234301 20.92728025 17.72074213 20.92135421 15.53917694 20.90980911 C0.96703269 20.83650384 -11.94247769 21.03022475 -24.53288269 29.26742554 Z M246.46711731 40.26742554 C246.46711731 62.37742554 246.46711731 84.48742554 246.46711731 107.26742554 C265.93711731 107.26742554 285.40711731 107.26742554 305.46711731 107.26742554 C303.90324568 104.13968228 303.02915203 102.57526057 300.74446106 100.20101929 C299.9440741 99.35809326 299.9440741 99.35809326 299.1275177 98.49813843 C298.27468201 97.61049805 298.27468201 97.61049805 297.40461731 96.70492554 C293.45091946 92.52607528 289.61474368 88.33500886 286.02961731 83.82992554 C281.22780718 77.82988182 275.9643714 72.30089628 270.69758606 66.71273804 C267.76001241 63.59308684 264.9102222 60.41079146 262.11164856 57.16586304 C260.04625905 54.78158916 257.94699803 52.42939959 255.84211731 50.07992554 C255.12797668 49.28199585 254.41383606 48.48406616 253.67805481 47.66195679 C251.34251985 45.13248165 248.90155441 42.70186264 246.46711731 40.26742554 Z " fill="#F44236" transform="translate(116.53288269042969,-0.267425537109375)"/>
    <path d="M0 0 C0.80913782 -0.00367669 1.61827564 -0.00735338 2.45193279 -0.01114148 C5.16082259 -0.02214659 7.86967399 -0.02601677 10.57858276 -0.02983093 C12.52204001 -0.036098 14.46549606 -0.04274502 16.40895081 -0.04974365 C22.78954234 -0.07075828 29.17013403 -0.08114393 35.55075073 -0.09111023 C37.7499073 -0.09515882 39.94906375 -0.09927577 42.14822006 -0.10346031 C52.48148623 -0.12250662 62.81474529 -0.13673858 73.14802563 -0.14507228 C85.06365617 -0.15484159 96.97910079 -0.1811556 108.89466584 -0.22157317 C118.11269827 -0.25176438 127.33067749 -0.26654403 136.54875839 -0.26985329 C142.05050466 -0.27220041 147.55205218 -0.28111694 153.05374527 -0.30631447 C158.2330379 -0.32965258 163.41200173 -0.33380529 168.59133339 -0.32355309 C170.48632083 -0.32305901 172.38132479 -0.32934151 174.27626228 -0.34310913 C189.96991803 -0.45069963 200.62918835 1.74306398 212.54293823 12.52217102 C219.45834014 20.16550998 226.01065244 29.14456474 226.06510925 39.8444519 C226.07584221 41.2930233 226.07584221 41.2930233 226.08679199 42.77085876 C226.0894809 43.82904816 226.0921698 44.88723755 226.09494019 45.97749329 C226.10151138 47.09328262 226.10808258 48.20907196 226.11485291 49.3586731 C226.13460156 53.06030848 226.14625366 56.76190322 226.15621948 60.46357727 C226.16029501 61.72812178 226.16437054 62.99266628 226.16856956 64.29553032 C226.18728703 70.30125362 226.20184897 76.30695231 226.21018153 82.31269699 C226.21993509 89.22736384 226.24620476 96.14170895 226.28668243 103.05626255 C226.32060154 109.0582261 226.33233661 115.06003482 226.33638573 121.06210136 C226.3412487 123.60770279 226.35285431 126.15330085 226.37142372 128.69883919 C226.39584903 132.26984625 226.39484304 135.84002148 226.38790894 139.41108704 C226.40071899 140.45510681 226.41352905 141.49912659 226.42672729 142.57478333 C226.37763061 149.54248924 224.94501805 154.88398996 221.91793823 161.14717102 C221.46032104 162.09849915 221.00270386 163.04982727 220.53121948 164.02998352 C214.27823606 174.8083994 205.08475486 181.72703828 193.24922276 185.70852947 C189.81631674 186.354446 186.39841402 186.29518736 182.91816711 186.29434204 C182.10580017 186.29801873 181.29343322 186.30169542 180.45644909 186.30548352 C177.73063374 186.31650833 175.00485652 186.32036219 172.27902222 186.32417297 C170.32586038 186.33043863 168.37269974 186.33708552 166.41954041 186.34408569 C160.00104603 186.36511969 153.58255144 186.37548876 147.16403198 186.38545227 C144.95280507 186.38950034 142.74157829 186.39361727 140.53035164 186.39780235 C130.13941695 186.41685405 119.74848935 186.43108407 109.35754055 186.43941432 C97.3728498 186.44918136 85.38834401 186.47548715 73.40371841 186.51591522 C64.13475116 186.54610655 54.86583683 186.56088614 45.59682137 186.56419533 C40.06376155 186.56654273 34.53089933 186.5754627 28.99789238 186.60065651 C23.78824485 186.62399436 18.57892422 186.62814742 13.3692379 186.61789513 C11.46296347 186.61740102 9.55667263 186.62368444 7.65044785 186.63745117 C-7.05172092 186.73764081 -17.72587825 185.29662536 -29.08206177 175.14717102 C-29.70983521 174.61221008 -30.33760864 174.07724915 -30.98440552 173.52607727 C-38.14859735 166.98894818 -43.50322668 157.49548497 -44.27303696 147.72274017 C-44.35570386 144.83431967 -44.37514795 141.95182355 -44.37258911 139.06221008 C-44.38266495 137.41932007 -44.38266495 137.41932007 -44.39294434 135.74324036 C-44.41189582 132.13304571 -44.41584725 128.52303728 -44.41799927 124.91279602 C-44.42442956 122.39324366 -44.4311581 119.87369204 -44.43817139 117.35414124 C-44.45013732 112.07517802 -44.45393884 106.79626173 -44.45266724 101.51728821 C-44.45146744 95.439782 -44.47254468 89.36263183 -44.50415456 83.28521562 C-44.53359737 77.41245267 -44.54063955 71.53982906 -44.53944778 65.66699982 C-44.54179969 63.18084511 -44.55059992 60.69468744 -44.56611252 58.20858002 C-44.5858296 54.7219944 -44.57991098 51.23631197 -44.56790161 47.74971008 C-44.58476013 46.22655182 -44.58476013 46.22655182 -44.60195923 44.67262268 C-44.48964586 31.76346206 -39.09559633 21.42872683 -30.51956177 12.02217102 C-21.75213248 3.57632698 -11.91544783 -0.00292033 0 0 Z M-20.08206177 28.14717102 C-24.58348406 35.07624887 -25.81351948 41.06669011 -25.72903442 49.22138977 C-25.73779602 50.27967987 -25.74655762 51.33796997 -25.75558472 52.42832947 C-25.77744121 55.89753741 -25.76307382 59.365452 -25.74612427 62.83467102 C-25.74949632 65.262652 -25.75435218 67.69063133 -25.76062012 70.11860657 C-25.76797289 75.1956751 -25.75733673 80.2723024 -25.73391724 85.34931946 C-25.70543137 91.83901089 -25.72184378 98.32766823 -25.75177956 104.81732178 C-25.7698952 109.82754733 -25.76407476 114.83752997 -25.75114059 119.84776306 C-25.74781841 122.23983382 -25.75185156 124.63192704 -25.76353836 127.02397156 C-25.77631673 130.37422134 -25.75677017 133.72282433 -25.72903442 137.07295227 C-25.73915558 138.0498703 -25.74927673 139.02678833 -25.75970459 140.03330994 C-25.64021718 147.87125743 -23.46598012 154.42899115 -18.12169838 160.30117798 C-11.73365529 166.45246851 -4.71917594 168.60894999 4.032547 168.53485107 C4.80890725 168.54023661 5.58526751 168.54562215 6.38515383 168.55117089 C8.96517616 168.56538408 11.54468058 168.55836339 14.12472534 168.55122375 C15.98320424 168.55693079 17.84167964 168.56389634 19.70014954 168.57202148 C24.73322819 168.58993078 29.76613228 168.58878873 34.7992332 168.5830791 C39.00645973 168.57998414 43.21365288 168.58608311 47.42087466 168.59211785 C57.34855377 168.60615405 67.27614681 168.6046092 77.2038269 168.59321594 C87.43426419 168.58173444 97.66443934 168.59581306 107.89484209 168.62261242 C116.68999446 168.64478653 125.48506465 168.65140296 134.28024298 168.64553601 C139.52811402 168.64216948 144.77581703 168.64456141 150.02366447 168.66178703 C154.9592579 168.67728141 159.89446364 168.67327289 164.83004189 168.65448189 C166.63716942 168.65080298 168.44432583 168.65388406 170.2514267 168.66436768 C182.63069127 168.73067921 191.80247633 167.80724713 201.19137573 159.07295227 C207.86822904 151.62569281 208.06799968 142.95125473 208.0632019 133.4132843 C208.06656052 132.44990143 208.06991913 131.48651855 208.07337952 130.49394226 C208.08285579 127.31844279 208.08483091 124.14299624 208.08590698 120.96748352 C208.08912169 118.75319904 208.09248593 116.53891477 208.09599304 114.32463074 C208.10197587 109.68620817 208.10383379 105.04780421 208.10324097 100.40937805 C208.10313935 94.47569999 208.11679473 88.5421416 208.13401318 82.6084919 C208.14514936 78.03590856 208.14715968 73.46335402 208.14663124 68.89075851 C208.14780879 66.70357221 208.1522179 64.5163851 208.15996361 62.32921219 C208.16979677 59.26600585 208.16687233 56.20305759 208.16085815 53.1398468 C208.16647766 52.24296143 208.17209717 51.34607605 208.17788696 50.42201233 C208.12668446 40.12237899 205.52785107 32.25742744 198.47262573 24.57295227 C192.57458788 19.20670471 185.62772791 17.6931948 177.84802246 17.75949097 C177.07645132 17.75410543 176.30488019 17.74871989 175.50992811 17.74317116 C172.94605822 17.7289591 170.38270959 17.73597839 167.81881714 17.74311829 C165.97181282 17.73741114 164.12481203 17.73044555 162.27781677 17.72232056 C157.27566141 17.70441119 152.27368169 17.70555348 147.27150393 17.71126294 C143.08922487 17.71435829 138.90697938 17.70825841 134.7247051 17.7022242 C124.85451731 17.68818759 114.98441608 17.68973281 105.11422729 17.7011261 C94.94629335 17.71260404 84.77862327 17.69853506 74.61072409 17.67172962 C65.86736022 17.64954633 57.12407902 17.64294125 48.38068902 17.64880604 C43.16464377 17.6521708 37.9487676 17.64979252 32.73274612 17.63255501 C27.82587607 17.61704627 22.9193957 17.62108499 18.01254082 17.63986015 C16.21712123 17.64353529 14.42167251 17.64046907 12.62627983 17.62997437 C0.33159546 17.56362356 -11.5683511 18.04322851 -20.08206177 28.14717102 Z " fill="#F44236" transform="translate(165.08206176757813,162.8528289794922)"/>
    <path d="M0 0 C4.08682022 1.10533216 7.17196555 3.88232942 9.31430054 7.46511841 C10.34399821 9.68583491 11.2610855 11.9256963 12.1484375 14.20703125 C12.49070877 15.04591385 12.83298004 15.88479645 13.18562317 16.74909973 C14.28836768 19.46193032 15.36719047 22.18355175 16.4453125 24.90625 C17.19693524 26.77194724 17.95011501 28.63701795 18.70483398 30.50146484 C19.82887553 33.28027072 20.9512001 36.05967018 22.06639099 38.84204102 C24.15675764 44.05563782 26.29964455 49.23808927 28.52734375 54.39453125 C28.99817383 55.48789795 29.46900391 56.58126465 29.95410156 57.70776367 C30.79524104 59.65041782 31.64428516 61.5896775 32.50292969 63.5246582 C34.59069115 68.40426898 35.76950682 72.17695297 35.1953125 77.59375 C33.94075278 80.41650936 32.91146528 82.05663541 30.4453125 83.90625 C26.19055762 85.20631399 22.56325625 85.15336335 18.4453125 83.46875 C16.1953125 81.59375 16.1953125 81.59375 13.1953125 75.59375 C3.2953125 75.59375 -6.6046875 75.59375 -16.8046875 75.59375 C-18.1246875 77.90375 -19.4446875 80.21375 -20.8046875 82.59375 C-23.29624937 84.56981631 -24.9843925 84.61704509 -28.1796875 85.03125 C-32.89320886 84.46237673 -34.65957184 83.11328419 -37.8046875 79.59375 C-39.18221874 74.09604641 -38.53186484 70.72448224 -36.43359375 65.5234375 C-36.16414444 64.84457489 -35.89469513 64.16571228 -35.61708069 63.46627808 C-34.69764367 61.16769356 -33.75248823 58.88077497 -32.8046875 56.59375 C-32.10236064 54.87286056 -31.40038733 53.15182679 -30.69873047 51.43066406 C-28.80082602 46.79887905 -26.87427094 42.17959224 -24.9362793 37.56445312 C-23.73591736 34.70380729 -22.5425176 31.84032336 -21.34960938 28.9765625 C-20.57333092 27.12222236 -19.79665231 25.26804968 -19.01953125 23.4140625 C-18.67043198 22.57529572 -18.3213327 21.73652893 -17.96165466 20.87234497 C-16.1600272 16.59613303 -14.27992143 12.36017376 -12.29125977 8.16748047 C-11.72182396 6.96041946 -11.72182396 6.96041946 -11.1408844 5.72897339 C-8.2657475 1.13454605 -5.32719734 0.25881121 0 0 Z M-2.8046875 39.59375 C-3.64233018 41.55024397 -4.47467809 43.50900556 -5.3046875 45.46875 C-5.76875 46.55929687 -6.2328125 47.64984375 -6.7109375 48.7734375 C-7.92521206 51.40036929 -7.92521206 51.40036929 -7.8046875 53.59375 C-3.8446875 53.59375 0.1153125 53.59375 4.1953125 53.59375 C3.5146875 51.2425 3.5146875 51.2425 2.8203125 48.84375 C2.56507813 47.96203125 2.30984375 47.0803125 2.046875 46.171875 C1.2743191 43.83294428 0.35905574 41.75932438 -0.8046875 39.59375 C-1.4646875 39.59375 -2.1246875 39.59375 -2.8046875 39.59375 Z " fill="#F44236" transform="translate(246.8046875,214.40625)"/>
    <path d="M0 0 C4.92002355 4.26884396 8.07376115 9.46600625 11.51367188 14.91210938 C12.62843299 16.63956363 13.80901449 18.32418854 15 20 C15.66 20 16.32 20 17 20 C18.22541421 18.45030601 18.22541421 18.45030601 19.390625 16.421875 C19.85339844 15.67292969 20.31617188 14.92398438 20.79296875 14.15234375 C21.75319671 12.56912606 22.7090393 10.98323907 23.66015625 9.39453125 C26.59908612 4.65823931 28.97652096 1.53546715 34 -1 C36.91416878 -1.51643497 39.24664477 -1.06289689 42 0 C45.40535643 2.97968688 46.78473483 4.85909458 47.625 9.3125 C46.08812605 18.38005629 39.20071826 26.27867808 33.93359375 33.6015625 C33.41152344 34.35695312 32.88945312 35.11234375 32.3515625 35.890625 C31.87541504 36.56125977 31.39926758 37.23189453 30.90869141 37.92285156 C29.69571456 40.69555629 30.09860191 42.14845364 31 45 C32.50228144 47.47551085 34.0297634 49.8225666 35.6875 52.1875 C36.59632571 53.52387432 37.50387778 54.86111568 38.41015625 56.19921875 C38.85246582 56.84810059 39.29477539 57.49698242 39.75048828 58.16552734 C48.14804469 70.49441341 48.14804469 70.49441341 47 77 C45.74544028 79.82275936 44.71615278 81.46288541 42.25 83.3125 C38.45583207 84.47182909 34.71475861 84.64334378 30.96972656 83.23828125 C28.60647035 81.75260506 27.51772971 80.26368627 25.984375 77.9375 C25.45585937 77.14085937 24.92734375 76.34421875 24.3828125 75.5234375 C23.84398437 74.69070313 23.30515625 73.85796875 22.75 73 C21.91855469 71.75089844 21.91855469 71.75089844 21.0703125 70.4765625 C17 64.28086515 17 64.28086515 17 62 C12.89940423 65.71936125 10.25856263 70.17026898 7.44335938 74.8671875 C4.79674233 79.14213912 2.08426064 83.20556923 -3.0625 84.53125 C-7.93376602 84.45268119 -10.46507985 83.64203894 -14 80 C-15.63150604 76.73698793 -15.53633588 73.52639887 -15 70 C-11.75995878 62.55656747 -6.60824438 55.92187285 -1.84570312 49.3984375 C1.24517372 45.29196996 1.24517372 45.29196996 1.6484375 40.44140625 C1.10445313 39.63574219 0.56046875 38.83007812 0 38 C-0.73677424 36.76497679 -1.47233622 35.52922998 -2.20703125 34.29296875 C-3.0713923 32.92186778 -3.93999788 31.55343483 -4.8125 30.1875 C-6.10357481 28.1463908 -7.39464579 26.1052873 -8.68383789 24.06298828 C-9.58407468 22.65193265 -10.49803947 21.24956701 -11.42358398 19.85498047 C-11.87677002 19.16162598 -12.32995605 18.46827148 -12.796875 17.75390625 C-13.20905273 17.13459229 -13.62123047 16.51527832 -14.04589844 15.87719727 C-16.06988514 11.89499826 -15.52024382 7.92490215 -14.375 3.6875 C-10.43646377 -1.14615811 -5.71917207 -1.66375915 0 0 Z " fill="#F44236" transform="translate(316,215)"/>
    <path d="M0 0 C0.82355988 -0.00570007 1.64711975 -0.01140015 2.49563599 -0.01727295 C4.23552167 -0.02670389 5.97542507 -0.03324935 7.71533203 -0.03710938 C10.36653002 -0.04681539 13.01695251 -0.07785632 15.66796875 -0.109375 C17.36197458 -0.11590574 19.05598594 -0.12115593 20.75 -0.125 C21.53768768 -0.1373468 22.32537537 -0.1496936 23.13693237 -0.16241455 C27.98903908 -0.14293212 31.30924002 0.50922021 35.5078125 3.203125 C37.89855528 6.59643733 38.49743136 8.61140016 38.5703125 12.765625 C37.50476356 16.21298923 36.43846356 18.15770798 33.52978516 20.34741211 C30.85344937 21.48005603 28.67566508 21.40278362 25.78125 21.33203125 C24.79302246 21.31342041 23.80479492 21.29480957 22.78662109 21.27563477 C22.03461426 21.25170654 21.28260742 21.22777832 20.5078125 21.203125 C20.52446709 22.27641304 20.52446709 22.27641304 20.54145813 23.37138367 C20.64176775 30.12441518 20.71783133 36.87723792 20.76687336 43.63084698 C20.79293477 47.10277349 20.82826637 50.57408292 20.88500977 54.0456543 C20.94988084 58.03960999 20.97402112 62.03292058 20.99609375 66.02734375 C21.02190018 67.27021652 21.0477066 68.51308929 21.07429504 69.79362488 C21.07741905 79.39610634 21.07741905 79.39610634 18.10229492 82.46411133 C13.95337461 85.24502404 11.56089037 85.63135194 6.5078125 85.203125 C3.41792093 83.41785432 1.9119615 82.05617247 0.38330078 78.82958984 C-0.90688099 73.48537343 -0.73665623 68.28203428 -0.6875 62.8046875 C-0.6846701 61.61459076 -0.68184021 60.42449402 -0.67892456 59.19833374 C-0.66775567 55.40816063 -0.64265667 51.61822634 -0.6171875 47.828125 C-0.60715347 45.25390967 -0.59802835 42.67969062 -0.58984375 40.10546875 C-0.56782707 33.80460642 -0.534382 27.50388278 -0.4921875 21.203125 C-1.52279297 21.22379028 -1.52279297 21.22379028 -2.57421875 21.24487305 C-3.47527344 21.25558838 -4.37632812 21.26630371 -5.3046875 21.27734375 C-6.19800781 21.29112061 -7.09132812 21.30489746 -8.01171875 21.3190918 C-11.29813049 21.16544558 -13.0563396 20.41061216 -15.4921875 18.203125 C-17.81287005 14.51113003 -17.70439278 11.24319912 -17.03515625 7.0703125 C-16.21098632 4.23611662 -14.86357161 2.89697079 -12.4921875 1.203125 C-8.38174608 -0.07055154 -4.26609444 0.02289952 0 0 Z " fill="#F44236" transform="translate(166.4921875,213.796875)"/>
</svg>
