<?xml version="1.0" encoding="UTF-8"?>
<svg version="1.1" xmlns="http://www.w3.org/2000/svg" width="512" height="512">
  <path d="M0 0 C1.02434452 -0.00453111 2.04868904 -0.00906223 3.1040743 -0.01373065 C6.51704604 -0.02633388 9.92985738 -0.02475693 13.34284973 -0.02310181 C15.79746708 -0.02908933 18.25208255 -0.03589539 20.70669556 -0.04345703 C26.6692153 -0.05926534 32.6316726 -0.06556402 38.59420749 -0.06668179 C43.44043838 -0.06763415 48.28665629 -0.0717538 53.13288307 -0.07808304 C66.88370445 -0.09567562 80.6344947 -0.10492423 94.38532742 -0.10342209 C95.12541135 -0.10334218 95.86549527 -0.10326227 96.62800598 -0.10317993 C97.73949146 -0.10305729 97.73949146 -0.10305729 98.87343118 -0.10293217 C110.89659854 -0.10211832 122.91964092 -0.12128612 134.94277211 -0.14945666 C147.29865052 -0.17817796 159.65446792 -0.1919976 172.01038057 -0.19026911 C178.94325538 -0.18960528 185.8759989 -0.19509553 192.80884361 -0.21662521 C199.32354601 -0.23672785 205.8380181 -0.23617134 212.35275078 -0.22159195 C214.74488988 -0.21949607 217.13704612 -0.22425081 219.52915573 -0.23631287 C222.79149489 -0.2516996 226.05286788 -0.24250016 229.31518555 -0.22705078 C230.26430649 -0.23733791 231.21342744 -0.24762503 232.19130963 -0.25822389 C238.99309386 -0.18690967 242.38793877 1.20828504 247.26789856 6.05648804 C247.76676575 6.66234741 248.26563293 7.26820679 248.77961731 7.89242554 C251.45563486 11.07056558 254.17705145 14.18840549 256.96711731 17.26742554 C260.23102579 20.88418899 263.4550268 24.53132162 266.65461731 28.20492554 C269.49981021 31.44255883 272.39565567 34.63428844 275.28352356 37.83383179 C277.17560416 39.942537 279.04617489 42.06662355 280.90461731 44.20492554 C283.71534256 47.43302066 286.58291631 50.60480996 289.46711731 53.76742554 C292.92039884 57.55405552 296.32810782 61.37218874 299.68977356 65.24008179 C301.76071218 67.60231727 303.86224579 69.93538407 305.96711731 72.26742554 C309.23102579 75.88418899 312.4550268 79.53132162 315.65461731 83.20492554 C317.73922895 85.57706982 319.85140375 87.92298619 321.96711731 90.26742554 C342.58972196 113.15816776 342.58972196 113.15816776 342.59575176 121.88172054 C342.59897621 123.05768101 342.60220065 124.23364147 342.60552281 125.4452371 C342.60397421 126.74345366 342.60242561 128.04167023 342.60083008 129.37922668 C342.60269741 130.76744669 342.6049978 132.15566617 342.6076954 133.54388481 C342.61383001 137.36767733 342.61367784 141.19144804 342.61250103 145.01524436 C342.61229742 149.13611749 342.61781207 153.25698354 342.62255859 157.37785339 C342.63087605 165.45676896 342.63361398 173.53567723 342.63417097 181.61459672 C342.63464585 188.18383664 342.63669919 194.75307415 342.6398716 201.32231331 C342.64868307 219.94788673 342.65329049 238.57345439 342.65254112 257.19902992 C342.65248119 258.70616334 342.65248119 258.70616334 342.65242004 260.2437439 C342.65237916 261.24972746 342.65233828 262.25571102 342.65229616 263.29217894 C342.6518901 279.57953805 342.6614483 295.866874 342.67555841 312.15422641 C342.68993261 328.87856451 342.69682794 345.60289133 342.69596463 362.32723576 C342.69563291 371.71621335 342.69836907 381.10516669 342.70914268 390.49413872 C342.71826167 398.49254925 342.72041165 406.49092455 342.71363326 414.48933803 C342.71037441 418.5677318 342.71028822 422.64605805 342.71898651 426.72444534 C342.72688121 430.46469949 342.72538994 434.20483291 342.71670238 437.94508422 C342.71445468 439.92536757 342.72197292 441.90565474 342.72994202 443.88592333 C342.65959232 462.2341084 337.94992022 479.59691661 325.33821106 493.48617554 C311.27850151 506.87078421 296.13062914 512.5916714 277.06968689 512.52812195 C275.84469258 512.5319475 274.61969827 512.53577304 273.35758293 512.53971452 C269.97860655 512.54821396 266.59984912 512.54782383 263.22087932 512.54353392 C259.56842974 512.54105881 255.91600532 512.55009057 252.26356506 512.55757141 C245.11625333 512.57029863 237.96897919 512.57211458 230.82165803 512.56977115 C225.01008238 512.56798563 219.19851811 512.56974263 213.38694382 512.57399559 C212.1446243 512.57488837 212.1446243 512.57488837 210.87720742 512.57579919 C209.19450427 512.57701099 207.51180112 512.57822512 205.82909797 512.57944157 C190.06072788 512.59030947 174.29237919 512.58815816 158.5240079 512.58205672 C144.11163031 512.5768881 129.69932031 512.58814291 115.28695609 512.60715494 C100.47327909 512.62654593 85.65963405 512.63478714 70.84594429 512.63103169 C62.53521937 512.62912158 54.22455198 512.6315887 45.91383743 512.64574623 C38.83888652 512.65767707 31.76402855 512.65904585 24.68907632 512.64695606 C21.08261606 512.64107933 17.47632567 512.63993432 13.86987686 512.65195847 C9.95267272 512.66486643 6.03572414 512.65432416 2.11851501 512.64164734 C0.98941086 512.64902162 -0.1396933 512.65639591 -1.30301273 512.66399366 C-17.75319061 512.55229941 -33.77643589 505.88462508 -45.53288269 494.26742554 C-60.47850317 477.35335749 -63.69017336 460.08338568 -63.66659546 438.35244751 C-63.66846498 436.7206739 -63.67076624 435.08890074 -63.67346078 433.45712829 C-63.67956779 428.98334209 -63.67944648 424.50957461 -63.67826641 420.0357852 C-63.67806212 415.20674572 -63.68358381 410.37771222 -63.68832397 405.54867554 C-63.69662506 396.09147509 -63.69937857 386.63428087 -63.69993635 377.17707708 C-63.70041177 369.48858221 -63.7024678 361.80008938 -63.70563698 354.11159515 C-63.71444207 332.30598601 -63.71905658 310.50038178 -63.7183065 288.69477084 C-63.71826655 287.5195965 -63.71822659 286.34442216 -63.71818542 285.13363647 C-63.71814454 283.95702476 -63.71810366 282.78041305 -63.71806154 281.56814644 C-63.71765511 262.50050029 -63.7272243 243.43287389 -63.74132379 224.36523345 C-63.7556919 204.77954591 -63.76259374 185.19386799 -63.76173002 165.60817504 C-63.7613982 154.6151914 -63.76413867 143.62222846 -63.77490807 132.62924957 C-63.78401878 123.26952358 -63.78618361 113.90982768 -63.77939864 104.55009916 C-63.77613634 99.77700782 -63.77606632 95.0039742 -63.78475189 90.23088837 C-63.79263055 85.85614458 -63.79117152 81.48150416 -63.78246776 77.10676286 C-63.78093578 75.52940949 -63.78273747 73.95204836 -63.78832784 72.37470415 C-63.85378488 52.58524366 -60.14177479 34.17809502 -46.40397644 19.04867554 C-33.11943045 6.40200962 -18.17762061 -0.05973905 0 0 Z M-24.53288269 29.26742554 C-25.83225769 30.10273804 -25.83225769 30.10273804 -27.15788269 30.95492554 C-36.87374542 40.41510767 -41.24452865 52.14928058 -41.6258167 65.52841616 C-41.66506087 69.63283784 -41.6711547 73.73617366 -41.66659546 77.84072876 C-41.66846507 79.43537918 -41.67076637 81.03002914 -41.67346078 82.62467837 C-41.67956665 86.99585053 -41.67944662 91.36700352 -41.67826641 95.73817897 C-41.67806209 100.45678803 -41.68358408 105.17539099 -41.68832397 109.89399719 C-41.69662443 119.13462645 -41.69937854 128.37524933 -41.69993635 137.61588201 C-41.7004118 145.12846155 -41.70246798 152.64103899 -41.70563698 160.15361786 C-41.7144419 181.46118927 -41.71905661 202.76875566 -41.7183065 224.0763289 C-41.71826655 225.22462028 -41.71822659 226.37291167 -41.71818542 227.55599976 C-41.71814454 228.70569594 -41.71810366 229.85539211 -41.71806154 231.03992757 C-41.71765512 249.67108338 -41.72722419 268.30221898 -41.74132379 286.93336895 C-41.75569264 306.07157162 -41.76259369 325.20976443 -41.76173002 344.34797263 C-41.76139822 355.08944537 -41.76413759 365.83089693 -41.77490807 376.57236481 C-41.78401975 385.71799388 -41.78618281 394.86359214 -41.77939864 404.00922379 C-41.77613683 408.67295124 -41.77606455 413.33661961 -41.78475189 418.00034142 C-41.79263273 422.27516318 -41.79116932 426.54987918 -41.78246776 430.82469842 C-41.78093626 432.36571287 -41.78273566 433.90673528 -41.78832784 435.44774035 C-41.84421781 451.95071771 -40.35437057 466.97197252 -28.50944519 479.52133179 C-18.70005803 488.18693665 -8.1297959 490.72421587 4.63676453 490.65510559 C6.43750402 490.6631839 6.43750402 490.6631839 8.27462208 490.6714254 C11.58528972 490.68320827 14.89545045 490.68165679 18.20609736 490.67425859 C21.78493855 490.66951236 25.36372669 490.6820496 28.94255066 490.692276 C35.94549695 490.70944116 42.94835341 490.71030874 49.95131527 490.7050631 C55.64561901 490.70101576 61.33989628 490.70247164 67.03419876 490.70781136 C67.8457596 490.70855978 68.65732045 490.7093082 69.49347404 490.7100793 C71.1423552 490.71161084 72.79123635 490.71314918 74.44011749 490.71469427 C89.89088739 490.72841115 105.34160661 490.72298742 120.79237534 490.71150906 C134.91378268 490.70157839 149.03505896 490.7145159 163.15644608 490.73844325 C177.67180704 490.762852 192.187107 490.7724377 206.70248806 490.76579052 C214.84555506 490.76230213 222.98852129 490.76450514 231.13157272 490.78204155 C238.06382 490.7967858 244.99589557 490.79737008 251.92813955 490.77997064 C255.46173734 490.77147629 258.99502868 490.76927225 262.52861023 490.78462219 C266.36706342 490.80108941 270.20504722 490.78628079 274.04350281 490.76863098 C275.14926127 490.77823599 276.25501974 490.78784099 277.39428604 490.79773706 C287.14174758 490.70579356 295.65485001 488.26288648 303.46711731 482.26742554 C304.45711731 481.54555054 305.44711731 480.82367554 306.46711731 480.07992554 C315.41392794 472.37442633 319.52468227 460.74850923 320.46711731 449.26742554 C320.60652431 444.8969331 320.59779589 440.52935711 320.58737183 436.1569519 C320.58822625 434.84337975 320.58908068 433.5298076 320.58996099 432.17643023 C320.59218906 428.54599028 320.58820784 424.91558002 320.58318293 421.28514385 C320.57885432 417.36432079 320.58032657 413.44349934 320.58108521 409.52267456 C320.58160891 402.73474228 320.57847811 395.94681963 320.57284737 389.15888977 C320.56471162 379.34474845 320.56211502 369.53061177 320.56085937 359.71646744 C320.55867212 343.79269563 320.55202087 327.86892894 320.54255676 311.94515991 C320.53337421 296.47901434 320.5262975 281.01287016 320.52204895 265.54672241 C320.52178623 264.59298562 320.5215235 263.63924882 320.52125282 262.65661091 C320.51994776 257.87187319 320.51868405 253.08713546 320.51744092 248.30239773 C320.50707846 208.62407007 320.48946901 168.94574814 320.46711731 129.26742554 C319.40524704 129.2615593 318.34337677 129.25569305 317.24932861 129.24964905 C307.22966688 129.19237242 297.21022115 129.11958487 287.19077969 129.03171062 C282.0399883 128.98703208 276.88927555 128.94777031 271.73835754 128.92098999 C266.76504492 128.89493206 261.79203532 128.85451179 256.8189106 128.80423927 C254.92400451 128.78758744 253.02904602 128.77606269 251.13407707 128.76981163 C248.47450563 128.76015226 245.81570648 128.73207118 243.15632629 128.69979858 C242.37732971 128.70123367 241.59833313 128.70266876 240.79573059 128.70414734 C235.65852947 128.61630299 232.01450915 127.71746553 227.46711731 125.26742554 C225.41695092 122.19217596 225.21452768 121.54498361 225.18864441 118.0723114 C225.17189919 116.79138107 225.17189919 116.79138107 225.15481567 115.48457336 C225.15265549 114.5509346 225.1504953 113.61729584 225.14826965 112.65536499 C225.13822403 111.66981628 225.12817841 110.68426758 225.11782837 109.66885376 C225.08689868 106.40614412 225.06993397 103.1435169 225.05305481 99.88070679 C225.03435104 97.62054226 225.01477823 95.36038476 224.99436951 93.10023499 C224.94295875 87.1474217 224.90338088 81.19458576 224.8662262 75.2416687 C224.82624259 69.16881666 224.77512454 63.09605962 224.72492981 57.02328491 C224.62806462 45.10473177 224.54369376 33.18612509 224.46711731 21.26742554 C195.62554469 21.1989044 166.78398171 21.14585356 137.94234364 21.11422955 C134.53295817 21.11047768 131.12357285 21.10659469 127.71418762 21.10263062 C127.03547518 21.10184368 126.35676274 21.10105675 125.65748325 21.10024597 C114.68540294 21.08721214 103.71337006 21.06356951 92.74131784 21.03596715 C81.47278064 21.00785654 70.20426703 20.99146172 58.93569303 20.98516005 C52.61059754 20.98125489 46.28560942 20.97209979 39.9605484 20.95023537 C34.00163865 20.92980443 28.04288005 20.92360513 22.0839386 20.92810249 C19.90234301 20.92728025 17.72074213 20.92135421 15.53917694 20.90980911 C0.96703269 20.83650384 -11.94247769 21.03022475 -24.53288269 29.26742554 Z M246.46711731 40.26742554 C246.46711731 62.37742554 246.46711731 84.48742554 246.46711731 107.26742554 C265.93711731 107.26742554 285.40711731 107.26742554 305.46711731 107.26742554 C303.90324568 104.13968228 303.02915203 102.57526057 300.74446106 100.20101929 C299.9440741 99.35809326 299.9440741 99.35809326 299.1275177 98.49813843 C298.27468201 97.61049805 298.27468201 97.61049805 297.40461731 96.70492554 C293.45091946 92.52607528 289.61474368 88.33500886 286.02961731 83.82992554 C281.22780718 77.82988182 275.9643714 72.30089628 270.69758606 66.71273804 C267.76001241 63.59308684 264.9102222 60.41079146 262.11164856 57.16586304 C260.04625905 54.78158916 257.94699803 52.42939959 255.84211731 50.07992554 C255.12797668 49.28199585 254.41383606 48.48406616 253.67805481 47.66195679 C251.34251985 45.13248165 248.90155441 42.70186264 246.46711731 40.26742554 Z " fill="#F44236" transform="translate(116.53288269042969,-0.267425537109375)" />
  <path d="M0 0 C1.0715181 -0.01197418 2.14303619 -0.02394836 3.24702454 -0.0362854 C6.75644948 -0.06824125 10.26462497 -0.06367827 13.77416992 -0.05566406 C16.23598144 -0.06412429 18.69778916 -0.07376739 21.15959167 -0.08453369 C26.30803541 -0.10088471 31.4560488 -0.09825303 36.60449219 -0.08300781 C43.17136407 -0.06573967 49.73663457 -0.10285499 56.3032732 -0.15526962 C61.38487886 -0.18850277 66.46610526 -0.18892565 71.54779625 -0.18012238 C73.96728831 -0.18048009 76.38680577 -0.19163619 78.8061924 -0.21422577 C92.37838322 -0.32413036 103.25717384 -0.25286523 114.69213867 7.67871094 C115.42644608 8.17614807 116.16075348 8.67358521 116.91731262 9.18609619 C127.78728206 17.07430435 130.75513239 30.37576757 133.69213867 42.67871094 C134.2498999 42.51862549 134.80766113 42.35854004 135.38232422 42.19360352 C139.69661851 41.23188206 144.10131505 41.40946559 148.50463867 41.36621094 C149.96353516 41.32270508 149.96353516 41.32270508 151.4519043 41.27832031 C158.79121083 41.21372249 163.20510048 42.26357044 168.58666992 47.53417969 C171.0173647 52.24955578 170.68829844 57.58654018 169.69213867 62.67871094 C167.01905776 66.35798557 163.72829692 68.66063182 159.69213867 70.67871094 C158.15545002 70.90338924 156.61245813 71.08667899 155.06713867 71.24121094 C154.24987305 71.325 153.43260742 71.40878906 152.59057617 71.49511719 C151.9640918 71.55570312 151.33760742 71.61628906 150.69213867 71.67871094 C149.11516611 74.22979774 149.11516611 74.22979774 148.69213867 77.67871094 C149.8172051 79.55379986 149.8172051 79.55379986 151.44213867 81.36621094 C158.33534578 89.59914127 157.002925 101.57469779 156.94213867 111.74121094 C156.94987305 113.03865234 156.95760742 114.33609375 156.96557617 115.67285156 C156.94157539 127.51123656 156.52722923 136.56575892 148.06713867 145.42871094 C147.28338867 146.17121094 146.49963867 146.91371094 145.69213867 147.67871094 C143.23346034 150.13738927 143.44311937 150.84371899 143.41870117 154.22167969 C143.39807617 155.13111328 143.37745117 156.04054688 143.35620117 156.97753906 C143.3304248 158.88370195 143.31203849 160.78998096 143.30151367 162.69628906 C143.1451423 168.86861469 142.45042644 172.69994827 138.69213867 177.67871094 C134.2327273 181.23900941 130.12714675 181.1461359 124.66479492 181.14746094 C123.7982579 181.15507446 122.93172089 181.16268799 122.03892517 181.17053223 C120.21087518 181.18131117 118.38276371 181.18419531 116.5546875 181.1796875 C113.76677195 181.17871517 110.98161032 181.22035915 108.1940918 181.26464844 C106.41349855 181.26985599 104.63289578 181.27254362 102.85229492 181.27246094 C102.02399673 181.2888562 101.19569855 181.30525146 100.34230042 181.32214355 C96.2474885 181.27355636 93.51815381 180.97338347 90.24462891 178.39160156 C82.85467822 170.53726087 85.69213867 166.68055057 85.69213867 153.67871094 C58.63213867 153.67871094 31.57213867 153.67871094 3.69213867 153.67871094 C3.69213867 159.61871094 3.69213867 165.55871094 3.69213867 171.67871094 C-1.3146619 179.18891179 -1.3146619 179.18891179 -4.30786133 180.67871094 C-7.29959762 181.10539371 -10.2547852 181.09900206 -13.27270508 181.07714844 C-14.57819054 181.0814537 -14.57819054 181.0814537 -15.91004944 181.08584595 C-17.74830782 181.08788481 -19.58658797 181.08236738 -21.42480469 181.06982422 C-24.23202304 181.05378714 -27.03779745 181.06966863 -29.8449707 181.08886719 C-31.63338533 181.08688434 -33.42179906 181.08303982 -35.21020508 181.07714844 C-36.04680161 181.08322113 -36.88339813 181.08929382 -37.74534607 181.09555054 C-42.43507708 181.03923814 -45.4852046 180.68428379 -49.30786133 177.67871094 C-54.75885689 171.7338645 -53.80217025 165.14028428 -53.70825195 157.55761719 C-53.59265133 151.82365271 -53.59265133 151.82365271 -56.64379883 147.25683594 C-57.52293945 146.73605469 -58.40208008 146.21527344 -59.30786133 145.67871094 C-61.03833008 143.67089844 -61.03833008 143.67089844 -62.49536133 141.55371094 C-62.98391602 140.87050781 -63.4724707 140.18730469 -63.97583008 139.48339844 C-67.88664217 131.2489026 -67.62423841 122.16696355 -67.56860352 113.22900391 C-67.55787851 111.18199045 -67.56855723 109.13585422 -67.58129883 107.08886719 C-67.60660149 87.64656399 -67.60660149 87.64656399 -62.05786133 80.86621094 C-60.30620256 78.88227465 -60.30620256 78.88227465 -59.30786133 76.67871094 C-60.03404325 73.93936827 -60.03404325 73.93936827 -61.30786133 71.67871094 C-61.88793945 71.65292969 -62.46801758 71.62714844 -63.06567383 71.60058594 C-68.56448688 71.20133218 -71.91551711 70.25387484 -76.30786133 66.67871094 C-77.36553711 65.82019531 -77.36553711 65.82019531 -78.44458008 64.94433594 C-80.91442975 61.94116443 -80.84345459 60.08973195 -80.80786133 56.24121094 C-80.82333008 54.57251953 -80.82333008 54.57251953 -80.83911133 52.87011719 C-80.18951575 48.96776726 -79.13270814 47.42352042 -76.30786133 44.67871094 C-70.91369868 40.88465158 -65.51698318 41.29553623 -59.18286133 41.42871094 C-58.19415039 41.43386719 -57.20543945 41.43902344 -56.18676758 41.44433594 C-48.28743377 41.5298497 -48.28743377 41.5298497 -44.30786133 42.67871094 C-44.02813477 41.50695312 -43.7484082 40.33519531 -43.46020508 39.12792969 C-39.92156164 24.97637141 -35.29072775 13.65005638 -22.30786133 5.67871094 C-14.74885578 1.57395205 -8.56794887 -0.0606613 0 0 Z M-10.55786133 33.94824219 C-16.81281258 43.70764157 -17.95971725 59.1120626 -20.30786133 69.67871094 C22.59213867 69.67871094 65.49213867 69.67871094 109.69213867 69.67871094 C106.92297956 48.84463689 106.92297956 48.84463689 96.69213867 30.67871094 C92.0898369 28.21495145 87.67749379 28.38925435 82.59082031 28.40405273 C81.6828923 28.3989418 80.77496429 28.39383087 79.83952332 28.38856506 C76.84371312 28.37468577 73.84813341 28.37562454 70.85229492 28.37792969 C68.76631078 28.37404196 66.68032742 28.36970713 64.59434509 28.36494446 C60.22400343 28.35748591 55.85374255 28.35777099 51.48339844 28.36303711 C45.88683723 28.36883244 40.29060689 28.35189729 34.69410038 28.32869244 C30.38665335 28.31395111 26.07928595 28.31308393 21.77181816 28.31620216 C19.70857526 28.31568919 17.64532787 28.31045603 15.58210945 28.30039024 C12.69547221 28.28803505 9.80947873 28.29481207 6.92285156 28.30639648 C6.07330902 28.29875275 5.22376648 28.29110901 4.34848022 28.28323364 C-1.7821708 28.33753273 -6.09283488 29.44445683 -10.55786133 33.94824219 Z M-38.30786133 97.67871094 C-38.30786133 106.58871094 -38.30786133 115.49871094 -38.30786133 124.67871094 C16.47213867 124.67871094 71.25213867 124.67871094 127.69213867 124.67871094 C127.69213867 115.76871094 127.69213867 106.85871094 127.69213867 97.67871094 C72.91213867 97.67871094 18.13213867 97.67871094 -38.30786133 97.67871094 Z " fill="#F44236" transform="translate(211.307861328125,165.3212890625)" />
</svg>