<?xml version="1.0" encoding="UTF-8"?>
<svg version="1.1" xmlns="http://www.w3.org/2000/svg" width="800" height="800">
  <path d="M0 0 C1.96814604 -0.00271692 3.93629107 -0.00628175 5.9044342 -0.01062012 C11.20187141 -0.01966247 16.49922988 -0.016234 21.79666829 -0.00986195 C27.36830799 -0.0047601 32.93994143 -0.00950487 38.51158142 -0.01263428 C47.86287635 -0.01626151 57.21413958 -0.01150726 66.56542969 -0.00195312 C77.34342935 0.00893219 88.12135334 0.00540023 98.89935118 -0.00560594 C108.19070836 -0.01471054 117.4820429 -0.01594871 126.77340311 -0.0107286 C132.30634102 -0.00762671 137.83924347 -0.00715025 143.37217903 -0.01380157 C148.57537149 -0.0196209 153.77846728 -0.01549505 158.9816494 -0.00401306 C160.87979091 -0.00139097 162.77794069 -0.00208907 164.6760788 -0.00653839 C179.99483974 -0.03910871 194.44232355 0.56684961 208.87866211 6.25878906 C210.71170898 6.94908203 210.71170898 6.94908203 212.58178711 7.65332031 C234.59969274 16.30554773 249.99527496 32.82822386 266.12866211 49.44628906 C269.81254369 53.23476211 273.50527978 57.01413495 277.21367645 60.77861977 C278.67878169 62.27318919 280.13079216 63.77967304 281.58233643 65.28739929 C282.91092682 66.64065056 282.91092682 66.64065056 284.26635742 68.02124023 C285.03892883 68.81777512 285.81150024 69.61431 286.60748291 70.4349823 C290.34655127 73.43753629 293.88929165 73.3592469 298.50366211 73.13378906 C315.16692006 72.99831542 330.26464921 77.52382345 344.87866211 85.25878906 C344.87866211 85.91878906 344.87866211 86.57878906 344.87866211 87.25878906 C345.59666992 87.49339844 346.31467773 87.72800781 347.05444336 87.96972656 C355.51621751 91.83194713 361.54518977 100.72063683 366.37866211 108.38378906 C366.78753662 109.02783691 367.19641113 109.67188477 367.61767578 110.33544922 C373.1091219 119.42085788 374.86761519 129.31669938 376.87866211 139.63378906 C377.12616211 140.86484375 377.37366211 142.09589844 377.62866211 143.36425781 C378.41158094 147.32370669 379.15373415 151.28842852 379.87866211 155.25878906 C380.01470856 155.9858606 380.150755 156.71293213 380.29092407 157.46203613 C382.62190673 170.09154496 383.40137544 182.43151041 383.56616211 195.25878906 C383.59946867 197.07391562 383.63396962 198.88902066 383.66967773 200.70410156 C383.77424128 206.22194268 383.87866211 211.73981244 383.87866211 217.25878906 C383.21866211 217.25878906 382.55866211 217.25878906 381.87866211 217.25878906 C381.25991211 218.04253906 380.64116211 218.82628906 380.00366211 219.63378906 C377.83478579 222.31298923 377.03106206 223.11501864 373.87866211 224.25878906 C371.30274893 224.43877002 368.8383143 224.51172578 366.2644043 224.48583984 C365.50304169 224.4861319 364.74167908 224.48642395 363.95724487 224.48672485 C361.44655875 224.48533412 358.93617125 224.46978511 356.42553711 224.45410156 C354.68247642 224.45037052 352.93941363 224.44752398 351.1963501 224.44552612 C346.61289663 224.43789686 342.0295703 224.41825443 337.44616699 224.39611816 C332.76743286 224.37564452 328.08867815 224.36652116 323.40991211 224.35644531 C314.23277298 224.33500788 305.05572812 224.30088044 295.87866211 224.25878906 C295.67410904 225.08629166 295.46955597 225.91379425 295.25880432 226.76637268 C294.85515907 228.39179237 294.85515907 228.39179237 294.44335938 230.05004883 C294.1769313 231.12505142 293.91050323 232.20005402 293.63600159 233.30763245 C289.10266665 250.9728695 277.9240297 263.06081397 262.75366211 272.57128906 C248.51030009 280.7198171 232.46415885 281.80545885 216.50366211 278.94628906 C215.8374585 278.82874268 215.17125488 278.71119629 214.48486328 278.59008789 C211.21213309 277.94623839 208.57466403 277.10462376 205.58959961 275.59082031 C202.8832179 273.86716922 202.8832179 273.86716922 199.87866211 275.25878906 C199.54866211 274.26878906 199.21866211 273.27878906 198.87866211 272.25878906 C196.46525879 270.4905676 196.46525879 270.4905676 193.56616211 268.82128906 C189.83285075 266.59326479 186.88910548 264.3888527 183.87866211 261.25878906 C183.21866211 260.92878906 182.55866211 260.59878906 181.87866211 260.25878906 C181.19082511 258.93625268 180.52850588 257.60040201 179.87866211 256.25878906 C178.75862193 254.57468046 177.6107898 252.90884448 176.44116211 251.25878906 C175.84432617 250.41316406 175.24749023 249.56753906 174.63256836 248.69628906 C173.51204235 247.13903243 172.36693093 245.59898751 171.19116211 244.08300781 C169.78338169 242.12636062 169.43677172 240.57095744 168.87866211 238.25878906 C168.21866211 237.92878906 167.55866211 237.59878906 166.87866211 237.25878906 C166.87866211 237.91878906 166.87866211 238.57878906 166.87866211 239.25878906 C166.21866211 239.25878906 165.55866211 239.25878906 164.87866211 239.25878906 C164.87866211 238.26878906 164.87866211 237.27878906 164.87866211 236.25878906 C165.86866211 235.92878906 166.85866211 235.59878906 167.87866211 235.25878906 C167.87866211 233.60878906 167.87866211 231.95878906 167.87866211 230.25878906 C167.21866211 230.25878906 166.55866211 230.25878906 165.87866211 230.25878906 C165.87866211 230.91878906 165.87866211 231.57878906 165.87866211 232.25878906 C165.21866211 232.25878906 164.55866211 232.25878906 163.87866211 232.25878906 C164.20866211 231.66066406 164.53866211 231.06253906 164.87866211 230.44628906 C166.08654199 228.20492435 166.08654199 228.20492435 165.87866211 225.25878906 C74.46866211 224.92878906 -16.94133789 224.59878906 -111.12133789 224.25878906 C-111.45133789 226.89878906 -111.78133789 229.53878906 -112.12133789 232.25878906 C-112.81396484 234.54052734 -112.81396484 234.54052734 -113.60961914 236.32910156 C-113.90416992 236.998125 -114.1987207 237.66714844 -114.50219727 238.35644531 C-114.80963867 239.02546875 -115.11708008 239.69449219 -115.43383789 240.38378906 C-115.87759766 241.39892578 -115.87759766 241.39892578 -116.33032227 242.43457031 C-118.22920339 246.67526811 -120.44989794 250.43929227 -123.12133789 254.25878906 C-124.08040039 255.80566406 -124.08040039 255.80566406 -125.05883789 257.38378906 C-127.23259931 260.41388074 -129.09560632 262.08815555 -132.12133789 264.25878906 C-132.82129883 264.7834375 -133.52125977 265.30808594 -134.24243164 265.84863281 C-151.337927 278.34885902 -168.8750541 282.27976706 -189.80883789 279.38378906 C-205.95055319 276.3971989 -219.89776199 266.23479647 -229.38696289 253.12988281 C-235.09810569 244.34106862 -240.31373242 234.92096065 -240.12133789 224.25878906 C-241.09329102 224.27433334 -242.06524414 224.28987762 -243.06665039 224.30589294 C-252.24682524 224.44807585 -261.4267754 224.55286165 -270.60780334 224.62147427 C-275.32746431 224.65793597 -280.04623324 224.70735491 -284.76538086 224.78686523 C-289.32365625 224.86318048 -293.88107625 224.90483244 -298.43994141 224.92292976 C-300.17510437 224.93581848 -301.91022289 224.9609884 -303.64501953 224.99889946 C-318.93846449 225.31968078 -318.93846449 225.31968078 -324.15258789 220.8996582 C-327.93992459 216.78813815 -329.16090421 213.43493639 -329.05883789 207.82128906 C-328.31244044 203.18484372 -326.73129888 198.80969348 -325.20117188 194.38208008 C-323.52943866 189.54453539 -322.03481368 184.67761749 -320.62133789 179.75878906 C-318.33861431 171.84789276 -315.78616474 164.04915521 -313.12133789 156.25878906 C-313.78133789 156.25878906 -314.44133789 156.25878906 -315.12133789 156.25878906 C-315.12133789 155.59878906 -315.12133789 154.93878906 -315.12133789 154.25878906 C-314.13133789 153.92878906 -313.14133789 153.59878906 -312.12133789 153.25878906 C-310.82469844 150.87812309 -309.6767801 148.53387912 -308.55883789 146.07128906 C-303.03378106 134.50202512 -295.80972373 124.68055695 -287.03149414 115.34472656 C-285.09648363 113.32262628 -285.09648363 113.32262628 -283.61743164 111.11035156 C-281.91612648 109.00481985 -280.54386452 108.41216111 -278.12133789 107.25878906 C-276.43001557 105.89293502 -274.76587482 104.49312828 -273.12133789 103.07128906 C-268.16586625 98.92501049 -263.04243277 95.72336738 -257.35961914 92.66894531 C-256.62098633 92.20359375 -255.88235352 91.73824219 -255.12133789 91.25878906 C-255.12133789 90.59878906 -255.12133789 89.93878906 -255.12133789 89.25878906 C-253.63633789 89.75378906 -253.63633789 89.75378906 -252.12133789 90.25878906 C-250.1166125 89.50339818 -250.1166125 89.50339818 -247.87133789 88.25878906 C-229.93114822 79.82877847 -210.6661124 76.51966595 -191.12133789 74.25878906 C-189.83227539 74.10667969 -188.54321289 73.95457031 -187.21508789 73.79785156 C-181.74446181 73.29682888 -176.38081951 73.26783198 -170.89477539 73.45410156 C-155.33878077 74.43174031 -155.33878077 74.43174031 -141.71118164 68.08300781 C-139.90259327 66.24406411 -139.90259327 66.24406411 -139.12133789 63.25878906 C-137.7989831 62.88426711 -136.46264141 62.55844511 -135.12133789 62.25878906 C-133.56972202 61.3363324 -132.05608664 60.34851286 -130.57446289 59.31738281 C-129.30795898 58.44243164 -129.30795898 58.44243164 -128.01586914 57.54980469 C-127.14317383 56.93814453 -126.27047852 56.32648438 -125.37133789 55.69628906 C-124.48317383 55.08076172 -123.59500977 54.46523438 -122.67993164 53.83105469 C-120.48999429 52.31222717 -118.3040284 50.7880041 -116.12133789 49.25878906 C-116.45133789 47.93878906 -116.78133789 46.61878906 -117.12133789 45.25878906 C-116.46133789 45.25878906 -115.80133789 45.25878906 -115.12133789 45.25878906 C-114.46133789 45.91878906 -113.80133789 46.57878906 -113.12133789 47.25878906 C-112.68821289 46.80503906 -112.25508789 46.35128906 -111.80883789 45.88378906 C-110.12133789 44.25878906 -110.12133789 44.25878906 -107.12133789 42.25878906 C-107.12133789 41.59878906 -107.12133789 40.93878906 -107.12133789 40.25878906 C-105.80133789 40.25878906 -104.48133789 40.25878906 -103.12133789 40.25878906 C-102.09725221 39.28346936 -101.10299383 38.27680263 -100.12133789 37.25878906 C-98.51542837 36.35546495 -96.90825501 35.4542756 -95.29321289 34.56738281 C-91.54843792 32.31108854 -88.08588674 29.66271489 -84.57446289 27.06347656 C-82.78913004 25.75006291 -80.96550164 24.48823156 -79.12133789 23.25878906 C-78.13133789 21.77378906 -78.13133789 21.77378906 -77.12133789 20.25878906 C-76.46133789 20.25878906 -75.80133789 20.25878906 -75.12133789 20.25878906 C-73.1411796 19.30229516 -73.1411796 19.30229516 -71.05883789 18.00878906 C-70.34598633 17.59113281 -69.63313477 17.17347656 -68.89868164 16.74316406 C-66.80810699 14.99718963 -66.48967802 13.91083803 -66.12133789 11.25878906 C-65.46133789 11.91878906 -64.80133789 12.57878906 -64.12133789 13.25878906 C-63.10813477 12.73478516 -63.10813477 12.73478516 -62.07446289 12.20019531 C-61.18243164 11.74515625 -60.29040039 11.29011719 -59.37133789 10.82128906 C-58.04875977 10.14259766 -58.04875977 10.14259766 -56.69946289 9.45019531 C-54.12133789 8.25878906 -54.12133789 8.25878906 -51.91821289 7.78613281 C-49.71785864 7.34925861 -49.71785864 7.34925861 -48.12133789 4.25878906 C-47.79133789 4.58878906 -47.46133789 4.91878906 -47.12133789 5.25878906 C-46.51290039 5.06542969 -45.90446289 4.87207031 -45.27758789 4.67285156 C-30.37280234 0.2452535 -15.40815843 -0.03615983 0 0 Z M-51.12133789 41.25878906 C-51.12133789 42.24878906 -51.12133789 43.23878906 -51.12133789 44.25878906 C-52.11133789 43.92878906 -53.10133789 43.59878906 -54.12133789 43.25878906 C-56.68755201 44.57440777 -56.68755201 44.57440777 -59.43383789 46.57128906 C-60.4921582 47.3021875 -61.55047852 48.03308594 -62.64086914 48.78613281 C-66.91256547 51.80799414 -71.17337576 54.84712953 -75.39990234 57.93188477 C-78.21172158 59.97038264 -80.94329999 61.8411349 -84.12133789 63.25878906 C-84.12133789 63.91878906 -84.12133789 64.57878906 -84.12133789 65.25878906 C-84.80196289 65.48566406 -85.48258789 65.71253906 -86.18383789 65.94628906 C-89.84672571 67.58289851 -93.02964179 69.70168018 -96.12133789 72.25878906 C-96.12133789 72.58878906 -96.12133789 72.91878906 -96.12133789 73.25878906 C-11.47633789 73.75378906 -11.47633789 73.75378906 74.87866211 74.25878906 C74.87866211 59.73878906 74.87866211 45.21878906 74.87866211 30.25878906 C58.38454846 30.14222049 58.38454846 30.14222049 41.89038086 30.06347656 C35.15148129 30.03967331 28.41280151 30.01168057 21.67407227 29.95703125 C16.23402008 29.91319583 10.79420399 29.88957323 5.35398865 29.87928009 C3.29060659 29.87195579 1.22723572 29.85765567 -0.83604431 29.83586884 C-17.54653221 29.66662311 -37.21362088 30.59620602 -51.12133789 41.25878906 Z M105.87866211 30.25878906 C105.87866211 44.44878906 105.87866211 58.63878906 105.87866211 73.25878906 C152.07866211 73.25878906 198.27866211 73.25878906 245.87866211 73.25878906 C243.4004113 69.33332466 243.4004113 69.33332466 240.87866211 68.25878906 C239.58560668 66.72110153 238.29259666 65.1833758 236.99975586 63.64550781 C234.1451378 60.43340536 231.15202383 57.37408431 228.12866211 54.32128906 C227.54947021 53.72928711 226.97027832 53.13728516 226.37353516 52.52734375 C224.91429485 51.06446977 223.40040897 49.65652617 221.87866211 48.25878906 C221.21866211 48.25878906 220.55866211 48.25878906 219.87866211 48.25878906 C219.87866211 47.59878906 219.87866211 46.93878906 219.87866211 46.25878906 C213.43349176 41.3586938 206.29819354 37.74663681 198.75366211 34.88378906 C198.13426758 34.64563477 197.51487305 34.40748047 196.87670898 34.16210938 C185.66079361 30.12647627 174.38200587 29.9841271 162.61694336 30.06347656 C160.97356846 30.06721476 159.3301913 30.07005791 157.68681335 30.072052 C153.39773212 30.07962505 149.10879008 30.09921782 144.81976318 30.12145996 C139.6542066 30.14568831 134.48860302 30.15472956 129.32300568 30.16636658 C121.50812819 30.18564698 113.69355508 30.22401327 105.87866211 30.25878906 Z M-213.30883789 108.57128906 C-214.39229492 108.85423828 -215.47575195 109.1371875 -216.59204102 109.42871094 C-229.36651733 112.88065151 -242.82940063 117.75882239 -253.12133789 126.25878906 C-253.94891602 126.8865625 -254.77649414 127.51433594 -255.62915039 128.16113281 C-269.99096213 139.3290491 -281.8724638 154.50546456 -286.37133789 172.43847656 C-287.48637042 176.63146348 -288.91588749 180.71362512 -290.30883789 184.82128906 C-292.20663542 189.47429843 -292.20663542 189.47429843 -293.12133789 194.25878906 C-274.64133789 194.25878906 -256.16133789 194.25878906 -237.12133789 194.25878906 C-234.81133789 189.63878906 -232.50133789 185.01878906 -230.12133789 180.25878906 C-221.87962855 169.0736121 -212.97658072 161.67715519 -200.24633789 156.13378906 C-199.07329102 155.61558594 -197.90024414 155.09738281 -196.69165039 154.56347656 C-189.99831132 152.11755178 -183.34829911 152.06532173 -176.30883789 152.07128906 C-175.42317139 152.07136963 -174.53750488 152.0714502 -173.625 152.0715332 C-167.5730076 152.12445958 -161.97595495 152.67050681 -156.12133789 154.25878906 C-152.75477985 155.08377513 -151.48271465 155.37924798 -148.12133789 154.25878906 C-148.04786133 154.86207031 -147.97438477 155.46535156 -147.89868164 156.08691406 C-146.83823068 159.04978208 -145.4383675 159.58084091 -142.68383789 161.00878906 C-141.88075195 161.43675781 -141.07766602 161.86472656 -140.25024414 162.30566406 C-138.20585823 163.39499676 -138.20585823 163.39499676 -136.12133789 163.25878906 C-136.12133789 163.91878906 -136.12133789 164.57878906 -136.12133789 165.25878906 C-134.56445846 166.75479261 -134.56445846 166.75479261 -132.55883789 168.32128906 C-123.91746579 175.73035282 -119.63416718 184.02067753 -114.12133789 194.25878906 C-51.75133789 194.25878906 10.61866211 194.25878906 74.87866211 194.25878906 C74.87866211 164.22878906 74.87866211 134.19878906 74.87866211 103.25878906 C43.2942434 103.21458223 11.70985489 103.1776988 -19.87458516 103.1566584 C-23.61528339 103.15415741 -27.35598155 103.15156872 -31.09667969 103.14892578 C-32.21359644 103.14813885 -32.21359644 103.14813885 -33.35307717 103.14733602 C-45.3620554 103.13866658 -57.37101422 103.12291598 -69.37998099 103.10448347 C-81.72999637 103.08568756 -94.08000167 103.07465201 -106.43003076 103.07061207 C-114.03211607 103.06788696 -121.63414644 103.05932492 -129.23621481 103.04295613 C-135.09518429 103.03099401 -140.95411967 103.02990186 -146.81309891 103.0325737 C-149.19486387 103.03202947 -151.57663116 103.02813277 -153.95838356 103.02037811 C-173.89092428 102.95873723 -194.00393182 103.10853855 -213.30883789 108.57128906 Z M294.07698059 103.29675293 C293.27404105 103.30083648 292.47110152 103.30492003 291.64383048 103.30912733 C288.94451942 103.32287405 286.24520894 103.33673042 283.54589844 103.35058594 C281.61444604 103.3604446 279.6829936 103.37029653 277.75154114 103.38014221 C272.4998198 103.40693231 267.24809895 103.43381696 261.99637818 103.46071815 C256.51106942 103.48879993 251.02576021 103.51679536 245.54045105 103.5447998 C235.14950584 103.59786246 224.75856103 103.65100316 214.36761636 103.70417166 C200.32896221 103.77600031 186.29030745 103.84770889 172.25165272 103.91942406 C150.12732201 104.03244733 128.00299213 104.14563147 105.87866211 104.25878906 C105.87866211 133.95878906 105.87866211 163.65878906 105.87866211 194.25878906 C126.99866211 194.25878906 148.11866211 194.25878906 169.87866211 194.25878906 C172.84866211 188.97878906 175.81866211 183.69878906 178.87866211 178.25878906 C188.74369969 166.09641397 200.6903939 157.67441432 215.87866211 153.25878906 C220.66130238 152.77428521 225.44853072 152.78142981 230.25366211 152.75878906 C231.25994659 152.7532753 231.25994659 152.7532753 232.28656006 152.74765015 C244.85644506 152.73654966 255.74060936 154.23472489 265.87866211 162.25878906 C266.62116211 162.67128906 267.36366211 163.08378906 268.12866211 163.50878906 C280.52674029 171.39847518 286.28430197 181.83232472 291.87866211 195.25878906 C312.00866211 194.92878906 332.13866211 194.59878906 352.87866211 194.25878906 C352.87866211 184.83277917 352.85906334 176.79966102 351.19116211 167.75878906 C351.01472168 166.75557617 350.83828125 165.75236328 350.65649414 164.71875 C349.32088682 157.28892748 347.82704889 149.8916492 346.25366211 142.50878906 C345.94489136 141.05375977 345.94489136 141.05375977 345.62988281 139.56933594 C345.43096436 138.66763672 345.2320459 137.7659375 345.02709961 136.83691406 C344.85355957 136.04704102 344.68001953 135.25716797 344.5012207 134.44335938 C343.8556215 132.17793912 343.07989861 130.28479665 341.87866211 128.25878906 C341.21866211 127.92878906 340.55866211 127.59878906 339.87866211 127.25878906 C339.21866211 127.58878906 338.55866211 127.91878906 337.87866211 128.25878906 C338.08491211 127.31003906 338.29116211 126.36128906 338.50366211 125.38378906 C338.68928711 123.83691406 338.68928711 123.83691406 338.87866211 122.25878906 C337.88866211 121.26878906 337.88866211 121.26878906 336.87866211 120.25878906 C334.89866211 121.24878906 332.91866211 122.23878906 330.87866211 123.25878906 C331.53866211 121.93878906 332.19866211 120.61878906 332.87866211 119.25878906 C333.20866211 119.91878906 333.53866211 120.57878906 333.87866211 121.25878906 C334.86866211 119.77378906 334.86866211 119.77378906 335.87866211 118.25878906 C323.70174774 106.1535036 310.67666033 103.21107899 294.07698059 103.29675293 Z M338.87866211 123.25878906 C338.87866211 124.24878906 338.87866211 125.23878906 338.87866211 126.25878906 C339.53866211 125.92878906 340.19866211 125.59878906 340.87866211 125.25878906 C340.21866211 124.59878906 339.55866211 123.93878906 338.87866211 123.25878906 Z M-202.12133789 192.25878906 C-209.54074615 202.03477166 -211.97150173 209.92953554 -210.71118164 222.12207031 C-209.0402915 231.00766493 -202.7844122 238.40305044 -196.12133789 244.25878906 C-187.69997335 249.17875738 -179.84442194 251.26187394 -170.12133789 250.25878906 C-159.22583671 247.14961775 -151.69499946 241.83454033 -145.62133789 232.44628906 C-145.19852539 231.80046875 -144.77571289 231.15464844 -144.34008789 230.48925781 C-140.14380328 222.80951899 -139.77538532 213.84143325 -141.80883789 205.40722656 C-145.72950725 194.85409154 -152.197724 188.19091955 -162.20727539 183.22363281 C-175.71532011 177.8254365 -192.52606321 181.08781976 -202.12133789 192.25878906 Z M205.61694336 191.40332031 C198.96359759 198.50520624 195.94075648 206.57033788 195.85131836 216.20410156 C196.33473691 225.8972633 198.95074321 234.28477203 205.69897461 241.43847656 C213.45003458 247.91158399 223.47791529 251.61655482 233.56616211 251.32128906 C243.00774277 250.05257666 252.76181483 244.86667631 258.55444336 237.29394531 C264.61947466 227.97276152 267.10842515 219.33377107 264.87866211 208.25878906 C262.13327087 198.63145298 257.29302423 191.14058407 248.61303711 185.88769531 C234.1094066 178.96550802 217.79304043 180.46913114 205.61694336 191.40332031 Z " fill="#4BA346" transform="translate(371.121337890625,384.7412109375)" />
  <path d="M0 0 C0.96421875 0.49113281 1.9284375 0.98226562 2.921875 1.48828125 C35.70385821 18.30562813 62.06930408 50.36357134 73.5 85.25 C78.01178618 100.22158321 80.66623813 114.60363492 80.46655273 130.27197266 C80.43733567 132.76401616 80.44606791 135.25394774 80.45898438 137.74609375 C80.44223133 152.59917954 77.64838626 165.97426526 73.0625 180.125 C72.72798828 181.2078125 72.39347656 182.290625 72.04882812 183.40625 C69.33549489 191.87561384 65.88402025 196.5240748 59 202 C59 201.34 59 200.68 59 200 C58.43152344 200.04640625 57.86304688 200.0928125 57.27734375 200.140625 C51.23021605 200.42329541 47.85800117 199.69208089 43 196 C39.32658882 191.02312034 39.4723404 185.94541622 40 180 C40.87154962 176.28007852 42.09306357 172.72154388 43.375 169.125 C50.5861159 148.57625104 51.93052083 125.10509174 46 104 C45.77957031 103.19788086 45.55914062 102.39576172 45.33203125 101.56933594 C36.44151709 70.15853788 16.68533935 45.63976669 -11.36328125 28.9765625 C-41.99553339 11.96900706 -75.78109463 10.17288331 -109.1171875 19.59863281 C-112.8981174 20.77307402 -116.44018611 22.27630064 -120 24 C-120.59425781 24.28746094 -121.18851562 24.57492188 -121.80078125 24.87109375 C-129.73153528 28.76378565 -136.94110134 33.10220134 -143.92578125 38.53125 C-146 40 -146 40 -148 40 C-148 40.66 -148 41.32 -148 42 C-149.9675587 43.85999285 -152.05555598 45.53390198 -154.15234375 47.24609375 C-156.24798169 48.96005081 -156.24798169 48.96005081 -157 52 C-158.10794922 52.63615234 -158.10794922 52.63615234 -159.23828125 53.28515625 C-162.6977575 55.43326102 -164.80599709 58.21292344 -167.1875 61.4375 C-167.62513672 62.01048828 -168.06277344 62.58347656 -168.51367188 63.17382812 C-171.672618 67.34534771 -171.672618 67.34534771 -174 72 C-173.70194993 74.19747131 -173.70194993 74.19747131 -173 76 C-173.99 75.67 -174.98 75.34 -176 75 C-190.83625834 103.5751603 -195.55752758 135.40592659 -185.8125 166.375 C-185.46832031 167.37273437 -185.12414062 168.37046875 -184.76953125 169.3984375 C-184 172 -184 172 -184 176 C-183.01 176.33 -182.02 176.66 -181 177 C-181.66 177 -182.32 177 -183 177 C-181.47050112 180.00635032 -179.9241737 183.00374714 -178.375 186 C-177.73498047 187.25876953 -177.73498047 187.25876953 -177.08203125 188.54296875 C-173.76963324 194.92057089 -170.10701207 200.89298793 -165 206 C-164.484375 206.845625 -163.96875 207.69125 -163.4375 208.5625 C-159.60493581 214.41981508 -154.36450027 220.02001153 -148 223 C-147.34 223.680625 -146.68 224.36125 -146 225.0625 C-144.1904368 227.14686057 -144.1904368 227.14686057 -141.875 227.5 C-141.25625 227.665 -140.6375 227.83 -140 228 C-139.690625 228.639375 -139.38125 229.27875 -139.0625 229.9375 C-138.12720697 232.26452391 -138.12720697 232.26452391 -135.375 233.25 C-134.199375 233.62125 -134.199375 233.62125 -133 234 C-133 234.66 -133 235.32 -133 236 C-132.41629639 236.12705322 -131.83259277 236.25410645 -131.23120117 236.38500977 C-129.04271398 236.98822666 -127.30030424 237.77776862 -125.30078125 238.83984375 C-113.89108748 244.67509466 -102.20782483 248.29871585 -89.53442383 250.01245117 C-77.22464958 251.71416144 -77.22464958 251.71416144 -73 255 C-72.3203125 257.4453125 -72.3203125 257.4453125 -72 260 C-71.67 260.99 -71.34 261.98 -71 263 C-70.564175 268.22989998 -70.68175199 272.00689919 -73.62890625 276.453125 C-76.95999652 280.21127812 -80.5458085 281.78033471 -85.53125 282.2265625 C-112.1301338 281.29703161 -141.4591272 269.88086274 -162 253 C-162.66 252.67 -163.32 252.34 -164 252 C-165.67976077 250.34653113 -167.34393747 248.67720376 -169 247 C-170.99927273 245.1013238 -173.02911244 243.23702031 -175.0625 241.375 C-175.57876953 240.89804687 -176.09503906 240.42109375 -176.62695312 239.9296875 C-178.76578135 237.9679597 -180.87316865 236.08955396 -183.24609375 234.4140625 C-185.28010182 232.77417181 -185.89468491 231.343268 -187 229 C-188.77964254 226.86603949 -190.6530125 224.84470077 -192.5390625 222.8046875 C-194 221 -194 221 -194 219 C-194.99 218.67 -195.98 218.34 -197 218 C-197 217.34 -197 216.68 -197 216 C-197.7784646 214.83077669 -198.60015565 213.69030526 -199.4375 212.5625 C-219.60691276 182.64136645 -226.72081737 142.45185704 -220.61279297 107.13623047 C-215.98053315 84.03438286 -206.98516417 61.36795371 -192 43 C-191.23558594 42.04738281 -190.47117187 41.09476563 -189.68359375 40.11328125 C-187.4769976 37.39047974 -185.24061246 34.69479066 -183 32 C-182.53851563 31.41347656 -182.07703125 30.82695312 -181.6015625 30.22265625 C-175.77478513 22.85119629 -168.08705578 17.48075431 -160.5390625 12.015625 C-157.82905574 10.07593723 -157.82905574 10.07593723 -156 7 C-155.01 7 -154.02 7 -153 7 C-151.40480231 5.84602721 -149.81320025 4.68668774 -148.2421875 3.5 C-144.57363354 1.04577575 -140.57074936 -0.71495952 -136.57421875 -2.5703125 C-133.74688667 -3.88342627 -133.74688667 -3.88342627 -132 -7 C-131.01 -6.505 -131.01 -6.505 -130 -6 C-127.29437272 -6.83041016 -124.65926311 -7.72693284 -122 -8.6875 C-115.56423149 -10.92141924 -109.15304669 -12.84011605 -102.5 -14.3125 C-101.44425781 -14.55069458 -101.44425781 -14.55069458 -100.3671875 -14.79370117 C-67.0517049 -21.89429736 -29.6092952 -16.69826531 0 0 Z " fill="#4BA346" transform="translate(289,153)" />
  <path d="M0 0 C4.42866611 2.21433305 7.33617811 4.84399573 10 9 C10.6132027 12.10040206 10.69523157 15.15833611 10.75 18.3125 C10.77964844 19.14845703 10.80929688 19.98441406 10.83984375 20.84570312 C10.91016107 22.89662485 10.95738973 24.94831562 11 27 C12.2065625 26.9690625 12.2065625 26.9690625 13.4375 26.9375 C16 27 16 27 17 28 C17.495 29.485 17.495 29.485 18 31 C19.81296615 31.62092718 19.81296615 31.62092718 22 32 C23.2684375 32.5259375 23.2684375 32.5259375 24.5625 33.0625 C27.03141067 34.17948954 27.03141067 34.17948954 30 34 C29.76925781 34.58523437 29.53851563 35.17046875 29.30078125 35.7734375 C28.73140694 38.06108397 28.73140694 38.06108397 30.29296875 39.7890625 C31.23076172 40.69785156 31.23076172 40.69785156 32.1875 41.625 C36.60683583 46.38973482 39.68737858 51.59203804 40.15625 58.203125 C39.78980328 63.00357709 37.97205721 66.30744408 35 70 C34.01 70.495 34.01 70.495 33 71 C32.34 71.99 31.68 72.98 31 74 C18.1484449 73.34729405 18.1484449 73.34729405 13.515625 68.421875 C11.18296621 65.76587737 9.02831642 63.0386133 6.9375 60.1875 C4.18953932 57.08496374 1.97410756 56.16900374 -2.14453125 55.81640625 C-6.54591846 55.69232071 -10.00671432 55.93894933 -14 58 C-13.01 58.495 -13.01 58.495 -12 59 C-12.33 59.99 -12.66 60.98 -13 62 C-14.65 62 -16.3 62 -18 62 C-20.87071886 66.78453143 -21.8077785 70.54203719 -21 76 C-19.15118334 80.80692331 -16.69574778 84.21153779 -12.38671875 87.0703125 C-9.6085482 88.15248041 -7.01746564 88.30541562 -4.05932617 88.47973633 C3.59419197 88.961166 9.95527355 90.31618496 16.8125 93.8125 C17.4631543 94.1439502 18.11380859 94.47540039 18.78417969 94.81689453 C25.37944331 98.41572736 29.71728224 103.74955585 34.44921875 109.42578125 C34.96097656 109.94527344 35.47273438 110.46476562 36 111 C36.66 111 37.32 111 38 111 C38.103125 111.845625 38.20625 112.69125 38.3125 113.5625 C39.06829989 117.34149944 40.46194019 120.47527959 42 124 C44.48878449 133.75334461 43.85684832 144.7373683 40 154 C39.47212891 155.28003906 39.47212891 155.28003906 38.93359375 156.5859375 C36.54455695 161.83708769 33.81594374 165.63482653 29.5703125 169.53125 C27.85348521 171.0473696 27.85348521 171.0473696 26.25 173.375 C25 175 25 175 22 176 C21.071875 176.66 20.14375 177.32 19.1875 178 C15.91033587 180.05625985 13.76961522 180.49528164 10 181 C10.01571045 181.83192871 10.01571045 181.83192871 10.03173828 182.68066406 C10.07342004 185.20372959 10.09936438 187.72672253 10.125 190.25 C10.14175781 191.12269531 10.15851563 191.99539063 10.17578125 192.89453125 C10.18544922 194.16103516 10.18544922 194.16103516 10.1953125 195.453125 C10.21102295 196.61569824 10.21102295 196.61569824 10.22705078 197.80175781 C9.96583123 200.33081247 9.36282327 201.8589849 8 204 C2.89333032 207.6476212 -1.70701583 209.05816067 -8 209 C-11.92220937 208.28819163 -14.08937884 206.76135853 -17 204 C-20.207586 198.93659639 -20.37868978 194.90971632 -20.1875 189.125 C-20.16719727 187.949375 -20.16719727 187.949375 -20.14648438 186.75 C-20.11141789 184.83303218 -20.05762072 182.91642249 -20 181 C-20.87914062 180.9071875 -21.75828125 180.814375 -22.6640625 180.71875 C-31.35168523 178.8469437 -38.02766338 171.35056815 -43.44140625 164.6875 C-43.95574219 164.130625 -44.47007812 163.57375 -45 163 C-45.66 163 -46.32 163 -47 163 C-47 157.06 -47 151.12 -47 145 C-45.02 144.01 -45.02 144.01 -43 143 C-42.154375 142.319375 -41.30875 141.63875 -40.4375 140.9375 C-35.73091393 138.28469694 -31.38706959 137.52151602 -26 138 C-23.125 140.0625 -23.125 140.0625 -21 143 C-17.11611491 148.00816761 -13.46058515 152.32029179 -6.94921875 153.3125 C-2.93973327 153.43331312 0.51046407 153.00912675 4 151 C4.33 150.01 4.66 149.02 5 148 C5.66 148.33 6.32 148.66 7 149 C10.41119096 144.59846327 12.28799447 140.72788992 12 135 C11.31906431 132.00076415 10.37842824 129.80608607 9 127 C8.01 126.67 7.02 126.34 6 126 C6 125.34 6 124.68 6 124 C5.01 123.505 5.01 123.505 4 123 C3.12859375 122.50371094 2.2571875 122.00742187 1.359375 121.49609375 C-2.36941546 119.83548125 -5.74171399 119.39129161 -9.75 119.0625 C-22.37739894 117.70632513 -32.95503715 113.00401946 -41.4375 103.17578125 C-44.43365468 99.16842436 -46.83544044 95.87796647 -48 91 C-48.66 90.67 -49.32 90.34 -50 90 C-54.56829348 74.55581517 -53.51325928 61.27934053 -45.921875 46.9609375 C-40.39561187 38.44689796 -32.74444298 31.2905675 -23 28 C-22.01 28 -21.02 28 -20 28 C-20.03480469 26.92621094 -20.06960937 25.85242188 -20.10546875 24.74609375 C-20.13362918 23.30991161 -20.16092691 21.87371238 -20.1875 20.4375 C-20.21263672 19.73302734 -20.23777344 19.02855469 -20.26367188 18.30273438 C-20.33546095 13.10999148 -19.43371538 9.60791134 -17 5 C-11.53616362 -0.06404347 -7.29722508 -0.80830801 0 0 Z " fill="#4BA346" transform="translate(223,181)" />
  <path d="M0 0 C0 3 0 3 -1.28515625 4.62573242 C-2.16494141 5.4819519 -2.16494141 5.4819519 -3.0625 6.35546875 C-3.69414062 6.97744141 -4.32578125 7.59941406 -4.9765625 8.24023438 C-5.64429688 8.88283203 -6.31203125 9.52542969 -7 10.1875 C-8.00160156 11.16879883 -8.00160156 11.16879883 -9.0234375 12.16992188 C-10.67578441 13.78686135 -12.33471601 15.39640491 -14 17 C-14 12.95607032 -12.51908749 11.99868382 -9.8125 9.0625 C-9.03519531 8.20785156 -8.25789062 7.35320313 -7.45703125 6.47265625 C-5.09786332 4.09848566 -2.65532732 2.0327639 0 0 Z " fill="#4BA346" transform="translate(157,547)" />
  <path d="M0 0 C2.475 0.495 2.475 0.495 5 1 C4.01 1.99 3.02 2.98 2 4 C1.34 2.68 0.68 1.36 0 0 Z " fill="#4BA346" transform="translate(182,215)" />
  <path d="M0 0 C0.66 0 1.32 0 2 0 C2 1.65 2 3.3 2 5 C1.67 4.34 1.34 3.68 1 3 C0.34 3 -0.32 3 -1 3 C-0.67 2.01 -0.34 1.02 0 0 Z " fill="#4BA346" transform="translate(605,400)" />
  <path d="M0 0 C1.32 0.33 2.64 0.66 4 1 C4 1.66 4 2.32 4 3 C2.68 2.67 1.36 2.34 0 2 C0 1.34 0 0.68 0 0 Z " fill="#4BA346" transform="translate(226,240)" />
  <path d="M0 0 C1.32 0.33 2.64 0.66 4 1 C4 1.66 4 2.32 4 3 C2.68 2.67 1.36 2.34 0 2 C0 1.34 0 0.68 0 0 Z " fill="#4BA346" transform="translate(140,557)" />
  <path d="M0 0 C1.32 0.33 2.64 0.66 4 1 C3.67 1.66 3.34 2.32 3 3 C2.01 2.67 1.02 2.34 0 2 C0 1.34 0 0.68 0 0 Z " fill="#4BA346" transform="translate(201,321)" />
  <path d="M0 0 C0.99 0.99 1.98 1.98 3 3 C2.01 3 1.02 3 0 3 C0 2.01 0 1.02 0 0 Z " fill="#4BA346" transform="translate(316,218)" />
  <path d="M0 0 C0.66 0 1.32 0 2 0 C2 0.99 2 1.98 2 3 C1.34 3 0.68 3 0 3 C0 2.01 0 1.02 0 0 Z " fill="#4BA346" transform="translate(224,659)" />
  <path d="M0 0 C0.66 0 1.32 0 2 0 C1.67 0.99 1.34 1.98 1 3 C0.34 2.67 -0.32 2.34 -1 2 C-0.67 1.34 -0.34 0.68 0 0 Z " fill="#4BA346" transform="translate(740,493)" />
  <path d="M0 0 C1.32 0 2.64 0 4 0 C4 0.66 4 1.32 4 2 C2.68 1.34 1.36 0.68 0 0 Z " fill="#4BA346" transform="translate(299,441)" />
  <path d="M0 0 C0.66 0 1.32 0 2 0 C2 0.99 2 1.98 2 3 C1.34 3 0.68 3 0 3 C0 2.01 0 1.02 0 0 Z " fill="#4BA346" transform="translate(181,395)" />
  <path d="M0 0 C0.66 0 1.32 0 2 0 C2 0.99 2 1.98 2 3 C1.34 3 0.68 3 0 3 C0 2.01 0 1.02 0 0 Z " fill="#4BA346" transform="translate(224,389)" />
  <path d="M0 0 C0.66 0.33 1.32 0.66 2 1 C1.01 1.99 0.02 2.98 -1 4 C-0.67 2.68 -0.34 1.36 0 0 Z " fill="#4BA346" transform="translate(121,350)" />
  <path d="M0 0 C0.66 0 1.32 0 2 0 C2 0.99 2 1.98 2 3 C1.34 3 0.68 3 0 3 C0 2.01 0 1.02 0 0 Z " fill="#4BA346" transform="translate(255,348)" />
  <path d="M0 0 C0.66 0 1.32 0 2 0 C2 0.99 2 1.98 2 3 C1.34 3 0.68 3 0 3 C0 2.01 0 1.02 0 0 Z " fill="#4BA346" transform="translate(225,305)" />
  <path d="M0 0 C0.33 0.66 0.66 1.32 1 2 C0.34 2.66 -0.32 3.32 -1 4 C-0.67 2.68 -0.34 1.36 0 0 Z " fill="#4BA346" transform="translate(178,322)" />
  <path d="M0 0 C0 0.99 0 1.98 0 3 C-0.66 2.67 -1.32 2.34 -2 2 C-1.34 1.34 -0.68 0.68 0 0 Z " fill="#4BA346" transform="translate(179,221)" />
  <path d="M0 0 C0.66 0 1.32 0 2 0 C1.67 0.99 1.34 1.98 1 3 C0.67 2.01 0.34 1.02 0 0 Z " fill="#4BA346" transform="translate(108,179)" />
  <path d="M0 0 C0.66 0 1.32 0 2 0 C2 0.66 2 1.32 2 2 C1.01 1.67 0.02 1.34 -1 1 C-0.67 0.67 -0.34 0.34 0 0 Z " fill="#4BA346" transform="translate(179,138)" />
  <path d="M0 0 C0.66 0.33 1.32 0.66 2 1 C1.01 1 0.02 1 -1 1 C-0.67 0.67 -0.34 0.34 0 0 Z " fill="#4BA346" transform="translate(642,654)" />
  <path d="M0 0 C0.66 0 1.32 0 2 0 C2 0.66 2 1.32 2 2 C1.34 2 0.68 2 0 2 C0 1.34 0 0.68 0 0 Z " fill="#4BA346" transform="translate(553,648)" />
  <path d="M0 0 C0.66 0 1.32 0 2 0 C2 0.66 2 1.32 2 2 C1.34 2 0.68 2 0 2 C0 1.34 0 0.68 0 0 Z " fill="#4BA346" transform="translate(181,629)" />
  <path d="M0 0 C0.66 0 1.32 0 2 0 C2 0.66 2 1.32 2 2 C1.34 2 0.68 2 0 2 C0 1.34 0 0.68 0 0 Z " fill="#4BA346" transform="translate(173,623)" />
  <path d="M0 0 C0.66 0 1.32 0 2 0 C2 0.66 2 1.32 2 2 C1.34 2 0.68 2 0 2 C0 1.34 0 0.68 0 0 Z " fill="#4BA346" transform="translate(739,610)" />
  <path d="M0 0 C0.66 0 1.32 0 2 0 C2 0.66 2 1.32 2 2 C1.34 2 0.68 2 0 2 C0 1.34 0 0.68 0 0 Z " fill="#4BA346" transform="translate(535,610)" />
  <path d="M0 0 C0.66 0 1.32 0 2 0 C2 0.66 2 1.32 2 2 C1.34 2 0.68 2 0 2 C0 1.34 0 0.68 0 0 Z " fill="#4BA346" transform="translate(41,600)" />
  <path d="M0 0 C0.66 0 1.32 0 2 0 C2 0.66 2 1.32 2 2 C1.34 2 0.68 2 0 2 C0 1.34 0 0.68 0 0 Z " fill="#4BA346" transform="translate(223,583)" />
  <path d="M0 0 C0 3 0 3 0 3 Z " fill="#4BA346" transform="translate(171,576)" />
  <path d="M0 0 C0.66 0 1.32 0 2 0 C2 0.66 2 1.32 2 2 C1.34 2 0.68 2 0 2 C0 1.34 0 0.68 0 0 Z " fill="#4BA346" transform="translate(188,568)" />
  <path d="M0 0 C0.99 0 1.98 0 3 0 C2.67 0.66 2.34 1.32 2 2 C1.34 1.34 0.68 0.68 0 0 Z " fill="#4BA346" transform="translate(239,551)" />
  <path d="M0 0 C0.66 0 1.32 0 2 0 C2 0.66 2 1.32 2 2 C1.34 2 0.68 2 0 2 C0 1.34 0 0.68 0 0 Z " fill="#4BA346" transform="translate(224,540)" />
  <path d="M0 0 C0.66 0 1.32 0 2 0 C2 0.66 2 1.32 2 2 C1.34 2 0.68 2 0 2 C0 1.34 0 0.68 0 0 Z " fill="#4BA346" transform="translate(702,501)" />
  <path d="M0 0 C0.66 0 1.32 0 2 0 C2 0.66 2 1.32 2 2 C1.34 2 0.68 2 0 2 C0 1.34 0 0.68 0 0 Z " fill="#4BA346" transform="translate(175,491)" />
  <path d="M0 0 C0.66 0 1.32 0 2 0 C2 0.66 2 1.32 2 2 C1.34 2 0.68 2 0 2 C0 1.34 0 0.68 0 0 Z " fill="#4BA346" transform="translate(92,489)" />
  <path d="M0 0 C0.66 0 1.32 0 2 0 C2 0.66 2 1.32 2 2 C1.34 2 0.68 2 0 2 C0 1.34 0 0.68 0 0 Z " fill="#4BA346" transform="translate(711,466)" />
  <path d="M0 0 C0.66 0 1.32 0 2 0 C2 0.66 2 1.32 2 2 C1.34 2 0.68 2 0 2 C0 1.34 0 0.68 0 0 Z " fill="#4BA346" transform="translate(325,424)" />
  <path d="M0 0 C0.99 0.33 1.98 0.66 3 1 C2.01 1 1.02 1 0 1 C0 0.67 0 0.34 0 0 Z " fill="#4BA346" transform="translate(620,416)" />
  <path d="M0 0 C0.99 0.495 0.99 0.495 2 1 C1.67 1.66 1.34 2.32 1 3 C0.67 2.01 0.34 1.02 0 0 Z " fill="#4BA346" transform="translate(216,410)" />
  <path d="M0 0 C0.66 0 1.32 0 2 0 C2 0.66 2 1.32 2 2 C1.34 2 0.68 2 0 2 C0 1.34 0 0.68 0 0 Z " fill="#4BA346" transform="translate(326,387)" />
  <path d="M0 0 C0.99 0.33 1.98 0.66 3 1 C2.01 1 1.02 1 0 1 C0 0.67 0 0.34 0 0 Z " fill="#4BA346" transform="translate(129,365)" />
  <path d="M0 0 C0.66 0 1.32 0 2 0 C2 0.66 2 1.32 2 2 C1.34 2 0.68 2 0 2 C0 1.34 0 0.68 0 0 Z " fill="#4BA346" transform="translate(242,359)" />
  <path d="M0 0 C0.66 0 1.32 0 2 0 C2 0.66 2 1.32 2 2 C1.34 2 0.68 2 0 2 C0 1.34 0 0.68 0 0 Z " fill="#4BA346" transform="translate(188,356)" />
  <path d="M0 0 C0.66 0 1.32 0 2 0 C2 0.66 2 1.32 2 2 C1.34 2 0.68 2 0 2 C0 1.34 0 0.68 0 0 Z " fill="#4BA346" transform="translate(252,355)" />
  <path d="M0 0 C0 3 0 3 0 3 Z " fill="#4BA346" transform="translate(178,348)" />
  <path d="M0 0 C0.66 0 1.32 0 2 0 C2 0.66 2 1.32 2 2 C1.34 2 0.68 2 0 2 C0 1.34 0 0.68 0 0 Z " fill="#4BA346" transform="translate(327,346)" />
  <path d="M0 0 C0.66 0 1.32 0 2 0 C2 0.66 2 1.32 2 2 C1.34 2 0.68 2 0 2 C0 1.34 0 0.68 0 0 Z " fill="#4BA346" transform="translate(218,332)" />
  <path d="M0 0 C0.66 0 1.32 0 2 0 C2 0.66 2 1.32 2 2 C1.34 2 0.68 2 0 2 C0 1.34 0 0.68 0 0 Z " fill="#4BA346" transform="translate(188,292)" />
  <path d="M0 0 C0 3 0 3 0 3 Z " fill="#4BA346" transform="translate(186,289)" />
  <path d="M0 0 C0.66 0 1.32 0 2 0 C2 0.66 2 1.32 2 2 C1.34 2 0.68 2 0 2 C0 1.34 0 0.68 0 0 Z " fill="#4BA346" transform="translate(108,242)" />
  <path d="M0 0 C0.66 0 1.32 0 2 0 C2 0.66 2 1.32 2 2 C1.34 2 0.68 2 0 2 C0 1.34 0 0.68 0 0 Z " fill="#4BA346" transform="translate(82,214)" />
  <path d="M0 0 C0.66 0 1.32 0 2 0 C2 0.66 2 1.32 2 2 C1.34 2 0.68 2 0 2 C0 1.34 0 0.68 0 0 Z " fill="#4BA346" transform="translate(137,198)" />
  <path d="M0 0 C0.66 0 1.32 0 2 0 C2 0.66 2 1.32 2 2 C1.34 2 0.68 2 0 2 C0 1.34 0 0.68 0 0 Z " fill="#4BA346" transform="translate(96,192)" />
  <path d="M0 0 C0.66 0 1.32 0 2 0 C2 0.66 2 1.32 2 2 C1.34 2 0.68 2 0 2 C0 1.34 0 0.68 0 0 Z " fill="#4BA346" transform="translate(99,189)" />
  <path d="M0 0 C0.66 0 1.32 0 2 0 C2 0.66 2 1.32 2 2 C1.34 2 0.68 2 0 2 C0 1.34 0 0.68 0 0 Z " fill="#4BA346" transform="translate(158,183)" />
  <path d="M0 0 C0.66 0 1.32 0 2 0 C2 0.66 2 1.32 2 2 C1.34 2 0.68 2 0 2 C0 1.34 0 0.68 0 0 Z " fill="#4BA346" transform="translate(261,177)" />
  <path d="M0 0 C0.66 0 1.32 0 2 0 C2 0.66 2 1.32 2 2 C1.34 2 0.68 2 0 2 C0 1.34 0 0.68 0 0 Z " fill="#4BA346" transform="translate(324,172)" />
  <path d="M0 0 C0.66 0 1.32 0 2 0 C2 0.66 2 1.32 2 2 C1.34 2 0.68 2 0 2 C0 1.34 0 0.68 0 0 Z " fill="#4BA346" transform="translate(317,168)" />
  <path d="M0 0 C0.66 0 1.32 0 2 0 C2 0.66 2 1.32 2 2 C1.34 2 0.68 2 0 2 C0 1.34 0 0.68 0 0 Z " fill="#4BA346" transform="translate(316,165)" />
  <path d="M0 0 C0.66 0 1.32 0 2 0 C2 0.66 2 1.32 2 2 C1.34 2 0.68 2 0 2 C0 1.34 0 0.68 0 0 Z " fill="#4BA346" transform="translate(146,151)" />
  <path d="M0 0 C0.66 0 1.32 0 2 0 C1.67 0.66 1.34 1.32 1 2 C0.67 1.34 0.34 0.68 0 0 Z " fill="#4BA346" transform="translate(551,643)" />
  <path d="M0 0 C0.33 0.66 0.66 1.32 1 2 C0.34 1.67 -0.32 1.34 -1 1 C-0.67 0.67 -0.34 0.34 0 0 Z " fill="#4BA346" transform="translate(653,641)" />
  <path d="M0 0 C0.66 0.66 1.32 1.32 2 2 C1.34 2 0.68 2 0 2 C0 1.34 0 0.68 0 0 Z " fill="#4BA346" transform="translate(143,641)" />
  <path d="M0 0 C0.66 0 1.32 0 2 0 C1.67 0.66 1.34 1.32 1 2 C0.67 1.34 0.34 0.68 0 0 Z " fill="#4BA346" transform="translate(165,615)" />
  <path d="M0 0 C0.33 0.66 0.66 1.32 1 2 C0.34 1.67 -0.32 1.34 -1 1 C-0.67 0.67 -0.34 0.34 0 0 Z " fill="#4BA346" transform="translate(751,605)" />
  <path d="M0 0 C0.99 0.495 0.99 0.495 2 1 C1.01 1.495 1.01 1.495 0 2 C0 1.34 0 0.68 0 0 Z " fill="#4BA346" transform="translate(757,601)" />
  <path d="M0 0 C0.99 0.495 0.99 0.495 2 1 C1.01 1.495 1.01 1.495 0 2 C0 1.34 0 0.68 0 0 Z " fill="#4BA346" transform="translate(53,549)" />
  <path d="M0 0 C0.99 0.495 0.99 0.495 2 1 C1.01 1.495 1.01 1.495 0 2 C0 1.34 0 0.68 0 0 Z " fill="#4BA346" transform="translate(153,548)" />
  <path d="M0 0 C0.33 0.66 0.66 1.32 1 2 C0.34 1.67 -0.32 1.34 -1 1 C-0.67 0.67 -0.34 0.34 0 0 Z " fill="#4BA346" transform="translate(103,526)" />
  <path d="M0 0 C0.66 0.66 1.32 1.32 2 2 C1.34 2 0.68 2 0 2 C0 1.34 0 0.68 0 0 Z " fill="#4BA346" transform="translate(700,498)" />
  <path d="M0 0 C0.66 0.66 1.32 1.32 2 2 C1.34 2 0.68 2 0 2 C0 1.34 0 0.68 0 0 Z " fill="#4BA346" transform="translate(608,450)" />
  <path d="M0 0 C0.66 0 1.32 0 2 0 C1.67 0.66 1.34 1.32 1 2 C0.67 1.34 0.34 0.68 0 0 Z " fill="#4BA346" transform="translate(323,427)" />
  <path d="M0 0 C0.99 0.495 0.99 0.495 2 1 C1.01 1.495 1.01 1.495 0 2 C0 1.34 0 0.68 0 0 Z " fill="#4BA346" transform="translate(365,328)" />
  <path d="M0 0 C0.33 0.66 0.66 1.32 1 2 C0.34 1.67 -0.32 1.34 -1 1 C-0.67 0.67 -0.34 0.34 0 0 Z " fill="#4BA346" transform="translate(242,255)" />
  <path d="M0 0 C0.99 0.495 0.99 0.495 2 1 C1.01 1.495 1.01 1.495 0 2 C0 1.34 0 0.68 0 0 Z " fill="#4BA346" transform="translate(257,252)" />
  <path d="M0 0 C0.99 0.495 0.99 0.495 2 1 C1.01 1.495 1.01 1.495 0 2 C0 1.34 0 0.68 0 0 Z " fill="#4BA346" transform="translate(320,228)" />
  <path d="M0 0 C0.33 0.66 0.66 1.32 1 2 C0.34 1.67 -0.32 1.34 -1 1 C-0.67 0.67 -0.34 0.34 0 0 Z " fill="#4BA346" transform="translate(260,222)" />
  <path d="M0 0 C0.66 0 1.32 0 2 0 C1.67 0.66 1.34 1.32 1 2 C0.67 1.34 0.34 0.68 0 0 Z " fill="#4BA346" transform="translate(255,221)" />
  <path d="M0 0 C0.66 0.66 1.32 1.32 2 2 C1.34 2 0.68 2 0 2 C0 1.34 0 0.68 0 0 Z " fill="#4BA346" transform="translate(130,213)" />
  <path d="M0 0 C0.66 0 1.32 0 2 0 C1.67 0.66 1.34 1.32 1 2 C0.67 1.34 0.34 0.68 0 0 Z " fill="#4BA346" transform="translate(332,184)" />
  <path d="M0 0 C0.66 0 1.32 0 2 0 C1.67 0.66 1.34 1.32 1 2 C0.67 1.34 0.34 0.68 0 0 Z " fill="#4BA346" transform="translate(268,184)" />
  <path d="M0 0 C0.66 0 1.32 0 2 0 C1.67 0.66 1.34 1.32 1 2 C0.67 1.34 0.34 0.68 0 0 Z " fill="#4BA346" transform="translate(326,179)" />
  <path d="M0 0 C2 1 2 1 2 1 Z " fill="#4BA346" transform="translate(578,662)" />
  <path d="M0 0 C2 1 2 1 2 1 Z " fill="#4BA346" transform="translate(217,662)" />
  <path d="" fill="#4BA346" transform="translate(0,0)" />
  <path d="" fill="#4BA346" transform="translate(0,0)" />
  <path d="M0 0 C2 1 2 1 2 1 Z " fill="#4BA346" transform="translate(550,645)" />
  <path d="" fill="#4BA346" transform="translate(0,0)" />
  <path d="M0 0 C2 1 2 1 2 1 Z " fill="#4BA346" transform="translate(655,638)" />
  <path d="" fill="#4BA346" transform="translate(0,0)" />
  <path d="" fill="#4BA346" transform="translate(0,0)" />
  <path d="M0 0 C2 1 2 1 2 1 Z " fill="#4BA346" transform="translate(242,554)" />
  <path d="" fill="#4BA346" transform="translate(0,0)" />
  <path d="" fill="#4BA346" transform="translate(0,0)" />
  <path d="M0 0 C2 1 2 1 2 1 Z " fill="#4BA346" transform="translate(704,503)" />
  <path d="" fill="#4BA346" transform="translate(0,0)" />
  <path d="M0 0 C2 1 2 1 2 1 Z " fill="#4BA346" transform="translate(146,498)" />
  <path d="M0 0 C2 1 2 1 2 1 Z " fill="#4BA346" transform="translate(734,487)" />
  <path d="M0 0 C2 1 2 1 2 1 Z " fill="#4BA346" transform="translate(90,487)" />
  <path d="" fill="#4BA346" transform="translate(0,0)" />
  <path d="" fill="#4BA346" transform="translate(0,0)" />
  <path d="" fill="#4BA346" transform="translate(0,0)" />
  <path d="" fill="#4BA346" transform="translate(0,0)" />
  <path d="" fill="#4BA346" transform="translate(0,0)" />
  <path d="M0 0 C2 1 2 1 2 1 Z " fill="#4BA346" transform="translate(629,425)" />
  <path d="" fill="#4BA346" transform="translate(0,0)" />
  <path d="M0 0 C2 1 2 1 2 1 Z " fill="#4BA346" transform="translate(135,413)" />
  <path d="M0 0 C2 1 2 1 2 1 Z " fill="#4BA346" transform="translate(287,409)" />
  <path d="M0 0 C2 1 2 1 2 1 Z " fill="#4BA346" transform="translate(289,408)" />
  <path d="" fill="#4BA346" transform="translate(0,0)" />
  <path d="M0 0 C2 1 2 1 2 1 Z " fill="#4BA346" transform="translate(117,399)" />
  <path d="M0 0 C2 1 2 1 2 1 Z " fill="#4BA346" transform="translate(113,396)" />
  <path d="M0 0 C2 1 2 1 2 1 Z " fill="#4BA346" transform="translate(106,389)" />
  <path d="M0 0 C2 1 2 1 2 1 Z " fill="#4BA346" transform="translate(98,380)" />
  <path d="M0 0 C2 1 2 1 2 1 Z " fill="#4BA346" transform="translate(136,372)" />
  <path d="M0 0 C2 1 2 1 2 1 Z " fill="#4BA346" transform="translate(200,363)" />
  <path d="" fill="#4BA346" transform="translate(0,0)" />
  <path d="" fill="#4BA346" transform="translate(0,0)" />
  <path d="M0 0 C2 1 2 1 2 1 Z " fill="#4BA346" transform="translate(257,346)" />
  <path d="" fill="#4BA346" transform="translate(0,0)" />
  <path d="" fill="#4BA346" transform="translate(0,0)" />
  <path d="" fill="#4BA346" transform="translate(0,0)" />
  <path d="M0 0 C2 1 2 1 2 1 Z " fill="#4BA346" transform="translate(168,229)" />
  <path d="" fill="#4BA346" transform="translate(0,0)" />
  <path d="M0 0 C2 1 2 1 2 1 Z " fill="#4BA346" transform="translate(195,209)" />
  <path d="" fill="#4BA346" transform="translate(0,0)" />
  <path d="M0 0 C2 1 2 1 2 1 Z " fill="#4BA346" transform="translate(291,192)" />
  <path d="M0 0 C2 1 2 1 2 1 Z " fill="#4BA346" transform="translate(145,191)" />
  <path d="M0 0 C2 1 2 1 2 1 Z " fill="#4BA346" transform="translate(339,187)" />
  <path d="" fill="#4BA346" transform="translate(0,0)" />
  <path d="M0 0 C2 1 2 1 2 1 Z " fill="#4BA346" transform="translate(106,182)" />
  <path d="M0 0 C2 1 2 1 2 1 Z " fill="#4BA346" transform="translate(104,179)" />
  <path d="M0 0 C2 1 2 1 2 1 Z " fill="#4BA346" transform="translate(175,175)" />
  <path d="M0 0 C2 1 2 1 2 1 Z " fill="#4BA346" transform="translate(293,154)" />
  <path d="M0 0 C2 1 2 1 2 1 Z " fill="#4BA346" transform="translate(141,154)" />
  <path d="M0 0 C2 1 2 1 2 1 Z " fill="#4BA346" transform="translate(153,148)" />
  <path d="" fill="#4BA346" transform="translate(0,0)" />
  <path d="" fill="#4BA346" transform="translate(0,0)" />
  <path d="" fill="#4BA346" transform="translate(0,0)" />
  <path d="" fill="#4BA346" transform="translate(0,0)" />
  <path d="" fill="#4BA346" transform="translate(0,0)" />
  <path d="" fill="#4BA346" transform="translate(0,0)" />
  <path d="" fill="#4BA346" transform="translate(0,0)" />
  <path d="" fill="#4BA346" transform="translate(0,0)" />
  <path d="" fill="#4BA346" transform="translate(0,0)" />
  <path d="" fill="#4BA346" transform="translate(0,0)" />
  <path d="" fill="#4BA346" transform="translate(0,0)" />
  <path d="" fill="#4BA346" transform="translate(0,0)" />
  <path d="" fill="#4BA346" transform="translate(0,0)" />
  <path d="" fill="#4BA346" transform="translate(0,0)" />
  <path d="" fill="#4BA346" transform="translate(0,0)" />
  <path d="" fill="#4BA346" transform="translate(0,0)" />
  <path d="" fill="#4BA346" transform="translate(0,0)" />
  <path d="" fill="#4BA346" transform="translate(0,0)" />
  <path d="" fill="#4BA346" transform="translate(0,0)" />
  <path d="" fill="#4BA346" transform="translate(0,0)" />
  <path d="" fill="#4BA346" transform="translate(0,0)" />
  <path d="" fill="#4BA346" transform="translate(0,0)" />
  <path d="" fill="#4BA346" transform="translate(0,0)" />
  <path d="" fill="#4BA346" transform="translate(0,0)" />
  <path d="" fill="#4BA346" transform="translate(0,0)" />
  <path d="" fill="#4BA346" transform="translate(0,0)" />
  <path d="" fill="#4BA346" transform="translate(0,0)" />
  <path d="" fill="#4BA346" transform="translate(0,0)" />
  <path d="" fill="#4BA346" transform="translate(0,0)" />
  <path d="" fill="#4BA346" transform="translate(0,0)" />
  <path d="" fill="#4BA346" transform="translate(0,0)" />
</svg>