<svg xmlns="http://www.w3.org/2000/svg" width="512" height="512" viewBox="0 0 512 512" version="1.1"><path d="" stroke="none" fill="#4BA346" fill-rule="evenodd"/><path d="M 100.116 111.044 C 89.469 113.832, 80.709 119.085, 72 127.905 C 63.745 136.264, 59.431 143.498, 55.841 155 C 53.500 162.500, 53.500 162.500, 53.500 256 C 53.500 349.500, 53.500 349.500, 55.841 357 C 59.431 368.502, 63.745 375.736, 72 384.095 C 80.840 393.048, 89.511 398.190, 100.511 401.003 C 108.143 402.955, 111.664 403, 256 403 C 400.336 403, 403.857 402.955, 411.489 401.003 C 422.489 398.190, 431.160 393.048, 440 384.095 C 448.255 375.736, 452.569 368.502, 456.159 357 C 458.500 349.500, 458.500 349.500, 458.500 256 C 458.500 162.500, 458.500 162.500, 456.159 155 C 452.569 143.498, 448.255 136.264, 440 127.905 C 431.160 118.952, 422.489 113.810, 411.489 110.997 C 403.851 109.044, 400.431 109.001, 255.590 109.055 C 112.498 109.108, 107.251 109.175, 100.116 111.044 M 103.287 133 C 93.676 136.417, 85.570 143.426, 80.220 152.944 L 77.940 157 255.990 157 L 434.041 157 431.949 152.901 C 427.394 143.972, 418.419 136.413, 408.200 132.897 C 402.881 131.067, 397.515 131.003, 255.593 131.073 C 115.021 131.143, 108.269 131.228, 103.287 133 M 75.008 259.250 C 75.012 310.199, 75.397 341.873, 76.060 346 C 78.620 361.926, 88.646 373.889, 103.800 379.103 C 109.115 380.932, 114.582 381, 256 381 C 398.579 381, 402.845 380.946, 408.327 379.060 C 417.784 375.806, 424.983 369.978, 430.459 361.143 C 436.649 351.157, 436.376 355.411, 436.747 263.250 L 437.085 179 256.043 179 L 75 179 75.008 259.250 M 155.500 196.165 C 144.130 197.493, 134.766 202.266, 126.778 210.806 C 117.855 220.346, 114 230.209, 114 243.500 C 114 253.161, 115.693 259.447, 120.399 267.263 L 123.869 273.025 115.075 281.763 C 101.121 295.626, 95.047 310.102, 94.684 330.354 C 94.561 337.238, 94.934 341.464, 95.810 343.119 C 98.732 348.638, 96.960 348.476, 158 348.804 C 189.075 348.971, 216.373 348.837, 218.662 348.506 C 221.217 348.136, 223.822 346.905, 225.412 345.316 C 227.891 342.836, 228 342.251, 228 331.413 C 228 316.941, 226.873 311.671, 221.296 300.049 C 217.455 292.047, 215.409 289.247, 207.956 281.794 L 199.152 272.990 202.617 267.245 C 209.645 255.590, 211.269 241.521, 207.030 229 C 204.336 221.041, 201.875 216.909, 196.183 210.791 C 185.669 199.487, 171.295 194.320, 155.500 196.165 M 249.789 207.898 C 247.105 210.296, 246.545 211.520, 246.545 215 C 246.545 218.480, 247.105 219.704, 249.789 222.102 L 253.032 225 331.582 225 C 387.465 225, 410.762 224.678, 412.316 223.883 C 419.839 220.035, 419.839 209.965, 412.316 206.117 C 410.762 205.322, 387.465 205, 331.582 205 L 253.032 205 249.789 207.898 M 156.723 216.134 C 143.436 218.103, 134.056 229.415, 134.032 243.500 C 134.004 259.518, 145.545 271.125, 161.500 271.125 C 177.368 271.125, 189.027 259.426, 188.978 243.554 C 188.923 225.723, 174.538 213.495, 156.723 216.134 M 249.789 264.898 C 247.105 267.296, 246.545 268.520, 246.545 272 C 246.545 275.480, 247.105 276.704, 249.789 279.102 L 253.032 282 331.582 282 C 387.465 282, 410.762 281.678, 412.316 280.883 C 419.839 277.035, 419.839 266.965, 412.316 263.117 C 410.762 262.322, 387.465 262, 331.582 262 L 253.032 262 249.789 264.898 M 135.946 289.843 C 125.458 296.550, 116.808 309.891, 115.167 321.890 C 114.707 325.249, 114.557 328.223, 114.832 328.499 C 115.108 328.775, 136.183 329, 161.667 329 L 208 329 208 325.182 C 208 320.678, 205.592 312.095, 202.779 306.573 C 200.142 301.395, 191.582 292.425, 186.355 289.362 C 182.183 286.917, 182.183 286.917, 175.975 289.009 C 167.592 291.832, 155.459 291.850, 147.148 289.050 C 143.801 287.923, 140.912 287, 140.727 287 C 140.543 287, 138.391 288.279, 135.946 289.843 M 249.789 321.898 C 247.105 324.296, 246.545 325.520, 246.545 329 C 246.545 332.480, 247.105 333.704, 249.789 336.102 L 253.032 339 331.582 339 C 387.465 339, 410.762 338.678, 412.316 337.883 C 419.839 334.035, 419.839 323.965, 412.316 320.117 C 410.762 319.322, 387.465 319, 331.582 319 L 253.032 319 249.789 321.898" stroke="none" fill="#4BA346" fill-rule="evenodd"/></svg>