<?xml version="1.0" encoding="UTF-8"?>
<svg version="1.1" xmlns="http://www.w3.org/2000/svg" width="800" height="800">
<path d="M0 0 C0.84672775 -0.00571014 1.69345551 -0.01142029 2.56584167 -0.01730347 C3.49162521 -0.01842133 4.41740875 -0.01953918 5.37124634 -0.02069092 C6.34876358 -0.02565582 7.32628082 -0.03062073 8.3334198 -0.03573608 C11.57210998 -0.05035957 14.8107512 -0.05715972 18.04946899 -0.06268311 C20.29764813 -0.068434 22.54582725 -0.07419175 24.79400635 -0.07995605 C29.51002227 -0.0904663 34.22602113 -0.09630895 38.94204712 -0.09979248 C44.98713553 -0.10527998 51.03199901 -0.12931353 57.07701683 -0.15776443 C61.72154399 -0.17638013 66.36601683 -0.18159583 71.01057816 -0.18312836 C73.23932755 -0.18615737 75.46807594 -0.19419421 77.69678879 -0.20731354 C80.81370969 -0.22435286 83.93007911 -0.22249889 87.04702759 -0.21600342 C87.96876266 -0.2252182 88.89049774 -0.23443298 89.84016418 -0.243927 C95.5732774 -0.20646829 99.1714697 0.49358511 103.38540649 4.67559814 C107.12452762 9.42233958 107.96496408 11.49972811 108.04385376 17.5178833 C108.05375336 18.17166458 108.06365295 18.82544586 108.07385254 19.4990387 C108.1054786 21.66332357 108.13022921 23.8276304 108.15493774 25.99200439 C108.17550633 27.49130834 108.19650277 28.99060648 108.21791077 30.48989868 C108.27314137 34.43869321 108.32254625 38.38754015 108.37075806 42.33642578 C108.42096588 46.36489535 108.47665569 50.39328867 108.53189087 54.42169189 C108.63948453 62.32787745 108.74092679 70.23412674 108.83853149 78.14044189 C109.44870117 78.47563843 110.05887085 78.81083496 110.68753052 79.15618896 C111.89439514 79.82225159 111.89439514 79.82225159 113.12564087 80.50177002 C113.92143555 80.94009155 114.71723022 81.37841309 115.53713989 81.83001709 C130.65730011 90.43951796 140.43829408 103.21969082 145.69790649 119.85919189 C147.00849103 124.72707731 147.93643101 129.61849307 148.69485474 134.60066223 C150.88288021 148.77275266 154.19292241 162.72014336 157.33853149 176.70294189 C163.89601397 205.88107104 163.89601397 205.88107104 165.36978149 214.79669189 C167.55523875 227.8580609 170.71338366 240.73662569 173.65005493 253.64508057 C178.88360836 276.69333266 178.88360836 276.69333266 180.682724 288.33976746 C181.7084335 294.78077261 183.10132717 301.12349837 184.53775024 307.48419189 C184.90055588 309.09270775 184.90055588 309.09270775 185.27069092 310.73371887 C186.27382529 315.16180402 187.28341734 319.58832677 188.30361938 324.01251221 C189.0577696 327.29267172 189.79856021 330.57563363 190.53775024 333.85919189 C190.76895065 334.84480103 191.00015106 335.83041016 191.23835754 336.84588623 C194.55804818 351.70140853 194.55804818 351.70140853 191.15103149 358.51544189 C187.77426061 362.34853317 184.93931736 365.2041567 179.83853149 366.14044189 C178.03271394 366.22035293 176.2242134 366.24814013 174.41665649 366.23809814 C173.39185181 366.23487549 172.36704712 366.23165283 171.31118774 366.22833252 C169.7159729 366.21576416 169.7159729 366.21576416 168.08853149 366.20294189 C167.00958618 366.19843018 165.93064087 366.19391846 164.81900024 366.18927002 C162.15878766 366.17749917 159.49868785 366.16105589 156.83853149 366.14044189 C156.84406225 367.81546799 156.84406225 367.81546799 156.84970474 369.524333 C156.93859782 396.72587221 157.00427953 423.92739253 157.04578018 451.12904644 C157.06638426 464.28369504 157.09446379 477.43824755 157.14028931 490.59283447 C157.18022288 502.06158175 157.20597996 513.53025941 157.21488547 524.99907428 C157.22008913 531.06881856 157.23227496 537.13836373 157.26145172 543.20804405 C157.28872372 548.92814506 157.29695267 554.64796606 157.29096222 560.36812592 C157.29205719 562.46061795 157.29994037 564.55311994 157.31535339 566.6455555 C157.42069715 581.69251774 156.6915624 595.82415326 146.83853149 608.14044189 C135.84507342 618.78343738 124.58359344 622.45861471 109.54689026 622.40786743 C108.54845819 622.41239854 107.55002611 622.41692966 106.52133852 622.42159808 C103.19595069 622.43419741 99.87072757 622.43262461 96.5453186 622.43096924 C94.15305878 622.43695708 91.7608009 622.44376321 89.36854553 622.45132446 C83.55776269 622.46713143 77.74702933 622.47343142 71.93622606 622.47454922 C67.21205647 622.47550183 62.48790019 622.47962268 57.76373482 622.48595047 C44.35506977 622.50354406 30.94643663 622.51279171 17.53775995 622.51128952 C16.81612345 622.51120961 16.09448694 622.5111297 15.35098267 622.51104736 C14.26719966 622.51092472 14.26719966 622.51092472 13.16152204 622.5107996 C1.44363111 622.50998612 -10.27413147 622.52914425 -21.99198527 622.5573241 C-34.03825017 622.58606426 -46.08445246 622.59986393 -58.1307525 622.59813654 C-64.88819366 622.59747327 -71.64550004 622.60293849 -78.40291023 622.62449265 C-84.75513018 622.64384557 -91.10706532 622.64401939 -97.45929527 622.62945938 C-99.78931723 622.62736689 -102.11935688 622.63209828 -104.44934845 622.6441803 C-107.63217113 622.65961508 -110.81400945 622.65033565 -113.99681091 622.63491821 C-114.91676049 622.64520534 -115.83671006 622.65549247 -116.7845369 622.66609132 C-122.68177068 622.6030451 -127.25843277 621.54225816 -132.16146851 618.14044189 C-135.80840578 613.5817703 -135.51659864 608.65108979 -135.55990601 603.04278564 C-135.01881553 599.10131284 -133.21777452 596.64150833 -130.97396851 593.45294189 C-124.80329584 588.98452376 -116.00195174 589.87850954 -108.78646851 589.94512939 C-107.62139771 589.94795929 -106.4563269 589.95078918 -105.25595093 589.95370483 C-101.55768288 589.96484382 -97.85966259 589.98993711 -94.16146851 590.01544189 C-91.64454494 590.0254798 -89.12761755 590.03460423 -86.61068726 590.04278564 C-80.46086404 590.0647626 -74.31118398 590.09817746 -68.16146851 590.14044189 C-68.15926867 589.05074144 -68.15926867 589.05074144 -68.15702438 587.93902683 C-68.11983153 570.19104502 -68.06065303 552.44326947 -67.97756577 534.69544315 C-67.93790375 526.11240931 -67.90544651 517.52946546 -67.89047241 508.9463501 C-67.87738885 501.4576936 -67.85025535 493.96923617 -67.80685544 486.48069185 C-67.78438989 482.52242491 -67.76854874 478.56440209 -67.76958466 474.60606575 C-67.76886875 436.73539315 -67.76886875 436.73539315 -59.16146851 419.89044189 C-58.83146851 419.19821533 -58.50146851 418.50598877 -58.16146851 417.79278564 C-55.40900967 412.16959826 -52.0764062 407.71862178 -47.28646851 403.64044189 C-46.64967163 403.09387939 -46.01287476 402.54731689 -45.35678101 401.98419189 C-44.63232788 401.37575439 -43.90787476 400.76731689 -43.16146851 400.14044189 C-42.24107788 399.32962158 -41.32068726 398.51880127 -40.37240601 397.68341064 C-37.05451377 394.9252887 -33.48120394 392.93225935 -29.66146851 390.95294189 C-29.02338257 390.6106958 -28.38529663 390.26844971 -27.72787476 389.91583252 C-19.26441836 385.45910446 -11.65925958 384.56662483 -2.16146851 384.14044189 C-1.11990601 384.08630127 -0.07834351 384.03216064 0.99478149 383.97637939 C16.52397447 383.52685012 30.98659794 389.14133283 42.33853149 399.70294189 C44.19115532 401.49571972 46.02472902 403.30839715 47.83853149 405.14044189 C48.34368286 405.60482666 48.84883423 406.06921143 49.36929321 406.54766846 C53.28309584 410.21201993 55.67663997 413.93742991 57.96353149 418.76544189 C58.4721875 419.81115356 58.4721875 419.81115356 58.99111938 420.87799072 C63.46742891 430.28372984 66.9678152 439.78349059 66.95878601 450.28443909 C66.96084801 452.13744881 66.96084801 452.13744881 66.96295166 454.02789307 C66.95941301 455.38873316 66.95577821 456.749573 66.95205688 458.1104126 C66.95177468 459.54955544 66.9519334 460.98869843 66.95249939 462.42784119 C66.95278607 466.3282598 66.9469102 470.22864761 66.93992543 474.12905908 C66.93367041 478.20765543 66.93308639 482.2862525 66.93190002 486.36485291 C66.92879305 494.08537407 66.92058819 501.80588105 66.91055053 509.52639598 C66.89936973 518.31715288 66.89387399 527.10791046 66.8888551 535.8986727 C66.87840506 553.97927047 66.86081788 572.05985504 66.83853149 590.14044189 C74.02859341 590.02281413 81.21850431 589.89798309 88.40835571 589.76812744 C90.85461588 589.72479777 93.30090592 589.68312128 95.7472229 589.64312744 C99.26212567 589.58537752 102.77687841 589.52169627 106.29165649 589.45684814 C107.3865741 589.44013565 108.4814917 589.42342316 109.60958862 589.40620422 C110.63034485 589.386259 111.65110107 589.36631378 112.70278931 589.34576416 C113.59991638 589.33021988 114.49704346 589.3146756 115.4213562 589.29866028 C117.78760462 589.14377536 119.62062693 588.97858714 121.83853149 588.14044189 C125.075423 582.67465785 125.27461167 576.15590585 125.23725891 569.97184753 C125.24722915 568.65561782 125.24722915 568.65561782 125.25740081 567.31279761 C125.27592899 564.39707067 125.27343241 561.48175777 125.27090454 558.565979 C125.27992791 556.46615016 125.29025654 554.36632658 125.30178833 552.26651001 C125.32931673 546.58332592 125.33863724 540.90024189 125.3446424 535.21699977 C125.35403685 529.27123869 125.38024115 523.32555203 125.40464783 517.37983704 C125.44828697 506.12849874 125.47684987 494.87717491 125.49997121 483.62577778 C125.52703669 470.81319435 125.57094741 458.00068588 125.61625993 445.18815601 C125.70906923 418.83895864 125.78076703 392.48973775 125.83853149 366.14044189 C124.54016798 366.14320727 123.24180447 366.14597265 121.9040966 366.14882183 C91.08701195 366.21378839 60.26994577 366.26325994 29.45280909 366.29363788 C25.66015914 366.29739003 21.86750935 366.30127299 18.07485962 366.30523682 C17.31980794 366.30602375 16.56475627 366.30681068 15.78682424 366.30762146 C3.55942038 366.32067714 -8.66794119 366.34433187 -20.89531995 366.37190028 C-33.44074396 366.39994997 -45.9861458 366.41661723 -58.53159988 366.42270738 C-66.27349078 366.42682473 -74.01526214 366.43983138 -81.75711624 366.4641913 C-87.69250796 366.48191636 -93.62783824 366.48380861 -99.56325722 366.47976494 C-101.99893111 366.48059155 -104.43460945 366.48657583 -106.87025642 366.49805832 C-110.19203284 366.51295267 -113.51329504 366.50940629 -116.83508301 366.50120544 C-117.80201588 366.50994397 -118.76894875 366.51868249 -119.76518261 366.52768582 C-125.87722881 366.48681448 -130.45715307 365.79101978 -135.01669312 361.32208252 C-135.52724243 360.65370361 -136.03779175 359.98532471 -136.56381226 359.29669189 C-137.14034546 358.55056641 -137.71687866 357.80444092 -138.31088257 357.03570557 C-139.19598511 355.85005005 -139.19598511 355.85005005 -140.09896851 354.64044189 C-140.7186853 353.82744629 -141.3384021 353.01445068 -141.97689819 352.17681885 C-145.73840698 347.19336499 -149.21981674 342.11745858 -152.45834351 336.77716064 C-154.51735599 333.58946929 -156.81794006 330.62023224 -159.16146851 327.64044189 C-162.87119945 322.92305286 -166.1611209 318.07806128 -169.30599976 312.96856689 C-172.21672953 308.53200193 -175.52211569 304.42693771 -178.82943726 300.28106689 C-180.50068379 298.03034292 -181.85526684 296.00225802 -183.19271851 293.57794189 C-185.05259289 290.33054217 -187.03492249 287.71505647 -189.47396851 284.89044189 C-193.12267068 280.52503037 -196.17192903 276.07523575 -199.14193726 271.23419189 C-202.13864513 266.64349047 -205.46671592 262.31526924 -208.81112671 257.97369385 C-212.21702194 253.52164216 -215.27272592 248.94414895 -218.16146851 244.14044189 C-221.83637749 245.36541156 -222.01679705 246.17801247 -223.91146851 249.45294189 C-228.05943476 256.23002595 -232.83560477 262.48259121 -237.65463257 268.79400635 C-241.19900038 273.45390473 -244.55453805 278.17375222 -247.76571655 283.06866455 C-250.17213955 286.64062634 -252.86033469 289.9816708 -255.54818726 293.34356689 C-257.64387774 296.01080932 -259.5237935 298.67691305 -261.16146851 301.64044189 C-263.12502651 305.19368703 -265.508618 308.3475127 -268.03646851 311.51544189 C-271.37664146 315.77714633 -274.51776066 320.07340457 -277.46224976 324.62091064 C-280.24836351 328.75204483 -283.23438946 332.73729917 -286.20419312 336.73760986 C-288.26325776 339.5184652 -290.26816267 342.30089509 -292.18490601 345.18341064 C-294.38938818 348.48142054 -296.74028956 351.62524617 -299.16146851 354.76544189 C-299.58685913 355.32489502 -300.01224976 355.88434814 -300.45053101 356.46075439 C-306.76656563 364.67547427 -306.76656563 364.67547427 -311.16146851 366.14044189 C-312.74180042 366.22749618 -314.32557229 366.25812141 -315.90829468 366.25396729 C-316.86906418 366.25389175 -317.82983368 366.25381622 -318.81971741 366.2537384 C-319.85417496 366.24857712 -320.88863251 366.24341583 -321.95443726 366.23809814 C-323.54618523 366.23597572 -323.54618523 366.23597572 -325.17008972 366.23381042 C-328.56307786 366.22820796 -331.95600028 366.21565503 -335.34896851 366.20294189 C-337.64779568 366.19792721 -339.94662388 366.19336425 -342.24545288 366.18927002 C-347.88414722 366.17823773 -353.52280317 366.16149719 -359.16146851 366.14044189 C-359.14575806 366.81099609 -359.13004761 367.48155029 -359.11386108 368.17242432 C-359.05132192 371.22417699 -359.01241787 374.27579458 -358.97396851 377.32794189 C-358.94883179 378.38303955 -358.92369507 379.43813721 -358.89779663 380.52520752 C-358.88812866 381.54678955 -358.87846069 382.56837158 -358.86849976 383.62091064 C-358.85278931 384.55830078 -358.83707886 385.49569092 -358.82089233 386.46148682 C-359.52415451 391.99331178 -363.14675707 395.5272016 -367.16146851 399.14044189 C-371.72376862 400.6612086 -376.116193 400.53001818 -380.78646851 399.64044189 C-384.99543847 396.98214508 -388.34308193 392.77267943 -389.82943726 387.99200439 C-390.32129619 383.76780418 -390.26515257 379.57623695 -390.22396851 375.32794189 C-390.21945679 374.44428955 -390.21494507 373.56063721 -390.21029663 372.65020752 C-390.19856716 370.48025631 -390.18063346 368.31034018 -390.16146851 366.14044189 C-390.85184204 366.16138916 -391.54221558 366.18233643 -392.25350952 366.20391846 C-395.41017843 366.28755285 -398.56661353 366.33925143 -401.72396851 366.39044189 C-402.81000366 366.42395752 -403.89603882 366.45747314 -405.01498413 366.49200439 C-411.66349733 366.57283738 -415.81659521 366.22093656 -421.16146851 362.14044189 C-422.93881226 360.28106689 -422.93881226 360.28106689 -424.09896851 358.39044189 C-424.70031616 357.47005127 -424.70031616 357.47005127 -425.31381226 356.53106689 C-427.58547784 350.12434183 -425.75914711 343.24322128 -424.26303101 336.84747314 C-424.06800995 335.97958664 -423.87298889 335.11170013 -423.67205811 334.21751404 C-423.05155562 331.46076495 -422.41986244 328.70675501 -421.78646851 325.95294189 C-421.16165027 323.21669404 -420.53946624 320.47991293 -419.92230225 317.7419281 C-419.53971963 316.04660094 -419.15276288 314.35225145 -418.76025391 312.65919495 C-417.72241894 308.08182433 -416.89348894 303.52005323 -416.21176147 298.87554932 C-415.18459281 291.97990264 -413.7316494 285.21896468 -412.19271851 278.42169189 C-411.76323225 276.49519206 -411.33375098 274.5686911 -410.90454865 272.64212799 C-410.01051702 268.63554069 -409.10885125 264.63066513 -408.20852661 260.62548828 C-407.46363847 257.31036877 -406.72050692 253.99487716 -405.98165894 250.67840576 C-405.43132456 248.20983064 -404.87729844 245.74207435 -404.31881714 243.27532959 C-403.09087513 237.76509339 -401.99129131 232.28453296 -401.17294312 226.69781494 C-400.12324796 219.55306352 -398.59016328 212.54727382 -397.00912476 205.50372314 C-396.70478883 204.13063902 -396.40096225 202.75744191 -396.09761047 201.38414001 C-394.98460362 196.35030752 -393.8631259 191.3183724 -392.74075317 186.28662109 C-391.63747959 181.33930566 -390.53839919 176.39108976 -389.44662476 171.44122314 C-389.29620979 170.75964897 -389.14579483 170.0780748 -388.99082184 169.37584686 C-386.96704164 160.17473428 -385.17505339 150.97290305 -383.72860718 141.66363525 C-382.97274823 136.96806895 -381.96883185 132.37022932 -380.78646851 127.76544189 C-380.57369263 126.93093506 -380.36091675 126.09642822 -380.14169312 125.2366333 C-377.43211953 114.95839058 -373.62460741 104.70741781 -367.16146851 96.14044189 C-366.50146851 96.14044189 -365.84146851 96.14044189 -365.16146851 96.14044189 C-365.16146851 95.48044189 -365.16146851 94.82044189 -365.16146851 94.14044189 C-350.48993337 80.41284744 -338.06001411 75.97264117 -318.32310486 76.02018738 C-316.37852958 76.01890574 -316.37852958 76.01890574 -314.39466995 76.01759821 C-310.80757683 76.01536763 -307.2205137 76.01935485 -303.6334244 76.02437627 C-299.76098231 76.02870124 -295.88854185 76.0272329 -292.01609802 76.026474 C-285.31054345 76.02595006 -278.60499861 76.02908328 -271.89944649 76.03471184 C-262.20438552 76.04284445 -252.50932925 76.04544387 -242.81426524 76.04669983 C-227.08404973 76.04888758 -211.35383941 76.05554016 -195.62362671 76.06500244 C-180.34465562 76.07418372 -165.06568594 76.08126106 -149.78671265 76.08551025 C-148.37363534 76.08590434 -148.37363534 76.08590434 -146.93201102 76.08630639 C-142.20593895 76.08761144 -137.47986687 76.08887514 -132.75379479 76.09011829 C-93.55634906 76.10048227 -54.35890913 76.11809306 -15.16146851 76.14044189 C-15.17146126 74.95773209 -15.17146126 74.95773209 -15.18165588 73.75112915 C-15.24186224 66.3066478 -15.28749111 58.86228513 -15.31690502 51.41762352 C-15.33253559 47.5905859 -15.35372569 43.7637501 -15.38778687 39.93682861 C-15.42047412 36.2409836 -15.43834114 32.54533225 -15.44610023 28.84935379 C-15.45162701 27.44199197 -15.46241951 26.03464028 -15.47865868 24.6273613 C-15.50055486 22.65054484 -15.50169495 20.67353193 -15.50204468 18.69659424 C-15.51203743 17.01115005 -15.51203743 17.01115005 -15.52223206 15.29165649 C-14.81429893 9.10796861 -11.75444789 5.15929886 -7.16146851 1.14044189 C-4.42606615 0.22864111 -2.81518935 0.01138501 0 0 Z M15.83853149 31.14044189 C15.82435181 35.66762939 15.81017212 40.19481689 15.79556274 44.85919189 C15.77548868 47.739477 15.75395568 50.61960494 15.72720337 53.49981689 C15.68494453 58.06433194 15.64788422 62.6284483 15.64297485 67.19317627 C15.63867382 70.8764343 15.61006446 74.55879742 15.56509972 78.24177551 C15.55218181 79.64181796 15.54779672 81.04196783 15.5523777 82.44206238 C15.58537218 95.59673482 15.58537218 95.59673482 11.39570618 101.61712646 C7.59974071 105.33055234 4.26495726 106.51542969 -0.98897362 106.5140295 C-2.16154949 106.52101925 -3.33412535 106.52800899 -4.54223382 106.53521055 C-5.82636246 106.52763449 -7.11049109 106.52005844 -8.43353271 106.51225281 C-9.81467027 106.51482773 -11.19580588 106.51872901 -12.57693636 106.52384239 C-16.37173368 106.53412278 -20.1662987 106.52580869 -23.96108484 106.51454556 C-28.05388661 106.50569831 -32.14665528 106.51419341 -36.23945618 106.52075195 C-43.33192425 106.52991228 -50.42432764 106.52857677 -57.51679611 106.52056694 C-67.77895547 106.50934194 -78.04102253 106.51837056 -88.30317385 106.53312875 C-104.96264288 106.55690716 -121.62210052 106.57026717 -138.28158569 106.57427979 C-139.27877796 106.57452465 -140.27597023 106.57476952 -141.30338044 106.57502181 C-152.42858238 106.57756767 -163.55378344 106.57813456 -174.6789856 106.5770874 C-178.71286011 106.57675438 -182.74673461 106.57646898 -186.78060913 106.57623291 C-187.77598121 106.57617012 -188.77135329 106.57610733 -189.79688816 106.57604264 C-206.39133717 106.57543793 -222.98573363 106.59031454 -239.58016074 106.61706597 C-249.81676085 106.63287922 -260.05319145 106.63512054 -270.28979339 106.61993194 C-277.30370199 106.61047316 -284.31750833 106.61521259 -291.33140491 106.63114577 C-295.37888452 106.63984902 -299.42609255 106.64195917 -303.47355843 106.62661934 C-307.17967829 106.61268521 -310.88530648 106.61714287 -314.59139962 106.63614035 C-316.56534787 106.64145851 -318.53931892 106.62705687 -320.51321638 106.61192983 C-329.61749165 106.68611803 -334.75392343 108.34168107 -341.34896851 114.82794189 C-342.29836304 115.73093018 -342.29836304 115.73093018 -343.26693726 116.65216064 C-348.49919562 123.52421957 -350.17183179 131.56231568 -351.78646851 139.89044189 C-351.99014038 140.88559814 -352.19381226 141.88075439 -352.40365601 142.90606689 C-353.42476018 147.98540563 -354.31276502 153.06259659 -355.05209351 158.19049072 C-356.09839137 165.04747528 -357.52808974 171.77999233 -359.05990601 178.54278564 C-359.336138 179.78178116 -359.61237 181.02077667 -359.89697266 182.2973175 C-360.91845912 186.87852896 -361.94735203 191.45805059 -362.9770813 196.03741455 C-366.10719543 209.96317506 -369.19916274 223.86186354 -371.65005493 237.92472839 C-373.98866909 251.12055397 -377.12361358 264.15904439 -380.10336304 277.22149658 C-384.01721957 294.19535573 -384.01721957 294.19535573 -386.78890991 311.37969971 C-387.33387918 315.4180434 -388.27088731 319.32348228 -389.28646851 323.26544189 C-390.31546575 327.30845233 -391.16146851 330.92722725 -391.16146851 335.14044189 C-382.4340802 335.39601103 -373.70799052 335.59109893 -364.97766876 335.71037579 C-360.92300212 335.76764416 -356.8709056 335.84521418 -352.81771851 335.97027588 C-348.90117964 336.09035632 -344.98710114 336.15567444 -341.06886292 336.18409157 C-339.57905836 336.20432214 -338.08937965 336.24383638 -336.60063171 336.30347252 C-327.89907383 336.7509018 -327.89907383 336.7509018 -320.4960022 332.73634338 C-318.45372972 329.95370184 -316.77416257 327.18758453 -315.16146851 324.14044189 C-314.40367662 323.00950818 -313.63107868 321.88809517 -312.83334351 320.78497314 C-311.88201538 319.38311768 -311.88201538 319.38311768 -310.91146851 317.95294189 C-307.41643873 312.8676131 -303.76892059 307.9284848 -300.03646851 303.01544189 C-296.00437549 297.70664526 -292.29495631 292.32553951 -288.79818726 286.64434814 C-286.50405723 283.13471247 -283.85170838 279.96709448 -281.19271851 276.73028564 C-278.30296084 273.04584462 -275.79546947 269.14009661 -273.23568726 265.22247314 C-270.39408771 261.00020942 -267.31436984 256.97649628 -264.23568726 252.92559814 C-262.51874196 250.62017066 -260.90947007 248.30212613 -259.34896851 245.89044189 C-255.95428569 240.67375418 -252.16148255 235.75598098 -248.3868103 230.81134033 C-245.75433089 227.34539059 -243.3870684 223.88455005 -241.16146851 220.14044189 C-239.28143295 217.38906316 -237.32232633 214.70038229 -235.34896851 212.01544189 C-234.84043335 211.30001221 -234.33189819 210.58458252 -233.80795288 209.84747314 C-230.70649128 205.64143523 -228.22553927 202.9737462 -223.16146851 201.14044189 C-218.16174701 200.58491728 -214.38784674 200.67318098 -210.00912476 203.49591064 C-203.31430131 209.45472813 -198.72255829 217.74262891 -194.04037476 225.29278564 C-191.51256847 229.12390993 -188.68753415 232.69975569 -185.8531189 236.30426025 C-183.24897676 239.64438786 -180.88283258 243.03596434 -178.66146851 246.64044189 C-175.73174827 251.3857634 -172.4427794 255.76861966 -169.00448608 260.14849854 C-165.2047886 265.01277577 -161.71538766 270.05010408 -158.26693726 275.16778564 C-156.74543452 277.31595556 -155.23395809 279.27772888 -153.53256226 281.26934814 C-151.61587561 283.59021253 -150.3186117 285.46841239 -149.03646851 288.14044189 C-146.33368995 293.21994954 -142.82901338 297.51651126 -139.24325562 301.98614502 C-136.20473717 305.78288517 -133.39579714 309.62903421 -130.75912476 313.71856689 C-128.59548317 316.99841477 -126.31973306 320.19312603 -124.03646851 323.39044189 C-123.61615356 323.98147705 -123.19583862 324.57251221 -122.76278687 325.18145752 C-122.35552368 325.75057861 -121.9482605 326.31969971 -121.52865601 326.90606689 C-121.16884644 327.40912354 -120.80903687 327.91218018 -120.43832397 328.43048096 C-120.01696167 328.99476807 -119.59559937 329.55905518 -119.16146851 330.14044189 C-118.69881466 330.98830859 -118.23616081 331.83617529 -117.75948715 332.70973492 C-113.70404754 336.50400536 -109.67930376 335.81606186 -104.3163147 335.74171448 C-103.1980872 335.7459866 -102.07985971 335.75025873 -100.92774653 335.75466031 C-97.16703493 335.76292009 -93.40742954 335.73535389 -89.64682007 335.70806885 C-86.95658345 335.70665902 -84.26641537 335.70722868 -81.57618713 335.71028137 C-75.77736126 335.71290413 -69.9788165 335.69720659 -64.18006134 335.66909218 C-55.7960677 335.62847006 -47.4122101 335.61543631 -39.02812871 335.60915222 C-25.4258511 335.59820698 -11.82372334 335.56492665 1.7784729 335.51763916 C14.99233246 335.47174945 28.20615132 335.43635469 41.42007446 335.4151001 C42.23447336 335.41378648 43.04887226 335.41247286 43.88794991 335.41111944 C47.97351857 335.40459429 52.05908752 335.39827574 56.14465666 335.39205992 C90.04272362 335.34021979 123.94060919 335.25214835 157.83853149 335.14044189 C157.69038819 333.72274198 157.53952874 332.30532575 157.38755798 330.88803101 C157.26199005 329.70400035 157.26199005 329.70400035 157.13388538 328.49604988 C156.69611507 325.0045934 155.93624823 321.61740166 155.13150024 318.19512939 C154.78838304 316.68862313 154.44528475 315.18211256 154.10220337 313.67559814 C153.57098308 311.37066685 153.03780576 309.06620157 152.50332642 306.76202393 C150.37367073 297.54722548 148.48351803 288.3411074 146.92446899 279.01153564 C144.85214269 266.67042746 142.10119091 254.51518356 139.27603149 242.32794189 C133.87213566 218.98924653 133.87213566 218.98924653 132.40493774 209.48028564 C130.47610486 197.03020289 127.54019828 184.77345826 124.78109741 172.48693848 C123.47113722 166.65146416 122.16916486 160.81421764 120.86978149 154.97637939 C120.59572479 153.74932785 120.32166809 152.52227631 120.03930664 151.25804138 C118.33813975 143.58341356 116.79377954 135.90829814 115.52261353 128.15093994 C113.71007894 120.17436466 108.94257255 114.21025342 102.40493774 109.46466064 C98.58545252 107.49387603 94.81057966 107.09161559 90.58071899 106.58575439 C85.71287133 105.79524922 82.90774147 103.57834497 80.02603149 99.70294189 C77.93978221 95.20103555 77.70447188 90.8903284 77.63320923 85.97320557 C77.61302734 84.73534302 77.59284546 83.49748047 77.572052 82.22210693 C77.55557617 80.93058716 77.53910034 79.63906738 77.52212524 78.30841064 C77.50347412 77.11429565 77.484823 75.92018066 77.46560669 74.68988037 C77.39738927 70.23597502 77.33718937 65.78194978 77.27603149 61.32794189 C77.13165649 51.36606689 76.98728149 41.40419189 76.83853149 31.14044189 C56.70853149 31.14044189 36.57853149 31.14044189 15.83853149 31.14044189 Z M-21.16146851 422.14044189 C-21.16146851 422.80044189 -21.16146851 423.46044189 -21.16146851 424.14044189 C-21.82146851 424.14044189 -22.48146851 424.14044189 -23.16146851 424.14044189 C-23.16146851 424.80044189 -23.16146851 425.46044189 -23.16146851 426.14044189 C-23.82146851 426.14044189 -24.48146851 426.14044189 -25.16146851 426.14044189 C-26.88733232 428.07080032 -26.88733232 428.07080032 -28.59896851 430.57794189 C-29.49422241 431.8135083 -29.49422241 431.8135083 -30.40756226 433.07403564 C-35.32927931 441.67881935 -35.58297566 449.80728533 -35.50204468 459.56451416 C-35.50119706 461.00424685 -35.50167618 462.44398083 -35.50337219 463.88371277 C-35.50422831 467.76746894 -35.48666532 471.6509437 -35.46565032 475.53463483 C-35.44681902 479.60251748 -35.44512802 483.67040751 -35.4415741 487.73832703 C-35.4322725 495.4304372 -35.40768444 503.12241854 -35.37752563 510.81447214 C-35.33763202 521.21655131 -35.32151149 531.61866605 -35.30401897 542.0208025 C-35.27586184 558.39411202 -35.21607986 574.76714974 -35.16146851 591.14044189 C-11.73146851 591.14044189 11.69853149 591.14044189 35.83853149 591.14044189 C35.89682509 566.50177641 35.89682509 566.50177641 35.93618774 541.86309814 C35.94804307 531.81180779 35.9619607 521.76055103 35.9894104 511.70928955 C36.00939456 504.38817295 36.02225983 497.06708368 36.02670848 489.74594057 C36.02930737 485.8723165 36.0353815 481.99877059 36.04999161 478.12517166 C36.06365508 474.47265919 36.06773658 470.8202564 36.06474686 467.16772079 C36.06555186 465.20154159 36.07626734 463.23537409 36.08737183 461.26922607 C36.05167503 445.79603797 32.84334906 435.77328188 22.17056274 424.37481689 C15.52179776 418.00447591 7.82737261 414.56897859 -1.48568726 414.74591064 C-8.25010251 415.74329158 -15.49141524 418.36040638 -21.16146851 422.14044189 Z " fill="#4BA346" transform="translate(542.1614685058594,30.85955810546875)"/>
<path d="M0 0 C0.6894873 0.17080078 1.37897461 0.34160156 2.08935547 0.51757812 C6.11045979 1.53456955 10.05877688 2.71014516 14 4 C14.88945312 4.28359375 15.77890625 4.5671875 16.6953125 4.859375 C22.5734464 6.85969519 28.18833243 9.38433195 33.8125 12 C34.88914917 12.49838379 34.88914917 12.49838379 35.98754883 13.00683594 C47.14990809 18.29981618 47.14990809 18.29981618 49 22 C50.0209375 22.37125 50.0209375 22.37125 51.0625 22.75 C54.57802491 24.24596804 57.23448039 26.31721315 60.23046875 28.66015625 C61.96624445 30.05953287 61.96624445 30.05953287 64 31 C64 31.66 64 32.32 64 33 C64.72759521 33.24008789 65.45519043 33.48017578 66.20483398 33.72753906 C69.40273533 35.18333973 71.24702703 36.87435975 73.72265625 39.359375 C74.59083984 40.22820312 75.45902344 41.09703125 76.35351562 41.9921875 C77.24748047 42.90226562 78.14144531 43.81234375 79.0625 44.75 C79.96033203 45.64460938 80.85816406 46.53921875 81.78320312 47.4609375 C86.03186717 51.74434898 89.85268998 55.82051079 93 61 C94.16477864 62.56492368 95.32973083 64.12972972 96.50048828 65.69018555 C109.61282738 83.37057869 119.397734 105.59583131 123.0625 127.25 C123.23587891 128.23613281 123.40925781 129.22226562 123.58789062 130.23828125 C127.26721889 151.63759275 126.80835354 172.65707166 123 194 C122.88253418 194.70479492 122.76506836 195.40958984 122.64404297 196.13574219 C120.17806749 210.93159503 114.88192822 223.89787125 107.98071289 237.0925293 C107.31376399 238.38973412 106.66508642 239.69646128 106.03295898 241.01098633 C103.79812836 245.65298664 101.23979817 249.79159451 98.1875 253.9375 C97.74591553 254.54376221 97.30433105 255.15002441 96.84936523 255.7746582 C95.96959735 256.97783484 95.08664474 258.17869065 94.20019531 259.37695312 C93.18473726 260.7501763 92.18089716 262.13197904 91.1796875 263.515625 C86.39139556 269.94627794 80.7305044 275.42163289 75 281 C74.19691406 281.825 73.39382813 282.65 72.56640625 283.5 C41.67303842 313.59399606 -1.11891174 327.3920689 -43.49291992 327.30493164 C-53.56462757 327.16343894 -63.1703092 326.16376841 -73 324 C-74.20398438 323.74476563 -75.40796875 323.48953125 -76.6484375 323.2265625 C-84.7372935 321.28023733 -92.50851105 318.48541201 -100.3125 315.625 C-101.31498779 315.26196777 -102.31747559 314.89893555 -103.3503418 314.52490234 C-110.05638433 312.00007872 -115.95359883 308.82211714 -122 305 C-123.16138503 304.34471638 -124.32690246 303.69657725 -125.5 303.0625 C-129.40209565 300.85776983 -133.01154255 298.25023167 -136.65625 295.6484375 C-138.41567814 294.41097304 -140.2279961 293.24816565 -142.0625 292.125 C-145.695662 289.49675515 -148.65636237 286.42830681 -151.77734375 283.21875 C-153.62054616 281.37878697 -155.46908551 279.74596192 -157.5 278.125 C-162.36433654 274.06012618 -166.10975595 268.97016569 -170 264 C-170.80195801 263.01845947 -170.80195801 263.01845947 -171.62011719 262.01708984 C-176.13618885 256.40375974 -179.76511196 250.54615082 -183.25 244.25 C-184.27570276 242.42168483 -185.30173375 240.59355375 -186.328125 238.765625 C-186.7705957 237.96930664 -187.21306641 237.17298828 -187.66894531 236.35253906 C-188.58184695 234.73905408 -189.53914754 233.1501296 -190.53222656 231.5847168 C-193.3630749 226.59965504 -194.77212509 221.0055911 -196.5 215.5625 C-196.89058594 214.36689453 -197.28117187 213.17128906 -197.68359375 211.93945312 C-210.50745256 171.89188058 -207.7622123 129.59735265 -191 91 C-187.55925833 84.35016444 -183.54064843 78.09592814 -179.30688477 71.92797852 C-178.26726864 70.3942874 -177.2949988 68.81499799 -176.34765625 67.22265625 C-174.26493234 63.78767102 -171.69991451 60.78725887 -169.1640625 57.6796875 C-167.7744035 55.95891842 -166.4121701 54.21542703 -165.0859375 52.4453125 C-160.83569212 46.83079083 -156.26477496 42.48998549 -150.72265625 38.15234375 C-148.21324647 36.16857791 -145.85575811 34.09940324 -143.5 31.9375 C-135.5224526 24.82124533 -127.2295732 19.28598465 -117.5625 14.71484375 C-115.30088122 13.62619173 -113.06615374 12.4782134 -110.875 11.25390625 C-99.60722689 5.05386933 -87.44064251 1.99187255 -75 -1 C-74.19498047 -1.1964209 -73.38996094 -1.3928418 -72.56054688 -1.59521484 C-49.55110489 -6.92903624 -22.76635567 -5.77273682 0 0 Z M-105 44 C-106.32947004 44.67433793 -107.6607091 45.345384 -109 46 C-109 46.66 -109 47.32 -109 48 C-109.55429688 48.0928125 -110.10859375 48.185625 -110.6796875 48.28125 C-119.52082868 51.01991999 -127.41013353 59.76316209 -134 66 C-134.7734375 66.72058594 -135.546875 67.44117188 -136.34375 68.18359375 C-142.01262239 73.62920576 -146.61239148 79.48850927 -151 86 C-151.64710938 86.92941406 -152.29421875 87.85882812 -152.9609375 88.81640625 C-162.24088413 102.88304472 -168.58567392 119.53200738 -172 136 C-172.22300781 137.07378906 -172.44601563 138.14757812 -172.67578125 139.25390625 C-177.0510401 164.46373106 -172.79621553 188.34278318 -164 212 C-163.55269531 213.21300781 -163.10539062 214.42601562 -162.64453125 215.67578125 C-160.14263735 222.04791879 -156.99646966 227.46189462 -153 233 C-152.46503906 233.78890625 -151.93007812 234.5778125 -151.37890625 235.390625 C-145.47739189 244.05890014 -139.3427453 252.55333318 -131 259 C-129.824375 260.2065625 -129.824375 260.2065625 -128.625 261.4375 C-125.31866717 264.66511062 -121.74591164 267.30660454 -118 270 C-117.18917969 270.59296875 -116.37835938 271.1859375 -115.54296875 271.796875 C-114.70378906 272.40015625 -113.86460937 273.0034375 -113 273.625 C-111.8553125 274.44871094 -111.8553125 274.44871094 -110.6875 275.2890625 C-80.69292678 294.38444487 -43.99775116 300.05350949 -9.56787109 292.46386719 C0.37161115 289.99339703 9.71549965 286.30375277 19 282 C19.721875 281.68546875 20.44375 281.3709375 21.1875 281.046875 C27.98215394 277.93265861 33.96010883 273.35326058 40 269 C40.58023926 268.58427734 41.16047852 268.16855469 41.75830078 267.74023438 C43.44979986 266.52330133 45.13273073 265.29555973 46.8125 264.0625 C47.80894531 263.33160156 48.80539062 262.60070312 49.83203125 261.84765625 C50.54746094 261.23792969 51.26289063 260.62820313 52 260 C52 259.34 52 258.68 52 258 C52.99 257.67 53.98 257.34 55 257 C55 256.34 55 255.68 55 255 C55.66 255 56.32 255 57 255 C58.70682481 253.35126195 58.70682481 253.35126195 60.4375 251.25 C61.03433594 250.55390625 61.63117188 249.8578125 62.24609375 249.140625 C65.67274701 245.50075188 65.67274701 245.50075188 67 241 C67.66 241 68.32 241 69 241 C72.96104596 236.1587216 75.66448253 230.9336058 78.38671875 225.3203125 C79.51093149 223.00655747 80.65248763 220.71455071 81.83203125 218.4296875 C82.29536865 217.52585327 82.29536865 217.52585327 82.76806641 216.60375977 C83.63858361 214.90779993 84.51254926 213.21361143 85.38671875 211.51953125 C99.10520745 181.59130287 97.44691783 143.30286808 86.57421875 112.79296875 C83.42770575 104.75187997 79.0247264 97.36922055 74.5625 90 C74.03720703 89.12722412 73.51191406 88.25444824 72.97070312 87.35522461 C69.75476835 82.21811407 66.2819675 77.95785582 61.8671875 73.80126953 C59.92004272 71.92286548 58.17930888 69.94372031 56.4375 67.875 C53.29570688 64.22879055 49.96478554 60.76175035 46 58 C45.34 58 44.68 58 44 58 C43.73622559 57.39115967 43.47245117 56.78231934 43.20068359 56.1550293 C41.21742518 52.59540708 38.00325545 50.96191883 34.625 48.8125 C33.88056641 48.33562744 33.13613281 47.85875488 32.36914062 47.36743164 C26.60726877 43.78294209 20.67769695 40.7380947 14.5 37.9375 C13.28304443 37.38316284 13.28304443 37.38316284 12.04150391 36.81762695 C6.76784189 34.5176194 1.63043045 33.11507801 -4 32 C-5.89784545 31.50769249 -7.79396342 31.0086288 -9.6875 30.5 C-42.08760635 22.46118268 -75.92290631 28.0021938 -105 44 Z " fill="#4BA346" transform="translate(271,442)"/>
<path d="M0 0 C3.87850945 2.67801843 6.13291589 5.33624767 7.625 9.8125 C7.70606686 11.36671729 7.73256898 12.92417027 7.72265625 14.48046875 C7.71782227 15.81948242 7.71782227 15.81948242 7.71289062 17.18554688 C7.70032227 18.57870117 7.70032227 18.57870117 7.6875 20 C7.68298828 20.94037109 7.67847656 21.88074219 7.67382812 22.84960938 C7.66204626 25.17063712 7.64559558 27.49153644 7.625 29.8125 C8.30820313 29.90402344 8.99140625 29.99554687 9.6953125 30.08984375 C23.67691228 33.53863836 32.00293127 43.83795885 39.2421875 55.4921875 C41.72478312 59.65789879 42.1106954 63.00051778 41.625 67.8125 C39.76731853 73.07593082 37.05708258 75.64672673 32.625 78.8125 C28.04736905 80.73215169 22.9784193 80.34325266 18.4375 78.5625 C14.35422008 76.02179249 11.94198944 73.51608988 9.6875 69.3125 C7.28759535 64.95158376 4.41976854 62.62830388 -0.125 60.5625 C-7.24229865 58.92004646 -12.8408229 59.29409695 -19.375 62.8125 C-23.66950053 65.74056855 -26.21367375 68.75082171 -28.0625 73.625 C-28.99661603 80.16381218 -28.16758518 85.53845186 -26.375 91.8125 C-25.715 91.8125 -25.055 91.8125 -24.375 91.8125 C-23.25077513 93.29005269 -22.12977186 94.77195036 -21.08203125 96.3046875 C-16.73332405 100.14587967 -10.15376956 100.15210532 -4.625 100.6875 C8.73026963 102.19639604 20.822841 107.39896566 30.625 116.8125 C32.29643304 118.94244417 33.8240941 121.00557841 35.3125 123.25 C35.68955078 123.79720703 36.06660156 124.34441406 36.45507812 124.90820312 C45.52174376 138.27876589 46.46281388 154.1684433 43.50390625 169.83203125 C40.71777807 179.28010149 34.76330872 186.30404205 27.625 192.8125 C26.87089844 193.63234375 26.11679687 194.4521875 25.33984375 195.296875 C22.21053336 198.19655254 19.14426746 199.83736801 15.3125 201.625 C14.34473633 202.09196289 14.34473633 202.09196289 13.35742188 202.56835938 C11.78440656 203.32573712 10.20530874 204.07046058 8.625 204.8125 C8.6156543 205.38693848 8.60630859 205.96137695 8.59667969 206.55322266 C8.54264969 209.18215304 8.45907106 211.80936567 8.375 214.4375 C8.36082031 215.34113281 8.34664063 216.24476563 8.33203125 217.17578125 C8.12455294 222.86068696 7.43207614 226.31578714 3.625 230.8125 C-0.82746368 234.83057698 -4.1687629 236.21226994 -10.25 236.078125 C-14.74393169 235.51638354 -17.86068689 233.73521876 -20.6640625 230.17578125 C-24.81337233 222.57866361 -24.19310643 213.24326703 -24.375 204.8125 C-24.96925781 204.62816406 -25.56351563 204.44382812 -26.17578125 204.25390625 C-37.5219613 200.28362552 -47.57196631 191.74794697 -53.8125 181.4375 C-55.01876301 175.8082726 -55.42462572 170.12395299 -52.75 164.875 C-49.50023432 160.68451268 -47.07902548 159.21831087 -41.82421875 158.4296875 C-35.5975171 158.03352114 -31.88178055 158.96662673 -27.1328125 163.0234375 C-25.42072839 164.76595866 -23.93725934 166.57407954 -22.4375 168.5 C-19.11243202 172.55298826 -15.49845383 173.99817621 -10.375 174.8125 C-3.6090839 175.18071312 1.40581802 173.02799314 6.625 168.8125 C11.78851742 163.38418682 11.86389024 158.73144026 11.77734375 151.5 C11.45438828 145.80273427 9.64703662 141.83453662 5.625 137.8125 C0.41897792 134.23973975 -4.2332121 133.46324816 -10.4375 132.875 C-24.28029822 131.51391024 -35.21360966 127.73875073 -45.375 117.8125 C-46.04144531 117.18472656 -46.70789063 116.55695313 -47.39453125 115.91015625 C-56.67889266 106.3426117 -60.7855472 93.01699684 -60.6875 79.9375 C-60.68186035 79.14520996 -60.6762207 78.35291992 -60.67041016 77.53662109 C-60.4293845 65.90295713 -56.05349248 53.02105473 -48.0390625 44.30859375 C-31.91546997 29.8125 -31.91546997 29.8125 -23.375 29.8125 C-23.42140625 28.53375 -23.4678125 27.255 -23.515625 25.9375 C-23.55317027 24.22919021 -23.58956745 22.52085492 -23.625 20.8125 C-23.67527344 19.55373047 -23.67527344 19.55373047 -23.7265625 18.26953125 C-23.81967997 12.26345423 -22.7939482 7.81525848 -19.375 2.8125 C-13.75139919 -2.54331029 -7.0356986 -2.47552358 0 0 Z " fill="#4BA346" transform="translate(239.375,486.1875)"/>
</svg>
